<?xml version="1.0" encoding="utf-8"?>
<!-- Generator: Adobe Illustrator 23.0.0, SVG Export Plug-In . SVG Version: 6.00 Build 0)  -->
<svg version="1.1" id="Слой_1" xmlns="http://www.w3.org/2000/svg" xmlns:xlink="http://www.w3.org/1999/xlink" x="0px" y="0px"
	 viewBox="0 0 3000 2000" style="enable-background:new 0 0 3000 2000;" xml:space="preserve">
<style type="text/css">
	.st0{fill:#FFFFFF;}
	.st1{fill:#EBF3FA;}
	.st2{fill:#D5E5FB;}
	.st3{fill:#B7D3F3;}
	.st4{fill:#D2E3FC;}
	.st5{fill:#C5DCF8;}
	.st6{fill:#FFB27D;}
	.st7{fill:#1C468A;}
	.st8{fill:#163560;}
	.st9{fill:#B5453C;}
	.st10{fill:#ED975D;}
	.st11{fill:#ED7D2B;}
	.st12{fill:#F99746;}
	.st13{fill:#F9DDBF;}
	.st14{fill:#ED893E;}
	.st15{fill:#95C0F4;}
	.st16{fill:#78ACEA;}
	.st17{fill:#2E3552;}
	.st18{fill:#AEC3FF;}
	.st19{fill:#A02E2E;}
	.st20{fill:#BC3F3F;}
	.st21{fill:#9DB0F4;}
	.st22{fill:#233862;}
	.st23{fill:#2B478B;}
	.st24{fill:#E2915A;}
	.st25{fill:#2A4E96;}
	.st26{fill:#DCEAFF;}
	.st27{fill:#ED985F;}
	.st28{fill:#2C3A64;}
</style>
<rect x="0" class="st0" width="3000" height="2000"/>
<g>
	<g>
		<path class="st1" d="M471.5,1718.8c0,0-361.5-384.2-108-742.6c94.6-133.7,336.1-208.8,558-147.9c131.1,36,330,30.7,524.3-286.5
			c265-432.5,1364.9-235.9,1150.2,522c-90.4,319.2,246.6,333.8,79.7,655.7L471.5,1718.8z"/>
		<g>
			<g>
				<path class="st2" d="M2428.6,949.2l-787.4,658.8L1226.9,1255c-77.5,68.3-197.3,173.7-317.8,279.4
					c-82.3,72.3-149,130.7-203,177.9l-376.3-0.4c104.3-88.8,524.5-458.1,807.6-707.6l86.5-76.3l418.8,356.8l614.7-514.3
					L2428.6,949.2z"/>
			</g>
			<polygon class="st2" points="2157.8,689.6 2532.8,1065.7 2638.7,636 			"/>
		</g>
		<g>
			<g>
				<g>
					<path class="st3" d="M928.4,1482.2c-1.4-34.4-4.4-64.4-8-85.3c-5.8-33.3-10.9-52.5-11-52.7c-0.8-2.9-11.7-14.8-36.1-14.4
						c-24.4,0.4-22.1,15.9-22.1,15.9l0,0c0,0.5,0.1,1,0.2,1.4c0.2,0.8,22.6,81.9,21.6,186.7c0,1.5-0.2,4-0.1,5.7
						c0,0,56.5,1.5,56.5,0C931.4,1530.3,930.4,1504.9,928.4,1482.2z"/>
					<path class="st4" d="M935.5,1533.2c0,1.5-0.8,2.6-1.7,2.6h0c-0.9,0-1.7-1.2-1.7-2.6h-48.4c0,1.5-0.8,2.6-1.7,2.6h0
						c-1,0-1.7-1.2-1.7-2.7c0.3-30-1.4-58-4-82.7c-6.4-61.6-18.3-102.8-18.5-103.4c-0.1-0.4-0.2-0.9-0.2-1.4c0,0-2.3-15.5,22.1-15.9
						c24.4-0.4,35.3,11.5,36.1,14.4c0,0.2,3,11,6.9,30.5c1.3,6.5,2.7,13.9,4.1,22.2c3.6,20.9,6.6,50.9,8,85.3
						C936.7,1504.9,937.4,1524.1,935.5,1533.2z"/>
					<path class="st5" d="M876.6,1535.8h189.8c0,0-4.4-17.9-114.3-15.2C874.3,1522.5,876.6,1535.8,876.6,1535.8z"/>
					<g>
						<path class="st3" d="M861.1,1722.6c22-111.4,16.3-179.7,16.3-180.6c-0.1-1.7,3.1-3.3,4.8-3.3c1.7,0,9.3-0.5,10.2,1
							c1.2,1.9,5.6,86.1-27.2,183H861.1z"/>
					</g>
					<g>
						<path class="st3" d="M1038.3,1722.6c-22-111.4-16.3-179.7-16.3-180.6c0.1-1.7-3.1-3.3-4.8-3.3c-1.7,0-9.3-0.5-10.2,1
							c-1.2,1.9-5.6,86.1,27.2,183H1038.3z"/>
					</g>
					<g>
						<path class="st3" d="M1073.4,1722.6c-22-111.4-16.3-179.7-16.3-180.6c0.1-1.7-3.1-3.3-4.8-3.3c-1.7,0-9.3-0.5-10.2,1
							c-1.2,1.9-5.6,86.1,27.2,183H1073.4z"/>
					</g>
					<g>
						<path class="st3" d="M896.5,1722.6c22-111.4,16.3-179.7,16.3-180.6c-0.1-1.7,3.1-3.3,4.8-3.3c1.7,0,9.3-0.5,10.2,1
							c1.2,1.9,5.6,86.1-27.2,183H896.5z"/>
					</g>
					<path class="st3" d="M1066.5,1541.5H876.7c-2.1,0-3.9-1.7-3.9-3.9v-2.6c0-2.1,1.7-3.9,3.9-3.9h189.8c2.1,0,3.9,1.7,3.9,3.9v2.6
						C1070.3,1539.8,1068.6,1541.5,1066.5,1541.5z"/>
					<g>
						<path class="st6" d="M1059.8,1370.2l63.1-13.7l3.7,9.1c0,0-69.6,41.4-76.1,39.4C1043.9,1402.9,1059.8,1370.2,1059.8,1370.2z"
							/>
						<path class="st6" d="M1002.4,1655.5c-1.6,1.8-1.8,3.8-1,6c0,0,0,0,0,0c1.4,4,6.2,8.5,11.8,12.9c0.7,0.6,1.3,1.1,1.9,1.6
							c0.1,0.1,0.3,0.3,0.4,0.4c0.1,0.1,0.2,0.2,0.3,0.3c5.2,4.8,3.2,5.9,12.5,15.5c10.6,11,17.9,11.2,20,10.2
							c1.8-0.9-1.8-6.7-5.8-13.3c-0.2-0.3-0.4-0.6-0.6-1c-0.5-0.9-1-1.8-1.6-2.6c-4.6-7.9-3.4-11.6-2.3-23.4
							c0.9-9.6,14.9-53.5,14.9-53.5l-20.3-3.5c0,0-6.1,34.9-12.9,40.3c-3.6,2.9-7.6,2.9-11.1,5c-0.2,0.1-0.5,0.3-0.7,0.5
							C1006,1652.3,1004,1653.6,1002.4,1655.5z"/>
						<path class="st7" d="M1002.4,1655.5c-1.6,1.8-1.8,3.8-1,6c0,0,0,0,0,0c1.8,4,6.4,8.4,11.8,12.9c0.7,0.6,1.3,1.1,1.9,1.6
							c0.1,0.1,0.3,0.3,0.4,0.4c0.1,0.1,0.2,0.2,0.3,0.3c5.2,4.8,3.2,5.9,12.5,15.5c10.6,11,17.9,11.2,20,10.2
							c1.8-0.9-1.8-6.7-5.8-13.3c-2.1-0.8-11.6-4.6-18.9-13.9c-6.4-8.1-10.6-18.6-15-24.7c-0.2,0.1-0.5,0.3-0.7,0.5
							C1006,1652.3,1004,1653.6,1002.4,1655.5z"/>
						<path class="st6" d="M1166.2,1642.8c1.3,6.3,10.2,5.2,20.2,2.8c10-2.4,7.6,0.5,21.8-1.1c14.2-1.6,18.5-6.9,18.9-9
							c0.4-1.9-6.6-2.5-14.2-3.4c-0.9-0.1-1.9-0.2-2.9-0.3c-8.5-1.1-14.7-6.6-22.5-11.1c-7.3-4.3-18.2-21.7-18.2-21.7l-19.5,1.5
							c0,0,10.2,15.5,14.2,22.3c2.3,4,2.2,9.2,1.9,13.3C1165.9,1638.3,1165.8,1640.6,1166.2,1642.8z"/>
						<path class="st7" d="M1186.4,1645.6c10-2.4,7.6,0.5,21.8-1.1c14.2-1.6,18.5-6.9,18.9-9c0.4-1.9-6.6-2.5-14.2-3.4l-0.1,0.1
							c0,0-8.5,6-20.4,6.3c-9.6,0.2-19.9-2.5-26.5-2.4c-0.2,2.2-0.3,4.5,0.2,6.7C1167.5,1649,1176.4,1648,1186.4,1645.6z"/>
						<path class="st6" d="M1122.9,1356.5c0,0,4.6-11.4,9.8-11.8s21.4-3,22.5-0.7c1.2,2.3,0,10.7-3.5,13.7c-3.5,3-25.1,7.9-25.1,7.9
							L1122.9,1356.5z"/>
						<path class="st8" d="M1091.5,1518.1l-42,113c0,0-6.5,0.6-12.6-1.2c-5.7-1.6-12.2-5.9-12.2-5.9s10.4-108.5,29.5-131.1
							C1073.3,1470.4,1091.5,1518.1,1091.5,1518.1z"/>
						<path class="st7" d="M925.4,1472.4c0,0,120.7-40.8,147.6-32.1c26.9,8.7,107.7,169.5,107.7,169.5s-1.8,2.4-6.8,4.3
							c-4.6,1.7-15.8,1.6-15.8,1.6s-72.9-62.5-81.6-80.8c-8.7-18.2-12.2-35.6-20.8-33.9c-8.7,1.7-112,42.5-135.5,18.2
							c-23.4-24.3-17.3-55.9-17.3-55.9L925.4,1472.4z"/>
						<path class="st9" d="M994.2,1184.7c-5.2-3-11.5-3.3-15.8-3c1.1-1.2,3.3-1.6,3.3-1.6c-2.7-0.4-8.8,2.3-8.8,2.3
							c-37.7-14.5-43.6,41-42.9,53.9c0.8,12.9,0.9,27.8-17.9,39.3c-37,22.8-5.8,62.5-5.8,62.5c0.3,0.2,17.2,28.9,17.2,28.9
							c-1-10.4,47.2-65.5,72.3-81.9c6.1-9,8.3-24.9,8.4-26.1c-1.1,12.6-3.2,19.7-5.1,23.6C1020.4,1263,1008,1192.5,994.2,1184.7z"/>
						<path class="st6" d="M994.4,1285.9c0.1,0.1-12.1,6.4-21.3,3.9c-8.7-2.4-14.3-13.6-14.2-13.6c3.7-0.7,4.7-5.8,4.6-27.4l1.7,0.3
							l27.9,5.5c0,0-0.6,8.8-0.7,17C992.4,1278.6,992.8,1285.1,994.4,1285.9z"/>
						<path class="st10" d="M993,1254.6c0,0-0.6,8.8-0.7,17c-15.6-0.4-23.9-14.7-27.2-22.6L993,1254.6z"/>
						<path class="st9" d="M962.3,1246c0,0-8.2-12.9-10.1-24c-1.4-7.9,2.6-37.1,32-32.9c0,0,8.5,0.8,16.6,6.3
							c6.4,4.3,15.6,13.6,5.3,39.1l-2.7,8.6L962.3,1246z"/>
						<path class="st6" d="M998.2,1262.4c0,0-36.9,0.6-36.9-22.4c0-23-4.8-38.4,18.8-39.8c23.6-1.4,28.2,7.4,30,15.1
							C1012,1223,1007.8,1261.6,998.2,1262.4z"/>
						<path class="st9" d="M996.9,1199.7c0,0-10.1,27-25.6,31c-15.5,4-22.2-0.2-22.2-0.2s11.9-9.5,14.4-26
							C963.4,1204.5,989.3,1186.8,996.9,1199.7z"/>
						<path class="st9" d="M994.4,1201.9c0,0,7.5,6,9.4,11.9c1.8,5.9,2.7,17.9,6.2,17.5c0,0,7.6-18.3-0.9-28.7
							C999.9,1191.5,994.4,1201.9,994.4,1201.9z"/>
						<path class="st7" d="M912.1,1385.2c-3.6-15.3,8.7-44.9,21.7-69.4c11.7-22.2,23.9-40.3,25-39.6c30.9,18.4,33.7,3.1,33.7,3.1
							l0,0c0,0,28.1,3.7,36.1,17.4c9.9,17,20.5,64.5,31.1,73.5c-1.6,5-0.9,7.6,0.8,13.8c0.4,1.3,0.8,2.6,1.2,3.8
							c1.6,4.3,3.6,7.9,5.3,10.9c-5.4,3.3-15.8,9.5-23.4,5c-11.7-6.8-20.8-27.7-25.9-35.9c0,0,0-0.1-0.1-0.1
							c-11.1,63.1,4,77.5-3.7,84.1c-8.1,7-19.7-3.3-45.2,7.7c-16.7,7.2-39.9,17.7-55.5,19.5c-8.2,1-14.3-0.5-16.3-6
							C891.3,1457,919.1,1414.3,912.1,1385.2z"/>
						<path class="st0" d="M990,1248.5c0,0,0.7,2.9,8,2.5c0,0,6.1-0.4,5.9-3.6C1003.9,1247.3,998,1245,990,1248.5z"/>
						<path class="st8" d="M897.1,1473.1c2,5.5,8.1,7,16.3,6c10.8-4.7,57.5-22.8,56.9-35c-0.8-18.1-9-18.7-3.2-41.1
							c4.6-18-38.5-51.4-45.3-58.7c-12.9,24.5-13.3,25.7-9.6,41C919.1,1414.3,891.3,1457,897.1,1473.1z"/>
						<path class="st7" d="M891.8,1407.6c8.3-11.6,16.9-17.8,22.6-20.9c-1.3-3.4,34.8-47.6,34.8-54.5c0-6.9,9.6-56.1,9.6-56.1
							s-30.1,1.9-40.5,16.4C905.3,1310.7,878.2,1380.6,891.8,1407.6z"/>
						<path class="st6" d="M914.4,1386.8l60.1,15.7l-5.6,10.1c0,0-73.2-0.5-77.1-5C887.9,1403.2,914.4,1386.8,914.4,1386.8z"/>
						<path class="st8" d="M1017.8,1367.8c5.1,8.3,14.2,29.1,25.9,35.9c7.7,4.5,18.1-1.7,23.4-5c-1.7-3.1-3.7-6.6-5.3-10.9
							c-4.3,1-9.5,2.2-12.9,3.3C1042.3,1393,1017.8,1367.8,1017.8,1367.8z"/>
						<path class="st6" d="M974.5,1402.5c0,0,18.9-5.3,23.4-4.1c4.5,1.3,19.9,11.5,17.7,14.2c-2.2,2.8-15.7-1.7-22-0.8
							c-6.2,0.8-11.1,3.9-15.6,3.3c-4.5-0.7-9.2-2.4-9.2-2.4L974.5,1402.5z"/>
						<path class="st6" d="M974.5,1402.5c0,0,9.2-4.7,11.9-7.4c0.3-0.3,0.9-0.3,1.1,0.1c0.7,1.1,1.4,3.3-1.9,5.4
							C981,1403.6,974.5,1402.5,974.5,1402.5z"/>
					</g>
				</g>
				<g>
					<path class="st11" d="M1061.8,1429h-88.1l0,0c0-3.9,3.1-7,7-7h81.1V1429z"/>
					<polygon class="st11" points="1061.5,1333.1 1197.8,1333.1 1165.1,1429 1028,1429 					"/>
					<polygon class="st12" points="1199.8,1333.1 1167.1,1429 1030,1429 1063.5,1333.1 					"/>
					<path class="st13" d="M1126.3,1380.2c-0.8,3.7-4.5,6.6-8.2,6.6s-6-3-5.1-6.6c0.8-3.7,4.5-6.6,8.2-6.6
						S1127.2,1376.5,1126.3,1380.2z"/>
					<path class="st14" d="M1199.8,1333.1l-32.7,95.9h-90.8c60.1-20.5,76.1-83.1,78.8-95.9H1199.8z"/>
				</g>
			</g>
			<g>
				<g>
					<g>
						<path class="st15" d="M804.3,1722.6c1.7,0,3.2-1.2,3.5-2.9l17.1-97l24.6-139.5l6.9-39l-17.5-0.5l-3,22.6l-21.4,159.1
							l-12.7,94.3C801.6,1721.3,802.8,1722.6,804.3,1722.6z"/>
					</g>
					<path class="st16" d="M835.8,1466.5c11.4,5,13.7,16.9,13.7,16.9l6.9-39l-17.5-0.5L835.8,1466.5z"/>
				</g>
				<g>
					<g>
						<path class="st15" d="M1240.3,1722.6c-1.7,0-3.2-1.2-3.5-2.9l-17.1-97l-24.6-139.5l-6.9-39l17.5-0.5l3,22.6l21.4,159.1
							l12.7,94.3C1242.9,1721.3,1241.8,1722.6,1240.3,1722.6z"/>
					</g>
					<path class="st16" d="M1208.7,1466.5c-11.4,5-13.7,16.9-13.7,16.9l-6.9-39l17.5-0.5L1208.7,1466.5z"/>
				</g>
				<path class="st16" d="M792.6,1459.6h448.8c5.9,0,10.7-4.8,10.7-10.7v-9.2c0-5.9-4.8-10.7-10.7-10.7H792.6
					c-5.9,0-10.7,4.8-10.7,10.7v9.2C781.9,1454.8,786.7,1459.6,792.6,1459.6z"/>
			</g>
		</g>
		<path class="st17" d="M2807.7,1721.7H168.9c-1.6,0-3-1.3-3-3v-1c0-1.6,1.3-3,3-3h2638.9c1.6,0,3,1.3,3,3v1
			C2810.7,1720.4,2809.4,1721.7,2807.7,1721.7z"/>
		<g>
			<path class="st6" d="M1907.5,1412.7c0,0-11.6,14.4-8,16.4c3.6,2,13.3,5.7,15.5,3.3s3-19.3,3-19.3L1907.5,1412.7z"/>
			<path class="st6" d="M1907.9,1412.9c0,0-4.8,1.7-6.6,4.1s-6,6.3-5,7.3s7-3.6,7-3.6L1907.9,1412.9z"/>
			<path class="st18" d="M1951.5,1219.9c0,0-13.1,122.2-14.3,125.6c-0.3,0.8-1.3,4.6-2.7,10.2c-2.1,7.9-5,19.4-7.8,30.2
				c-4.2,16.4-8,31.5-8,31.5l-11.4-3.8c0,0-0.6-59.4,2.3-73c2.9-13.7,12.3-97.7,17-109C1931.4,1220.4,1951.5,1219.9,1951.5,1219.9z"
				/>
			<g>
				<path class="st19" d="M1924.2,1512.8l-71.6-18.8c-9.3-2.4-14.9-12.1-12.5-21.4l8.1-31c2.4-9.3,12.1-14.9,21.4-12.5l71.6,18.8
					c9.3,2.4,14.9,12.1,12.5,21.4l-8.1,31C1943.1,1509.7,1933.5,1515.3,1924.2,1512.8z"/>
				<path class="st20" d="M1857.7,1444.1l-8.2,31.4c-1.6,6.1,0.2,12.3,4.3,16.5c1.3,1.4,2.9,2.6,4.7,3.5c0,0,0,0,0,0l0,0
					c1.1,0.6,2.3,1,3.6,1.4l71.4,18.7c9.3,2.5,19-3.2,21.5-12.5l8.2-31.4c2.4-9.4-3.2-19-12.5-21.5l-24.6-6.5l1.8-6.7
					c0.8-3.1-1-6.3-4.1-7.1l-2.7-0.7l-15-3.9l-3.7-1c-1.5-0.4-3.1-0.2-4.4,0.6c-1.3,0.8-2.3,2-2.7,3.5l-1.8,6.7l-14.3-3.7
					c-0.6-0.1-1.1-0.3-1.7-0.4c0,0,0,0,0,0l0,0c-5.7-0.9-11.4,1.1-15.3,5.1l0,0C1860.1,1438.4,1858.5,1441.1,1857.7,1444.1z
					 M1922.5,1442.9l-25.6-6.7l1.8-6.7c0.3-1.2,1.5-1.8,2.6-1.5l6.4,1.7l11.8,3.1l3.2,0.8c0.2,0.1,0.4,0.1,0.6,0.3
					c0.8,0.5,1.2,1.4,0.9,2.4L1922.5,1442.9z"/>
			</g>
			<path class="st6" d="M1914.3,1432.8c0,0,3.2-5.4,2-7.2c-1.2-1.9-5.5,5.5-5.5,5.5s2.9-6.4,1.8-7.4s-5.6,6.3-5.6,6.3
				s2.8-6.2,1.8-6.4c-1-0.2-4.3,5.2-4.3,5.2s1.7-4.6,0.2-4.4c-1.6,0.2-5,4.4-5,4.4L1914.3,1432.8z"/>
			<path class="st21" d="M1934.5,1355.7c-2.1,7.9-5,19.4-7.8,30.2c-1.8-5-4.1-13-5.5-24c-2.6-20.2,5.5-63.3,5.5-63.3L1934.5,1355.7z
				"/>
			<path class="st6" d="M2084.6,1407.7c0,0,12.7,10.3,14.3,13.5c1.6,3.2,5.5,15.1,5.3,19c-0.2,3.8-9.7-8.8-12.5-9.8s2.9,5.2,2.3,6.5
				c-0.6,1.3-6.6-3-8.9-4.4c-2.3-1.4-3.9-11.1-7.3-16.3C2074.4,1410.9,2084.6,1407.7,2084.6,1407.7z"/>
			<path class="st22" d="M1918.1,1716.3h63.3c4.5-3.1-1.2-33.1-1.2-33.1s-17.3-6.6-20.2,6.8c-3,13.3-22,17.5-32,19.2
				C1920.9,1710.3,1918.8,1714,1918.1,1716.3z"/>
			<path class="st22" d="M2011.9,1716.3h63.3c4.5-3.1-1.2-33.1-1.2-33.1s-17.3-6.6-20.2,6.8c-3,13.3-22,17.5-32,19.2
				C2014.8,1710.3,2012.6,1714,2011.9,1716.3z"/>
			<path class="st23" d="M1935.1,1409.7c0,0,2.8,35.5,6.2,78.1c4.5,57.9,16.8,201.6,16.8,201.6s8,6.9,25.8,3.1
				c0,0,15.1-49.6,19.7-106.1c0.1-0.9,0.1-1.9,0.2-2.8c4.2-57.6,10.8-178.8,10.8-178.8L1935.1,1409.7z"/>
			<path class="st22" d="M1934.1,1397.5c0,0,3.8,47.7,7.2,90.4l62.3,98.6c0.1-0.9,0.1-1.9,0.2-2.8c4.2-57.6,10.8-178.8,10.8-178.8
				L1934.1,1397.5z"/>
			<path class="st23" d="M1952.3,1397.5c0,0,45.2,112.5,59.6,155.1c10.3,30.4,39.3,136.9,39.3,136.9s12.6,3.8,23.2-3.6
				c0,0,10.8-108.8-11-139.5c-11.6-16.3-2.9-169.2-49.8-170.5C1966.7,1374.5,1952.3,1397.5,1952.3,1397.5z"/>
			<path class="st18" d="M2038.4,1407.7c-18.8,10.6-99.5,10.4-103.3,2c-8.4-18.6-10.4-113.3-6.5-142.3c0,0,2-44.6,6.5-42.7
				c29.8-13.7,78.1-1.3,78.1-1.3c13,3.8,11.9,33.6,15.5,75.3c0.5,5.4,1,11,1.6,16.8c2.6,25.8,6.3,55.4,12,86.6
				C2042.6,1404.3,2041.2,1406.1,2038.4,1407.7z"/>
			<path class="st6" d="M1990.9,1218.5c-0.5,8-10.9,7.1-23.4,4.2c-12.5-2.8-8-10.2-8-10.2s0.2-5.7,1-12.5c0.3-2.5,0.7-5.1,1.1-7.6
				c0.2-1.2,0.5-2.5,0.7-3.7c1.6-7,25-0.2,24.8,1.6C1986.7,1195.4,1990.4,1212.2,1990.9,1218.5z"/>
			<polygon class="st22" points="1964,1232.4 1963.1,1221.4 1976.9,1224 1971.6,1233.8 			"/>
			<path class="st21" d="M1959.8,1207.3l-8.3,12.6c0,0,0,7.7,7.2,13.4l11.3-10.5C1970,1222.7,1962.7,1219.9,1959.8,1207.3z"/>
			<path class="st21" d="M1970,1222.7c0,0,2.3,8.4,6.9,12.3c0,0,17.7-4.8,21.9-13.8l-9.2-11.9
				C1989.5,1209.3,1989.1,1218.3,1970,1222.7z"/>
			<path class="st24" d="M1987.3,1194.3c0,0-11.3,7.5-26.8,5.7c0.3-2.5,0.7-5.1,1.1-7.6c3.1-0.7,5.7-1.2,5.7-1.2L1987.3,1194.3z"/>
			<path class="st6" d="M1994.4,1185.8c-5.5,15.1-25.6,11.3-34.1,8.8c-2.4-0.7-3.9-1.2-3.9-1.2c-2.6-1.2-3.5-5.8-3.2-11.6
				c0.5-11.5,5-27.8,7.6-31.7c3.9-5.9,10.5-11.9,29.9-3.5C2010.2,1154.9,2001.5,1166.4,1994.4,1185.8z"/>
			<path class="st22" d="M2009.5,1178c-6.1,5-19.3,14.3-19.3,14.3s1.5-1.7,3.3-6.7c0.2-0.6,0.3-1.4,0.2-2.3c-0.1-2.5,0.5-4.9,1.8-7
				c0.8-1.3,1.1-2.7,0.1-3.6c-1.7-1.6-4.5-0.1-6.4,1.1c-1.2,0.8-2.8,0.9-4.1,0.1c0,0,0,0,0,0c-5.2-3.3,0.5-9.1-3.7-13.9
				c-4.3-4.8-22.7-5.5-22-8.5c-6.3-3.6-2.3-16.7-2.2-17.4c0,0,9,0.8,20.3-2c9.2-2.3,19.3,3.6,22.5,6c0-0.6-0.1-1.4-0.5-2.2
				c0,0,1.4,1.4,1.4,3c0.1,0.1,0.2,0.2,0.2,0.3c0,0,1.8,0,2.9,0.7c0,0-0.8-0.2-1.2,0.2c0,0.1-0.1,0.1-0.2,0.1
				C2014.7,1148.8,2014.5,1173.9,2009.5,1178z"/>
			<path class="st0" d="M1965.4,1183.6c0,0-1,1.9-5.9,0.3c0,0-4.2-1.3-3.5-3.5C1956,1180.4,1960.5,1179.9,1965.4,1183.6z"/>
			<path class="st25" d="M1964,1232.4c0,0-11.1,139.7-10.9,151.3c0.2,11.6,12.2,23.9,12.2,23.9s9.6-10.5,11.5-21.7
				c1.9-11.1-5.3-152.2-5.3-152.2L1964,1232.4z"/>
			<path class="st18" d="M2013.2,1223.5c0,0,17.8,4.3,32,31.4c14.1,27.1,25.3,81.8,32,96.2c6.7,14.4,11.4,59.9,11.4,59.9l-10.7,5.2
				c0,0-25.7-46.6-29.6-61.8c-2.1-8.3-33.5-74.4-33.5-74.4L2013.2,1223.5z"/>
			<path class="st21" d="M2038.4,1407.7C2038.4,1407.7,2038.4,1407.7,2038.4,1407.7c-33.6-4.8-24-116-21.4-116.5
				c2.6-0.4,12.3,19.9,12.3,19.9l0.9,4.5c2.6,25.8,6.3,55.4,12,86.6C2042.6,1404.3,2041.2,1406.1,2038.4,1407.7z"/>
		</g>
		<g>
			<g>
				<path class="st22" d="M2457.6,1650.6c0,0,14,12.8,11.3,21.8c-2.7,9.1-15.4,15.1-17.1,26.2c-1.7,11.1-8.5,17.1-14.7,17.1
					c-6.1,0-29.3,0-29.3,0s-4.5-7.8,6.4-10.2c10.9-2.4,15-15.4,14.4-27.5c-0.7-12.1,1-28.2,1-28.2l23.2-5.4L2457.6,1650.6z"/>
				<path class="st22" d="M2286,1683.6c0,0,2.5,29.1-3.6,32.1l-78.6-0.2c0,0,0-9.1,12.6-11.1c12.6-2,34.8-9.4,38.6-25.9
					C2258.7,1662.1,2286,1683.6,2286,1683.6z"/>
				<path class="st25" d="M2219.6,1273.2c0,0,4.1,50.9,9,112.1c6.6,83.2,14.6,185.3,15.4,204.7c1.4,33.6,6.8,87.4,6.8,87.4
					s13,12.8,38.9,7.4c0,0,23.1-76.7,29.7-157.9c0.1-1.3,0.2-2.7,0.3-4c6.1-82.6,15.7-256.7,15.7-256.7L2219.6,1273.2z"/>
				<path class="st22" d="M2219.6,1273.2c0,0,4.1,50.9,9,112.1l90.8,141.5c0.1-1.3,0.2-2.7,0.3-4c6.1-82.6,15.7-256.7,15.7-256.7
					L2219.6,1273.2z"/>
				<path class="st25" d="M2238.5,1279.2c0,0,74.7,184.4,123.9,271.1s64.5,110.9,64.5,110.9s28.1-11.1,30.7-18.6
					c0,0-18.8-167.3-51.7-208.1c-18.6-23-34.6-74.2-33.8-98.4c1.4-41.7-14.3-90.1-14.3-90.1L2238.5,1279.2z"/>
			</g>
			<path class="st6" d="M2178.9,1282c0,0-14,18.9-15,23.9c-1,5-2.2,23-0.6,28.3c1.7,5.3,10.4-15.7,13.9-18.1
				c3.5-2.4-2.2,8.3-0.8,9.9c1.4,1.6,8.1-6.6,10.7-9.4c2.6-2.8,1.4-16.8,4.2-25.3S2178.9,1282,2178.9,1282z"/>
			<path class="st0" d="M2240.4,1007.4c0,0-18.9,175.5-20.5,180.5c-0.4,1.1-1.8,6.6-3.9,14.6c-3,11.4-7.2,27.8-11.1,43.4
				c-6,23.6-12.5,43.9-12.5,43.9s-2.8,1.8-9.7,1.3c-4.7-0.4-7.2-4.4-7.2-4.4s0.7-86.2,4.9-105.8c4.2-19.7,17.7-140.3,24.5-156.6
				C2211.6,1008.2,2240.4,1007.4,2240.4,1007.4z"/>
			<path class="st26" d="M2215.9,1202.6c-3,11.4-7.2,27.8-11.1,43.4c-2.6-7.2-5.8-18.7-7.9-34.4c-3.8-29,7.9-90.9,7.9-90.9
				L2215.9,1202.6z"/>
			<path class="st0" d="M2365.2,1277.2c-27.1,15.3-143,14.9-148.4,2.9c-12-26.8-15-162.7-9.3-204.5c0,0,2.9-64.1,9.3-61.3
				c42.8-19.7,112.1-1.8,112.1-1.8c18.7,5.5,17.1,48.2,22.3,108.2c0.7,7.7,1.4,15.8,2.2,24.1c3.7,37,9.1,79.6,17.2,124.5
				C2371.3,1272.4,2369.2,1275,2365.2,1277.2z"/>
			<path class="st6" d="M2297,1005.4c-0.7,11.5-15.7,10.2-33.7,6.1c-18-4.1-11.5-14.7-11.5-14.7s0.3-8.1,1.4-17.9
				c0.4-3.5,0.9-7.3,1.6-11c0.3-1.8,0.7-3.6,1.1-5.3c2.3-10.1,35.9-0.4,35.7,2.4C2291,972.3,2296.3,996.4,2297,1005.4z"/>
			<polygon class="st22" points="2258.4,1025.4 2257,1009.6 2276.9,1013.4 2269.3,1027.5 			"/>
			<path class="st26" d="M2252.3,989.3l-11.9,18.1c0,0,0,11.1,10.3,19.2l16.3-15.1C2267,1011.5,2256.5,1007.5,2252.3,989.3z"/>
			<path class="st26" d="M2267,1011.5c0,0,3.4,12.1,9.9,17.6c0,0,25.4-6.8,31.4-19.8l-13.2-17.1
				C2295.1,992.2,2294.4,1005.1,2267,1011.5z"/>
			<path class="st24" d="M2291.8,970.7c0,0-16.2,10.7-38.6,8.2c0.4-3.5,0.9-7.3,1.6-11c4.4-1.1,8.1-1.7,8.1-1.7L2291.8,970.7z"/>
			<path class="st6" d="M2302.1,958.5c-7.9,21.7-36.7,16.2-49,12.7c-3.5-1-5.6-1.8-5.6-1.8c-3.8-1.7-5-8.3-4.6-16.7
				c0.7-16.5,7.2-39.9,10.9-45.5c5.6-8.5,15.1-17.1,43-5.1C2324.8,914,2312.2,930.6,2302.1,958.5z"/>
			<path class="st20" d="M2323.7,947.3c-8.8,7.2-27.8,20.5-27.8,20.5s2.1-2.5,4.7-9.7c0.3-0.8,0.4-2,0.3-3.3c-0.1-3.5,0.7-7,2.6-10
				c1.2-1.9,1.6-3.8,0.1-5.2c-2.4-2.3-6.5-0.2-9.2,1.7c-1.8,1.2-4.1,1.3-5.9,0.2c0,0,0,0,0,0c-7.5-4.7,0.8-13-5.3-20
				c-6.1-6.9-32.7-7.9-31.6-12.2c-9.1-5.1-3.3-24-3.2-25c0,0,13,1.1,29.2-2.9c13.2-3.3,27.7,5.2,32.3,8.6c0-0.8-0.1-2-0.7-3.2
				c0,0,2,2,2,4.3c0.2,0.2,0.3,0.3,0.2,0.4c0,0,2.6-0.1,4.2,1c0,0-1.1-0.4-1.7,0.3c-0.1,0.1-0.1,0.1-0.2,0.2
				C2331.3,905.3,2331,941.3,2323.7,947.3z"/>
			<path class="st0" d="M2260.4,955.3c0,0-1.4,2.7-8.5,0.5c0,0-6-1.9-5-5.1C2246.8,950.7,2253.3,950,2260.4,955.3z"/>
			<path class="st25" d="M2258.4,1025.4c0,0-15.9,200.7-15.7,217.4c0.2,16.7,17.6,34.4,17.6,34.4s13.8-15.2,16.5-31.1
				c2.7-16-7.7-218.6-7.7-218.6L2258.4,1025.4z"/>
			<path class="st26" d="M2365.2,1277.2C2365.2,1277.2,2365.2,1277.2,2365.2,1277.2c-48.3-6.9-34.5-166.7-30.7-167.3
				c3.8-0.6,17.7,28.6,17.7,28.6l1.3,6.5c3.7,37,9.1,79.6,17.2,124.5C2371.3,1272.4,2369.2,1275,2365.2,1277.2z"/>
			<g>
				<path class="st19" d="M2507.1,1396.2l-102.1,29.7c-13.3,3.9-27.3-3.8-31.2-17.1l-12.9-44.2c-3.9-13.3,3.8-27.3,17.1-31.2
					l102.1-29.7c13.3-3.9,27.3,3.8,31.2,17.1l12.9,44.2C2528.1,1378.3,2520.4,1392.4,2507.1,1396.2z"/>
				<path class="st20" d="M2374.4,1360.6l13,44.7c2.5,8.7,9.3,15,17.5,17.2c2.7,0.8,5.5,1.1,8.4,0.9c0,0,0,0,0,0l0,0
					c1.8-0.1,3.6-0.4,5.4-0.9l101.9-29.7c13.3-3.9,21.1-18,17.2-31.3l-13-44.7c-3.9-13.3-18-21.1-31.3-17.2l-35.1,10.2l-2.8-9.5
					c-1.3-4.4-5.9-7-10.3-5.7l-3.8,1.1l-21.3,6.2l-5.3,1.5c-2.1,0.6-3.9,2-5,4c-1.1,2-1.3,4.2-0.7,6.3l2.8,9.5l-20.3,5.9
					c-0.8,0.2-1.6,0.5-2.3,0.8c0,0,0,0,0,0l0,0c-7.7,3.1-13.2,9.8-15.1,17.5l0,0C2373.2,1351.8,2373.2,1356.3,2374.4,1360.6z
					 M2453.4,1311.3L2417,1322l-2.8-9.5c-0.5-1.6,0.5-3.4,2.1-3.9l9.2-2.7l16.8-4.9l4.5-1.3c0.3-0.1,0.6-0.1,0.9-0.1
					c1.3,0,2.5,0.9,2.9,2.2L2453.4,1311.3z"/>
			</g>
			<path class="st6" d="M2422.9,1282.8c0,0-3.2,26.5,2.8,26.1s20.5-3.2,21.4-7.8c1-4.6-11.1-25.8-11.1-25.8L2422.9,1282.8z"/>
			<path class="st6" d="M2423.6,1282.7c0,0-4.5,5.6-4.9,10.1c-0.4,4.4-2.6,12.2-0.5,12.7c2,0.5,5.8-9.7,5.8-9.7L2423.6,1282.7z"/>
			<path class="st0" d="M2329,1012.6c0,0,25.6,6.1,45.9,45.1c20.3,38.9,36.3,117.5,45.9,138.2c9.7,20.7,17,82.9,17,82.9
				s-1.5,3.1-6.7,4.2c-4,0.9-8.2,0.5-8.2,0.5s-38.1-61-43.6-83c-3-11.9-48.2-106.9-48.2-106.9L2329,1012.6z"/>
		</g>
		<g>
			<polygon class="st6" points="640.7,1690.4 636.9,1662.8 653,1649.3 658.1,1685.9 			"/>
			<path class="st22" d="M694.3,1715.1h-65.8c0,0-1.6-10,1.9-17.6c3.3-7.3,8.4-11.8,8.9-17.4c4.2,4.3,9.3,7.1,18.8,5.8
				c1.2,1.9,7.5,12,11.4,14.8C673.8,1703.8,693,1702.7,694.3,1715.1z"/>
			<path class="st12" d="M681.1,1316.9c-4.3,34.6-7.8,67.2-10.7,97.6c-15.3,162-12.3,261-12.3,261s-1.1,2.9-10.6,3
				c-5.4,0-10.6-1.1-10.6-1.1s-34.3-105.8-31.6-166c0.3-7.2,1.2-13.8,2.7-19.5c8.2-30.8-30.4-148.6,11.6-192.5
				C661.5,1255.6,683.1,1301,681.1,1316.9z"/>
			<path class="st11" d="M681.1,1316.9c-4.3,34.6-7.8,67.2-10.7,97.6l-65.1,96.9c0.3-7.2,1.2-13.8,2.7-19.5
				c8.2-30.8-30.4-148.6,11.6-192.5C661.5,1255.6,683.1,1301,681.1,1316.9z"/>
			<path class="st6" d="M732.9,986.8c0,0-1.6-7.9-3.4-13.9c-0.8-2.7,4.7-20.2,8.5-22.4c3.8-2.2,13.7,9.7,10.9,18.7
				c-1.4,4.7-3.8,19.8-3.8,19.8L732.9,986.8z"/>
			<path class="st6" d="M732.9,986.8c0,0-2.1-4.6-3.9-5.3c-1.9-0.7-3.9-8.2-5.2-11.2c0,0,1.3-1.9,3.6,0.6c1.4,1.5,4.6,6,4.6,6
				L732.9,986.8z"/>
			<path class="st6" d="M461.3,1013.4c-0.4,0.8-1,2.3-1.5,3.7c0-0.4,0-0.8,0-1.1c0-2.8-10.4-17.9-14.7-18.9
				c-4.3-0.9-10.3,13.2-5,21.1c2.7,4,9.4,17.8,9.4,17.8l11.1-5.7c0,0,0.6-5,2.2-6.2c1.6-1.3,1.3-9,1.7-12.3
				C464.6,1011.8,462.8,1010.3,461.3,1013.4z"/>
			<path class="st6" d="M530.4,1682.1c-0.9-8.9-1.2-32.2-1.2-32.2s23.8-7.6,22.9-2.4c-4.3,25.6-3.1,38.3-3.1,38.3l-9.6,5.7
				L530.4,1682.1z"/>
			<path class="st12" d="M661.2,1315.2c0,0-91.8,251.7-109.9,360.9c0,0-4.2,2.9-12,1.9c-8.9-1.1-11.3-7.2-11.3-7.2
				s-16.6-130.9,16.4-176.3c22.7-31.2-9.8-168.3,43-179.3C640.2,1304.2,661.2,1315.2,661.2,1315.2z"/>
			<path class="st8" d="M644.9,1073.1C644.9,1073.1,644.9,1073.1,644.9,1073.1c0-0.1,0-0.2-0.1-0.3c-0.5-2.2-1.1-4.4-1.8-6.6
				c0,0,0,0,0,0c-1.9-6.6-4.2-12.9-6.7-18.5c-1.4-3.2-2.9-6.1-4.4-8.8c-0.2-0.4-0.5-0.8-0.7-1.2l0,0c-3.5-6-7.2-10.1-10.5-11.4
				c-6-2.3-12.7-1.7-17.3-0.7c1-1.4,3.3-2.2,3.3-2.2c-2.9,0-8.9,3.8-8.9,3.8c-42.3-9.5-39.8,50.4-36.9,63.9
				c2.9,13.6-10.7,20.2-30,34c-36.7,26.5-36,54.5-36,54.5c0.3,0.1,0.7,0.3,1.1,0.5c1.5-3.6,4.6-10.5,7.9-12
				c-0.1,0.3-2.8,9.2-3.5,14.2c5.6,3.1,13.3,7.8,21.7,13.2c0,0,0,0,0,0c11.2,7.2,23.6,15.5,33.5,22.2c-0.5-2.7-0.9-6.6-0.2-8.8
				l3.2,9.8l0.4,1.3c6.3,4.3,11.3,7.7,13.9,9.5c0.3,0.2,0.5,0.3,0.7,0.5c0.7,0.5,1.1,0.8,1.1,0.8c-0.8-3.5,2.9-12.5,9.1-23.9
				c0.4-0.8,0.9-1.6,1.3-2.4c2-3.6,4.2-7.4,6.6-11.3c0.9-1.4,1.7-2.8,2.7-4.3c0,0,0,0,0,0c0.7-1.2,1.5-2.3,2.2-3.5l0,0
				c1.8-2.8,3.7-5.6,5.6-8.4c4.9-7.3,10.1-14.5,15.3-21.1c7.5-9.6,14.8-18,20.9-23.5c0.2-0.4,0.4-0.8,0.6-1.3c1-2.2,1.7-4.7,2.3-7.2
				c0.2-0.8,0.3-1.5,0.5-2.3c1.5-8.1,1.6-16,1.5-17.9c0.5,7.8,0.3,13.6-0.2,18.1c-0.1,1-0.2,1.9-0.4,2.7l0,0
				c-0.3,1.9-0.7,3.5-1.1,4.8c1-1.2,1.9-2.6,2.7-4.1c0.5-1,1-2,1.4-3.1C650.6,1109.6,649.2,1090.8,644.9,1073.1z"/>
			<path class="st6" d="M637,1133.7c0.1,0-11.8,8.7-22,7.5c-9.6-1.1-17.3-12.2-17.2-12.2c3.8-1.4,4.1-6.9,0.6-29.8l1.8,0.1l30.4,1.5
				c0,0,0.7,9.4,2,18.2C633.7,1126.2,635.2,1133.2,637,1133.7z"/>
			<path class="st10" d="M630.6,1100.7c0,0,0.7,9.4,2,18.2c-16.6,2-27.6-11.8-32.4-19.6L630.6,1100.7z"/>
			<path class="st8" d="M596.6,1096.5c0,0-10.7-12.4-14.5-23.8c-2.7-8.1-3.1-39.8,28.7-40c0,0,9.2-0.5,18.5,4
				c7.4,3.6,18.7,12,11.8,40.7l-1.5,9.6L596.6,1096.5z"/>
			<path class="st0" d="M684.9,1310.4c0,0-39.6,23.5-89.4,11.4c-0.6-0.1-41-6.6-41-6.6c0.7-1.9,5.9-33.1,6.6-34.8
				c8.8-22.8,25-146.4,38.4-152.5c3.4,3.7,13.3,6.3,21.7,5.6c9.7-0.9,12.9-5,12.1-9.5c10.7,5.1,19,9.8,19,9.8
				C662.2,1148.4,684.9,1310.4,684.9,1310.4z"/>
			<path class="st6" d="M637.4,1108.2c0,0-39.1,6.5-42.7-17.9c-3.7-24.4-11.2-40,13.6-45.1c24.8-5.2,31,3.4,34.2,11.3
				C645.7,1064.2,647.5,1105.9,637.4,1108.2z"/>
			<path class="st8" d="M626,1041.9c0,0-6.5,30.2-22.3,36.9c-15.8,6.7-23.6,3.3-23.6,3.3s11.1-11.9,11.1-29.8
				C591.3,1052.3,615.9,1029.5,626,1041.9z"/>
			<path class="st8" d="M623.7,1044.6c0,0,9,5.2,11.8,11.1c2.9,5.9,5.7,18.6,9.3,17.6c0,0,5.2-20.7-5.5-30.3
				C628,1032.8,623.7,1044.6,623.7,1044.6z"/>
			<path class="st23" d="M745.4,987.4c-1.6-0.6-3.9-1.9-7-2.2c-2.7-0.2-6.1,0.6-6.1,0.6s-11,68.5-11.8,72.1
				c-0.8,3.6-47.3,56-59.8,55.7c-11.3-0.2-24.7,8.5-27.2,10.2c0,0,26.3,55.7,27.7,66.2c1.4,11.4,15.1,186.7,15.1,186.7
				s-0.8,8.2,14.4,3.8c15.2-4.4,19-8,19-8s-14-138-16.9-180.9c-0.4-5.8-1.3-11.1-2.7-16c-1.3-4.7-0.3-9.8,2.6-13.8
				c19.3-26.4,49.7-69.3,51.4-78.4C746.5,1070.1,745.4,987.4,745.4,987.4z"/>
			<path class="st22" d="M585.2,1715.1h-65.8c0,0-1.6-10,1.9-17.6c3.3-7.3,8.4-11.8,8.9-17.4c4.2,4.3,9.3,7.1,18.8,5.8
				c1.2,1.9,7.5,12,11.4,14.8C564.7,1703.8,583.9,1702.7,585.2,1715.1z"/>
			<path class="st23" d="M630.4,1195.5c-2.2-13.6-30.5-68.4-30.5-68.4s-17.9-5.4-29.7-1.1c-11.8,4.3-72.7-30.1-74.7-33.3
				c-2-3.2-34.6-64-34.6-64s-2.7-1.6-7,0.7c-4.3,2.2-4.3,6.6-4.3,6.6s25.2,76.6,31.9,88.4c4,7.1,38,32,64.4,50.6
				c5,3.6,7.7,9.6,6.8,15.7c-3.5,26.2-4.4,40.9-8.5,85.9c-3.4,37.3-4.7,109.4-4.7,109.4s29.5,10.2,49.8,11.6
				c20.3,1.4,24.8-20.1,24.8-20.1S632.7,1209.5,630.4,1195.5z"/>
			<path class="st0" d="M624.6,1096.1c0,0,4.7,2.8,10.3,1.9c3.8-0.6,4.7-5.1,4.7-5.1s-2.7-0.8-6.9,0
				C628.5,1093.8,624.6,1096.1,624.6,1096.1z"/>
		</g>
		<g>
			<path class="st6" d="M1872.2,631.2c0,0-18.3-32.5,0-39.1c18.3-6.6,26.5-0.5,27.4,6.9c0.9,7.4-7,36.6-7,36.6L1872.2,631.2z"/>
			<path class="st12" d="M1886.9,839c-33.3,6-64,8.8-91.6,9.4c-26.3,0.6-49.8-0.8-70.4-3.2c-5.5-0.6-10.9-1.3-16-2.1
				c-54-8.2-83.8-22.7-83.8-22.7s49.3-103.2,89.1-99.2c46.7,4.7,125.9,46.6,133.8,34.8c8.9-13.2,16.3-126.9,16.3-126.9
				c20.7-14.2,33.1,0.8,33.1,0.8S1937.8,829.8,1886.9,839z"/>
			<path class="st11" d="M1886.9,839c-33.3,6-64,8.8-91.6,9.4c-26.3,0.6-49.8-0.8-70.4-3.2c-12.4-39.5-21.4-79.9,3.6-55.6
				C1772.6,832.6,1886.9,839,1886.9,839z"/>
			<path class="st22" d="M1621.4,1672.2c0,0-3.5,41,5.1,45.3l111-0.2c0,0,0-12.8-17.8-15.7c-17.8-2.8-49.1-13.3-54.4-36.5
				C1659.9,1641.8,1621.4,1672.2,1621.4,1672.2z"/>
			<path class="st25" d="M1702.9,1175.7c-0.5,26.8-1.8,54.5-4.4,79.4c-12,118-16.2,260.6-17.9,288.1c-3,47.7-12.4,123.9-12.4,123.9
				s-18.7,17.7-55.1,9.3c0,0-30.2-109.8-36.9-225.4c-0.1-1.9-0.2-3.8-0.3-5.7c-0.8-15.3-1.6-32.8-2.4-51.6
				c-5.6-126.2-11.6-313.7-11.6-313.7l139.3-32.7C1701,1047.1,1704.2,1108.8,1702.9,1175.7z"/>
			<path class="st22" d="M1702.9,1175.7c-35.3,60.9-102.6,173.1-129.5,217.9c-5.6-126.2-11.6-313.7-11.6-313.7l139.3-32.7
				C1701,1047.1,1704.2,1108.8,1702.9,1175.7z"/>
			<path class="st6" d="M1350.2,1057.7c0,0-22.7,26.7-24.7,34s-5.7,34-3.7,42c1.9,8,17-22.3,22.5-25.5c5.5-3.2-4.1,12.1-2.2,14.6
				c1.9,2.6,12.7-8.9,16.9-12.8c4.2-3.9,3.8-24.8,8.9-37.1C1372.9,1060.5,1350.2,1057.7,1350.2,1057.7z"/>
			<path class="st22" d="M1344.9,1625.6c0,0-19.8,18-15.9,30.8c3.9,12.8,21.7,21.3,24.1,37c2.4,15.7,12,24.2,20.7,24.2
				c8.7,0,41.3,0,41.3,0s6.4-11-9-14.3c-15.4-3.3-21.2-21.7-20.3-38.8c1-17.1-1.4-39.8-1.4-39.8l-32.8-7.6L1344.9,1625.6z"/>
			<path class="st25" d="M1679.1,1082.7c0,0-130.4,278.9-199.7,401.3c-69.4,122.4-91.1,156.5-91.1,156.5s-39.7-15.7-43.4-26.3
				c0,0,26.5-236.3,73-293.9c26.3-32.5,57.1-130.2,58.5-164.4c1.4-34.2,31.9-115.7,31.9-115.7L1679.1,1082.7z"/>
			<path class="st12" d="M1717.2,1095.9c0,0-51.8,34.7-125.2,31.4c-32.2-1.4-96.1-10.5-106.4-36.1c-2.4-6-0.6-13.6,3-25.4
				c9.4-30.4,31.4-88.4,24.8-216.9c-0.6-12-0.3-23.2,0.9-33.7c6.9-63.3,43.2-100.8,78.3-113.1c85.5-29.9,114,11.5,114,11.5
				s37.8,29.9,43.5,92.5C1761.4,931.1,1717.2,1095.9,1717.2,1095.9z"/>
			<path class="st6" d="M1617.5,694.9c0,0,39.2,23.9,81.8,17.1c0,0,8.4-2.1,4.3-12c2.6-8,2.3-7.3,3.8-13.2
				c3.7-13.6,4.9-21.5,4.9-21.5l-24.2-25.4l-22.9-24.3C1658.9,673.7,1617.5,694.9,1617.5,694.9z"/>
			<path class="st27" d="M1661.6,637.7c0,0,13.1,35.1,45.8,49.2c3.7-13.6,6.2-27.9,6.2-27.9l-25.4-19L1661.6,637.7z"/>
			<path class="st6" d="M1739.3,664.1c0,0-74.9,9.4-80.2-36.7c-5.3-46-18.5-75.8,29.1-83.7c47.6-7.9,58.9,8.6,64.5,23.6
				C1758.3,582.2,1758.7,660.5,1739.3,664.1z"/>
			<path class="st28" d="M1635.5,536.2c-0.6-0.8-2.2-1.5-5.6-1.8c0,0,2.8-1.6,6.5-1.6c0.9-4.8,3.8-13.2,12.2-15c0,0-4.6,2.2-5.3,7.3
				c10-9.5,30.9-15.9,87.7-9.3c75,8.8,48.4,56,38.4,61.4c-10,5.4-33.9-11.3-52-10.5c-18.2,0.8-22.6,26.8-28.9,30.2
				c-6.3,3.4-3.6-2.9-11.8-7c-8.2-4.1-9.5,9.7-7.4,18.7c2.1,9.1-9.8,20.5-9.8,20.5s0,0-11.1-12.9c-11.1-12.9-20-66-14.3-77.1
				C1634.5,538.2,1635,537.2,1635.5,536.2z"/>
			<g>
				<polygon class="st25" points="1864.3,609.7 1737.1,610.8 1736.3,591.7 1863,581.9 				"/>
				<polygon class="st25" points="1960.3,612.9 1821.8,614.9 1820.3,580.1 1958.3,569.4 				"/>
				<polygon class="st22" points="2053.6,615.6 1936.9,615.7 1934.8,568.8 2051,558.2 				"/>
				<path class="st22" d="M2055.3,623.5L2055.3,623.5c3.6-0.2,6.4-3.2,6.2-6.8l-2.7-60.3c-0.2-3.6-3.2-6.4-6.8-6.2l0,0
					c-3.6,0.2-6.4,3.2-6.2,6.8l2.7,60.3C2048.7,620.9,2051.7,623.7,2055.3,623.5z"/>
				<path class="st25" d="M1736.7,614.9L1736.7,614.9c-3.2,0.1-5.9-2.3-6.1-5.5l-0.7-15.7c-0.1-3.2,2.3-5.9,5.5-6.1l0,0
					c3.2-0.1,5.9,2.3,6.1,5.5l0.7,15.7C1742.4,612,1739.9,614.7,1736.7,614.9z"/>
			</g>
			<path class="st11" d="M1488.6,1065.8c9.4-30.4,31.4-88.4,24.8-216.9c-0.6-12-0.3-23.2,0.9-33.7l0,0c28.1-2.4,71.2,28,71.2,28
				S1558.9,1004.7,1488.6,1065.8z"/>
			<path class="st12" d="M1617.5,694.9c0,0-72.2,12.4-109.8,58.4c-37.6,46-98.2,110.7-112.5,133.4c-14.3,22.7-54.1,177.1-54.1,177.1
				s2.6,5,13.6,7.9c10.5,2.8,18.1-1.5,18.1-1.5s52.7-90.1,72.5-135.1c8.2-18.7,150.6-92.8,204.2-85.1
				C1670.5,852.9,1617.5,694.9,1617.5,694.9z"/>
			<path class="st6" d="M1863.5,576.4c0,0,15.5,9.5,24.8,5.5c9.3-4,8.5-7.7,8.5-7.7S1868.8,566.4,1863.5,576.4z"/>
			<path class="st20" d="M1687.5,745.2c0,0-31.7,200-256.4,258.2l-24.5,48.3l43,7.3c0,0,255.8-74.1,252.4-317.3L1687.5,745.2z"/>
			<polygon class="st19" points="1682.6,713.3 1672.3,714.3 1672.3,729.4 1687.5,745.2 1702.1,741.7 1702.1,720.9 1691.6,713.3 			
				"/>
			<path class="st11" d="M1641.9,673.6c0,0-10,2.3-33,21.3c0,0,22.8,48.5,71,54.3c0,0-0.8-22.5,2.7-35.8
				C1682.6,713.3,1644.5,699.7,1641.9,673.6z"/>
			<path class="st11" d="M1682.6,713.3c0,0,23.5,12.5,25.2,31.9c0,0,9-14.2,6.4-24.1c-2.6-9.9-10.7-21.2-10.7-21.2
				S1704.4,711.9,1682.6,713.3z"/>
		</g>
	</g>
</g>
</svg>
