<?xml version="1.0" encoding="utf-8"?>
<!-- Generator: Adobe Illustrator 23.0.0, SVG Export Plug-In . SVG Version: 6.00 Build 0)  -->
<svg version="1.1" id="Layer_1" focusable="false" xmlns="http://www.w3.org/2000/svg" xmlns:xlink="http://www.w3.org/1999/xlink"
	 x="0px" y="0px" viewBox="0 0 448 512" style="enable-background:new 0 0 448 512;" xml:space="preserve">
<style type="text/css">
	.st0{fill:#394197;}
</style>
<path class="st0" d="M193.4,66.9l21.3-22.2c9-9.4,23.6-9.4,32.5,0L433.2,239c9,9.4,9,24.6,0,33.9L247.1,467.3
	c-9,9.4-23.6,9.4-32.5,0l-21.3-22.2c-9.1-9.5-8.9-25,0.4-34.3L309.2,296H34c-12.7,0-23-10.7-23-24v-32c0-13.3,10.2-24,23-24h275.2
	L193.8,101.2C184.4,91.9,184.2,76.4,193.4,66.9z"/>
</svg>
