<?xml version="1.0" encoding="utf-8"?>
<!-- Generator: Adobe Illustrator 22.1.0, SVG Export Plug-In . SVG Version: 6.00 Build 0)  -->
<svg version="1.1" xmlns="http://www.w3.org/2000/svg" xmlns:xlink="http://www.w3.org/1999/xlink" x="0px" y="0px"
	 viewBox="0 0 300 300" style="enable-background:new 0 0 300 300;" xml:space="preserve">
<style type="text/css">
	.st0{fill:#FFFFFF;}
</style>
<g id="Layer_2">
</g>
<g id="Layer_1">
	<path class="st0" d="M251.1,24.9h-20.7v-6.6c0-6-4.8-10.8-10.8-10.8s-10.8,4.8-10.8,10.8v6.9h-48v-6.9c0-6-4.8-10.8-10.8-10.8
		s-10.8,4.8-10.8,10.8v6.9H90.9v-6.9c0-6-4.8-10.8-10.8-10.8s-10.8,4.8-10.8,10.8v6.9H48.6c-18.9,0-34.5,15.6-34.5,34.5V258
		c0,18.9,15.6,34.5,34.5,34.5h202.2c18.9,0,34.5-15.6,34.5-34.5V59.4C285.6,40.5,270.3,24.9,251.1,24.9z M48.9,46.5h20.7v6.9
		c0,6,4.8,10.8,10.8,10.8s10.8-4.8,10.8-10.8v-6.9h48.3v6.9c0,6,4.8,10.8,10.8,10.8s10.8-4.8,10.8-10.8v-6.9h48.3v6.9
		c0,6,4.8,10.8,10.8,10.8S231,59.4,231,53.4v-6.9h20.7c7.2,0,13.2,6,13.2,13.2v20.4H35.7V59.7C35.7,52.2,41.7,46.5,48.9,46.5z
		 M251.1,271.2H48.9c-7.2,0-13.2-6-13.2-13.2V101.4H264V258C264.3,265.2,258.3,271.2,251.1,271.2z"/>
	<path class="st0" d="M88.4,132.3H68c-3.8,0-6.8,3.9-6.8,8.7v9.3c0,4.8,3,8.7,6.8,8.7h20.4c3.8,0,6.8-3.9,6.8-8.7V141
		C95.2,136.2,92.1,132.3,88.4,132.3z"/>
	<path class="st0" d="M227,132.3h-20.2c-3.8,0-6.8,3.9-6.8,8.7v9.3c0,4.8,3,8.7,6.8,8.7h20.4c3.8,0,6.8-3.9,6.8-8.7V141
		C234,136.2,230.9,132.3,227,132.3z"/>
	<path class="st0" d="M157.8,132.3h-20.4c-3.8,0-6.8,3.9-6.8,8.7v9.3c0,4.8,3,8.7,6.8,8.7h20.4c3.8,0,6.8-3.9,6.8-8.7V141
		C164.6,136.2,161.5,132.3,157.8,132.3z"/>
	<path class="st0" d="M88.4,200.1H68c-3.8,0-6.8,3.9-6.8,8.7v9.3c0,4.8,3,8.7,6.8,8.7h20.4c3.8,0,6.8-3.9,6.8-8.7v-9.3
		C95.2,204,92.1,200.1,88.4,200.1z"/>
	<path class="st0" d="M227,200.1h-20.2c-3.8,0-6.8,3.9-6.8,8.7v9.3c0,4.8,3,8.7,6.8,8.7h20.4c3.8,0,6.8-3.9,6.8-8.7v-9.3
		C234,204,230.9,200.1,227,200.1z"/>
	<path class="st0" d="M157.8,200.1h-20.4c-3.8,0-6.8,3.9-6.8,8.7v9.3c0,4.8,3,8.7,6.8,8.7h20.4c3.8,0,6.8-3.9,6.8-8.7v-9.3
		C164.6,204,161.5,200.1,157.8,200.1z"/>
</g>
</svg>
