<?xml version="1.0" encoding="utf-8"?>
<!-- Generator: Adobe Illustrator 23.0.0, SVG Export Plug-In . SVG Version: 6.00 Build 0)  -->
<svg version="1.1" id="Layer_1" xmlns="http://www.w3.org/2000/svg" xmlns:xlink="http://www.w3.org/1999/xlink" x="0px" y="0px"
	 viewBox="0 0 420 300" style="enable-background:new 0 0 420 300;" xml:space="preserve">
<style type="text/css">
	.st0{fill:url(#SVGID_1_);}
	.st1{fill:url(#SVGID_2_);}
	.st2{fill:url(#SVGID_3_);}
	.st3{fill:url(#SVGID_4_);}
	.st4{fill:url(#SVGID_5_);}
	.st5{fill:url(#SVGID_6_);}
	.st6{fill:url(#SVGID_7_);}
	.st7{fill:url(#SVGID_8_);}
	.st8{fill:url(#SVGID_9_);}
	.st9{fill:url(#SVGID_10_);}
	.st10{fill:url(#SVGID_11_);}
	.st11{fill:url(#SVGID_12_);}
	.st12{fill:url(#SVGID_13_);}
	.st13{fill:url(#SVGID_14_);}
	.st14{fill:url(#SVGID_15_);}
	.st15{fill:url(#SVGID_16_);}
	.st16{display:none;fill:none;}
</style>
<g>
	<linearGradient id="SVGID_1_" gradientUnits="userSpaceOnUse" x1="66.7087" y1="175.0718" x2="66.7087" y2="241.4131">
		<stop  offset="0" style="stop-color:#FAAE1A"/>
		<stop  offset="1" style="stop-color:#E95924"/>
	</linearGradient>
	<path class="st0" d="M81.7,229.6h-8.3v-17.1H60.1v17.1h-8.3v-38.4h8.3v14.7h13.3v-14.7h8.3V229.6z"/>
	<linearGradient id="SVGID_2_" gradientUnits="userSpaceOnUse" x1="104.7045" y1="175.0718" x2="104.7045" y2="241.4129">
		<stop  offset="0" style="stop-color:#FAAE1A"/>
		<stop  offset="1" style="stop-color:#E95924"/>
	</linearGradient>
	<path class="st1" d="M120.8,210.4c0,15.4-4.3,19.9-16.1,19.9c-11.9,0-16.1-4.5-16.1-19.9c0-15.4,4.2-19.9,16.1-19.9
		C116.6,190.5,120.8,195,120.8,210.4z M97.3,210.4c0,10.2,1.7,13.1,7.4,13.1c5.7,0,7.4-2.9,7.4-13.1c0-10.2-1.7-13.1-7.4-13.1
		C99,197.3,97.3,200.2,97.3,210.4z"/>
	<linearGradient id="SVGID_3_" gradientUnits="userSpaceOnUse" x1="142.4821" y1="175.0718" x2="142.4821" y2="241.4131">
		<stop  offset="0" style="stop-color:#FAAE1A"/>
		<stop  offset="1" style="stop-color:#E95924"/>
	</linearGradient>
	<path class="st2" d="M157.5,214.3c0,11.7-3.9,16-14.7,16c-11.3,0-15.4-4.3-15.4-16v-23.1h8.3v23.1c0,7.1,1.6,9.2,6.8,9.2
		c5,0,6.7-2.1,6.7-9.2v-23.1h8.3V214.3z"/>
	<linearGradient id="SVGID_4_" gradientUnits="userSpaceOnUse" x1="177.5869" y1="175.0718" x2="177.5869" y2="241.4129">
		<stop  offset="0" style="stop-color:#FAAE1A"/>
		<stop  offset="1" style="stop-color:#E95924"/>
	</linearGradient>
	<path class="st3" d="M190,192l-0.5,5.8c-3.2-0.1-7.8-0.2-11.8-0.2c-4,0-5.5,0.2-5.5,3.5c0,2.7,1.1,3.4,3.9,4.3l7.1,2.5
		c6,2.2,8,5.7,8,11.3c0,8.7-3.7,11.1-14,11.1c-2.4,0-7.1-0.2-12.9-1.4l0.5-6.1c7,0.2,10,0.3,12.4,0.3c4.4,0,5.6-0.6,5.6-3.7
		c0-2.7-1-3.4-3.5-4.2l-7.6-2.7c-5.7-2.1-7.8-5.6-7.8-11.2c0-8.8,4-10.6,13.7-10.6C181.3,190.5,185.8,190.7,190,192z"/>
	<linearGradient id="SVGID_5_" gradientUnits="userSpaceOnUse" x1="201.8351" y1="175.0718" x2="201.8351" y2="241.4131">
		<stop  offset="0" style="stop-color:#FAAE1A"/>
		<stop  offset="1" style="stop-color:#E95924"/>
	</linearGradient>
	<path class="st4" d="M197.7,229.6v-38.4h8.3v38.4H197.7z"/>
	<linearGradient id="SVGID_6_" gradientUnits="userSpaceOnUse" x1="230.0377" y1="175.0718" x2="230.0377" y2="241.4131">
		<stop  offset="0" style="stop-color:#FAAE1A"/>
		<stop  offset="1" style="stop-color:#E95924"/>
	</linearGradient>
	<path class="st5" d="M245.9,226.5c0,2-1,3.1-2.9,3.1h-5.2c-1.7,0-2.5-0.8-3.3-2.5l-9.9-20.5c-0.8-1.7-1.9-4.1-2.3-6h-0.6
		c0.3,2,0.4,4.1,0.4,6.1v22.8h-7.9v-35.3c0-2,1-3.1,3-3.1h5.1c1.7,0,2.5,0.8,3.3,2.5l9.5,19.9c0.8,1.7,1.9,4,2.7,6.2h0.5
		c-0.2-2.2-0.3-4.3-0.3-6.5v-22.1h7.9V226.5z"/>
	<linearGradient id="SVGID_7_" gradientUnits="userSpaceOnUse" x1="267.7051" y1="175.0718" x2="267.7051" y2="241.4129">
		<stop  offset="0" style="stop-color:#FAAE1A"/>
		<stop  offset="1" style="stop-color:#E95924"/>
	</linearGradient>
	<path class="st6" d="M282.6,229.6h-6.1l-0.8-3.9c-1.9,2.1-5.7,4.6-10.9,4.6c-8.5,0-12-6-12-20c0-15.2,4.5-19.8,16.9-19.8
		c4.4,0,8,0.3,11.6,1.3l-0.7,6.2c-3.7-0.2-7.4-0.3-10.6-0.3c-6.3,0-8.3,1.7-8.3,12.8c0,9.6,1.5,12.5,6.2,12.5c2.7,0,4.9-0.9,6.8-1.9
		v-13.7h8V229.6z"/>
	<linearGradient id="SVGID_8_" gradientUnits="userSpaceOnUse" x1="294.7911" y1="175.0718" x2="294.7911" y2="241.4131">
		<stop  offset="0" style="stop-color:#34BAEC"/>
		<stop  offset="1" style="stop-color:#204295"/>
	</linearGradient>
	<path class="st7" d="M302.5,221.5c0,5.6-3.2,8.7-8.5,8.7c-1.9,0-5.3-0.4-6.9-1.1l0.9-5.7h2.6c2.5,0,3.6-1,3.6-2.9v-29.3h8.3V221.5z
		"/>
	<linearGradient id="SVGID_9_" gradientUnits="userSpaceOnUse" x1="325.366" y1="175.0718" x2="325.366" y2="241.4129">
		<stop  offset="0" style="stop-color:#34BAEC"/>
		<stop  offset="1" style="stop-color:#204295"/>
	</linearGradient>
	<path class="st8" d="M341.5,210.4c0,15.4-4.3,19.9-16.1,19.9c-11.9,0-16.1-4.5-16.1-19.9c0-15.4,4.2-19.9,16.1-19.9
		C337.2,190.5,341.5,195,341.5,210.4z M318,210.4c0,10.2,1.7,13.1,7.4,13.1c5.7,0,7.4-2.9,7.4-13.1c0-10.2-1.7-13.1-7.4-13.1
		C319.7,197.3,318,200.2,318,210.4z"/>
	<linearGradient id="SVGID_10_" gradientUnits="userSpaceOnUse" x1="362.6806" y1="175.0718" x2="362.6806" y2="241.4131">
		<stop  offset="0" style="stop-color:#34BAEC"/>
		<stop  offset="1" style="stop-color:#204295"/>
	</linearGradient>
	<path class="st9" d="M369.2,209.8c5.8,0.5,7.8,4.1,7.8,10.2c0,7.9-3.8,10-12.8,10c-7.2,0-11.1-0.1-15.9-0.4v-38.4
		c4.3-0.4,7.8-0.4,14.1-0.4c9.8,0,13.3,2.1,13.3,10c0,5.5-1.9,8.3-6.6,8.8V209.8z M362.1,197.1h-5.6v9.7h6.1c4,0,5.3-1,5.3-5
		C367.8,198,366.5,197.1,362.1,197.1z M362.8,223.6c4.5,0,5.8-0.9,5.8-5.2c0-4.7-1.4-5.8-6.1-5.9h-6.1v11.1H362.8z"/>
</g>
<g>
	<linearGradient id="SVGID_11_" gradientUnits="userSpaceOnUse" x1="213.2715" y1="42.1875" x2="213.2715" y2="90.1419">
		<stop  offset="0" style="stop-color:#F48120"/>
		<stop  offset="1" style="stop-color:#E95924"/>
	</linearGradient>
	<path class="st10" d="M213.3,67.3l-75.8,37.9v19.1c0,8.3,6.2,15.8,14.5,15.8h8.4l-0.7,16.6l20-16.6h97.1c8.3,0,12.3-7.5,12.3-15.8
		v-19.1L213.3,67.3z M209.8,120.5L209.8,120.5h-12.6v-13.1h12.6V120.5z M209.8,101.9L209.8,101.9h-12.6V89.2h12.6V101.9z
		 M227.9,120.5H227h-11.8v-13.1h12.6V120.5z M227.9,101.9H227h-11.8V89.2h12.6V101.9z"/>
	<linearGradient id="SVGID_12_" gradientUnits="userSpaceOnUse" x1="213.8915" y1="-8.159" x2="213.8915" y2="101.043">
		<stop  offset="0" style="stop-color:#34BAEC"/>
		<stop  offset="1" style="stop-color:#204295"/>
	</linearGradient>
	<path class="st11" d="M213.9,55.4l-94.1,46.5l18.9-13.2V51.4c0-8.4,4.1-14.4,12.3-14.4h37V24.6c0-5.2,2.6-9.6,9.5-9.6h32.7
		c6.9,0,9.5,4.4,9.5,9.6V37h37c8.3,0,12.3,6,12.3,14.4v37.2l18.9,13.2L213.9,55.4z M200.2,22c-3.6,0-4,0.7-4,4.3V37h17.8h17.7V26.2
		c0-3.6-0.5-4.3-4-4.3H200.2z"/>
	<linearGradient id="SVGID_13_" gradientUnits="userSpaceOnUse" x1="213.2727" y1="81.9616" x2="213.2727" y2="136.3977">
		<stop  offset="0" style="stop-color:#FAAE1A"/>
		<stop  offset="1" style="stop-color:#E95924"/>
	</linearGradient>
	<path class="st12" d="M162.8,137.9H152c-6.7,0-12.2-6.1-12.2-13.5v-17.7l73.5-36.8l73.5,36.8v17.7c0,6.2-2.6,13.5-10.1,13.5h-97.9
		l-16.7,13.8L162.8,137.9z M214.1,121.6H229v-15.4h-14.9V121.6z M196.1,121.6H211v-15.4h-14.9V121.6z M214.1,103.1H229V88h-14.9
		V103.1z M196.1,103.1H211V88h-14.9V103.1z"/>
	<linearGradient id="SVGID_14_" gradientUnits="userSpaceOnUse" x1="213.8885" y1="3.7519" x2="213.8885" y2="106.3697">
		<stop  offset="0" style="stop-color:#34BAEC"/>
		<stop  offset="1" style="stop-color:#204295"/>
	</linearGradient>
	<path class="st13" d="M213.9,52.8l-72.9,36V51.4c0-4.5,1.3-13.2,10.1-13.2h38.2V24.6c0-4.8,3.6-7.3,8.3-7.3h32.7
		c4.8,0,7.2,2.4,7.2,7.3v13.6h39.3c8.8,0,10.1,8.7,10.1,13.2v37.4L213.9,52.8z M200.2,19.7c-5.3,0-6.3,2.2-6.3,6.6v11.9h40V26.2
		c0-5-1.5-6.6-6.3-6.6H200.2z"/>
	<linearGradient id="SVGID_15_" gradientUnits="userSpaceOnUse" x1="222.0196" y1="124.5244" x2="253.4264" y2="43.3273">
		<stop  offset="0" style="stop-color:#FAAE1A"/>
		<stop  offset="1" style="stop-color:#E95924"/>
	</linearGradient>
	<path class="st14" d="M195.9,102.1c0,0,0.1,0,0.1,0.1V88H211v15.1h-12.5c2.9,1.1,5.7,2.2,8.6,3.2h3.9v1.3c1.1,0.3,2.1,0.7,3.2,1
		v-2.3H229v6.4c6.3,1.5,12.7,2.8,19.2,3.9c12.8,1.5,25.7,2.2,38.6,2.6v-12.5l-73.5-36.8l-40.7,20.4C180.2,94.4,188,98.5,195.9,102.1
		z M214.1,88H229v15.1h-14.9V88z"/>
	<linearGradient id="SVGID_16_" gradientUnits="userSpaceOnUse" x1="196.0255" y1="114.2911" x2="227.6885" y2="32.4315">
		<stop  offset="0" style="stop-color:#34BAEC"/>
		<stop  offset="1" style="stop-color:#204295"/>
	</linearGradient>
	<path class="st15" d="M156.8,81l57.1-28.2l72.9,36V51.4c0-4.5-1.3-13.2-10.1-13.2h-38.2V24.6c0-4.8-3.6-8.4-8.3-8.4h-32.7
		c-4.8,0-8.3,3.6-8.3,8.4v13.6h-38.2c-8.8,0-10.1,8.7-10.1,13.2v20C146.2,74.6,151.5,77.8,156.8,81z M193.9,26.2
		c0-4.4,1-6.6,6.3-6.6h27.4c4.8,0,6.3,1.6,6.3,6.6v11.9h-40V26.2z"/>
</g>
<rect x="2.5" y="-42.5" class="st16" width="418.5" height="303"/>
</svg>
