<?xml version="1.0" encoding="utf-8"?>
<!-- Generator: Adobe Illustrator 23.0.0, SVG Export Plug-In . SVG Version: 6.00 Build 0)  -->
<svg version="1.1" id="Layer_1" xmlns="http://www.w3.org/2000/svg" xmlns:xlink="http://www.w3.org/1999/xlink" x="0px" y="0px"
	 viewBox="0 0 120 120" style="enable-background:new 0 0 120 120;" xml:space="preserve">
<style type="text/css">
	.st0{fill:#040A4F;}
</style>
<g>
	<path class="st0" d="M78.3,46.1c-2.3,0-4.3,0.4-6.1,1.1c-1.3,0.5-2.6,1.3-3.7,2.4s-2,2.3-2.7,3.7c-0.9,1.9-1.3,4.2-1.3,6.9
		c0,4.3,1.2,7.7,3.7,10.1c2.5,2.4,5.8,3.7,10.1,3.7c4.2,0,7.5-1.3,10-3.7c2.6-2.4,3.8-5.8,3.9-10.3c0-4.4-1.3-7.8-3.8-10.3
		C85.8,47.3,82.4,46.1,78.3,46.1z M83.9,66.9c-1.5,1.6-3.4,2.3-5.7,2.3s-4.2-0.8-5.7-2.3c-1.5-1.6-2.2-3.9-2.2-6.9
		c0-3.1,0.7-5.3,2.2-6.9c1.5-1.6,3.4-2.3,5.8-2.3s4.3,0.7,5.7,2.3c1.4,1.6,2.1,3.8,2.1,6.9S85.4,65.4,83.9,66.9z"/>
	<path class="st0" d="M60.3,59.2H47.9v4.5h6.6v3.4c-0.9,0.6-1.9,1.2-3.1,1.6c-1.2,0.4-2.4,0.7-3.6,0.7c-2.5,0-4.4-0.8-5.9-2.4
		c-1.5-1.6-2.2-4-2.2-7.2c0-2.9,0.7-5.2,2.2-6.7c1.5-1.5,3.5-2.3,6-2.3c1.7,0,3,0.4,4.2,1.2s1.9,1.8,2.3,3.1l5.8-1
		c-0.5-2.4-1.9-4.3-3.8-5.8c-2-1.4-4.8-2.1-8.3-2.1c-2.7,0-5,0.4-6.8,1.3c-2.4,1.2-4.3,2.8-5.5,5c-1.2,2.2-1.9,4.7-1.9,7.4
		c0,2.6,0.7,4.9,1.8,7.2c1.1,2.3,2.7,3.9,5,5.1c2.2,1.2,4.8,1.8,7.8,1.8c2.3,0,4.6-0.4,6.9-1.3c2.3-0.8,4-1.8,5.2-2.9h-0.1V59.2z"/>
	<path class="st0" d="M62.9,12C34.8,12,12,33.5,12,60s22.8,48,50.9,48s50.9-21.5,50.9-48S91,12,62.9,12z M62.9,104.7
		c-26.1,0-47.4-20-47.4-44.7s21.3-44.7,47.4-44.7s47.4,20,47.4,44.7S89,104.7,62.9,104.7z"/>
</g>
</svg>
