<svg xmlns="http://www.w3.org/2000/svg" width="93.283" height="107.708" viewBox="0 0 93.283 107.708">
  <g id="Page-1" transform="translate(0 0.017)">
    <g id="_061---tip-alert" data-name="061---tip-alert" transform="translate(0 -0.017)">
      <g id="color" transform="translate(1.794 1.78)">
        <path id="Shape" d="M89.7,19.176V67.611a7.176,7.176,0,0,1-7.176,7.176H64.58a3.588,3.588,0,0,0-2.87,1.435l-14.1,18.8a3.588,3.588,0,0,1-5.525,0l-14.1-18.8a3.588,3.588,0,0,0-2.87-1.435H7.176A7.176,7.176,0,0,1,0,67.611V19.176A7.176,7.176,0,0,1,7.176,12H20.307A25.222,25.222,0,0,0,27.59,35.59a21.634,21.634,0,0,1,6.494,15.768V62.229a5.382,5.382,0,0,0,5.382,5.382H50.229a5.382,5.382,0,0,0,5.382-5.382V51.053A20.9,20.9,0,0,1,62,35.7a24.989,24.989,0,0,0,7.965-18.316A25.366,25.366,0,0,0,69.388,12H82.519A7.176,7.176,0,0,1,89.7,19.176Z" transform="translate(0 7.777)" fill="#e91e63"/>
        <g id="Group_14" data-name="Group 14" transform="translate(14.36 19.777)">
          <path id="Shape-2" data-name="Shape" d="M15.853,35.59a21.634,21.634,0,0,1,6.494,15.768V62.229a5.382,5.382,0,0,0,5.382,5.382h5.382a5.382,5.382,0,0,1-5.382-5.382V51.358A21.634,21.634,0,0,0,21.235,35.59,25.222,25.222,0,0,1,13.952,12H8.57a25.222,25.222,0,0,0,7.283,23.59Z" transform="translate(-8.005 -12)" fill="#ad1457"/>
          <path id="Shape-3" data-name="Shape" d="M48.382,12H43a7.176,7.176,0,0,1,7.176,7.176V67.611A7.176,7.176,0,0,1,43,74.787h5.382a7.176,7.176,0,0,0,7.176-7.176V19.176A7.176,7.176,0,0,0,48.382,12Z" transform="translate(19.778 -12)" fill="#ad1457"/>
          <path id="Shape-4" data-name="Shape" d="M37.64,48.435l-14.1,18.8a3.588,3.588,0,0,0,5.382,0l14.1-18.8A3.588,3.588,0,0,1,45.892,47H40.51a3.588,3.588,0,0,0-2.87,1.435Z" transform="translate(4.328 15.787)" fill="#ad1457"/>
        </g>
        <path id="Shape-5" data-name="Shape" d="M61.225,26.134A24.989,24.989,0,0,1,53.26,44.45a20.9,20.9,0,0,0-6.386,15.356v4H25.347v-3.7a21.634,21.634,0,0,0-6.494-15.768A25.116,25.116,0,1,1,61.225,26.134Z" transform="translate(8.737 -0.975)" fill="#ffeb3a"/>
        <path id="Shape-6" data-name="Shape" d="M50.747,20.746A25.115,25.115,0,0,0,24.987,1.013a6.114,6.114,0,0,0-1.507.126A25.115,25.115,0,0,1,37.975,44.408,20.9,20.9,0,0,0,31.588,59.8v4H36.97v-4a20.9,20.9,0,0,1,6.386-15.356,24.989,24.989,0,0,0,7.965-18.316,25.366,25.366,0,0,0-.574-5.382Z" transform="translate(18.641 -0.969)" fill="#fdd834"/>
        <path id="Shape-7" data-name="Shape" d="M40.527,36v7.176a5.382,5.382,0,0,1-5.382,5.382H24.382A5.382,5.382,0,0,1,19,43.176V36Z" transform="translate(15.084 26.831)" fill="#f5f5f5"/>
        <path id="Shape-8" data-name="Shape" d="M30.382,36v7.176A5.382,5.382,0,0,1,25,48.557h5.382a5.382,5.382,0,0,0,5.382-5.382V36Z" transform="translate(19.848 26.831)" fill="#cfd8dc"/>
        <path id="Shape-9" data-name="Shape" d="M16.811,19.38H16.47a1.794,1.794,0,0,1-1.453-2.135A17.544,17.544,0,0,1,25.063,5.173a1.794,1.794,0,1,1,1.363,3.3S19.86,11.326,18.6,17.927a1.794,1.794,0,0,1-1.794,1.453Z" transform="translate(11.892 2.191)" fill="#f5f5f5"/>
      </g>
      <g id="Icons">
        <path id="Shape-10" data-name="Shape" d="M0,29.716V78.151a8.97,8.97,0,0,0,8.97,8.97H26.909a1.794,1.794,0,0,1,1.435.718L42.5,106.71a5.382,5.382,0,0,0,8.342,0l14.1-18.872a1.794,1.794,0,0,1,1.435-.718H84.313a8.97,8.97,0,0,0,8.97-8.97V29.716a8.97,8.97,0,0,0-8.97-8.97H72.563a26.893,26.893,0,0,0-51.862,0H8.97A8.97,8.97,0,0,0,0,29.716ZM45.511,4.6A23.321,23.321,0,0,1,62.571,44.91a22.729,22.729,0,0,0-6.96,16.683V63.8H37.672V61.9A23.446,23.446,0,0,0,30.6,44.821,23.321,23.321,0,0,1,45.511,4.6Zm6.512,71.756H41.26a3.588,3.588,0,0,1-3.588-3.588V67.388H55.611v5.382A3.588,3.588,0,0,1,52.023,76.357ZM3.588,29.716A5.382,5.382,0,0,1,8.97,24.334H20c0,.377-.126.753-.161,1.13A26.909,26.909,0,0,0,28.146,47.44,19.876,19.876,0,0,1,34.084,61.9V72.769a7.176,7.176,0,0,0,5.382,6.924v2.045a1.794,1.794,0,0,0,3.588,0V79.945h7.176v1.794a1.794,1.794,0,0,0,3.588,0V79.694A7.176,7.176,0,0,0,59.2,72.769V61.593a19.141,19.141,0,0,1,5.83-14.046,26.442,26.442,0,0,0,8.252-23.213H84.313A5.382,5.382,0,0,1,89.7,29.716V78.151a5.382,5.382,0,0,1-5.382,5.382H66.374a5.382,5.382,0,0,0-4.305,2.153L48.023,104.414a1.9,1.9,0,0,1-2.709,0l-14.1-18.728a5.382,5.382,0,0,0-4.305-2.153H8.97a5.382,5.382,0,0,1-5.382-5.382Z" transform="translate(0 -0.983)"/>
        <path id="Shape-11" data-name="Shape" d="M24.794,29A1.794,1.794,0,0,0,23,30.794v5.382a1.794,1.794,0,0,0,3.588,0V30.794A1.794,1.794,0,0,0,24.794,29Z" transform="translate(18.26 21.26)"/>
        <path id="Shape-12" data-name="Shape" d="M23,26.588a1.794,1.794,0,1,0,3.588,0V24.794a1.794,1.794,0,1,0-3.588,0Z" transform="translate(18.26 16.496)"/>
        <path id="Shape-13" data-name="Shape" d="M28.794,37.97a1.794,1.794,0,0,0,1.794-1.794V30.794a1.794,1.794,0,1,0-3.588,0v5.382A1.794,1.794,0,0,0,28.794,37.97Z" transform="translate(21.435 21.26)"/>
        <path id="Shape-14" data-name="Shape" d="M28.794,28.382a1.794,1.794,0,0,0,1.794-1.794V24.794a1.794,1.794,0,1,0-3.588,0v1.794A1.794,1.794,0,0,0,28.794,28.382Z" transform="translate(21.435 16.496)"/>
        <path id="Shape-15" data-name="Shape" d="M14.759,12.759a1.789,1.789,0,0,0,1.112-3.193L6.9,2.391a1.787,1.787,0,0,0-2.224,2.8l8.97,7.176a1.794,1.794,0,0,0,1.112.395Z" transform="translate(3.18 -0.172)"/>
        <path id="Shape-16" data-name="Shape" d="M43.906,12.365l8.97-7.176a1.787,1.787,0,1,0-2.224-2.8l-8.97,7.176a1.787,1.787,0,1,0,2.224,2.8Z" transform="translate(32.55 -0.172)"/>
        <path id="Shape-17" data-name="Shape" d="M4.395,41.142a1.789,1.789,0,0,0,2.511.269l8.97-7.176a1.794,1.794,0,1,0-2.224-2.8l-8.97,7.176a1.794,1.794,0,0,0-.287,2.529Z" transform="translate(3.176 22.805)"/>
        <path id="Shape-18" data-name="Shape" d="M50.6,41.327a1.787,1.787,0,1,0,2.224-2.8l-8.97-7.176a1.794,1.794,0,0,0-2.224,2.8Z" transform="translate(32.603 22.889)"/>
        <path id="Shape-19" data-name="Shape" d="M5.794,20.588h5.382a1.794,1.794,0,0,0,0-3.588H5.794a1.794,1.794,0,0,0,0,3.588Z" transform="translate(3.176 11.733)"/>
        <path id="Shape-20" data-name="Shape" d="M44.794,20.588h5.382a1.794,1.794,0,1,0,0-3.588H44.794a1.794,1.794,0,0,0,0,3.588Z" transform="translate(34.138 11.733)"/>
      </g>
    </g>
  </g>
</svg>
