<?xml version="1.0" encoding="utf-8"?>
<!-- Generator: Adobe Illustrator 23.0.0, SVG Export Plug-In . SVG Version: 6.00 Build 0)  -->
<svg version="1.1" xmlns="http://www.w3.org/2000/svg" xmlns:xlink="http://www.w3.org/1999/xlink" x="0px" y="0px"
	 viewBox="0 0 500 500" style="enable-background:new 0 0 500 500;" xml:space="preserve">
<style type="text/css">
	.st0{fill:#F5F5F5;}
	.st1{fill:#E0E0E0;}
	.st2{fill:#27DEBF;}
	.st3{opacity:0.1;}
	.st4{fill:#FFFFFF;}
	.st5{fill:#E6E6E6;}
	.st6{fill:#37474F;}
	.st7{fill:#263238;}
	.st8{fill:#455A64;}
	.st9{opacity:0.4;}
	.st10{opacity:0.8;fill:#FFFFFF;}
	.st11{opacity:0.85;fill:#FFFFFF;}
	.st12{opacity:0.65;fill:#FFFFFF;}
	.st13{opacity:0.55;fill:#FFFFFF;}
	.st14{opacity:0.4;fill:#FFFFFF;}
	.st15{opacity:5.000000e-02;}
	.st16{opacity:0.75;fill:#FFFFFF;}
	.st17{opacity:0.75;fill:#27DEBF;}
	.st18{opacity:0.15;}
	.st19{opacity:0.15;fill:none;stroke:#000000;stroke-width:0.7315;stroke-miterlimit:10;}
	.st20{opacity:0.5;fill:#FFFFFF;}
	.st21{fill:#FFA8A7;}
	.st22{fill:#F28F8F;}
	.st23{opacity:0.25;}
</style>
<g id="Floor">
	<ellipse id="Floor_1_" class="st0" cx="250" cy="346.5" rx="230.1" ry="132.8"/>
</g>
<g id="Shadows">
	<ellipse id="Shadow_28_" class="st1" cx="402.1" cy="373.5" rx="57.5" ry="33.2"/>
	<path id="Shadow_29_" class="st1" d="M196.1,445.2L53.4,362.8c-2.3-1.4-2.3-3.5,0-4.9l206.3-119.1c2.3-1.4,6.1-1.4,8.5,0
		l142.7,82.4c2.3,1.4,2.3,3.5,0,4.9L204.6,445.2C202.3,446.6,198.5,446.6,196.1,445.2z"/>
</g>
<g id="Plant">
	<g id="Plants_11_">
		<g id="XMLID_952_">
			<g id="XMLID_956_">
				<path id="XMLID_959_" class="st2" d="M431.2,354.4c-1.2-8.4,1.9-40.6,9.1-52.8c7.2-12.2,19-25.1,29.3-23.2
					c9.6,1.8,10.3,13.9,0.4,23.4c-9.9,9.5-25.1,21.9-27.9,36.3l-7.8,24.5L431.2,354.4z"/>
				<path id="XMLID_957_" class="st3" d="M431.2,354.4c-1.2-8.4,1.9-40.6,9.1-52.8c7.2-12.2,19-25.1,29.3-23.2
					c9.6,1.8,10.3,13.9,0.4,23.4c-9.9,9.5-25.1,21.9-27.9,36.3l-7.8,24.5L431.2,354.4z"/>
			</g>
			<g id="XMLID_953_">
				<path id="XMLID_955_" class="st4" d="M433.4,351.8c0.3-0.1,0.5-0.3,0.5-0.6c0.4-29.7,19.4-57.1,32.3-64.8
					c0.3-0.2,0.4-0.6,0.2-0.9c-0.2-0.3-0.6-0.4-0.9-0.2c-13.2,7.8-32.5,35.7-33,65.8c0,0.3,0.3,0.6,0.6,0.6
					C433.3,351.8,433.4,351.8,433.4,351.8z"/>
			</g>
		</g>
		<g id="XMLID_931_">
			<g id="XMLID_937_">
				<path id="XMLID_945_" class="st2" d="M438.1,367.2c0.7-4.9,4.1-13.5,11.9-21.9c9.6-10.3,25.5-16,27.7-22
					c2.7-7.2-3.4-12.1-13.7-8.9c-13.9,4.4-29.4,21.8-29.2,44.1L438.1,367.2z"/>
			</g>
			<g id="XMLID_932_">
				<path id="XMLID_933_" class="st4" d="M435.3,362.6c0.2-0.1,0.4-0.2,0.5-0.5c5.2-26,26.2-40,34.8-42.4c0.3-0.1,0.5-0.4,0.4-0.8
					c-0.1-0.3-0.4-0.5-0.8-0.4c-9.5,2.7-30.3,16.8-35.6,43.3c-0.1,0.3,0.2,0.7,0.5,0.7C435.1,362.6,435.2,362.6,435.3,362.6z"/>
			</g>
		</g>
	</g>
</g>
<g id="Clouds">
	<g id="Clouds_4_">
		<g id="XMLID_541_">
			<path id="XMLID_542_" class="st5" d="M146.3,74.4l-7.6,4.4c0-0.3,0.1-0.7,0.1-1v-2.2c0-3.9-2.8-5.5-6.2-3.6
				c-1.4,0.8-2.6,2.1-3.7,3.5c-0.6-4.9-4.4-6.8-9.1-4.1c-5.1,2.9-9.2,10.1-9.2,16v3.3c0,1.5,0.3,2.8,0.8,3.8l-6.3,3.7
				c-1.9,1.1-3.4,3.7-3.4,5.9c0,2.2,1.5,3.1,3.4,2l41.3-23.8c1.9-1.1,3.4-3.7,3.4-5.9C149.7,74.2,148.2,73.3,146.3,74.4z"/>
		</g>
		<g id="XMLID_539_">
			<path id="XMLID_540_" class="st5" d="M50.1,84.2l4.2-3.2v-9.3c0-7.3,5.9-15.9,12.2-19.5l0,0c6.4-3.7,11.5-0.7,11.5,6.6v1.3
				c1.4-2.2,3.3-4.2,5.3-5.3l0,0c4.6-2.6,8.3-0.5,8.3,4.8v0.6l5.9-3.4c3-1.7,5.5-0.3,5.5,3.1c0,3.5-2.4,7.7-5.5,9.4L50.1,96.8
				c-3,1.7-5.5,0.3-5.5-3.1C44.7,90.2,47.1,86,50.1,84.2z"/>
		</g>
	</g>
</g>
<g id="Device">
	<g id="Laptop">
		<path id="XMLID_30734_" class="st6" d="M62.2,351.5c0,2.8,2.1,6.2,4.6,7.7l129.5,74.8c2.6,1.5,6.7,1.5,9.2,0l191.9-110.8
			c2.6-1.5,4.6-4.9,4.6-7.7c0-2.8-2.1-6.2-4.6-7.7L268,233c-2.6-1.5-6.7-1.5-9.2,0L66.8,343.8C64.3,345.3,62.2,348.7,62.2,351.5z"/>
		<path id="XMLID_980_" class="st7" d="M201,425v10c-1.7,0-3.4-0.4-4.6-1.1L66.8,359.2c-2.6-1.5-4.6-4.9-4.6-7.7
			c0-2.6,1.8-5.8,4.2-7.4c-2.1,1.5-1.9,3.7,0.5,5l129.5,74.8C197.6,424.7,199.3,425,201,425z"/>
		<path id="XMLID_30732_" class="st8" d="M57.9,344c-2.4-1.4-4.3-4.9-4.3-7.8l0-154.5c0-2.9,2.1-6.5,4.6-8L250.1,62.8
			c2.6-1.5,6.6-1.5,9-0.2c2.4,1.4,4.3,4.9,4.3,7.8V225c0,2.9-2.1,6.5-4.6,8L66.8,343.8C64.3,345.3,60.3,345.4,57.9,344z"/>
		<path id="XMLID_979_" class="st7" d="M66.3,344.1c-2.6,1.2-6.2,1.2-8.4-0.1c-2.4-1.4-4.3-4.9-4.3-7.8V181.6c0-1.5,0.5-3.1,1.4-4.5
			l8.7,5v0c-0.8,1.5-1.4,3.1-1.4,4.5v154.5C62.2,343.9,64,345.1,66.3,344.1z"/>
		<path id="XMLID_30730_" class="st6" d="M62.2,186.6v154.5c0,2.9,2.1,4.1,4.6,2.7L258.8,233c2.6-1.5,4.6-5.1,4.6-8V70.5
			c0-2.9-2.1-4.1-4.6-2.7L66.8,178.6C64.3,180.1,62.2,183.7,62.2,186.6z"/>
		<path id="XMLID_30712_" class="st8" d="M66.8,349.2l129.5,74.8c2.6,1.5,6.7,1.5,9.2,0l191.9-110.8c2.6-1.5,2.6-3.9,0-5.3L268,233
			c-2.6-1.5-6.7-1.5-9.2,0L66.8,343.8C64.3,345.3,64.3,347.7,66.8,349.2z"/>
		<path id="XMLID_30711_" class="st2" d="M69.3,184.5L254.9,77.5c1.5-0.9,2.8-0.2,2.8,1.6v142.6c0,1.8-1.2,3.9-2.8,4.8L69.3,333.5
			c-1.5,0.9-2.8,0.2-2.8-1.6V189.4C66.6,187.6,67.8,185.4,69.3,184.5z"/>
		<path id="XMLID_529_" class="st9" d="M69.3,184.5L254.9,77.5c1.5-0.9,2.8-0.2,2.8,1.6v142.6c0,1.8-1.2,3.9-2.8,4.8L69.3,333.5
			c-1.5,0.9-2.8,0.2-2.8-1.6V189.4C66.6,187.6,67.8,185.4,69.3,184.5z"/>
		<path id="XMLID_30710_" class="st6" d="M81.9,345.2l179.2-103.4c1.3-0.7,3.3-0.7,4.6,0l8.4,4.9c1.3,0.7,1.3,1.9,0,2.7L94.9,352.7
			c-1.3,0.7-3.3,0.7-4.6,0l-8.4-4.8C80.6,347.1,80.6,345.9,81.9,345.2z"/>
		<path id="XMLID_30704_" class="st7" d="M103.6,357.7l179.2-103.4c1.3-0.7,3.3-0.7,4.6,0l51.7,29.9c1.3,0.7,1.3,1.9,0,2.7
			l-179,103.3c-1.3,0.7-3.3,0.7-4.6,0l-51.9-29.8C102.3,359.6,102.3,358.4,103.6,357.7z"/>
		<path id="XMLID_388_" class="st8" d="M261,298.2l5.6-3.3c0.2-0.1,0.2-0.4,0-0.5l-6-3.4c-0.2-0.1-0.6-0.1-0.9,0l-5.6,3.3
			c-0.2,0.1-0.2,0.4,0,0.5l6,3.4C260.4,298.3,260.8,298.3,261,298.2z M251.4,286.1l-5.6,3.3c-0.2,0.1-0.2,0.4,0,0.5l6,3.4
			c0.2,0.1,0.6,0.1,0.9,0l5.6-3.3c0.2-0.1,0.2-0.4,0-0.5l-6-3.4C252,286,251.6,286,251.4,286.1z M233.1,296.6l-9.5,5.5
			c-0.2,0.1-0.2,0.4,0,0.5l6,3.4c0.2,0.1,0.6,0.1,0.9,0l9.5-5.5c0.2-0.1,0.2-0.4,0-0.5l-6-3.4C233.7,296.5,233.4,296.5,233.1,296.6z
			 M243.1,290.9l-5.6,3.3c-0.2,0.1-0.2,0.4,0,0.5l6,3.4c0.2,0.1,0.6,0.1,0.9,0l5.6-3.3c0.2-0.1,0.2-0.4,0-0.5l-6-3.4
			C243.7,290.7,243.3,290.7,243.1,290.9z M221,303.6l-5.6,3.3c-0.2,0.1-0.2,0.4,0,0.5l6,3.4c0.2,0.1,0.6,0.1,0.9,0l5.6-3.3
			c0.2-0.1,0.2-0.4,0-0.5l-6-3.4C221.6,303.5,221.2,303.5,221,303.6z M212.7,308.4l-5.6,3.3c-0.2,0.1-0.2,0.4,0,0.5l6,3.4
			c0.2,0.1,0.6,0.1,0.9,0l5.6-3.3c0.2-0.1,0.2-0.4,0-0.5l-6-3.4C213.4,308.3,213,308.3,212.7,308.4z M236.1,322.4l5.6-3.3
			c0.2-0.1,0.2-0.4,0-0.5l-6-3.4c-0.2-0.1-0.6-0.1-0.9,0l-5.6,3.3c-0.2,0.1-0.2,0.4,0,0.5l6,3.4
			C235.5,322.6,235.9,322.5,236.1,322.4z M227.9,327.2l5.6-3.3c0.2-0.1,0.2-0.4,0-0.5l-6-3.4c-0.2-0.1-0.6-0.1-0.9,0l-5.6,3.3
			c-0.2,0.1-0.2,0.4,0,0.5l6,3.4C227.2,327.3,227.6,327.3,227.9,327.2z M219.6,331.9l5.6-3.3c0.2-0.1,0.2-0.4,0-0.5l-6-3.4
			c-0.2-0.1-0.6-0.1-0.9,0l-5.6,3.3c-0.2,0.1-0.2,0.4,0,0.5l6,3.4C219,332.1,219.4,332.1,219.6,331.9z M211.4,336.7l5.6-3.3
			c0.2-0.1,0.2-0.4,0-0.5l-6-3.4c-0.2-0.1-0.6-0.1-0.9,0l-5.6,3.3c-0.2,0.1-0.2,0.4,0,0.5l6,3.4
			C210.7,336.8,211.1,336.8,211.4,336.7z M252.8,303l5.6-3.3c0.2-0.1,0.2-0.4,0-0.5l-6-3.4c-0.2-0.1-0.6-0.1-0.9,0L246,299
			c-0.2,0.1-0.2,0.4,0,0.5l6,3.4C252.1,303.1,252.5,303.1,252.8,303z M244.4,317.6l12.6-7.3c0.2-0.1,0.2-0.4,0-0.5l-14.5-8.3
			c-0.2-0.1-0.6-0.1-0.9,0l-6.5,3.8c-0.2,0.1-0.2,0.4,0,0.5l7.7,4.4c0.2,0.1,0.2,0.4,0,0.5l-5.2,3c-0.2,0.1-0.2,0.4,0,0.5l6,3.4
			C243.7,317.8,244.1,317.8,244.4,317.6z M204.5,313.2l-5.6,3.3c-0.2,0.1-0.2,0.4,0,0.5l6,3.4c0.2,0.1,0.6,0.1,0.9,0l5.6-3.3
			c0.2-0.1,0.2-0.4,0-0.5l-6-3.4C205.1,313,204.7,313,204.5,313.2z M196.2,317.9l-5.6,3.3c-0.2,0.1-0.2,0.4,0,0.5l6,3.4
			c0.2,0.1,0.6,0.1,0.9,0l5.6-3.3c0.2-0.1,0.2-0.4,0-0.5l-6-3.4C196.9,317.8,196.5,317.8,196.2,317.9z M152.8,370
			c0.2,0.1,0.6,0.1,0.9,0l5.6-3.3c0.2-0.1,0.2-0.4,0-0.5l-6-3.4c-0.2-0.1-0.6-0.1-0.9,0l-5.6,3.3c-0.2,0.1-0.2,0.4,0,0.5L152.8,370z
			 M130.3,356l-5.6,3.3c-0.2,0.1-0.2,0.4,0,0.5l6,3.4c0.2,0.1,0.6,0.1,0.9,0l5.6-3.3c0.2-0.1,0.2-0.4,0-0.5l-6-3.4
			C130.9,355.9,130.5,355.9,130.3,356z M142.1,366.4c0.2,0.1,0.6,0.1,0.9,0l5.6-3.3c0.2-0.1,0.2-0.4,0-0.5l-6-3.4
			c-0.2-0.1-0.6-0.1-0.9,0l-5.6,3.3c-0.2,0.1-0.2,0.4,0,0.5L142.1,366.4z M166.5,372.4l5.6-3.3c0.2-0.1,0.2-0.4,0-0.5l-6-3.4
			c-0.2-0.1-0.6-0.1-0.9,0l-5.6,3.3c-0.2,0.1-0.2,0.4,0,0.5l6,3.4C165.9,372.6,166.3,372.6,166.5,372.4z M157.4,377.2
			c0.2,0.1,0.6,0.1,0.9,0l5.6-3.3c0.2-0.1,0.2-0.4,0-0.5l-6-3.4c-0.2-0.1-0.6-0.1-0.9,0l-5.6,3.3c-0.2,0.1-0.2,0.4,0,0.5
			L157.4,377.2z M138.5,351.3l-5.6,3.3c-0.2,0.1-0.2,0.4,0,0.5l6,3.4c0.2,0.1,0.6,0.1,0.9,0l5.6-3.3c0.2-0.1,0.2-0.4,0-0.5l-6-3.4
			C139.1,351.1,138.8,351.1,138.5,351.3z M179.7,327.5l-5.6,3.3c-0.2,0.1-0.2,0.4,0,0.5l6,3.4c0.2,0.1,0.6,0.1,0.9,0l5.6-3.3
			c0.2-0.1,0.2-0.4,0-0.5l-6-3.4C180.4,327.3,180,327.3,179.7,327.5z M146.8,346.5l-5.6,3.3c-0.2,0.1-0.2,0.4,0,0.5l6,3.4
			c0.2,0.1,0.6,0.1,0.9,0l5.6-3.3c0.2-0.1,0.2-0.4,0-0.5l-6-3.4C147.4,346.4,147,346.4,146.8,346.5z M188,322.7l-5.6,3.3
			c-0.2,0.1-0.2,0.4,0,0.5l6,3.4c0.2,0.1,0.6,0.1,0.9,0l5.6-3.3c0.2-0.1,0.2-0.4,0-0.5l-6-3.4C188.6,322.5,188.2,322.6,188,322.7z
			 M171.5,332.2l-5.6,3.3c-0.2,0.1-0.2,0.4,0,0.5l6,3.4c0.2,0.1,0.6,0.1,0.9,0l5.6-3.3c0.2-0.1,0.2-0.4,0-0.5l-6-3.4
			C172.1,332.1,171.7,332.1,171.5,332.2z M163.3,337l-5.6,3.3c-0.2,0.1-0.2,0.4,0,0.5l6,3.4c0.2,0.1,0.6,0.1,0.9,0l5.6-3.3
			c0.2-0.1,0.2-0.4,0-0.5l-6-3.4C163.9,336.8,163.5,336.8,163.3,337z M155,341.7l-5.6,3.3c-0.2,0.1-0.2,0.4,0,0.5l6,3.4
			c0.2,0.1,0.6,0.1,0.9,0l5.6-3.3c0.2-0.1,0.2-0.4,0-0.5l-6-3.4C155.6,341.6,155.2,341.6,155,341.7z M194.9,346.2l5.6-3.3
			c0.2-0.1,0.2-0.4,0-0.5l-6-3.4c-0.2-0.1-0.6-0.1-0.9,0l-5.6,3.3c-0.2,0.1-0.2,0.4,0,0.5l6,3.4
			C194.3,346.4,194.6,346.4,194.9,346.2z M269.6,275.6l-5.6,3.3c-0.2,0.1-0.2,0.4,0,0.5l6,3.4c0.2,0.1,0.6,0.1,0.9,0l5.6-3.3
			c0.2-0.1,0.2-0.4,0-0.5l-6-3.4C270.2,275.4,269.8,275.4,269.6,275.6z M259.6,281.3l-5.6,3.3c-0.2,0.1-0.2,0.4,0,0.5l6,3.4
			c0.2,0.1,0.6,0.1,0.9,0l5.6-3.3c0.2-0.1,0.2-0.4,0-0.5l-6-3.4C260.2,281.2,259.8,281.2,259.6,281.3z M277.8,270.8l-5.6,3.3
			c-0.2,0.1-0.2,0.4,0,0.5l6,3.4c0.2,0.1,0.6,0.1,0.9,0l5.6-3.3c0.2-0.1,0.2-0.4,0-0.5l-6-3.4C278.4,270.7,278.1,270.7,277.8,270.8z
			 M233.7,314l5.6-3.3c0.2-0.1,0.2-0.4,0-0.5l-6-3.4c-0.2-0.1-0.6-0.1-0.9,0l-5.6,3.3c-0.2,0.1-0.2,0.4,0,0.5l6,3.4
			C233.1,314.1,233.4,314.1,233.7,314z M286.9,266.1c-0.2-0.1-0.6-0.1-0.9,0l-5.6,3.3c-0.2,0.1-0.2,0.4,0,0.5l6,3.4
			c0.2,0.1,0.6,0.1,0.9,0l5.6-3.3c0.2-0.1,0.2-0.4,0-0.5L286.9,266.1z M203.1,341.5l5.6-3.3c0.2-0.1,0.2-0.4,0-0.5l-6-3.4
			c-0.2-0.1-0.6-0.1-0.9,0l-5.6,3.3c-0.2,0.1-0.2,0.4,0,0.5l6,3.4C202.5,341.6,202.9,341.6,203.1,341.5z M304.2,283.1l5.6-3.3
			c0.2-0.1,0.2-0.4,0-0.5l-6-3.4c-0.2-0.1-0.6-0.1-0.9,0l-5.6,3.3c-0.2,0.1-0.2,0.4,0,0.5l6,3.4C303.6,283.2,304,283.2,304.2,283.1z
			 M287.5,282.9l5.6-3.3c0.2-0.1,0.2-0.4,0-0.5l-6-3.4c-0.2-0.1-0.6-0.1-0.9,0l-5.6,3.3c-0.2,0.1-0.2,0.4,0,0.5l6,3.4
			C286.9,283.1,287.3,283.1,287.5,282.9z M295.4,271c-0.2-0.1-0.6-0.1-0.9,0l-5.6,3.3c-0.2,0.1-0.2,0.4,0,0.5l6,3.4
			c0.2,0.1,0.6,0.1,0.9,0l5.6-3.3c0.2-0.1,0.2-0.4,0-0.5L295.4,271z M297.2,270l14.5,8.3c0.2,0.1,0.6,0.1,0.9,0l5.6-3.3
			c0.2-0.1,0.2-0.4,0-0.5l-14.5-8.3c-0.2-0.1-0.6-0.1-0.9,0l-5.6,3.3C296.9,269.6,296.9,269.8,297.2,270z M278.1,280.5l-5.6,3.3
			c-0.2,0.1-0.2,0.4,0,0.5l6,3.4c0.2,0.1,0.6,0.1,0.9,0l5.6-3.3c0.2-0.1,0.2-0.4,0-0.5l-6-3.4C278.7,280.4,278.3,280.4,278.1,280.5z
			 M216,316.3l-5.6,3.3c-0.2,0.1-0.2,0.4,0,0.5l6,3.4c0.2,0.1,0.6,0.1,0.9,0l5.6-3.3c0.2-0.1,0.2-0.4,0-0.5l-6-3.4
			C216.6,316.2,216.3,316.2,216,316.3z M295.1,287.8c0.2,0.1,0.6,0.1,0.9,0l5.6-3.3c0.2-0.1,0.2-0.4,0-0.5l-6-3.4
			c-0.2-0.1-0.6-0.1-0.9,0l-5.6,3.3c-0.2,0.1-0.2,0.4,0,0.5L295.1,287.8z M224.3,311.6l-5.6,3.3c-0.2,0.1-0.2,0.4,0,0.5l6,3.4
			c0.2,0.1,0.6,0.1,0.9,0l5.6-3.3c0.2-0.1,0.2-0.4,0-0.5l-6-3.4C224.9,311.4,224.5,311.4,224.3,311.6z M161,365.3
			c0.2,0.1,0.6,0.1,0.9,0l5.6-3.3c0.2-0.1,0.2-0.4,0-0.5l-6-3.4c-0.2-0.1-0.6-0.1-0.9,0l-5.6,3.3c-0.2,0.1-0.2,0.4,0,0.5L161,365.3z
			 M150.1,354.4l-5.6,3.3c-0.2,0.1-0.2,0.4,0,0.5l6,3.4c0.2,0.1,0.6,0.1,0.9,0l5.6-3.3c0.2-0.1,0.2-0.4,0-0.5l-6-3.4
			C150.7,354.3,150.3,354.3,150.1,354.4z M170.1,360.5l5.6-3.3c0.2-0.1,0.2-0.4,0-0.5l-6-3.4c-0.2-0.1-0.6-0.1-0.9,0l-5.6,3.3
			c-0.2,0.1-0.2,0.4,0,0.5l6,3.4C169.5,360.6,169.9,360.6,170.1,360.5z M178.4,355.7l5.6-3.3c0.2-0.1,0.2-0.4,0-0.5l-6-3.4
			c-0.2-0.1-0.6-0.1-0.9,0l-5.6,3.3c-0.2,0.1-0.2,0.4,0,0.5l6,3.4C177.8,355.9,178.2,355.9,178.4,355.7z M186.6,351l5.6-3.3
			c0.2-0.1,0.2-0.4,0-0.5l-6-3.4c-0.2-0.1-0.6-0.1-0.9,0l-5.6,3.3c-0.2,0.1-0.2,0.4,0,0.5l6,3.4C186,351.1,186.4,351.1,186.6,351z
			 M158.3,349.7l-5.6,3.3c-0.2,0.1-0.2,0.4,0,0.5l6,3.4c0.2,0.1,0.6,0.1,0.9,0l5.6-3.3c0.2-0.1,0.2-0.4,0-0.5l-6-3.4
			C158.9,349.5,158.5,349.5,158.3,349.7z M166.6,344.9l-5.6,3.3c-0.2,0.1-0.2,0.4,0,0.5l6,3.4c0.2,0.1,0.6,0.1,0.9,0l5.6-3.3
			c0.2-0.1,0.2-0.4,0-0.5l-6-3.4C167.2,344.7,166.8,344.8,166.6,344.9z M199.5,325.8l-5.6,3.3c-0.2,0.1-0.2,0.4,0,0.5l6,3.4
			c0.2,0.1,0.6,0.1,0.9,0l5.6-3.3c0.2-0.1,0.2-0.4,0-0.5l-6-3.4C200.2,325.7,199.8,325.7,199.5,325.8z M191.3,330.6l-5.6,3.3
			c-0.2,0.1-0.2,0.4,0,0.5l6,3.4c0.2,0.1,0.6,0.1,0.9,0l5.6-3.3c0.2-0.1,0.2-0.4,0-0.5l-6-3.4C191.9,330.5,191.5,330.5,191.3,330.6z
			 M207.8,321.1l-5.6,3.3c-0.2,0.1-0.2,0.4,0,0.5l6,3.4c0.2,0.1,0.6,0.1,0.9,0l5.6-3.3c0.2-0.1,0.2-0.4,0-0.5l-6-3.4
			C208.4,320.9,208,320.9,207.8,321.1z M174.8,340.1l-5.6,3.3c-0.2,0.1-0.2,0.4,0,0.5l6,3.4c0.2,0.1,0.6,0.1,0.9,0l5.6-3.3
			c0.2-0.1,0.2-0.4,0-0.5l-6-3.4C175.4,340,175,340,174.8,340.1z M183,335.4l-5.6,3.3c-0.2,0.1-0.2,0.4,0,0.5l6,3.4
			c0.2,0.1,0.6,0.1,0.9,0l5.6-3.3c0.2-0.1,0.2-0.4,0-0.5l-6-3.4C183.7,335.2,183.3,335.2,183,335.4z M174.7,367.7l5.6-3.3
			c0.2-0.1,0.2-0.4,0-0.5l-6-3.4c-0.2-0.1-0.6-0.1-0.9,0l-5.6,3.3c-0.2,0.1-0.2,0.4,0,0.5l6,3.4
			C174.1,367.8,174.5,367.8,174.7,367.7z M128.8,364.2l-6-3.4c-0.2-0.1-0.6-0.1-0.9,0l-5.6,3.3c-0.2,0.1-0.2,0.4,0,0.5l6,3.4
			c0.2,0.1,0.6,0.1,0.9,0l5.6-3.3C129.1,364.6,129.1,364.3,128.8,364.2z M140.4,367.4l-6-3.4c-0.2-0.1-0.6-0.1-0.9,0l-8.7,5
			c-0.2,0.1-0.2,0.4,0,0.5l6,3.4c0.2,0.1,0.6,0.1,0.9,0l8.7-5C140.6,367.7,140.6,367.5,140.4,367.4z M119.8,357.5l-6-3.4
			c-0.2-0.1-0.6-0.1-0.9,0l-6.9,4c-0.2,0.1-0.2,0.4,0,0.5l6,3.4c0.2,0.1,0.6,0.1,0.9,0l6.9-4C120,357.9,120.1,357.6,119.8,357.5z
			 M125.1,354.4c0.2,0.1,0.6,0.1,0.9,0l5.6-3.3c0.2-0.1,0.2-0.4,0-0.5l-6-3.4c-0.2-0.1-0.6-0.1-0.9,0l-5.6,3.3
			c-0.2,0.1-0.2,0.4,0,0.5L125.1,354.4z M151.1,371l-6-3.4c-0.2-0.1-0.6-0.1-0.9,0l-10.8,6.3c-0.2,0.1-0.2,0.4,0,0.5l6,3.4
			c0.2,0.1,0.6,0.1,0.9,0l10.8-6.3C151.3,371.4,151.3,371.2,151.1,371z M155.7,378.2l-6-3.4c-0.2-0.1-0.6-0.1-0.9,0l-6.9,4
			c-0.2,0.1-0.2,0.4,0,0.5l6,3.4c0.2,0.1,0.6,0.1,0.9,0l6.9-4C155.9,378.5,155.9,378.3,155.7,378.2z M186.4,319
			c0.2,0.1,0.6,0.1,0.9,0l5.6-3.3c0.2-0.1,0.2-0.4,0-0.5l-6-3.4c-0.2-0.1-0.6-0.1-0.9,0l-5.6,3.3c-0.2,0.1-0.2,0.4,0,0.5L186.4,319z
			 M170,328.5c0.2,0.1,0.6,0.1,0.9,0l5.6-3.3c0.2-0.1,0.2-0.4,0-0.5l-6-3.4c-0.2-0.1-0.6-0.1-0.9,0l-5.6,3.3c-0.2,0.1-0.2,0.4,0,0.5
			L170,328.5z M133.4,349.7c0.2,0.1,0.6,0.1,0.9,0l5.6-3.3c0.2-0.1,0.2-0.4,0-0.5l-6-3.4c-0.2-0.1-0.6-0.1-0.9,0l-5.6,3.3
			c-0.2,0.1-0.2,0.4,0,0.5L133.4,349.7z M178.2,323.8c0.2,0.1,0.6,0.1,0.9,0l5.6-3.3c0.2-0.1,0.2-0.4,0-0.5l-6-3.4
			c-0.2-0.1-0.6-0.1-0.9,0l-5.6,3.3c-0.2,0.1-0.2,0.4,0,0.5L178.2,323.8z M161.7,333.3c0.2,0.1,0.6,0.1,0.9,0l5.6-3.3
			c0.2-0.1,0.2-0.4,0-0.5l-6-3.4c-0.2-0.1-0.6-0.1-0.9,0l-5.6,3.3c-0.2,0.1-0.2,0.4,0,0.5L161.7,333.3z M159.9,378.7
			c-0.2-0.1-0.6-0.1-0.9,0l-8.7,5c-0.2,0.1-0.2,0.4,0,0.5l6,3.4c0.2,0.1,0.6,0.1,0.9,0l8.7-5c0.2-0.1,0.2-0.4,0-0.5L159.9,378.7z
			 M149.9,340.1c0.2,0.1,0.6,0.1,0.9,0l5.6-3.3c0.2-0.1,0.2-0.4,0-0.5l-6-3.4c-0.2-0.1-0.6-0.1-0.9,0l-5.6,3.3
			c-0.2,0.1-0.2,0.4,0,0.5L149.9,340.1z M141.6,344.9c0.2,0.1,0.6,0.1,0.9,0l5.6-3.3c0.2-0.1,0.2-0.4,0-0.5l-6-3.4
			c-0.2-0.1-0.6-0.1-0.9,0l-5.6,3.3c-0.2,0.1-0.2,0.4,0,0.5L141.6,344.9z M312.7,290.5c-0.2-0.1-0.6-0.1-0.9,0l-13.9,8
			c-0.2,0.1-0.2,0.4,0,0.5l6,3.4c0.2,0.1,0.6,0.1,0.9,0l13.9-8c0.2-0.1,0.2-0.4,0-0.5L312.7,290.5z M294.5,301
			c-0.2-0.1-0.6-0.1-0.9,0l-5.6,3.3c-0.2,0.1-0.2,0.4,0,0.5l6,3.4c0.2,0.1,0.6,0.1,0.9,0l5.6-3.3c0.2-0.1,0.2-0.4,0-0.5L294.5,301z
			 M183,362.9l5.6-3.3c0.2-0.1,0.2-0.4,0-0.5l-6-3.4c-0.2-0.1-0.6-0.1-0.9,0l-5.6,3.3c-0.2,0.1-0.2,0.4,0,0.5l6,3.4
			C182.4,363,182.8,363,183,362.9z M278,310.5c-0.2-0.1-0.6-0.1-0.9,0l-5.6,3.3c-0.2,0.1-0.2,0.4,0,0.5l6,3.4c0.2,0.1,0.6,0.1,0.9,0
			l5.6-3.3c0.2-0.1,0.2-0.4,0-0.5L278,310.5z M321,285.7c-0.2-0.1-0.6-0.1-0.9,0l-5.6,3.3c-0.2,0.1-0.2,0.4,0,0.5l6,3.4
			c0.2,0.1,0.6,0.1,0.9,0l5.6-3.3c0.2-0.1,0.2-0.4,0-0.5L321,285.7z M335.2,284.4l-14.5-8.3c-0.2-0.1-0.6-0.1-0.9,0l-5.6,3.3
			c-0.2,0.1-0.2,0.4,0,0.5l14.5,8.3c0.2,0.1,0.6,0.1,0.9,0l5.6-3.3C335.4,284.7,335.4,284.5,335.2,284.4z M247.2,328.3
			c-0.2-0.1-0.6-0.1-0.9,0l-6.9,4c-0.2,0.1-0.2,0.4,0,0.5l6,3.4c0.2,0.1,0.6,0.1,0.9,0l6.9-4c0.2-0.1,0.2-0.4,0-0.5L247.2,328.3z
			 M268,316.3c-0.2-0.1-0.6-0.1-0.9,0l-8.7,5c-0.2,0.1-0.2,0.4,0,0.5l6,3.4c0.2,0.1,0.6,0.1,0.9,0l8.7-5c0.2-0.1,0.2-0.4,0-0.5
			L268,316.3z M228.1,339.3c-0.2-0.1-0.6-0.1-0.9,0l-46.4,26.8c-0.2,0.1-0.2,0.4,0,0.5l6,3.4c0.2,0.1,0.6,0.1,0.9,0l46.4-26.8
			c0.2-0.1,0.2-0.4,0-0.5L228.1,339.3z M179,367.6c-0.2-0.1-0.6-0.1-0.9,0l-6.9,4c-0.2,0.1-0.2,0.4,0,0.5l6,3.4
			c0.2,0.1,0.6,0.1,0.9,0l6.9-4c0.2-0.1,0.2-0.4,0-0.5L179,367.6z M237.6,333.8c-0.2-0.1-0.6-0.1-0.9,0l-6.9,4
			c-0.2,0.1-0.2,0.4,0,0.5l6,3.4c0.2,0.1,0.6,0.1,0.9,0l6.9-4c0.2-0.1,0.2-0.4,0-0.5L237.6,333.8z M169.5,373.1
			c-0.2-0.1-0.6-0.1-0.9,0l-6.9,4c-0.2,0.1-0.2,0.4,0,0.5l6,3.4c0.2,0.1,0.6,0.1,0.9,0l6.9-4c0.2-0.1,0.2-0.4,0-0.5L169.5,373.1z
			 M256.7,322.8c-0.2-0.1-0.6-0.1-0.9,0l-6.9,4c-0.2,0.1-0.2,0.4,0,0.5l6,3.4c0.2,0.1,0.6,0.1,0.9,0l6.9-4c0.2-0.1,0.2-0.4,0-0.5
			L256.7,322.8z M286.2,305.7c-0.2-0.1-0.6-0.1-0.9,0l-5.6,3.3c-0.2,0.1-0.2,0.4,0,0.5l6,3.4c0.2,0.1,0.6,0.1,0.9,0l5.6-3.3
			c0.2-0.1,0.2-0.4,0-0.5L286.2,305.7z M304.5,292.7l5.6-3.3c0.2-0.1,0.2-0.4,0-0.5l-6-3.4c-0.2-0.1-0.6-0.1-0.9,0l-5.6,3.3
			c-0.2,0.1-0.2,0.4,0,0.5l6,3.4C303.9,292.9,304.3,292.9,304.5,292.7z M269.3,293.4l5.6-3.3c0.2-0.1,0.2-0.4,0-0.5l-6-3.4
			c-0.2-0.1-0.6-0.1-0.9,0l-5.6,3.3c-0.2,0.1-0.2,0.4,0,0.5l6,3.4C268.6,293.6,269,293.6,269.3,293.4z M249,324.8l16.5-9.5
			c0.2-0.1,0.2-0.4,0-0.5l-6-3.4c-0.2-0.1-0.6-0.1-0.9,0l-16.5,9.5c-0.2,0.1-0.2,0.4,0,0.5l6,3.4C248.3,325,248.7,325,249,324.8z
			 M295.4,297.5c0.2,0.1,0.6,0.1,0.9,0l5.6-3.3c0.2-0.1,0.2-0.4,0-0.5l-6-3.4c-0.2-0.1-0.6-0.1-0.9,0l-5.6,3.3
			c-0.2,0.1-0.2,0.4,0,0.5L295.4,297.5z M287.8,292.6l5.6-3.3c0.2-0.1,0.2-0.4,0-0.5l-6-3.4c-0.2-0.1-0.6-0.1-0.9,0l-5.6,3.3
			c-0.2,0.1-0.2,0.4,0,0.5l6,3.4C287.1,292.7,287.5,292.7,287.8,292.6z M240.7,329.6l5.6-3.3c0.2-0.1,0.2-0.4,0-0.5l-6-3.4
			c-0.2-0.1-0.6-0.1-0.9,0l-5.6,3.3c-0.2,0.1-0.2,0.4,0,0.5l6,3.4C240.1,329.7,240.5,329.7,240.7,329.6z M277.2,308
			c0.2,0.1,0.6,0.1,0.9,0l5.6-3.3c0.2-0.1,0.2-0.4,0-0.5l-6-3.4c-0.2-0.1-0.6-0.1-0.9,0l-5.6,3.3c-0.2,0.1-0.2,0.4,0,0.5L277.2,308z
			 M199.5,353.4l5.6-3.3c0.2-0.1,0.2-0.4,0-0.5l-6-3.4c-0.2-0.1-0.6-0.1-0.9,0l-5.6,3.3c-0.2,0.1-0.2,0.4,0,0.5l6,3.4
			C198.9,353.5,199.2,353.5,199.5,353.4z M207.7,348.6l5.6-3.3c0.2-0.1,0.2-0.4,0-0.5l-6-3.4c-0.2-0.1-0.6-0.1-0.9,0l-5.6,3.3
			c-0.2,0.1-0.2,0.4,0,0.5l6,3.4C207.1,348.8,207.5,348.8,207.7,348.6z M191.2,358.1l5.6-3.3c0.2-0.1,0.2-0.4,0-0.5l-6-3.4
			c-0.2-0.1-0.6-0.1-0.9,0l-5.6,3.3c-0.2,0.1-0.2,0.4,0,0.5l6,3.4C190.6,358.3,191,358.3,191.2,358.1z M224.2,339.1l5.6-3.3
			c0.2-0.1,0.2-0.4,0-0.5l-6-3.4c-0.2-0.1-0.6-0.1-0.9,0l-5.6,3.3c-0.2,0.1-0.2,0.4,0,0.5l6,3.4C223.6,339.2,224,339.2,224.2,339.1z
			 M216,343.9l5.6-3.3c0.2-0.1,0.2-0.4,0-0.5l-6-3.4c-0.2-0.1-0.6-0.1-0.9,0l-5.6,3.3c-0.2,0.1-0.2,0.4,0,0.5l6,3.4
			C215.3,344,215.7,344,216,343.9z M232.5,334.3l5.6-3.3c0.2-0.1,0.2-0.4,0-0.5l-6-3.4c-0.2-0.1-0.6-0.1-0.9,0l-5.6,3.3
			c-0.2,0.1-0.2,0.4,0,0.5l6,3.4C231.8,334.5,232.2,334.5,232.5,334.3z M273.9,266c0.2,0.1,0.6,0.1,0.9,0l5.6-3.3
			c0.2-0.1,0.2-0.4,0-0.5l-1.6-0.9c-0.2-0.1-0.6-0.1-0.9,0l-5.6,3.3c-0.2,0.1-0.2,0.4,0,0.5L273.9,266z M233.1,292.1
			c0.2,0.1,0.6,0.1,0.9,0l5.6-3.3c0.2-0.1,0.2-0.4,0-0.5l-6-3.4c-0.2-0.1-0.6-0.1-0.9,0l-5.6,3.3c-0.2,0.1-0.2,0.4,0,0.5
			L233.1,292.1z M249.6,282.6c0.2,0.1,0.6,0.1,0.9,0l5.6-3.3c0.2-0.1,0.2-0.4,0-0.5l-6-3.4c-0.2-0.1-0.6-0.1-0.9,0l-5.6,3.3
			c-0.2,0.1-0.2,0.4,0,0.5L249.6,282.6z M223,297.9c0.2,0.1,0.6,0.1,0.9,0l5.6-3.3c0.2-0.1,0.2-0.4,0-0.5l-6-3.4
			c-0.2-0.1-0.6-0.1-0.9,0l-5.6,3.3c-0.2,0.1-0.2,0.4,0,0.5L223,297.9z M241.3,287.3c0.2,0.1,0.6,0.1,0.9,0l5.6-3.3
			c0.2-0.1,0.2-0.4,0-0.5l-6-3.4c-0.2-0.1-0.6-0.1-0.9,0l-5.6,3.3c-0.2,0.1-0.2,0.4,0,0.5L241.3,287.3z M206.5,307.4
			c0.2,0.1,0.6,0.1,0.9,0l5.6-3.3c0.2-0.1,0.2-0.4,0-0.5l-6-3.4c-0.2-0.1-0.6-0.1-0.9,0l-5.6,3.3c-0.2,0.1-0.2,0.4,0,0.5
			L206.5,307.4z M214.8,302.7c0.2,0.1,0.6,0.1,0.9,0l5.6-3.3c0.2-0.1,0.2-0.4,0-0.5l-6-3.4c-0.2-0.1-0.6-0.1-0.9,0l-5.6,3.3
			c-0.2,0.1-0.2,0.4,0,0.5L214.8,302.7z M257.4,275.6c0.2,0.1,0.6,0.1,0.9,0l5.6-3.3c0.2-0.1,0.2-0.4,0-0.5l-1.6-0.9
			c-0.2-0.1-0.6-0.1-0.9,0l-5.6,3.3c-0.2,0.1-0.2,0.4,0,0.5L257.4,275.6z M282.1,261.3c0.2,0.1,0.6,0.1,0.9,0l5.6-3.3
			c0.2-0.1,0.2-0.4,0-0.5l-1.6-0.9c-0.2-0.1-0.6-0.1-0.9,0l-5.6,3.3c-0.2,0.1-0.2,0.4,0,0.5L282.1,261.3z M294.6,268.5
			c0.2,0.1,0.6,0.1,0.9,0l5.6-3.3c0.2-0.1,0.2-0.4,0-0.5l-6-3.4c-0.2-0.1-0.6-0.1-0.9,0l-5.6,3.3c-0.2,0.1-0.2,0.4,0,0.5
			L294.6,268.5z M312.8,288l5.6-3.3c0.2-0.1,0.2-0.4,0-0.5l-6-3.4c-0.2-0.1-0.6-0.1-0.9,0l-5.6,3.3c-0.2,0.1-0.2,0.4,0,0.5l6,3.4
			C312.1,288.1,312.5,288.1,312.8,288z M265.6,270.8c0.2,0.1,0.6,0.1,0.9,0l5.6-3.3c0.2-0.1,0.2-0.4,0-0.5l-1.6-0.9
			c-0.2-0.1-0.6-0.1-0.9,0l-5.6,3.3c-0.2,0.1-0.2,0.4,0,0.5L265.6,270.8z M198.3,312.2c0.2,0.1,0.6,0.1,0.9,0l5.6-3.3
			c0.2-0.1,0.2-0.4,0-0.5l-6-3.4c-0.2-0.1-0.6-0.1-0.9,0l-5.6,3.3c-0.2,0.1-0.2,0.4,0,0.5L198.3,312.2z"/>
		<path id="XMLID_386_" class="st7" d="M228.5,360.7l50.8-29.3c1.5-0.9,4-0.9,5.5,0l29.1,16.8c1.5,0.9,1.5,2.3,0,3.2l-50.8,29.3
			c-1.5,0.9-4,0.9-5.5,0l-29.1-16.8C227,363,227,361.6,228.5,360.7z"/>
	</g>
</g>
<g id="Shield_2_">
	<g id="Shield_1_">
		<g id="Shield">
			<g>
				<path class="st2" d="M219.9,138.2c-15.9,14.3-29.6,13.5-38.2,6.9c-8.6,16.5-22.3,33.1-38.2,37.2l-9.1,24.5c0,0,4.9,5.6,4.9,19
					c0,6-0.9,11.4-2.2,16.6c-1.7,6.6-3.8,13.5-3.8,24.9c0,7.7,1,15.3,4.9,22.1c2.3,4,5.5,7.3,9.9,10c-2.9-1.7-11.6-6.7-13.8-8
					c-4.7-2.7-8.1-6.1-10.5-10.3c-3.9-6.9-4.9-14.4-4.9-22.1c0-11.4,2.1-18.3,3.8-24.9c1.3-5.3,2.3-10.6,2.3-16.6
					c0-13.4-4.9-19-4.9-19l9.1-24.5c15.9-4.1,29.6-20.7,38.2-37.2c8.6,6.6,22.3,7.4,38.2-6.9L219.9,138.2z"/>
				<g>
					<path class="st10" d="M172.4,139.8l-5-2.9C168.9,138.1,170.6,139,172.4,139.8z"/>
					<path class="st11" d="M205.6,130c-13.1,11.7-24.7,13.3-33.2,9.8l9.3,5.4c8.6,6.6,22.3,7.4,38.2-6.9L205.6,130z"/>
				</g>
				<path class="st12" d="M167.4,136.9c-8.6,16.5-22.3,33.1-38.2,37.2l14.3,8.3c15.9-4.1,29.6-20.7,38.2-37.2L167.4,136.9z"/>
				<polygon class="st13" points="129.2,174.1 120.2,198.6 134.5,206.8 143.5,182.3 				"/>
				<path class="st14" d="M138.2,289.5c-3.9-6.9-4.9-14.4-4.9-22.1c0-11.4,2.1-18.3,3.8-24.9c1.3-5.3,2.2-10.6,2.2-16.6
					c0-13.4-4.9-19-4.9-19l-14.3-8.3c0,0,4.9,5.6,4.9,19c0,6-0.9,11.4-2.3,16.6c-1.7,6.6-3.8,13.5-3.8,24.9c0,7.7,1,15.3,4.9,22.1
					c2.4,4.1,5.8,7.6,10.5,10.3c2.2,1.3,10.9,6.3,13.8,8C143.8,296.8,140.5,293.4,138.2,289.5z"/>
				<path class="st15" d="M138.2,289.5c-3.9-6.9-4.9-14.4-4.9-22.1c0-11.4,2.1-18.3,3.8-24.9c1.3-5.3,2.2-10.6,2.2-16.6
					c0-13.4-4.9-19-4.9-19l-14.3-8.3c0,0,4.9,5.6,4.9,19c0,6-0.9,11.4-2.3,16.6c-1.7,6.6-3.8,13.5-3.8,24.9c0,7.7,1,15.3,4.9,22.1
					c2.4,4.1,5.8,7.6,10.5,10.3c2.2,1.3,10.9,6.3,13.8,8C143.8,296.8,140.5,293.4,138.2,289.5z"/>
			</g>
			<g>
				<path class="st2" d="M181.7,306.2c-23.7,0.3-37.3-6-43.5-16.8c-3.9-6.9-4.9-14.4-4.9-22.1c0-11.4,2.1-18.3,3.8-24.9
					c1.3-5.3,2.3-10.6,2.3-16.6c0-13.4-4.9-19-4.9-19l9.1-24.5c15.9-4.1,29.6-20.7,38.2-37.2c8.6,6.6,22.3,7.4,38.2-6.9l9.1,14
					c0,0-4.9,11.2-4.9,24.6c0,6,0.9,10.3,2.3,14c1.7,4.7,3.8,9.1,3.8,20.5c0,7.7-1,16.5-4.9,27.8C219,257.1,205.4,279.1,181.7,306.2
					z"/>
				<path class="st16" d="M181.7,306.2c-23.7,0.3-37.3-6-43.5-16.8c-3.9-6.9-4.9-14.4-4.9-22.1c0-11.4,2.1-18.3,3.8-24.9
					c1.3-5.3,2.3-10.6,2.3-16.6c0-13.4-4.9-19-4.9-19l9.1-24.5c15.9-4.1,29.6-20.7,38.2-37.2c8.6,6.6,22.3,7.4,38.2-6.9l9.1,14
					c0,0-4.9,11.2-4.9,24.6c0,6,0.9,10.3,2.3,14c1.7,4.7,3.8,9.1,3.8,20.5c0,7.7-1,16.5-4.9,27.8C219,257.1,205.4,279.1,181.7,306.2
					z"/>
				<path class="st17" d="M178.9,300.1c-18.4-0.2-30.3-4.8-35.3-13.7c-2.9-5-4.1-10.9-4.1-19.1c0-9.4,1.5-15.4,3-21.1
					c0.2-0.8,0.4-1.5,0.6-2.2c1.7-6.7,2.4-12.3,2.4-18.1c0-9.8-2.3-16.2-4.2-19.7l7-18.8c17-5.9,29.3-22.7,35.8-33.7
					c3.5,1.5,7.2,2.2,11.1,2.2c7.7,0,15.5-2.9,23.3-8.5l3.7,5.7c-1.6,4.6-4.2,13.6-4.2,23.9c0,6,0.8,11,2.6,16.1
					c0.2,0.5,0.4,1.1,0.6,1.6c1.5,4,2.8,7.8,2.8,16.8c0,8.6-1.4,16.6-4.6,25.8C213.3,254.9,199.7,276,178.9,300.1z"/>
				<path class="st14" d="M178.9,300.1c-18.4-0.2-30.3-4.8-35.3-13.7c-2.9-5-4.1-10.9-4.1-19.1c0-9.4,1.5-15.4,3-21.1
					c0.2-0.8,0.4-1.5,0.6-2.2c1.7-6.7,2.4-12.3,2.4-18.1c0-9.8-2.3-16.2-4.2-19.7l7-18.8c17-5.9,29.3-22.7,35.8-33.7
					c3.5,1.5,7.2,2.2,11.1,2.2c7.7,0,15.5-2.9,23.3-8.5l3.7,5.7c-1.6,4.6-4.2,13.6-4.2,23.9c0,6,0.8,11,2.6,16.1
					c0.2,0.5,0.4,1.1,0.6,1.6c1.5,4,2.8,7.8,2.8,16.8c0,8.6-1.4,16.6-4.6,25.8C213.3,254.9,199.7,276,178.9,300.1z"/>
				<path class="st18" d="M178.9,300.1c-18.4-0.2-30.3-4.8-35.3-13.7c-2.9-5-4.1-10.9-4.1-19.1c0-9.4,1.5-15.4,3-21.1
					c0.2-0.8,0.4-1.5,0.6-2.2c1.7-6.7,2.4-12.3,2.4-18.1c0-9.8-2.3-16.2-4.2-19.7l7-18.8c17-5.9,29.3-22.7,35.8-33.7
					c3.5,1.5,7.2,2.2,11.1,2.2c7.7,0,15.5-2.9,23.3-8.5l3.7,5.7c-1.6,4.6-4.2,13.6-4.2,23.9c0,6,0.8,11,2.6,16.1
					c0.2,0.5,0.4,1.1,0.6,1.6c1.5,4,2.8,7.8,2.8,16.8c0,8.6-1.4,16.6-4.6,25.8C213.3,254.9,199.7,276,178.9,300.1z"/>
				<path class="st10" d="M147.8,291.5c6.3,5.5,16.7,8.4,31.1,8.6l-9.2-5.2C161.4,294.8,154.1,293.7,147.8,291.5z"/>
				<polygon class="st18" points="217.3,150.2 222.1,153 218.4,147.4 216.3,148.8 				"/>
			</g>
			<g>
				<path class="st8" d="M215.7,190.2c-1.8-5.1-2.6-10.1-2.6-16.1c0-10.3,2.6-19.3,4.2-23.9l-0.9-1.5c-7.1,4.7-14.2,7.1-21.2,7.1
					c-3.9,0-7.6-0.8-11.1-2.2c-6.5,11-18.8,27.8-35.8,33.7l-7,18.8c1.9,3.5,4.2,9.9,4.2,19.7c0,5.8-0.8,11.4-2.4,18.1
					c-0.2,0.7-0.4,1.5-0.6,2.2c-1.5,5.8-3,11.8-3,21.1c0,8.2,1.3,14.1,4.1,19.1c1.4,2.5,3.4,4.7,6,6.5c6.1,2.8,14.3,4.3,24.5,4.4
					c20.8-24.1,34.4-45.2,40.5-62.8c3.2-9.2,4.6-17.2,4.6-25.8c0-9.1-1.4-12.8-2.8-16.8C216.1,191.3,215.9,190.7,215.7,190.2z"/>
				<path class="st6" d="M148.2,187.3l-7,18.8c1.9,3.5,4.2,9.9,4.2,19.7c0,5.8-0.8,11.4-2.4,18.1c-0.2,0.7-0.4,1.5-0.6,2.2
					c-1.5,5.8-3,11.8-3,21.1c0,8.2,1.3,14.1,4.1,19.1c1.4,2.5,3.4,4.7,6,6.5c6.1,2.8,14.3,4.3,24.5,4.4V228l10-3v-71.4
					c-2.8,4.7-6.1,9.5-10,14.2C167.4,175.9,158.7,183.7,148.2,187.3z"/>
			</g>
		</g>
		<path id="Shadow_5_" class="st7" d="M198.1,202.4c-0.1-0.2-0.2-0.4-0.4-0.5c0,0,0,0,0-0.1c-0.3-0.3-0.6-0.6-1-0.8l-3.3-1.9
			c-0.6-0.3-1.2-0.6-1.9-0.7c-0.4-0.1-0.8-0.2-1.2-0.2v-9.9c0-4.9-1.9-8.9-5.1-10.7c-3.1-1.8-7-1.6-10.8,0.7
			c-7.1,4.1-12.7,14.1-12.7,22.8v11.6l-6.6,3.8c-0.2,0.1-0.4,0.3-0.6,0.4c-0.1,0-0.1,0.1-0.2,0.1c0,0,0,0,0,0
			c-0.6,0.5-0.9,1.2-0.9,1.8l0,39.9c0,0.2,0,0.3,0.1,0.5c0.2,0.6,0.6,1.1,1.3,1.6c0.1,0.1,0.2,0.2,0.4,0.2l1.6,0.9l1.7,1
			c0.6,0.4,1.4,0.6,2.1,0.8c2,0.4,4.4,0.2,6-0.8l30.2-17.5c1.1-0.7,1.7-1.5,1.7-2.4v-39.9C198.4,203,198.3,202.7,198.1,202.4z
			 M168.1,201.1c0-6.4,4.3-14.2,9.4-17.2c1.7-1,3.3-1.3,4.3-0.7c1.2,0.7,1.9,2.6,1.9,5.1v11.6l-8.6,5l-7,4V201.1z"/>
		<g id="Padlock">
			<path class="st2" d="M201.9,205.1c0-0.9-0.6-1.7-1.7-2.4l-3.3-1.9c-2.3-1.3-5.9-1.3-8.2,0l-30.2,17.5c-1.1,0.7-1.7,1.5-1.7,2.4
				l0,0l0,39.9l0,0c0,0.9,0.6,1.7,1.7,2.4l3.3,1.9c2.3,1.3,5.9,1.3,8.2,0l30.2-17.5c1.1-0.7,1.7-1.5,1.7-2.4l0,0V205.1L201.9,205.1z
				"/>
			<path class="st14" d="M161.8,224.9l-3.3-1.9c-2.3-1.3-2.3-3.4,0-4.7l30.2-17.5c2.3-1.3,5.9-1.3,8.2,0l3.3,1.9
				c2.3,1.3,2.3,3.4,0,4.7L170,224.9C167.7,226.3,164,226.3,161.8,224.9z"/>
			<path class="st3" d="M165.9,225.9v39.9c-1.5,0-3-0.3-4.1-1l-3.3-1.9c-1.1-0.7-1.7-1.5-1.7-2.4v-39.9c0,0.9,0.6,1.7,1.7,2.4
				l3.3,1.9C162.9,225.6,164.4,225.9,165.9,225.9z"/>
			<g id="XMLID_274_">
				<path id="XMLID_277_" class="st8" d="M187.9,245.7l-7.2,4.2l1.1-13.1c-0.9-0.5-1.4-1.6-1.4-3.2c0-2.9,1.7-6.2,3.9-7.5
					c2.2-1.2,3.9,0.1,3.9,3c0,1.6-0.6,3.4-1.4,4.8L187.9,245.7z"/>
				<polygon id="XMLID_276_" class="st6" points="187.9,245.7 181.3,241.9 180.6,249.8 				"/>
				<path id="XMLID_275_" class="st6" d="M184.3,226.1c-1.4,0.8-2.6,2.5-3.3,4.4l5.8,3.4l0,0c0.9-1.5,1.4-3.2,1.4-4.8
					C188.2,226.2,186.4,224.9,184.3,226.1z"/>
			</g>
			<path class="st1" d="M193.7,206C193.7,206,193.7,206,193.7,206L193.7,206v-16c0-4.9-1.9-8.9-5.1-10.7c-3.1-1.8-7-1.6-10.8,0.7
				c-7.1,4.1-12.7,14.1-12.7,22.8v16.1h0c0,0.5,0.3,1,1,1.3c1.3,0.7,3.3,0.7,4.6,0c0.6-0.4,1-0.9,1-1.3h0v-16.1
				c0-6.4,4.3-14.2,9.4-17.2c1.7-1,3.3-1.3,4.3-0.7c1.2,0.7,1.9,2.6,1.9,5.1v16h0c0,0,0,0,0,0v0h0c0,0.5,0.3,1,1,1.3
				c1.3,0.7,3.3,0.7,4.6,0C193.4,207,193.7,206.5,193.7,206L193.7,206L193.7,206z"/>
		</g>
	</g>
</g>
<g id="Key_1_">
	<g id="Key">
		<g id="XMLID_975_">
			<polyline id="XMLID_381_" class="st2" points="232.6,276.2 237,273.7 238.7,271.6 234.3,274.1 232.6,276.2 			"/>
			<polyline id="XMLID_375_" class="st9" points="232.6,276.2 237,273.7 238.7,271.6 234.3,274.1 232.6,276.2 			"/>
		</g>
		<g id="XMLID_936_">
			<polyline id="XMLID_974_" class="st2" points="244.5,283.1 248.9,280.6 252.6,277.3 248.2,279.9 244.5,283.1 			"/>
			<polyline id="XMLID_353_" class="st9" points="244.5,283.1 248.9,280.6 252.6,277.3 248.2,279.9 244.5,283.1 			"/>
		</g>
		<path id="XMLID_343_" class="st2" d="M282,291.9c1,1.2,1.7,3,1.8,4.8C282.8,295.5,282.1,293.7,282,291.9z M292.2,292
			c-1.5-10.1-6.9-20.1-13.4-23.8c-3.1-1.8-6-1.9-8.3-0.5c-0.7,0.4-3.2,1.8-4.1,2.4c-0.1,0-0.2,0.1-0.2,0.1c-0.2,0.1-0.4,0.2-0.5,0.3
			c-0.3,0.2-0.6,0.5-1,0.8c0,0-0.1,0.1-0.1,0.1c-0.1,0.1-0.3,0.3-0.4,0.4c-0.2,0.2-0.3,0.4-0.4,0.5c-0.3,0.4-0.6,0.8-0.8,1.2
			c-0.1,0.2-0.2,0.4-0.4,0.7l-36.2-20.9l-4.4,2.5v2.8l0.4,0.2l0.3,0.2v0.6l-0.7,0.4v1.6l5.3,11.3l5.3,3l1.7-2.1l4.6,2.8l2.7,4.6
			l2.9,1.7l3.7-3.3l4.5,2.6l1.5,6.3l7.6,4.4c0.4,1.6,0.9,3.2,1.4,4.7c0.1,0.2,0.1,0.3,0.2,0.5c2.5,6.6,6.5,12.3,11,14.9
			c0.6,0.3,1.1,0.6,1.7,0.8c0.3,0.1,0.6,0.2,0.9,0.3c0.3,0.1,0.6,0.1,0.8,0.2c0.9,0.2,1.8,0.2,2.7,0c0.1,0,0.2-0.1,0.4-0.1
			c0.2,0,0.3-0.1,0.5-0.2c0.1-0.1,0.3-0.1,0.4-0.2c0.1-0.1,0.3-0.1,0.4-0.2c0.1-0.1,0.3-0.1,0.4-0.2c0.1,0,0.1-0.1,0.2-0.1
			c0,0,0.1,0,0.1-0.1c1-0.6,3.5-2,4.2-2.4c3.3-1.9,5.5-6.8,5.5-13.8C292.6,295.6,292.5,293.8,292.2,292z"/>
		<path id="XMLID_340_" class="st2" d="M280.7,300.4c-1.7-1-3.1-4-3.1-6.7c0-2.7,1.4-4,3.1-3c1.7,1,3.1,4,3.1,6.7
			C283.8,300,282.4,301.4,280.7,300.4z M287.8,294.6c-1.5-10.1-6.9-20-13.4-23.8c-3-1.7-5.8-1.9-8-0.7c-0.1,0-0.2,0.1-0.2,0.1
			c-0.2,0.1-0.4,0.2-0.5,0.3c-0.3,0.2-0.6,0.5-1,0.8c0,0-0.1,0.1-0.1,0.1c-0.1,0.1-0.3,0.3-0.4,0.4c-0.2,0.2-0.3,0.4-0.4,0.5
			c-0.3,0.4-0.6,0.8-0.8,1.2c-0.1,0.2-0.2,0.4-0.4,0.7c-0.6,1.2-1.1,2.7-1.4,4.3L222,256.1v2.8l0.4,0.2l0.3,0.2v0.6l-0.7,0.4v1.6
			l5.3,11.3l5.3,3l1.7-2.1l4.6,2.8l2.7,4.6l2.9,1.7l3.7-3.3l4.5,2.6l1.5,6.3l7.6,4.4c0.4,1.6,0.9,3.2,1.4,4.7
			c0.1,0.2,0.1,0.3,0.2,0.5c2.5,6.6,6.5,12.3,11,14.9c0.6,0.3,1.1,0.6,1.7,0.8c0.3,0.1,0.6,0.2,0.9,0.3c0.3,0.1,0.6,0.1,0.8,0.2
			c0.9,0.2,1.8,0.2,2.7,0c0.1,0,0.2-0.1,0.4-0.1c0.2,0,0.3-0.1,0.5-0.2c0.1-0.1,0.3-0.1,0.4-0.2c0.1-0.1,0.3-0.1,0.4-0.2
			c0.1-0.1,0.3-0.1,0.4-0.2c0.1,0,0.1-0.1,0.2-0.1c0,0,0.1,0,0.1-0.1c3.2-2,5.3-6.9,5.3-13.6C288.2,298.1,288,296.4,287.8,294.6z"/>
		<path id="XMLID_339_" class="st9" d="M283.8,297.4c0,2.7-1.4,4-3.1,3c-1.7-1-3.1-4-3.1-6.7c0-2.7,1.4-4,3.1-3
			c0.5,0.3,0.9,0.7,1.3,1.2c0.2,1.8,0.9,3.6,1.8,4.8C283.8,296.9,283.8,297.2,283.8,297.4z"/>
		<path id="XMLID_337_" class="st14" d="M292.6,297.4c0,6.9-2.2,11.8-5.5,13.8c-0.7,0.4-3.1,1.8-4.2,2.4c3.2-2,5.3-6.9,5.3-13.6
			c0-1.8-0.1-3.6-0.4-5.3c-1.5-10.1-6.9-20-13.4-23.8c-3-1.7-5.8-1.9-8-0.7c1-0.6,3.5-2,4.1-2.4c2.3-1.3,5.2-1.3,8.3,0.5
			c6.5,3.7,11.9,13.7,13.4,23.8C292.5,293.8,292.6,295.6,292.6,297.4z"/>
		<g id="XMLID_329_">
			<path id="XMLID_331_" class="st2" d="M288.2,299.9c0,6.8-2.1,11.6-5.3,13.6c1-0.6,3.5-2,4.2-2.4c3.3-1.9,5.5-6.8,5.5-13.8
				c0-0.3,0-0.5,0-0.8c-1.5,0.9-3,1.8-4.4,2.5C288.2,299.4,288.2,299.7,288.2,299.9z"/>
			<path id="XMLID_330_" class="st3" d="M288.2,299.9c0,6.8-2.1,11.6-5.3,13.6c1-0.6,3.5-2,4.2-2.4c3.3-1.9,5.5-6.8,5.5-13.8
				c0-0.3,0-0.5,0-0.8c-1.5,0.9-3,1.8-4.4,2.5C288.2,299.4,288.2,299.7,288.2,299.9z"/>
		</g>
		<g id="XMLID_317_">
			<polygon id="XMLID_324_" class="st18" points="261.3,281.6 261.3,283 222,260.3 222.7,259.9 222.7,259.3 			"/>
			<polygon id="XMLID_318_" class="st18" points="261.3,282.2 261.3,283 222,260.3 222.7,259.9 222.7,259.9 			"/>
		</g>
		
			<ellipse id="XMLID_312_" transform="matrix(0.956 -0.2934 0.2934 0.956 -73.5917 93.3807)" class="st19" cx="274.4" cy="292" rx="10.4" ry="19.4"/>
		<path id="XMLID_279_" class="st20" d="M262.6,274.4c-0.6,1.2-1.1,2.7-1.4,4.3L222,256.1l4.4-2.5L262.6,274.4z"/>
	</g>
</g>
<g id="Character">
	<g id="Character_13_">
		<g id="XMLID_972_">
			<path class="st7" d="M412,385c0.2,1.4,0.3,5.2,7.3,6.2c7,1,11.3-1.3,13.2-4.7c1.9-3.3,1.4-6.1,1.7-9.2c0.3-3.1,2.9-4.8,3.6-6.3
				c1.1-2.4-0.5-6-0.5-6L412,385z"/>
			<path class="st7" d="M361.2,374.1c-0.3,0.2-0.3,2.4,0.5,3.4c0.5,0.7,5.4,3.9,11.2,3c5.8-0.9,8.6-2.5,11.8-4.6
				c3.3-2.1,5.7-2.5,9.1-2.6c3.3-0.1,5.8-0.9,6.1-1.7c0.4-1.5,0.4-2.5-0.3-2.5L361.2,374.1z"/>
			<path id="XMLID_982_" class="st21" d="M435.7,359.6c-0.9,6.3-13.2,5.8-12.2,0.8l-2.2-15.4l13.9,0.4L435.7,359.6z"/>
			<path class="st6" d="M412.5,381.9c0.6-1.1,2.4-2.8,3.2-3.8c4.1-5.4,6.7-11.6,7.2-18.5c0-0.4,0.1-1.1,0.4-1.3
				c0.4-0.2,0.8,0.1,1.1,0.3c0,0,0,0,0,0c0,0,0,0,0,0c0.5,0.2,1.2,0.5,2.2,0.6c2.5,0.3,5.2-0.3,5.8-0.2c0.5,0.1,0.6,1.5,0.6,3.2
				c0.9-0.6,1.2-1.7,2-2.3c0.4-0.3,0.6-0.4,0.6-0.9c0-0.4,0-0.7,0-1.1c0.6-0.2,1.2,2.2,1.7,4.1c0.6,2.1,1.4,4.6,0.5,6.7
				c-0.5,1.2-1.2,2.3-2,3.4c-1.2,1.9-2.3,3.9-2.5,6.2c-0.1,1,0,2-0.2,2.9c-0.5,3.4-2.8,6.1-6.1,7.1c-4.2,1.3-10.6,1.1-14.4-1.8
				C411.4,385.2,411.8,383,412.5,381.9z"/>
			<path id="XMLID_981_" class="st21" d="M396.6,358.5c-3.4,2.6-7.4,4.2-11.6,2.3l-1-25.9l14,2.5L396.6,358.5z"/>
			<path class="st6" d="M364,369.7c0.9-0.3,1.8-0.6,2.7-1c2.5-1,5-2.2,7.3-3.6c1-0.6,2-1.3,3-2c1-0.7,2-1.5,3-2.3
				c0.5-0.4,1-1,1.4-1.5c0.8-1,1.5-2.2,2.1-3.4c0.1-0.3,0.3-0.6,0.5-0.7c0.3-0.2,0.7,0,1,0.2c0.3,0.2,0.5,0.4,0.8,0.5
				c0.3,0.1,0.5,0.2,0.8,0.3c0.9,0.4,1.8,0.6,2.7,0.7c3.5,0.3,3.6-0.4,3.8,0.7c0,0.3,0.1,0.7,0,1.3c1.9-0.3,3.3-0.9,3.4-1.6l0.2-2.3
				c1.9-0.2,2,3.2,2.6,6.9c0.5,3,1.2,5.2,0.4,7.4c-2.8,2.5-7.8,1.9-10.6,2.3c-4,0.7-5.9,3.6-11.4,5.5c-9,3.1-14.6-0.5-16.3-2
				C360.4,373.2,360.2,370.9,364,369.7z"/>
			<path id="XMLID_973_" class="st7" d="M431.7,205.2c0.7,11,2,27.1,2.4,39.8c0.8,23.9,0.5,51.1,0.5,51.1s2.3,8.5,2.6,15.3
				c0.6,15.3,0.5,49.5,0.5,49.5s-6.3,6.4-15.8,1.4c0,0-8.4-48-10.7-63.1c-2.2-14.3-6.6-43-6.6-43l-2,40.7c0,0,2.3,8.3,1.5,19.5
				c-0.5,7-4.5,41.5-4.5,41.5c-3.6,3.4-14.2,1.6-16.6-1.2c0,0-3.7-51-4.1-58.4c-0.9-15.9-3.3-75.3-2.1-84.6
				C378,204.6,431.7,205.2,431.7,205.2z"/>
			<path d="M404.6,256.2l-2.8-18.4c0,0-7.6-1.4-13.2-5.6c0,0,2.2,4.9,10.6,8.4l2.7,17.1l0.7,39.2L404.6,256.2z"/>
		</g>
		<g id="XMLID_543_">
			<path class="st7" d="M420.2,131.4c0.5,2.1,4,1.8,5.6,1.4c1.9-0.5,3.3-2.2,3.1-4.1c0.8-0.2,1.5-0.6,2-1.3c0.9-1,0.7-2.3,0.1-3.4
				c1.3-0.9,2-2.5,1.7-4c-0.2-1.1-0.9-2.2-1.7-2.8c-0.7-0.6-2.1-1.2-3.1-1.1c-0.4,0.1-0.7,0.7-0.2,0.8c0.7,0.1,1.7,0.6,2.2,1
				c0.6,0.5,1.3,1.1,1.5,1.9c0.4,1.3-0.1,2.6-1.1,3.4c-0.2-0.2-0.4-0.4-0.6-0.6c-0.7-0.6-1.6-1-2.5-0.9c-0.7,0.1-1.5,0.3-1.7,1
				c-0.2,0.8,0.6,1.4,1.2,1.8c0.9,0.5,1.9,0.6,2.9,0.3c0.1,0,0.2-0.1,0.2-0.1c0.1,0.1,0.1,0.2,0.1,0.3c0.5,1.4-0.3,2.3-1.5,2.7
				c-0.7-1.5-2.6-2.5-4.2-1.8c-0.9,0.4-1,1.4-0.4,2.1c0.6,0.7,1.5,0.9,2.4,0.9c0.4,0,0.8,0,1.2,0c0.1,0.6-0.1,1.3-0.4,1.8
				c-0.6,0.9-1.8,1.2-2.9,1.2c-1.4,0.1-2.3-0.3-3.4-1.1C420.5,130.7,420.1,131.1,420.2,131.4z M429.3,123.7
				c-0.7,0.2-1.3,0.1-1.9-0.3c-0.4-0.3-0.9-0.7-0.1-0.7C428,122.6,428.8,123.1,429.3,123.7z M427.2,127.9c-0.4,0-0.9,0-1.3-0.1
				c-0.3-0.1-1.6-0.7-0.9-1c0.5-0.2,1.4,0.3,1.8,0.6C427,127.5,427.1,127.7,427.2,127.9z"/>
			<g id="XMLID_954_">
				<g>
					<path class="st7" d="M422.6,92.7c0,0,0.3,0,0.6,0.1c-0.3-1.4,0.3-2.8,1.6-3.4c1.5-0.7,3.4,0.1,4.2,1.7l-4.5,2.1
						c1.2,0.5,2.7,1.4,3.4,2.9c1.2,2.6-0.4,8-2,14.7c-1.7,6.7-2.6,9.6-3.7,12.4c-0.8,2-2.1,2-2.1,2l0-6.7l0.3-5.5c0,0-3.6-4.9-4-8.9
						c-0.5-5.1,0.6-7.2,0.6-7.2L422.6,92.7z"/>
					<path class="st7" d="M398,87c6.2,0,11.3,5.1,11.3,11.3c0,6.2-5.1,11.3-11.3,11.3c-6.2,0-11.3-5.1-11.3-11.3
						C386.7,92,391.8,87,398,87z"/>
				</g>
				<path id="XMLID_986_" class="st21" d="M420.2,112.2c1.3,1.2,2.4-1.8,3.6-3c1.1-1.2,4.8-2.8,6.6,1.1c1.9,3.9-1.7,9.3-4.4,10.5
					c-4,1.9-5.8-2.2-5.8-2.2v16.8c-4.2,7.6-13.4,5.8-17.7,6.9c-0.8-3.1-0.5-4.3,0-6l0-5.5c0,0-3.3,0.6-5.5,0.3
					c-3.7-0.6-5.6-3.6-6.7-7.5c-1.8-6.4-2.1-17,0.3-29.4c4.1-3.2,17.9-2.7,26.5,2.8C416.4,108,418.9,111.1,420.2,112.2z"/>
				<path id="XMLID_985_" class="st22" d="M402.4,130.9c0,0,8.2-1.6,11-3.1c1.9-1,3.5-2.8,4-3.9c0,0-0.5,2.4-2.3,4.6
					c-2.1,2.7-12.7,4.6-12.7,4.6L402.4,130.9z"/>
				<g>
					<path class="st7" d="M384.9,105.6c0,0.8,0.5,1.5,0.8,1.8c0.1,0.2,0.2,0.4,0.3,0.6c0.3,1.2,0.5,3.5,1,4.7c0.5,1.3,1.7,3.3,5,3.4
						c0.7,0,1.2,0,1.7-0.1c0,0,0.1,0,0.1,0c0.5-0.1,1-0.3,1.4-0.5c0,0,0.1,0,0.1,0c0,0,0.1,0,0.1-0.1c0,0,0.1,0,0.1-0.1
						c0,0,0.1-0.1,0.1-0.1c0.1,0,0.1-0.1,0.2-0.1c0,0,0.1-0.1,0.1-0.1c0.1-0.1,0.2-0.2,0.3-0.3c0.5-0.5,0.9-1.1,1.2-1.8
						c0.8-1.6,0.6-3.9,1.8-4.2c0,0,0.1,0,0.1,0h0.2c1.6,0.1,1.4,2.6,2.3,4.4c0.9,1.8,2.4,3.6,5.9,3.7c0.2,0,0.3,0,0.5,0
						c0.1,0,0.2,0,0.4,0c0.3,0,0.6,0,0.8-0.1c0.1,0,0.2,0,0.3-0.1c0.1,0,0.2,0,0.3-0.1c0.1,0,0.1,0,0.2,0c0.4-0.1,0.7-0.3,1-0.4
						c0.1-0.1,0.2-0.1,0.3-0.2c0.2-0.1,0.4-0.3,0.6-0.5c0.6-0.5,0.9-1.1,1.1-1.6c0.6-1.2,0.8-3.5,1.1-4.6c0.1-0.3,0.2-0.5,0.3-0.7
						c0.2-0.3,0.8-0.9,0.8-1.7c0-0.8-0.5-1.4-1-1.5c-0.3,0-0.6-0.1-0.9-0.1c-2.8-0.4-6.4-0.6-8.6-0.1c-2.8,0.7-3.7,1.5-5.3,1.5
						c-1.4-0.1-2.3-1-4.9-1.9c-2.1-0.7-5.5-0.7-8.1-0.6c-0.3,0-0.5,0-0.8,0.1C385.3,104.2,384.9,104.9,384.9,105.6z M402.8,107.7
						c0.1-0.2,0.4-0.4,0.8-0.6c0,0,0.1,0,0.1-0.1c0,0,0,0,0.1,0c0.1,0,0.3-0.1,0.4-0.2c0.1,0,0.2-0.1,0.4-0.1
						c0.4-0.1,0.8-0.2,1.2-0.3c0.1,0,0.3-0.1,0.5-0.1c0.4-0.1,0.8-0.1,1.2-0.2c0.1,0,0.2,0,0.3,0c2.6-0.2,4.3,0.5,4.8,1
						c0.6,0.6,0.3,3,0,4.2c0,0,0,0.1,0,0.1c0,0,0,0.1,0,0.1c0,0.1-0.1,0.3-0.1,0.5c0,0.1,0,0.2-0.1,0.3c0,0,0,0,0,0
						c-0.1,0.2-0.1,0.3-0.2,0.5c0,0.1,0,0.1-0.1,0.2c0,0,0,0.1,0,0.1c0,0,0,0.1,0,0.1c0,0,0,0.1-0.1,0.1c0,0.1-0.1,0.1-0.1,0.2
						c0,0.1-0.1,0.1-0.1,0.2c0,0.1-0.1,0.1-0.1,0.2c-0.7,0.9-1.8,1.7-3.7,1.7c-1.9,0-3.1-0.7-3.9-1.6c-0.8-0.8-1.1-1.8-1.2-2.5
						C402.5,110.1,402.3,108.4,402.8,107.7z M387.4,106.1c0.1-0.1,0.4-0.3,0.7-0.4c0,0,0,0,0,0c0.1,0,0.2-0.1,0.3-0.1
						c0.1,0,0.1,0,0.2,0c0,0,0.1,0,0.1,0c0,0,0.1,0,0.1,0c0,0,0,0,0,0c0,0,0.1,0,0.1,0c0.2,0,0.4-0.1,0.6-0.1c0.1,0,0.2,0,0.3,0
						c0.1,0,0.1,0,0.2,0c0,0,0.1,0,0.2,0c0.1,0,0.3,0,0.4,0h0.1c0,0,0.1,0,0.1,0c0.4,0,0.8,0.1,1.2,0.1c1.9,0.3,3.8,1.2,4.3,2
						c0.5,0.8,0.4,2.4,0.1,3.8c-0.1,0.3-0.1,0.6-0.3,0.9c0,0,0,0,0,0.1c0,0,0,0.1,0,0.1c0,0,0,0,0,0.1c0,0,0,0.1,0,0.1
						c0,0.1-0.1,0.1-0.1,0.2c0,0.1-0.1,0.1-0.1,0.2c0,0,0,0,0,0.1c0,0,0,0.1-0.1,0.1c0,0,0,0.1-0.1,0.1v0c-0.7,1-1.9,1.8-3.9,1.7
						c-0.8,0-1.4-0.2-2-0.5c-1.8-1-2.3-3.1-2.5-4.1C387.1,109.1,386.8,106.6,387.4,106.1z"/>
					<path class="st7" d="M414.1,105.3l12,2.7c0,0-1.4,0.2-2.8,1.8l-9.2-1.7L414.1,105.3z"/>
					<path class="st6" d="M387.4,110.3c0.2,1,0.6,3.1,2.5,4.1c0.5,0.3,1.2,0.5,2,0.5c2.1,0.1,3.3-0.7,3.9-1.7v0c0,0,0.1-0.1,0.1-0.1
						c0,0,0.1-0.1,0.1-0.1c0,0,0,0,0-0.1c0-0.1,0.1-0.1,0.1-0.2c0-0.1,0.1-0.1,0.1-0.2c0,0,0-0.1,0-0.1c0,0,0,0,0-0.1
						c0,0,0-0.1,0-0.1c0,0,0,0,0-0.1c0.1-0.3,0.2-0.6,0.3-0.9c0.3-1.4,0.4-3-0.1-3.8c-0.5-0.8-2.4-1.7-4.3-2
						c-0.4-0.1-0.8-0.1-1.2-0.1c0,0-0.1,0-0.1,0h-0.1c-0.1,0-0.3,0-0.4,0c0,0-0.1,0-0.2,0c-0.1,0-0.1,0-0.2,0c-0.1,0-0.2,0-0.3,0
						c-0.2,0-0.4,0-0.6,0.1c0,0-0.1,0-0.1,0c0,0,0,0,0,0c0,0-0.1,0-0.1,0c0,0-0.1,0-0.1,0c0,0-0.1,0-0.2,0c-0.1,0-0.2,0.1-0.3,0.1
						c0,0,0,0,0,0c-0.3,0.1-0.5,0.3-0.7,0.4C386.8,106.6,387.1,109.1,387.4,110.3z"/>
					<path class="st6" d="M402.8,111.4c0.1,0.7,0.5,1.7,1.2,2.5c0.8,0.8,2,1.5,3.9,1.6c1.9,0,3-0.7,3.7-1.7c0,0,0.1-0.1,0.1-0.2
						c0,0,0.1-0.1,0.1-0.2c0,0,0.1-0.1,0.1-0.2c0,0,0-0.1,0.1-0.1c0,0,0-0.1,0-0.1c0,0,0-0.1,0-0.1c0,0,0.1-0.1,0.1-0.2
						c0.1-0.2,0.1-0.3,0.2-0.5c0,0,0,0,0,0c0-0.1,0.1-0.2,0.1-0.3c0-0.2,0.1-0.3,0.1-0.5c0,0,0-0.1,0-0.1c0,0,0-0.1,0-0.1
						c0.3-1.2,0.6-3.7,0-4.2c-0.6-0.6-2.2-1.2-4.8-1c-0.1,0-0.2,0-0.3,0c-0.4,0-0.8,0.1-1.2,0.2c-0.2,0-0.3,0.1-0.5,0.1
						c-0.4,0.1-0.8,0.2-1.2,0.3c-0.1,0-0.2,0.1-0.4,0.1c-0.1,0.1-0.3,0.1-0.4,0.2c0,0,0,0-0.1,0c0,0-0.1,0-0.1,0.1
						c-0.4,0.2-0.6,0.4-0.8,0.6C402.3,108.4,402.5,110.1,402.8,111.4z"/>
				</g>
				<path class="st7" d="M387.7,85.5c0-0.1,0-0.3,0.1-0.4c0-0.3,0.1-0.5,0.3-0.7c0.6-0.6,1.6,0.9,2,1.2c0.4,0.3,0.8,0.6,1.2,0.9
					c0.1,0.1,1.1,0.6,1.1,0.7c-0.1-1.4-0.3-2.8,0-4.1c0.2-0.9,0.4-3,1.5-3.2c0.7-0.1,1.2,0.4,1.7,0.9c4.5,4.2,10.3,2.2,15.7,2.4
					c4.5,0.1,9.9,2,12,6.4c0.9,2,1.1,4.1-0.7,5.5c-1.2,0.9-2.3,0.9-3,2.3c-0.2,0.4-1.2,4.6-0.6,4.6c-2.3,0.2-4.5-1.2-5-3.4
					c-0.1-0.5-0.4-1.3-0.5-1.8c-0.2-0.7-0.7-0.9-1.3-0.8c-1.4,0.3-2.3,0.9-3.5,1.2c-3.5,1-7.8,1.4-11.3,0.7
					c-2.7-0.5-5.2-1.8-7.1-3.8C388.1,91.7,387.4,88.5,387.7,85.5z"/>
			</g>
			<g id="XMLID_920_">
				<path id="XMLID_944_" class="st7" d="M405.3,103.1l3.9,0.6c0.1-1.1-0.6-2.2-1.7-2.3C406.4,101.2,405.4,102,405.3,103.1z"/>
				<path id="XMLID_929_" class="st22" d="M404.4,121.5l-3.3,0.9c0.2,1,1.1,1.5,2.1,1.3C404,123.4,404.6,122.4,404.4,121.5z"/>
				<path id="XMLID_928_" class="st7" d="M390.3,103.3l4-0.4c-0.1-1.1-1-1.9-2.1-1.8C391,101.2,390.2,102.2,390.3,103.3z"/>
				<path id="XMLID_922_" class="st22" d="M400,108.8l-0.5,9.3l-5.2-1.4l5.2-8.1C399.7,108.7,399.9,108.7,400,108.8z"/>
			</g>
			<g>
				<path class="st7" d="M422.3,115.3c0,1.3,1.1,2.4,2.4,2.4c1.3,0,2.4-1.1,2.4-2.4c0-1.3-1.1-2.4-2.4-2.4
					C423.4,112.9,422.3,114,422.3,115.3z"/>
				<path class="st7" d="M422.1,110.9c0.2-0.7,0.6-1.5,1.1-2c0.4-0.4,1.3-0.8,1.9-0.7c0,0,0.1,0.1,0,0.1c-0.3,0.2-0.5,0.2-0.7,0.4
					c-0.3,0.2-0.5,0.4-0.7,0.6c-0.2,0.2-0.3,0.5-0.5,0.8c-0.1,0.3-0.3,0.7-0.3,1c0,0.7,0,1.1,0.2,1.6c0.1,0.3,0.3,0.5,0.5,0.8
					c0.2,0.2,0.4,0.4,0.5,0.6c0.1,0.3-0.3,0.8-0.6,0.7c-0.7-0.3-1.1-1-1.3-1.7C421.9,112.4,421.8,111.6,422.1,110.9z"/>
			</g>
		</g>
		<g>
			<path class="st8" d="M387.4,144.1c-3.4,2.2-8,5.1-9.2,8.2s-4.4,21.3-4.8,27.1c0,0,4.9,2.4,9.5,2.7L387.4,144.1z"/>
			<g>
				<path class="st6" d="M427.4,135.4c8.6,4.7,17,11.7,18.8,14.4c0,0-5,16.7-9.4,24.6c-4.4,7.9-6.8,31.3-6.8,31.3
					s-30.2,10-39.6,10.8c-9.5,0.8-10.7-3.2-10.7-3.2s-0.2-26.1,2-43.6c2.2-17.5,1.7-22.6,5.7-25.6c2.6-1.9,13.7-6.8,13.7-6.8
					s0,2.3,0,5C407.3,142.4,427.4,135.4,427.4,135.4z"/>
				<path class="st2" d="M398.9,145c0,0-0.8-1.4-0.6-3.6l2.5-1.8l0,3.2L398.9,145z"/>
				<path class="st23" d="M398.9,145c0,0-0.8-1.4-0.6-3.6l2.5-1.8l0,3.2L398.9,145z"/>
				<polygon class="st2" points="403.7,143.1 410.3,139.4 415.2,143.2 405.3,147.3 				"/>
				<polygon class="st23" points="403.7,143.1 410.3,139.4 415.2,143.2 405.3,147.3 				"/>
				<path class="st8" d="M420.1,128.3l0,1.3c-0.2,1.3-2.7,4.1-8.9,6.9c-6.3,2.8-8.8,5.7-8.8,5.7s2.4,0,4.9,0.9
					c2.8,1,7.5,4.6,8.9,4.6c1.3,0,3.2-3.7,6.7-7.4c3-3.1,4.5-5,4.5-5S422.5,128.4,420.1,128.3z"/>
				<path class="st8" d="M402.4,142.3c-2.2,0.3-4.4,1.8-4.9,1c-0.6-0.8,1.4-8.3,4.9-10.6L402.4,142.3z"/>
			</g>
			<g>
				<path class="st22" d="M380.6,181.8c0,0-0.3,4.7-0.3,6.3c-0.1,1.6,2.6,29,2.6,29l-9.4,4c0,0-1.1-10.6-1.5-16.4
					c-0.4-5.9,0.1-13.1,0.8-18.1c0.7-5,1-6.9,1-6.9C376.3,180.7,378.6,181.3,380.6,181.8z"/>
				<g>
					<path class="st21" d="M374.2,234.5c0,0,0,0.4,0,2c0,1.6,1,6.3,1.6,7.8c0.6,1.5,2,4.7,2.7,5.1c0.8,0.4,1.4,0.5,2.3,0.4
						c1.5-0.1,3.1,0.6,4.5,0c0.6-0.3,1.1-0.6,1.7-0.8c0.9-0.2,1.9,0.1,2.7-0.4c0.5-0.3,0.8-0.8,1.3-1.1c0.7-0.4,1.7-0.3,2.4-0.6
						c0.6-0.3,1.1-0.9,1.3-1.5c0.4-1.3,0-2.8-0.3-4.1c0,0,0.6-0.7,0.7-2.2c0-1.5-0.3-4.1-0.6-5.1c-0.3-1-7.2-4.9-7.2-4.9l-1.4-0.9
						c0,0-4.4-1.2-8.4,1.4C373.5,232,374.2,234.5,374.2,234.5z"/>
					<path class="st22" d="M376,234.3c-1.8,3-0.7,8.4-0.7,8.5c-0.6-2.1-1.1-5-1.1-6.3c0-1.6,0-2,0-2s-0.6-2.5,3.3-5
						c4-2.5,8.4-1.4,8.4-1.4S377.9,231.2,376,234.3z"/>
					<path class="st22" d="M394.3,241.2c-0.5-1.9-2.2-4.7-2.9-5.4c-0.8-0.7-1.4-1.6-0.6-1.3c0.8,0.3,1.8,0.5,2.2-0.1
						c0.4-0.5,0.5,0.4,0,1.1c-0.5,0.7-0.1,1.3,0.5,2.4C394.1,239.2,394.2,240.5,394.3,241.2z"/>
				</g>
			</g>
			<g>
				<path class="st21" d="M443.6,150.2c2.9,1,3.2,8.8,2.6,15.8c-0.6,7-6.1,23.6-8.6,29.3c-2.8,6.5-4.5,10.2-6.3,12.2
					c-1.9,2-5.7,3.7-10.7,6.3c-4.5,2.3-7.6,3.5-15.3,5.9c-8.7,2.7-12,2.9-13.8,4.1s-2.4,4.1-4.2,5.1l-1.4-0.9
					c-2.4,0.5-6.3,2-8.6,3.6c-2.2,1.5-3.1,2.8-3.1,2.8l0,2c0,0-2.2,0.9-4.1-3s-2.7-9.8-0.6-12.4c2.1-2.6,8.9-6.1,14.4-7.8
					c5.5-1.8,8.2-3.5,14.7-7.4c6.8-4.1,11.6-6.9,15-8.7c1.3-0.7,2.2-1.7,2.7-4c0.5-1.9,1.8-7.4,2.7-11.6
					C420.4,174.5,423.4,153.4,443.6,150.2z"/>
				<path class="st8" d="M446.2,149.8c0,0,1.3,0.2,1.5,5.8c0.2,5.5,0,11.4-0.8,15.7c-0.7,4.3-5,16.8-5,16.8s-12.3,4-24.8-0.8
					c0,0,3-18.1,4.1-22.9C422.3,159.6,437.8,144.8,446.2,149.8z"/>
			</g>
			<g>
				<path class="st2" d="M402.8,150.2c-0.7,4.5-1.7,15.2-1.7,30.3c0,3.7-5.4,11.2-6.7,11c-1.3-0.2-3.6-7.2-3.9-11.3
					c0.5-9.9,6.5-25.3,9.1-30.6L402.8,150.2z"/>
				<path class="st18" d="M399.4,150.1c0.1-0.1,0.1-0.3,0.2-0.4l3.1,0.6c0,0-0.2,1.3-0.2,1.3C401.3,151.4,399.8,150.6,399.4,150.1z"
					/>
				<path class="st2" d="M403.7,143.1c-1.3-0.4-3-0.4-3-0.4s-1.2,0.9-1.9,2.3c0,0-0.2,2.8,0.8,4.6c0,0,1.2,1,3.1,0.6
					c0,0,1.9-1.1,2.5-2.9C405.5,145.8,404.4,143.6,403.7,143.1z"/>
			</g>
		</g>
	</g>
</g>
</svg>
