<?xml version="1.0" encoding="utf-8"?>
<!-- Generator: Adobe Illustrator 23.0.0, SVG Export Plug-In . SVG Version: 6.00 Build 0)  -->
<svg version="1.1" xmlns="http://www.w3.org/2000/svg" xmlns:xlink="http://www.w3.org/1999/xlink" x="0px" y="0px"
	 viewBox="0 0 3710 3710" style="enable-background:new 0 0 3710 3710;" xml:space="preserve">
<style type="text/css">
	.st0{fill:#FFFFFF;}
	.st1{fill:url(#SVGID_1_);}
	.st2{fill:#91B3FA;}
	.st3{fill:#7D97F4;}
	.st4{fill:url(#SVGID_2_);}
	.st5{fill:url(#SVGID_3_);}
	.st6{fill:url(#SVGID_4_);}
	.st7{fill:url(#SVGID_5_);}
	.st8{fill:url(#SVGID_6_);}
	.st9{fill:url(#SVGID_7_);}
	.st10{fill:url(#SVGID_8_);}
	.st11{fill:url(#SVGID_9_);}
	.st12{fill:url(#SVGID_10_);}
	.st13{fill:url(#SVGID_11_);}
	.st14{fill:url(#SVGID_12_);}
	.st15{fill:url(#SVGID_13_);}
	.st16{fill:url(#SVGID_14_);}
	.st17{fill:url(#SVGID_15_);}
	.st18{fill:url(#SVGID_16_);}
	.st19{fill:url(#SVGID_17_);}
	.st20{fill:url(#SVGID_18_);}
	.st21{fill:url(#SVGID_19_);}
	.st22{fill:url(#SVGID_20_);}
	.st23{fill:url(#SVGID_21_);}
	.st24{fill:url(#SVGID_22_);}
	.st25{fill:url(#SVGID_23_);}
	.st26{fill:url(#SVGID_24_);}
	.st27{opacity:0.42;}
	.st28{fill:url(#SVGID_25_);}
	.st29{fill:url(#SVGID_26_);}
	.st30{fill:url(#SVGID_27_);}
	.st31{fill:url(#SVGID_28_);}
	.st32{fill:url(#SVGID_29_);}
</style>
<g id="Background">
	<g>
		<g>
			<rect class="st0" width="3710" height="3710"/>
		</g>
	</g>
</g>
<g id="Illustration">
	<g>
		<linearGradient id="SVGID_1_" gradientUnits="userSpaceOnUse" x1="3467.6416" y1="3665.5505" x2="1511.1293" y2="1582.8123">
			<stop  offset="0" style="stop-color:#DAE3FE"/>
			<stop  offset="1" style="stop-color:#E9EFFD"/>
		</linearGradient>
		<path class="st1" d="M2880.2,2830c-72.2,74.4-136.9,118.2-186.3,151.3c-482.6,322.2-1034.2,229.3-1204.7,197.6
			c-275.2-51.2-507.4-87.3-707-267.6c-453.5-409.7-431.4-1264.3-84.9-1793.8c41.1-62.8,387.1-575.6,939.9-647.9
			c13.5-1.8,23.6-2.8,32.4-3.7c85.5-9.1,615.5-56.8,1047.6,305.2c61.9,51.8,161.4,145.3,253.7,287.9
			C3308.4,1580.2,3309.5,2387.5,2880.2,2830z"/>
		<g>
			<path class="st2" d="M424.7,575.7c-5.8-17,17.5-31,33.7-20.3C623,663.7,1025.8,997.2,998.8,1652.7
				c-33.8,822.4,191.3,1098.9,452.7,1255.2c0,0-342.9-51.6-583.2-331C278.5,1891,528.2,878.1,424.7,575.7z"/>
		</g>
		<g>
			<g>
				<path class="st3" d="M1186.5,2517.5c-10.6,26.9-45.1,34.3-66,14.3c-115.2-110.2-412.6-451.4-368-1000
					c37.7-463.3,14.1-718-4.7-833c-4-24.3,25.4-39.5,43-22.3C985.2,866.2,1568.9,1542.8,1186.5,2517.5z"/>
				<path class="st2" d="M1147.4,2516.7c-0.6,0.4-1.3,0.7-2,1c-5.8,2.2-12.3-0.7-14.6-6.5c-2.5-6.6-252.9-666.8-229.6-1313.3
					c0.2-6.2,5.5-11.1,11.7-10.9c6.2,0.2,11.1,5.5,10.9,11.7c-23.1,641.8,225.6,1297.8,228.1,1304.4
					C1153.9,2508.2,1151.9,2513.9,1147.4,2516.7z"/>
			</g>
		</g>
		<g>
			<g>
				<g>
					<linearGradient id="SVGID_2_" gradientUnits="userSpaceOnUse" x1="3055.1125" y1="3480.8381" x2="677.2637" y2="360.3804">
						<stop  offset="0" style="stop-color:#09005D"/>
						<stop  offset="1" style="stop-color:#1A0F91"/>
					</linearGradient>
					<path class="st4" d="M1054.2,466c-72.8,6.3-128.7,67.3-128.9,140.4c-1.3,447.1-3.4,1989.3,25.8,2535.2
						c3.1,57.8,50.5,103.3,108.4,103.9c286.4,3.1,1110.3,8.7,1578-21.2c97.4-6.2,173.2-86.9,173.1-184.5
						c-0.6-469.3-8.1-1789-72.3-2392.2c-7.7-72.3-65.8-128.7-138.3-134.3C2287.5,488.9,1458,430.9,1054.2,466z"/>
					<path class="st2" d="M1040.2,723.6c-5.6,382.5-21.6,1654.8,6.3,2124.4c4.1,68.6,57.4,122.8,123.2,125.1
						c271,9.4,966.1,27.7,1362.2-15.9c71.3-7.8,125.8-69.7,127.7-144.5c9.9-390.3,36.7-1575.3,9.5-2039.6
						c-4.3-74.1-60.9-133.2-131.9-138c-293.5-19.8-1047.1-65.4-1383.9-37.3C1090.2,603.1,1041.2,657.4,1040.2,723.6z"/>
					<linearGradient id="SVGID_3_" gradientUnits="userSpaceOnUse" x1="1929.5403" y1="-477.2382" x2="1848.0187" y2="528.1871">
						<stop  offset="0" style="stop-color:#53D8FF"/>
						<stop  offset="1" style="stop-color:#3840F7"/>
					</linearGradient>
					<path class="st5" d="M1695.1,532.5c0.2,10.6,8.7,19.1,19.2,19.4c52.2,1.6,199.1,6.1,264.7,8.4c12.9,0.5,22.8-11.4,20.1-24
						c-0.2-0.4-1.9-16.6-18.5-17.8c-44.4-3.1-178.4-11.4-267-6.3C1695.5,513.3,1694.5,534,1695.1,532.5z"/>
				</g>
			</g>
			<g>
				<g>
					<linearGradient id="SVGID_4_" gradientUnits="userSpaceOnUse" x1="2098.8879" y1="2240.3005" x2="1220.2224" y2="3377.3987">
						<stop  offset="0" style="stop-color:#FE7062"/>
						<stop  offset="1" style="stop-color:#FF928E"/>
					</linearGradient>
					<path class="st6" d="M1385.6,1878.6c0,0,373.6-93.7,768.3-37.2c111.1,15.9,209.4,80.5,269.4,175.4
						c108,170.9,260.7,475.4,228.4,793l-169.5,41.9c0,0-117.1-376.9-249-530.3c0,0-156.1,355.9-148.2,551.3
						c0.2,5.5,0.6,10.9,1.1,16.2c17.9,191.2-749.5,35.7-749.5,35.7L1385.6,1878.6z"/>
					
						<linearGradient id="SVGID_5_" gradientUnits="userSpaceOnUse" x1="1744.4563" y1="1829.7299" x2="1736.705" y2="1302.626" gradientTransform="matrix(0.9329 0.3602 -0.3602 0.9329 756.8203 -140.6929)">
						<stop  offset="0" style="stop-color:#FEBBBA"/>
						<stop  offset="1" style="stop-color:#FF928E"/>
					</linearGradient>
					<path class="st7" d="M1789.4,1559.6l-79.5,253.3c-7.4,23.6,0,48.8,18.4,63c42.6,32.8,126.7,85,229.5,83.5
						c18.8-0.3,34.6-16.3,35.9-36l28.3-423.4L1789.4,1559.6z"/>
					<g>
						
							<linearGradient id="SVGID_6_" gradientUnits="userSpaceOnUse" x1="12713.335" y1="1124.4873" x2="12252.6611" y2="1476.9733" gradientTransform="matrix(0.9672 0.2541 -0.2541 0.9672 -9938.2715 -2874.2493)">
							<stop  offset="0" style="stop-color:#FEBBBA"/>
							<stop  offset="1" style="stop-color:#FF928E"/>
						</linearGradient>
						<path class="st8" d="M2097.4,1281.9c0,0,30.9,199.5,11.4,294.9c-19.5,95.3-15.2,161.6-128.9,152
							c-113.6-9.6-190.9-87.8-215.9-194.4c0,0-39.8-164.7-6.8-219.1C1790.2,1260.7,2097.4,1281.9,2097.4,1281.9z"/>
						<linearGradient id="SVGID_7_" gradientUnits="userSpaceOnUse" x1="2040.6714" y1="883.0822" x2="1815.6376" y2="1558.1853">
							<stop  offset="0" style="stop-color:#09005D"/>
							<stop  offset="1" style="stop-color:#1A0F91"/>
						</linearGradient>
						<path class="st9" d="M1818.9,1476.8l13.7,3.6c0,0-26.1-131,29-138.3c55.1-7.3,262.6,4.3,323.5-54.5
							c58.7-56.6,45-153.3-3.3-192c-3.1-2.5-7.6-1.9-10.2,1l-6.8,7.4c-4.6,5.1-13.1,1.9-13.2-5l0,0c-0.2-6.5-8-10-12.7-5.5
							c-18.5,17.5-62.7,42.2-161.7,34.8c-140.6-10.5-243.5,20.5-270,112.6c-1.7,5.8-8.8,7.4-13,3c-8.3-8.6-23.4-15.6-49.3-3.4
							c-44.9,21.3-51,105.5,12.4,192.8c3,4.1,1.4,10.1-3.5,11.7c-17.1,5.7-44.9,22.6,3.7,67.7c49.7,46.1,84.8,51.7,98.6,51.8
							c3.7,0,6.9-2.5,7.6-6.2l16.5-83.4c0.9-4.3,5.2-7,9.4-5.9L1818.9,1476.8z"/>
						
							<linearGradient id="SVGID_8_" gradientUnits="userSpaceOnUse" x1="12656.1953" y1="1049.804" x2="12195.5205" y2="1402.2903" gradientTransform="matrix(0.9672 0.2541 -0.2541 0.9672 -9938.2715 -2874.2493)">
							<stop  offset="0" style="stop-color:#FEBBBA"/>
							<stop  offset="1" style="stop-color:#FF928E"/>
						</linearGradient>
						<path class="st10" d="M1817.7,1494.9c0,0,0.3-122.2-59.4-103.6s-7.1,135.1,33,150.2L1817.7,1494.9z"/>
					</g>
					<g>
						<linearGradient id="SVGID_9_" gradientUnits="userSpaceOnUse" x1="1661.9285" y1="1902.6494" x2="783.268" y2="3039.7412">
							<stop  offset="0" style="stop-color:#FE7062"/>
							<stop  offset="1" style="stop-color:#FF928E"/>
						</linearGradient>
						<path class="st11" d="M1387.9,2640.6c-16.5-116.9,104.5-288.6,154.5-353.8c14.3-18.6,22.3-41.4,22.5-64.9
							c1.5-165.5-68-271.8-179.4-343.2c0,0-404.1,470.8-301.2,832.9c11.1,39.1,28.3,72.7,50.1,101.5
							C1150.7,2676.6,1308.4,2646.9,1387.9,2640.6z"/>
						<linearGradient id="SVGID_10_" gradientUnits="userSpaceOnUse" x1="2890.1682" y1="1442.1953" x2="171.4926" y2="3344.2346">
							<stop  offset="0" style="stop-color:#FEBBBA"/>
							<stop  offset="1" style="stop-color:#FF928E"/>
						</linearGradient>
						<path class="st12" d="M1395.4,2595.4l-15.4-1.8c13.1-114.6,113.6-256.1,156.2-311.6l12.3,9.4
							C1506.7,2345.9,1408,2484.6,1395.4,2595.4z"/>
						<linearGradient id="SVGID_11_" gradientUnits="userSpaceOnUse" x1="1345.3779" y1="2506.594" x2="1639.9432" y2="3281.7654">
							<stop  offset="0" style="stop-color:#FEBBBA"/>
							<stop  offset="1" style="stop-color:#FF928E"/>
						</linearGradient>
						<path class="st13" d="M1391,2656.7c-1.4-5.2-2.4-10.7-3.2-16.2c-79.5,6.3-237.2,36.1-253.4,172.5
							c180.3,238.5,677.4,152.5,677.4,152.5v-92.8C1811.9,2872.7,1430.1,2801.8,1391,2656.7z"/>
					</g>
					<linearGradient id="SVGID_12_" gradientUnits="userSpaceOnUse" x1="1710.8534" y1="2367.7146" x2="2005.4175" y2="3142.8831">
						<stop  offset="0" style="stop-color:#FEBBBA"/>
						<stop  offset="1" style="stop-color:#FF928E"/>
					</linearGradient>
					<path class="st14" d="M1764.1,2939.9c0,0,73.4-173.2,202.7-111.8c129.3,61.4,119.2,101.6,119.2,101.6L1764.1,2939.9z"/>
					<linearGradient id="SVGID_13_" gradientUnits="userSpaceOnUse" x1="1678.3951" y1="2825.7034" x2="2384.9067" y2="2995.5383">
						<stop  offset="0" style="stop-color:#4042E2"/>
						<stop  offset="1" style="stop-color:#4F52FF"/>
					</linearGradient>
					<path class="st15" d="M1747.6,2975.8L1747.6,2975.8c1,13.1,12.2,23.1,25.3,22.6l670.1-23.4c10.4-0.4,19.5-7.3,22.6-17.2
						l19.5-62.2c4.8-15.3-6.1-31-22.1-31.8l-244.4-13c-2.2-0.1-4.4,0.1-6.6,0.5l-445.2,98.6
						C1754.8,2952.6,1746.6,2963.6,1747.6,2975.8z"/>
					<linearGradient id="SVGID_14_" gradientUnits="userSpaceOnUse" x1="1693.9155" y1="2761.136" x2="2400.4307" y2="2930.9717">
						<stop  offset="0" style="stop-color:#4042E2"/>
						<stop  offset="1" style="stop-color:#4F52FF"/>
					</linearGradient>
					<polygon class="st16" points="2196.8,2951.4 2215.2,2865.5 2466.3,2877.4 2449.8,2948.7 					"/>
					<linearGradient id="SVGID_15_" gradientUnits="userSpaceOnUse" x1="2880.6448" y1="2515.8157" x2="1716.0973" y2="1785.3898">
						<stop  offset="0" style="stop-color:#4042E2"/>
						<stop  offset="1" style="stop-color:#4F52FF"/>
					</linearGradient>
					<path class="st17" d="M2068.1,2026.5c-14.2,116.1-78.1,587.7-96.4,722.5c-2.6,19,12.5,35.6,31.6,35.1l1084.2-31
						c14.2-0.4,26.3-10.4,29.4-24.3l168.7-759.5c4.5-20.1-11.5-38.9-32.1-37.6l-1156.4,67.7
						C2082.1,2000.3,2069.9,2011.7,2068.1,2026.5z"/>
					<linearGradient id="SVGID_16_" gradientUnits="userSpaceOnUse" x1="2538.3701" y1="3023.8186" x2="2552.1519" y2="2458.7761">
						<stop  offset="0" style="stop-color:#4042E2"/>
						<stop  offset="1" style="stop-color:#4F52FF"/>
					</linearGradient>
					<path class="st18" d="M2503.9,2502.8l-160.2,454.8l372.6,7.9l31-460c1.5-21.6-16.4-39.5-38-38.1l-174,11.6
						C2521,2480,2508.7,2489.4,2503.9,2502.8z"/>
					<linearGradient id="SVGID_17_" gradientUnits="userSpaceOnUse" x1="2487.9041" y1="2081.7532" x2="2494.7947" y2="2488.3093">
						<stop  offset="0" style="stop-color:#4042E2"/>
						<stop  offset="1" style="stop-color:#4F52FF"/>
					</linearGradient>
					<path class="st19" d="M2192.6,2964.1L2192.6,2964.1c-4.1,12.5,5.2,25.4,18.4,25.4h583.5c10.7,0,19.4-8.7,19.4-19.4v-25
						c0-11-9.2-19.8-20.2-19.3l-583.5,25C2202.1,2951.2,2195.1,2956.5,2192.6,2964.1z"/>
				</g>
				<path class="st2" d="M2051.7,2506.4l-7.7-1l53.3-420.1c3.3-26.1,24.7-46.1,50.9-47.7l999.3-60.3l0.5,7.7l-999.3,60.3
					c-22.5,1.4-40.9,18.6-43.7,40.9L2051.7,2506.4z"/>
				
					<rect x="1981.1" y="2667.1" transform="matrix(0.125 -0.9922 0.9922 0.125 -876.4677 4348.1821)" class="st2" width="91.7" height="7.8"/>
				<g>
					<g>
						<g>
							
								<linearGradient id="SVGID_18_" gradientUnits="userSpaceOnUse" x1="1826.7808" y1="1840.5125" x2="2007.826" y2="1717.77" gradientTransform="matrix(0.9856 -0.1691 0.1691 0.9856 -316.3687 156.5187)">
								<stop  offset="0" style="stop-color:#4042E2"/>
								<stop  offset="1" style="stop-color:#4F52FF"/>
							</linearGradient>
							<path class="st20" d="M1991,1623.7c-120.4,9.1-190.4-115.4-191.1-116.7l8.1-4.4c0.7,1.2,67.9,120.6,182.3,111.9L1991,1623.7z
								"/>
						</g>
						<linearGradient id="SVGID_19_" gradientUnits="userSpaceOnUse" x1="1979.7802" y1="1619.0461" x2="2040.0712" y2="1619.0461">
							<stop  offset="0" style="stop-color:#4042E2"/>
							<stop  offset="1" style="stop-color:#4F52FF"/>
						</linearGradient>
						<path class="st21" d="M2040.1,1619c0,7.1-5.8,12.9-12.9,12.9h-34.5c-7.1,0-12.9-5.8-12.9-12.9l0,0c0-7.1,5.8-12.9,12.9-12.9
							h34.5C2034.3,1606.1,2040.1,1611.9,2040.1,1619L2040.1,1619z"/>
					</g>
					<g>
						
							<linearGradient id="SVGID_20_" gradientUnits="userSpaceOnUse" x1="2442.7495" y1="1365.0096" x2="1067.6385" y2="1592.2017" gradientTransform="matrix(0.9856 -0.1691 0.1691 0.9856 -316.3687 156.5187)">
							<stop  offset="0" style="stop-color:#4042E2"/>
							<stop  offset="1" style="stop-color:#4F52FF"/>
						</linearGradient>
						<path class="st22" d="M1808.2,1368.9c0,0,43.2-221.6,170.5-242.6c0,0-36.1-18.2-73.6,1.5c-37.6,19.7-132.6,127.6-128.7,246.5
							C1802.2,1383.7,1808.2,1368.9,1808.2,1368.9z"/>
						
							<linearGradient id="SVGID_21_" gradientUnits="userSpaceOnUse" x1="2092.6956" y1="1605.9447" x2="1386.9827" y2="1722.5406" gradientTransform="matrix(0.9856 -0.1691 0.1691 0.9856 -316.3687 156.5187)">
							<stop  offset="0" style="stop-color:#4042E2"/>
							<stop  offset="1" style="stop-color:#4F52FF"/>
						</linearGradient>
						<path class="st23" d="M1786.1,1358.5c-66.2,13.4-58,97.1-58,97.1c-4.8,60.7,13,90.9,35.7,105.2c15.5,9.8,35.1,10.7,51.4,2.4
							c16.4-8.3,27.2-24.5,28.6-42.8c1.2-16.5,2.6-32.2,3.8-37.8C1850.6,1469,1852.3,1345,1786.1,1358.5z"/>
					</g>
					<linearGradient id="SVGID_22_" gradientUnits="userSpaceOnUse" x1="1668.3926" y1="1047.6882" x2="1723.5188" y2="1245.2239">
						<stop  offset="0" style="stop-color:#4042E2"/>
						<stop  offset="1" style="stop-color:#4F52FF"/>
					</linearGradient>
					<path class="st24" d="M1792.2,1379.6c-13.7-2.4-27.3,4.9-32.8,17.7c-39.6,91.6,9,151.2,32.9,152.5
						c25.1,1.3,24.6-119.6,19.3-150.6C1809.3,1386.2,1801,1381.2,1792.2,1379.6z"/>
				</g>
			</g>
		</g>
		<g>
			<linearGradient id="SVGID_23_" gradientUnits="userSpaceOnUse" x1="2618.7141" y1="702.36" x2="3101.0706" y2="1570.6019">
				<stop  offset="0" style="stop-color:#FE7062"/>
				<stop  offset="1" style="stop-color:#FF928E"/>
			</linearGradient>
			<circle class="st25" cx="2820.6" cy="1065.8" r="420"/>
			<linearGradient id="SVGID_24_" gradientUnits="userSpaceOnUse" x1="2461.6372" y1="1069.0907" x2="3179.647" y2="1069.0907">
				<stop  offset="0" style="stop-color:#4042E2"/>
				<stop  offset="1" style="stop-color:#4F52FF"/>
			</linearGradient>
			<circle class="st26" cx="2820.6" cy="1069.1" r="359"/>
			<g class="st27">
				<circle class="st2" cx="2797.6" cy="1044.9" r="311.6"/>
			</g>
			<linearGradient id="SVGID_25_" gradientUnits="userSpaceOnUse" x1="2996.7932" y1="-675.8208" x2="2920.9944" y2="-62.5421">
				<stop  offset="0" style="stop-color:#E1473D"/>
				<stop  offset="1" style="stop-color:#E9605A"/>
			</linearGradient>
			<path class="st28" d="M2805.4,594.2c25.2,10.8,99.6,45.9,113.8,52.6c1.2,0.6,1.5,2.1,0.6,3.1l-88.9,97.3
				c-3.7,4.1-9.2,6.1-14.7,5.5l-38.2-4.4c-1.4-0.2-2.2-1.7-1.4-2.9l49.8-81.8c0.6-1,0.2-2.4-1-2.8l-72.2-28.1
				c-5.8-2.3-6.1-10.3-0.6-13.1l51.1-25.2C2804.3,594,2804.9,594,2805.4,594.2z"/>
			<g>
				<linearGradient id="SVGID_26_" gradientUnits="userSpaceOnUse" x1="2599.4919" y1="1057.2852" x2="2696.1699" y2="1057.2852">
					<stop  offset="0" style="stop-color:#DAE3FE"/>
					<stop  offset="1" style="stop-color:#E9EFFD"/>
				</linearGradient>
				<path class="st29" d="M2696.2,1147.2h-95.1v-24.6l31.5-44.6c8.7-12.3,14.6-21.4,17.8-27.4c3.2-5.9,5.6-11.6,7.2-17.1
					c1.5-5.5,2.3-11.1,2.3-16.9c0-6.8-1.5-11.9-4.5-15.3c-3-3.4-7-5.1-11.8-5.1c-4.3,0-8.3,1.1-12,3.4c-3.7,2.3-8.2,6.3-13.6,12.3
					l-18.4-19.4c8.5-9.6,16.4-16.2,23.7-19.8c7.3-3.6,15.2-5.3,23.7-5.3c14.3,0,25.5,4.2,33.5,12.6c8,8.4,12.1,20.1,12.1,35.1
					c0,6.8-0.7,13.2-2.2,19.3c-1.5,6.1-3.7,12.2-6.6,18.3c-3,6.1-6.7,12.5-11.1,19c-4.4,6.6-15.9,21.7-34.5,45.3v1h58.1V1147.2z"/>
				<linearGradient id="SVGID_27_" gradientUnits="userSpaceOnUse" x1="2711.5742" y1="1058.5587" x2="2818.4409" y2="1058.5587">
					<stop  offset="0" style="stop-color:#DAE3FE"/>
					<stop  offset="1" style="stop-color:#E9EFFD"/>
				</linearGradient>
				<path class="st30" d="M2818.4,1110h-18v37.2h-31.1V1110h-57.9v-26.8l53.6-113.3h35.3v112.8h18V1110z M2769.4,1082.7v-37.4
					l0.6-16.5l0.9-15.8h-1c-2.8,8.8-5.9,16.8-9.2,23.9l-21.3,45.7H2769.4z"/>
				<linearGradient id="SVGID_28_" gradientUnits="userSpaceOnUse" x1="2824.0215" y1="1058.5587" x2="2921.1841" y2="1058.5587">
					<stop  offset="0" style="stop-color:#DAE3FE"/>
					<stop  offset="1" style="stop-color:#E9EFFD"/>
				</linearGradient>
				<path class="st31" d="M2921.2,969.9l-66.1,177.3H2824l66.1-177.3H2921.2z"/>
				<linearGradient id="SVGID_29_" gradientUnits="userSpaceOnUse" x1="2932.344" y1="1058.6803" x2="3027.4438" y2="1058.6803">
					<stop  offset="0" style="stop-color:#DAE3FE"/>
					<stop  offset="1" style="stop-color:#E9EFFD"/>
				</linearGradient>
				<path class="st32" d="M2944.5,1147.2l49.7-147.9h-61.9v-29.2h95.1v22.3l-48.9,154.8H2944.5z"/>
			</g>
		</g>
	</g>
</g>
</svg>
