<?xml version="1.0" encoding="utf-8"?>
<!-- Generator: Adobe Illustrator 23.0.0, SVG Export Plug-In . SVG Version: 6.00 Build 0)  -->
<svg version="1.1" id="_x3C_Layer_x3E_" xmlns="http://www.w3.org/2000/svg" xmlns:xlink="http://www.w3.org/1999/xlink" x="0px"
	 y="0px" viewBox="0 0 2760 1840" style="enable-background:new 0 0 2760 1840;" xml:space="preserve">
<style type="text/css">
	.st0{fill:#FFFFFF;}
	.st1{fill:#BDD1FF;}
	.st2{fill:#283689;}
	.st3{fill:#8FA6EF;}
	.st4{fill:#505ABA;}
	.st5{fill:#2B478B;}
	.st6{fill:#778DE8;}
	.st7{fill:#E27227;}
	.st8{fill:#1C3870;}
	.st9{fill:#8C9DF4;}
	.st10{fill:#1B376D;}
	.st11{fill:#F99746;}
	.st12{opacity:0.7;}
	.st13{fill:#D86713;}
	.st14{fill:#A8D29F;}
	.st15{fill:#82B378;}
	.st16{opacity:0.1;}
	.st17{fill:#DDE7FE;}
	.st18{fill:#EBF2F9;}
	.st19{fill:#D5E5FB;}
	.st20{fill:#E2EEFD;}
	.st21{fill:#9DB0F4;}
	.st22{fill:#AFCDFB;}
	.st23{fill:#AEC3FF;}
	.st24{fill:#819DEA;}
	.st25{fill:#C5D7FF;}
	.st26{fill:#D36D1A;}
	.st27{fill:#F49540;}
	.st28{fill:#FFA255;}
	.st29{fill:#F8FCFF;}
	.st30{opacity:0.5;}
	.st31{fill:#ED7D2B;}
	.st32{fill:#131375;}
	.st33{fill:#060633;}
	.st34{fill:#829CE8;}
	.st35{fill:#ED975D;}
	.st36{fill:#FFB27D;}
	.st37{fill:#A9453D;}
	.st38{fill:#7A96E5;}
	.st39{fill:#233862;}
	.st40{fill:#EF873A;}
	.st41{fill:#F77D48;}
	.st42{fill:#15156D;}
	.st43{fill:#FA7267;}
	.st44{fill:#17152B;}
	.st45{opacity:0.3;}
	.st46{fill:#EA9963;}
	.st47{fill:#6980E2;}
	.st48{fill:#9FB1FF;}
	.st49{fill:#182D4C;}
	.st50{fill:#FFB583;}
	.st51{fill:#EA6C2D;}
	.st52{fill:#95C38B;}
	.st53{fill:#B5453C;}
	.st54{fill:#EFCBAB;}
	.st55{fill:#699DEE;}
	.st56{fill:#548EE2;}
</style>
<rect class="st0" width="2760" height="1840"/>
<g>
	<g>
		<path class="st1" d="M2562.4,1480.9c-6.2,11.3-12.4,21.4-18.2,30.1c-0.2,0.3-0.3,0.5-0.5,0.8c-16.8,25.1-45.1,40.1-75.3,40.1
			c-161.8,0-720.3,0-894.3-0.1c0,0-913.2-2.6-1198.8-3.5c-55.9-0.2-106.4-33.3-129-84.4c-25.7-58-53.6-141.6-56.8-236.4
			c-5.1-150.3,51.8-328.7,277.8-477.6C661.5,622,455.1,537.6,609.6,395.2c177.5-163.6,371.2,17.4,568.6-56.8
			c34.9-13.1,69.9-34.2,104.9-66.5c19.7-18.2,41.3-34.1,64.5-47.8c3.5-2.1,7.1-4.2,10.8-6.2c13.9-7.7,28.2-14.6,43-20.9
			c9.9-4.2,20.1-8.1,30.4-11.6c16.4-5.6,33.2-10.5,50.4-14.6c24.4-5.9,49.5-10.2,75.1-13.2c11.2-1.3,22.4-2.3,33.8-3.1
			c220.5-14.8,468.7,68.5,596.8,190.3c25.8,24.5,143,151.4,50.6,325.9c-58.4,110.1,186.1,215.3,273,341.1
			c54.4,78.7,82.2,151.1,93.2,215.6C2623.3,1337.7,2593.1,1424.8,2562.4,1480.9z"/>
	</g>
	<g>
		<path class="st2" d="M1014.7,1227.8l-4.7-0.6c0.1-0.9,2.9-21,22.8-33.6c17.5-11.1,11.6-45.8,11.5-46.1l4.7-0.8
			c0.1,0.4,1.7,9.5,0.9,20.3c-1,14.7-6.1,25.3-14.6,30.7C1017.3,1209,1014.7,1227.6,1014.7,1227.8z"/>
	</g>
	<g>
		<path class="st2" d="M1045.3,1228.6c-0.1-0.2-11.6-21.9,9.1-35c17.2-10.9,1.9-44.6,1.8-44.9l4.3-2c0.2,0.4,4.3,9.4,6,20
			c2.4,14.7-0.9,25.4-9.6,30.9c-17,10.8-7.9,28-7.5,28.7L1045.3,1228.6z"/>
	</g>
	<g>
		<path class="st3" d="M2562.7,1532.1c-0.4,0.9-0.8,1.8-1.2,2.7c-0.8,1.8-1.6,3.5-2.4,5.2c-5.4,11.6-10.7,22-15.8,31.2
			c-0.2,0.3-0.3,0.6-0.5,0.9c-16.8,30.4-45.1,48.6-75.3,48.6c-64.2,0-190.8,0-331.1,0h-19.1c-76.5,0-156.3,0-231.7,0h-22.5
			c-121.3,0-229.1,0-289.9-0.1c0,0-305.8-1.1-618.8-2.2c-5.3,0-10.6,0-15.9-0.1c-91.1-0.3-182.4-0.7-266.6-1
			c-10.9,0-21.6-0.1-32.3-0.1c-108-0.4-202-0.7-265.3-1c-44.3-0.2-85.1-25.4-111.5-66.7c-1.4-2.2-2.7-4.4-4-6.7
			c-5.2-9-9.7-18.7-13.5-29c-25.7-70.4-53.6-171.7-56.8-286.6h2415C2622.1,1359.3,2592.9,1464,2562.7,1532.1z"/>
	</g>
	<g>
		<g>
			<polygon class="st4" points="2039.7,1468.9 681.7,1468.9 818.6,1329.5 1920.4,1329.5 			"/>
		</g>
		<g>
			<rect x="681.7" y="1468.9" class="st5" width="1358" height="17.8"/>
		</g>
		<g>
			<g>
				<g>
					<rect x="826.4" y="1358.7" class="st5" width="1082.3" height="4.8"/>
				</g>
			</g>
			<g>
				<g>
					<rect x="789.7" y="1387.8" class="st5" width="1148.1" height="4.8"/>
				</g>
			</g>
			<g>
				<g>
					<rect x="759.2" y="1420" class="st5" width="1209.2" height="4.8"/>
				</g>
			</g>
			<g>
				<rect x="831.9" y="1337.2" class="st5" width="48.9" height="14.7"/>
			</g>
			<g>
				<rect x="1206.7" y="1337.2" class="st5" width="48.9" height="14.7"/>
			</g>
			<g>
				<rect x="1285.4" y="1337.2" class="st5" width="48.9" height="14.7"/>
			</g>
			<g>
				<rect x="1494.7" y="1337.2" class="st5" width="48.9" height="14.7"/>
			</g>
			<g>
				<rect x="1567.4" y="1337.2" class="st5" width="48.9" height="14.7"/>
			</g>
			<g>
				<rect x="1646.1" y="1337.2" class="st5" width="48.9" height="14.7"/>
			</g>
		</g>
	</g>
	<g>
		<g>
			<path class="st5" d="M2544.5,1227.5h-9.6c-21.7-31.7-40.5-33.2-76.9-36c-11.2-0.9-23.9-1.9-38.8-3.9
				c-33.2-4.5-44.1-22.3-56.7-42.9c-5.7-9.3-11.6-19-20.3-28.8c-26.5-30-86-21.2-86.6-21.1l-1.2-7.9c2.6-0.4,64.5-9.5,93.9,23.7
				c9.1,10.3,15.5,20.7,21.1,29.9c12.5,20.4,21.5,35.2,51,39.1c14.7,2,27.2,2.9,38.3,3.8C2498.2,1186.6,2519.4,1188.2,2544.5,1227.5
				z"/>
		</g>
	</g>
	<g>
		<g>
			<path class="st6" d="M2224.8,1282.6h-179.7c-16.3,0-29.5-13.2-29.5-29.5v-179.7c0-16.3,13.2-29.5,29.5-29.5h179.7
				c16.3,0,29.5,13.2,29.5,29.5v179.7C2254.3,1269.4,2241.1,1282.6,2224.8,1282.6z"/>
		</g>
		<g>
			<g>
				<g>
					<path class="st7" d="M2216.8,1157.9c0,4.3-0.3,8.5-1,12.6c-0.2,1-0.3,2-0.5,3c-1.4,7.1-3.6,13.8-6.7,20.1
						c-0.3,0.6-0.6,1.2-0.9,1.8c-5.3,10.3-12.8,19.4-21.8,26.6c-0.5,0.4-1,0.8-1.5,1.2c-9.2,7-19.9,12.1-31.6,14.7h0l-2.1,0.5h0
						c-3,0.6-6,1-9,1.2c-1,0.1-2,0.2-3,0.2h0c-1.3,0.1-2.5,0.1-3.8,0.1c-8.7,0-17.1-1.4-25-3.9c-1.2-0.4-2.4-0.8-3.6-1.3
						c-2.8-1-5.6-2.2-8.2-3.6c-0.6-0.3-1.2-0.6-1.8-0.9c-11.4-6.1-21.2-14.8-28.5-25.4c-0.4-0.5-0.7-1-1.1-1.6
						c-5-7.6-8.9-16.1-11.2-25.2c-0.3-1.2-0.6-2.5-0.9-3.8c-0.6-3.1-1.1-6.2-1.4-9.4c-0.1-0.8-0.1-1.6-0.2-2.4v0
						c-0.1-1.6-0.1-3.1-0.1-4.7c0-8.5,1.3-16.7,3.7-24.4c0.2-0.7,0.4-1.4,0.7-2c3.8-11.2,10.1-21.4,18-29.8c0.4-0.5,0.9-0.9,1.3-1.3
						c8.1-8.2,17.9-14.6,28.8-18.8c0.6-0.3,1.3-0.5,1.9-0.7c8.6-3.1,17.8-4.7,27.5-4.7c4.6,0,9.1,0.4,13.5,1.1
						c0.8,0.1,1.6,0.3,2.3,0.4c0.6,0.1,1.1,0.2,1.7,0.3c1.1,0.2,2.2,0.5,3.2,0.8c11.8,3.1,22.6,8.7,31.7,16.3c0.5,0.4,1,0.8,1.4,1.2
						c9.6,8.4,17.3,19.1,22.1,31.1c0.3,0.6,0.5,1.2,0.7,1.9c2,5.3,3.5,10.9,4.3,16.7c0.2,1.1,0.3,2.2,0.4,3.3v0
						C2216.6,1152,2216.8,1154.9,2216.8,1157.9z"/>
				</g>
			</g>
			<g>
				<g>
					<g>
						<path class="st8" d="M2185.9,1221.9c-0.5,0.4-1,0.8-1.5,1.2l-10.9-12.2l-1.3-1.4l-22.4-25l-1.3-1.4l-25.3-28.2l-1.3-1.4
							l-25-27.9l-1.3-1.4l-20.4-22.7c0.4-0.5,0.9-0.9,1.3-1.3l20.5,22.8l1.3,1.4l25,27.9l1.3,1.4l25.3,28.2l1.3,1.4l22.4,25l1.2,1.4
							L2185.9,1221.9z"/>
					</g>
				</g>
				<g>
					<g>
						<path class="st8" d="M2208.6,1193.5c-0.3,0.6-0.6,1.2-0.9,1.8l-7.5-8.4l-1.3-1.4l-22.4-25l-1.3-1.4L2150,1131l-1.3-1.4
							l-25-27.9l-1.2-1.4l-17-18.9c0.6-0.3,1.3-0.5,1.9-0.7l16.5,18.4l1.3,1.4l25,27.9l1.3,1.4l25.3,28.2l1.3,1.4l22.4,25l1.3,1.4
							L2208.6,1193.5z"/>
					</g>
				</g>
				<g>
					<g>
						<path class="st8" d="M2215.9,1145.8c0.2,1.1,0.3,2.2,0.4,3.3l-12-13.4l-1.2-1.4l-25.3-28.2l-1.2-1.4l-24.1-26.9
							c1.1,0.2,2.2,0.5,3.2,0.8l22.3,24.8l1.3,1.4l25.3,28.2l1.2,1.4L2215.9,1145.8z"/>
					</g>
				</g>
				<g>
					<g>
						<path class="st8" d="M2152.8,1237.8l-2.1,0.5h0l-3.4-3.8l-1.2-1.4l-22.4-25l-1.3-1.4l-25.3-28.2l-1.3-1.4l-25-27.9l-1.3-1.4
							l-12.9-14.4c0.2-0.7,0.4-1.4,0.7-2l13.6,15.2l1.3,1.4l25,27.9l1.2,1.4l25.3,28.2l1.2,1.4l22.4,25l1.3,1.4L2152.8,1237.8z"/>
					</g>
				</g>
				<g>
					<g>
						<path class="st8" d="M2150.7,1077.5l-25.6,23l-1.4,1.2l-25.3,22.7l-1.4,1.3l-24.8,22.3l-1.4,1.3l-17.5,15.7
							c-0.1-0.8-0.1-1.6-0.2-2.4v0l16.5-14.8l1.4-1.2l24.8-22.3l1.4-1.2l25.3-22.7l1.4-1.2l24.5-22
							C2149.2,1077.2,2150,1077.3,2150.7,1077.5z"/>
					</g>
				</g>
				<g>
					<g>
						<path class="st8" d="M2188.8,1096.2l-9.6,8.6l-1.4,1.3l-26.3,23.6l-1.4,1.3l-25.3,22.7l-1.4,1.3l-24.8,22.3l-1.4,1.3
							l-21.5,19.2l-1.4,1.3l-6.5,5.8c-0.4-0.5-0.7-1-1.1-1.6l6.3-5.7l1.4-1.3l21.5-19.3l1.4-1.2l24.8-22.3l1.4-1.3l25.3-22.7
							l1.4-1.3l26.4-23.6l1.4-1.3l9.5-8.5C2187.8,1095.3,2188.3,1095.7,2188.8,1096.2z"/>
					</g>
				</g>
				<g>
					<g>
						<path class="st8" d="M2211.6,1129.1l-5.9,5.3l-1.4,1.3l-26.3,23.6l-1.4,1.3l-25.3,22.7l-1.4,1.3l-24.8,22.3l-1.4,1.3
							l-21.5,19.2l-1.4,1.3l-2.8,2.5c-0.6-0.3-1.2-0.6-1.8-0.9l3.3-3l1.4-1.3l21.5-19.2l1.4-1.3l24.8-22.3l1.4-1.3l25.3-22.7
							l1.4-1.3l26.4-23.6l1.4-1.3l6.4-5.8C2211.1,1127.9,2211.4,1128.5,2211.6,1129.1z"/>
					</g>
				</g>
				<g>
					<g>
						<path class="st8" d="M2215.8,1170.5c-0.2,1-0.3,2-0.5,3l-13.7,12.3l-1.4,1.2l-25.3,22.7l-1.4,1.3l-24.8,22.3l-1.4,1.2l-5.6,5
							c-1,0.1-2,0.2-3,0.2l7.4-6.6l1.4-1.2l24.8-22.3l1.4-1.3l25.3-22.7l1.4-1.2L2215.8,1170.5z"/>
					</g>
				</g>
				<g>
					<g>
						<path class="st8" d="M2109.9,1235.9c-1.2-0.4-2.4-0.8-3.6-1.3l-5.4-6.1l-1.3-1.4l-25.3-28.2l-1.2-1.4l-17.5-19.5
							c-0.3-1.2-0.6-2.5-0.9-3.8l19.7,22l1.2,1.4l25.3,28.2l1.3,1.4L2109.9,1235.9z"/>
					</g>
				</g>
			</g>
		</g>
	</g>
	<g>
		<g>
			<path class="st9" d="M2224.8,1044.7h-179.7c-16.3,0-29.5-13.2-29.5-29.5V835.5c0-16.3,13.2-29.5,29.5-29.5h179.7
				c16.3,0,29.5,13.2,29.5,29.5v179.7C2254.3,1031.5,2241.1,1044.7,2224.8,1044.7z"/>
		</g>
		<g>
			<g>
				<g>
					<path class="st7" d="M2216.8,920c0,4.3-0.3,8.5-1,12.6c-0.2,1-0.3,2-0.5,3c-1.4,7.1-3.6,13.8-6.7,20.1
						c-0.3,0.6-0.6,1.2-0.9,1.8c-5.3,10.3-12.8,19.4-21.8,26.6c-0.5,0.4-1,0.8-1.5,1.2c-9.2,7-19.9,12.1-31.6,14.7h0l-2.1,0.5h0
						c-3,0.6-6,1-9,1.2c-1,0.1-2,0.2-3,0.2h0c-1.3,0.1-2.5,0.1-3.8,0.1c-8.7,0-17.1-1.4-25-3.9c-1.2-0.4-2.4-0.8-3.6-1.3
						c-2.8-1-5.6-2.2-8.2-3.6c-0.6-0.3-1.2-0.6-1.8-0.9c-11.4-6.1-21.2-14.8-28.5-25.4c-0.4-0.5-0.7-1-1.1-1.6
						c-5-7.6-8.9-16.1-11.2-25.2c-0.3-1.2-0.6-2.5-0.9-3.8c-0.6-3.1-1.1-6.2-1.4-9.4c-0.1-0.8-0.1-1.6-0.2-2.4v0
						c-0.1-1.6-0.1-3.1-0.1-4.7c0-8.5,1.3-16.7,3.7-24.4c0.2-0.7,0.4-1.4,0.7-2c3.8-11.2,10.1-21.4,18-29.8c0.4-0.5,0.9-0.9,1.3-1.3
						c8.1-8.2,17.9-14.6,28.8-18.8c0.6-0.2,1.3-0.5,1.9-0.7c8.6-3.1,17.8-4.7,27.5-4.7c4.6,0,9.1,0.4,13.5,1.1
						c0.8,0.1,1.6,0.3,2.3,0.4c0.6,0.1,1.1,0.2,1.7,0.3c1.1,0.2,2.2,0.5,3.2,0.8c11.8,3.1,22.6,8.7,31.7,16.3c0.5,0.4,1,0.8,1.4,1.2
						c9.6,8.4,17.3,19.1,22.1,31.1c0.3,0.6,0.5,1.2,0.7,1.9c2,5.3,3.5,10.9,4.3,16.7c0.2,1.1,0.3,2.2,0.4,3.3v0
						C2216.6,914.1,2216.8,917,2216.8,920z"/>
				</g>
			</g>
			<g>
				<g>
					<g>
						<path class="st8" d="M2185.9,984.1c-0.5,0.4-1,0.8-1.5,1.2l-10.9-12.2l-1.3-1.4l-22.4-25l-1.3-1.4l-25.3-28.2l-1.3-1.4
							l-25-27.9l-1.3-1.4l-20.4-22.7c0.4-0.5,0.9-0.9,1.3-1.3l20.5,22.8l1.3,1.4l25,27.9l1.3,1.4L2150,944l1.3,1.4l22.4,25l1.2,1.4
							L2185.9,984.1z"/>
					</g>
				</g>
				<g>
					<g>
						<path class="st8" d="M2208.6,955.7c-0.3,0.6-0.6,1.2-0.9,1.8l-7.5-8.4l-1.3-1.4l-22.4-25l-1.3-1.4l-25.3-28.2l-1.3-1.4
							l-25-27.9l-1.2-1.4l-17-18.9c0.6-0.2,1.3-0.5,1.9-0.7l16.5,18.4l1.3,1.4l25,27.9l1.3,1.4l25.3,28.2l1.3,1.4l22.4,25l1.3,1.4
							L2208.6,955.7z"/>
					</g>
				</g>
				<g>
					<g>
						<path class="st8" d="M2215.9,908c0.2,1.1,0.3,2.2,0.4,3.3l-12-13.4l-1.2-1.4l-25.3-28.2l-1.2-1.4l-24.1-26.9
							c1.1,0.2,2.2,0.5,3.2,0.8l22.3,24.8l1.3,1.4l25.3,28.2l1.2,1.4L2215.9,908z"/>
					</g>
				</g>
				<g>
					<g>
						<path class="st8" d="M2152.8,999.9l-2.1,0.5h0l-3.4-3.8l-1.2-1.4l-22.4-25l-1.3-1.4l-25.3-28.2l-1.3-1.4l-25-27.9l-1.3-1.4
							l-12.9-14.4c0.2-0.7,0.4-1.4,0.7-2l13.6,15.2l1.3,1.4l25,27.9l1.2,1.4l25.3,28.2l1.2,1.4l22.4,25l1.3,1.4L2152.8,999.9z"/>
					</g>
				</g>
				<g>
					<g>
						<path class="st8" d="M2150.7,839.6l-25.6,23l-1.4,1.2l-25.3,22.7l-1.4,1.3l-24.8,22.3l-1.4,1.3l-17.5,15.7
							c-0.1-0.8-0.1-1.6-0.2-2.4v0l16.5-14.8l1.4-1.2l24.8-22.3l1.4-1.2l25.3-22.7l1.4-1.2l24.5-22
							C2149.2,839.3,2150,839.4,2150.7,839.6z"/>
					</g>
				</g>
				<g>
					<g>
						<path class="st8" d="M2188.8,858.3l-9.6,8.6l-1.4,1.3l-26.3,23.6l-1.4,1.3l-25.3,22.7l-1.4,1.3l-24.8,22.3l-1.4,1.3
							l-21.5,19.2l-1.4,1.3l-6.5,5.8c-0.4-0.5-0.7-1-1.1-1.6l6.3-5.7l1.4-1.3l21.5-19.3l1.4-1.2l24.8-22.3l1.4-1.3l25.3-22.7
							l1.4-1.3l26.4-23.6l1.4-1.3l9.5-8.5C2187.8,857.5,2188.3,857.9,2188.8,858.3z"/>
					</g>
				</g>
				<g>
					<g>
						<path class="st8" d="M2211.6,891.3l-5.9,5.3l-1.4,1.3l-26.3,23.6l-1.4,1.3l-25.3,22.7l-1.4,1.3l-24.8,22.3l-1.4,1.3
							l-21.5,19.2l-1.4,1.3l-2.8,2.5c-0.6-0.3-1.2-0.6-1.8-0.9l3.3-3l1.4-1.3l21.5-19.2l1.4-1.3l24.8-22.3l1.4-1.3l25.3-22.7
							l1.4-1.3l26.4-23.6l1.4-1.3l6.4-5.8C2211.1,890,2211.4,890.6,2211.6,891.3z"/>
					</g>
				</g>
				<g>
					<g>
						<path class="st8" d="M2215.8,932.6c-0.2,1-0.3,2-0.5,3l-13.7,12.3l-1.4,1.2l-25.3,22.7l-1.4,1.3l-24.8,22.3l-1.4,1.2l-5.6,5
							c-1,0.1-2,0.2-3,0.2l7.4-6.6l1.4-1.2l24.8-22.3l1.4-1.3l25.3-22.7l1.4-1.2L2215.8,932.6z"/>
					</g>
				</g>
				<g>
					<g>
						<path class="st8" d="M2109.9,998c-1.2-0.4-2.4-0.8-3.6-1.3l-5.4-6.1l-1.3-1.4l-25.3-28.2l-1.2-1.4l-17.5-19.5
							c-0.3-1.2-0.6-2.5-0.9-3.8l19.7,22l1.2,1.4l25.3,28.2l1.3,1.4L2109.9,998z"/>
					</g>
				</g>
			</g>
		</g>
	</g>
	<g>
		<g>
			<g>
				<g>
					<path class="st10" d="M2167.1,1434.8l126.6-113.9c5.2-4.6,19.2-7.8,31.5-7.1l162.4,9.4c12.2,0.7,17.9,5,12.8,9.7l-126.6,113.9
						c-5.2,4.6-19.2,7.8-31.5,7.1l-162.4-9.4C2167.7,1443.8,2162,1439.4,2167.1,1434.8z"/>
				</g>
				<g>
					<polygon class="st10" points="2502.3,1327.5 2502.3,1313.7 2168.4,1421.1 2165.5,1424.1 2165.2,1438.7 2312.7,1443.5 					"/>
				</g>
			</g>
			<g>
				<g>
					<path class="st4" d="M2322.9,1299.5l159.6,9.2c12.8,0.7,18.8,5.3,13.4,10.2l-119,107.1c-7.8,7-29.1,11.8-47.5,10.8l-143-8.3
						c-13.6-0.8-19.9-5.6-14.2-10.8l124.8-112.3C2301.2,1301.5,2312.8,1298.9,2322.9,1299.5z"/>
				</g>
				<g>
					<path class="st5" d="M2502.2,1313.7c-0.5-3-5.9-5.3-14.6-5.8l-162.4-9.4c-12.2-0.7-26.3,2.5-31.4,7.1l-126.6,113.9
						c-1.8,1.6-2.3,3.2-1.6,4.6v0c0.9,1.9,3.9,3.5,8.6,4.4h0c1.7,0.3,3.6,0.6,5.8,0.7l142.7,8.3h0l19.7,1.1
						c12.2,0.7,26.3-2.5,31.4-7.1l88-79.2l0,0l31.6-28.4l7-6.3c1.3-1.2,1.9-2.3,1.9-3.4C2502.3,1314,2502.2,1313.9,2502.2,1313.7z
						 M2494.7,1317.2l-6.6,6l0,0l-44.9,40.4l-0.1,0.1l-73.3,65.9l0,0l-1.4,1.3l0,0l-0.3,0.3c-3.9,3.5-14.4,5.8-23.5,5.3l-0.7,0h0
						l-18-1.1l-143.8-8.3c-2.2-0.1-4.1-0.4-5.6-0.8c-5.1-1.3-6.8-3.8-3.9-6.4l0.3-0.2l0,0l1.4-1.3l124.9-112.4
						c3.9-3.5,14.4-5.8,23.5-5.3l162.4,9.4c7.8,0.4,12,2.9,10.7,5.7C2495.7,1316.2,2495.3,1316.7,2494.7,1317.2z"/>
				</g>
				<g>
					<path class="st5" d="M2177.4,1427.9l165.3,9.6c11.1,0.6,23.9-2.3,28.6-6.5l1.3-1.2l-201-11.6l-3.2,2.9
						C2164.7,1424.3,2168.8,1427.4,2177.4,1427.9z"/>
				</g>
			</g>
		</g>
		<g>
			<path class="st10" d="M2562.7,1532.1c-0.4,0.9-0.8,1.8-1.2,2.7c-0.8,1.8-1.6,3.5-2.4,5.2c-30.5-0.3-69.4,2.4-109.8,5.2
				c-104.5,7.1-212.5,14.5-246.9-19c-11.4-11.1-15.5-22.8-12.2-34.9c5.2-18.9,27.5-34.3,44.4-43.6c0,0,0,0,0,0
				c4.7-2.6,9-4.7,12.4-6.3h0c4.1-1.9,6.9-3,7.4-3.2l2.3,3.5l2.3,3.5c-0.1,0-3.1,1.2-7.6,3.4c-14.6,6.9-45.6,23.7-51.3,44.3
				c-2.7,9.8,0.6,19,10.1,28.3c31.1,30.2,141,22.7,238.1,16C2490.5,1534.3,2531,1531.6,2562.7,1532.1z"/>
		</g>
	</g>
	<g>
		<g>
			<rect x="761.6" y="449.1" class="st11" width="1198.1" height="703.4"/>
		</g>
		<g>
			<rect x="761.6" y="449.1" class="st2" width="1198.1" height="591"/>
		</g>
		<g>
			<path class="st11" d="M1517.5,1267.1v17.1h-351.8v-17.1c24.9,0,45.2-19.2,47.1-43.6c0.1-1.2,0.1-2.5,0.1-3.7v-67.3h257.3v67.3
				c0,1.2,0.1,2.5,0.1,3.7c0.9,11.6,6,22,13.7,29.7C1492.7,1261.8,1504.5,1267.1,1517.5,1267.1z"/>
		</g>
		<g class="st12">
			<rect x="1213" y="1152.5" class="st13" width="257.3" height="14.1"/>
		</g>
		<g class="st12">
			<path class="st13" d="M1517.5,1267.1h-351.8c24.9,0,45.2-19.2,47.1-43.6h257.6c0.9,11.6,6,22,13.7,29.7
				C1492.7,1261.8,1504.5,1267.1,1517.5,1267.1z"/>
		</g>
	</g>
	<g>
		<g>
			<path class="st14" d="M503.5,1051.4c0,0-12.5-110.7,35.4-203.9c5.1-9.9,17.7-7.4,19.8,3.9c7.4,40.6,14.9,121.6-19.5,207.7
				C490.3,1181.7,503.5,1051.4,503.5,1051.4z"/>
		</g>
		<g>
			<path class="st14" d="M560.7,1073.3c0,0,7.8-111.1,71.8-194.1c6.8-8.8,18.7-4.1,18.7,7.4c0,41.3-7.4,122.3-56.8,200.8
				C524.1,1199,560.7,1073.3,560.7,1073.3z"/>
		</g>
		<g>
			<path class="st15" d="M528.8,1051.2c0,0,0.2-111.4,58.4-198.6c6.2-9.2,18.4-5.3,19.2,6.1c2.8,41.2,0.9,122.5-43,204.2
				C500.9,1179.1,528.8,1051.2,528.8,1051.2z"/>
		</g>
		<g>
			<path class="st15" d="M566.4,1056.8c0,0,22-84.1,83-138.6c6.5-5.8,15-0.4,13.3,8.4c-6,31.7-23.3,92.8-72.5,145.9
				C520.3,1148,566.4,1056.8,566.4,1056.8z"/>
		</g>
		<g>
			<path class="st14" d="M484.3,1064.4c0,0,12.5-110.7-35.4-203.9c-5.1-9.9-17.7-7.4-19.8,3.9c-7.4,40.6-14.9,121.6,19.5,207.7
				C497.4,1194.7,484.3,1064.4,484.3,1064.4z"/>
		</g>
		<g>
			<path class="st14" d="M427.1,1086.3c0,0-7.8-111.1-71.8-194.1c-6.8-8.8-18.7-4.1-18.7,7.4c0,41.3,7.4,122.3,56.8,200.8
				C463.6,1212,427.1,1086.3,427.1,1086.3z"/>
		</g>
		<g>
			<path class="st15" d="M458.9,1064.2c0,0-0.2-111.4-58.4-198.6c-6.2-9.2-18.4-5.3-19.2,6.1c-2.8,41.2-0.9,122.5,43,204.2
				C486.8,1192.1,458.9,1064.2,458.9,1064.2z"/>
		</g>
		<g>
			<path class="st15" d="M523.7,1070.2c0,0,21-109.4-19.5-206.1c-4.3-10.3-17.1-8.7-20,2.4c-10.6,39.9-24.2,120.1,3.3,208.6
				C526.7,1201,523.7,1070.2,523.7,1070.2z"/>
		</g>
		<g>
			<path class="st15" d="M421.3,1069.8c0,0-22-84.1-83-138.6c-6.5-5.8-15-0.4-13.3,8.4c6,31.7,23.3,92.8,72.5,145.9
				C467.4,1161,421.3,1069.8,421.3,1069.8z"/>
		</g>
		<g>
			<path class="st5" d="M555.9,1253.1H435.8c-49.9,0-90.7-40.8-90.7-90.7V1053c0-2.6,2.1-4.8,4.8-4.8h296.6v114.2
				C646.6,1212.3,605.8,1253.1,555.9,1253.1z"/>
		</g>
	</g>
	<g>
		<rect x="777.2" y="464.7" class="st4" width="1164.7" height="553.2"/>
	</g>
	<g>
		<g class="st16">
			<rect x="804.6" y="490.2" class="st17" width="249.7" height="249.7"/>
		</g>
		<g class="st16">
			<rect x="804.6" y="767.5" class="st17" width="249.7" height="227.5"/>
		</g>
		<g class="st16">
			<rect x="1102.7" y="796.1" class="st17" width="804.3" height="198.9"/>
		</g>
		<g>
			<rect x="1102.7" y="490.2" class="st18" width="514.1" height="281.3"/>
		</g>
		<g>
			<g>
				<path class="st19" d="M1592.4,567v204.6h-489.7V618.8h18.3v9.5h15v-5.5h13.9V601h6.9v-10.2h1.1V601h16.7v-19.1h1.6V601h11v-0.3
					h0v-2.4h0V596h0v-3.8h0v-2.4h0v-3.8h0v-2.4h0v-3.8h0V577h0v-3.8h0v-3.3h0V566h0v-2.5h3.3v-2.9h0.5v2.9h24.3v-2.9h0.5v2.9h4.4v20
					l3.1,0v0h0v-3.8h0V577h0v-3.8h0v-2.6h0v-3.8h0v0h29.5v0h5.1c0.3,0.1,0.5,0.2,0.8,0.3v21.8h21.5v28.6h17.4v-52.9h3.8v-3.7h0.7
					v3.7h13.7v-3.7h0.7v3.7h19.5v-3.7h0.7v3.7h12.3v-3.7h0.7v3.7h5v49.4h19.2v-8l22.7,0.1v-13h4.6v-2.6h0.6v2.6h17.5v0h3.5v-2.6h0.6
					v2.6h4.2v25.7h27v9.5h15v-5.5h13.9V601h6.9v-10.2h1V601h16.7v-19.1h1.6V601h11v-0.3h0v-2.4h0V596h0v-3.8h0v-2.4h0v-3.8h0v-2.4h0
					v-3.8h0V577h0v-3.8h0v-3.3h0V566h0v-2.5h3.3v-2.9h0.5v2.9h24.3v-2.9h0.5v2.9h4.4v20l3.1,0h0v0h0v-3.8h0V577h0v-3.8h0v-2.6h0
					v-3.8h0v0h29.5v0h5.1C1592,566.8,1592.2,566.9,1592.4,567z"/>
			</g>
			<g>
				<g>
					<rect x="1311.3" y="564.5" class="st20" width="43.5" height="8.4"/>
				</g>
				<g>
					<g>
						<rect x="1521" y="563.5" class="st20" width="20.3" height="5.1"/>
					</g>
					<g>
						<rect x="1521" y="571.3" class="st20" width="20.3" height="5.1"/>
					</g>
					<g>
						<rect x="1521" y="579.3" class="st20" width="20.3" height="5.1"/>
					</g>
					<g>
						<rect x="1521" y="587.4" class="st20" width="20.3" height="5.1"/>
					</g>
					<g>
						<rect x="1521" y="595.3" class="st20" width="20.3" height="5.1"/>
					</g>
				</g>
				<g>
					<g>
						<rect x="1521" y="603.9" class="st20" width="20.3" height="5.1"/>
					</g>
					<g>
						<rect x="1521" y="611.7" class="st20" width="20.3" height="5.1"/>
					</g>
					<g>
						<rect x="1521" y="619.7" class="st20" width="20.3" height="5.1"/>
					</g>
					<g>
						<rect x="1521" y="627.8" class="st20" width="20.3" height="5.1"/>
					</g>
					<g>
						<rect x="1521" y="635.6" class="st20" width="20.3" height="5.1"/>
					</g>
				</g>
				<g>
					<g>
						<rect x="1187.1" y="563.5" class="st20" width="21.7" height="5.1"/>
					</g>
					<g>
						<rect x="1187.1" y="571.3" class="st20" width="21.7" height="5.1"/>
					</g>
					<g>
						<rect x="1187.1" y="579.3" class="st20" width="21.7" height="5.1"/>
					</g>
					<g>
						<rect x="1187.1" y="587.4" class="st20" width="21.7" height="5.1"/>
					</g>
					<g>
						<rect x="1187.1" y="595.3" class="st20" width="21.7" height="5.1"/>
					</g>
				</g>
				<g>
					<g>
						<rect x="1187.1" y="603.9" class="st20" width="21.7" height="5.1"/>
					</g>
					<g>
						<rect x="1187.1" y="611.7" class="st20" width="21.7" height="5.1"/>
					</g>
					<g>
						<rect x="1187.1" y="619.7" class="st20" width="21.7" height="5.1"/>
					</g>
					<g>
						<rect x="1187.1" y="627.8" class="st20" width="21.7" height="5.1"/>
					</g>
					<g>
						<rect x="1187.1" y="635.6" class="st20" width="21.7" height="5.1"/>
					</g>
				</g>
				<g>
					<g>
						<rect x="1223.9" y="566.8" class="st20" width="24.7" height="5.1"/>
					</g>
					<g>
						<rect x="1223.9" y="574.7" class="st20" width="24.7" height="5.1"/>
					</g>
					<g>
						<rect x="1223.9" y="582.6" class="st20" width="24.7" height="5.1"/>
					</g>
					<g>
						<rect x="1223.9" y="590.8" class="st20" width="24.7" height="5.1"/>
					</g>
					<g>
						<rect x="1223.9" y="598.6" class="st20" width="24.7" height="5.1"/>
					</g>
				</g>
				<g>
					<g>
						<rect x="1223.9" y="606.8" class="st20" width="24.7" height="5.1"/>
					</g>
					<g>
						<rect x="1223.9" y="614.6" class="st20" width="24.7" height="5.1"/>
					</g>
					<g>
						<rect x="1223.9" y="622.6" class="st20" width="24.7" height="5.1"/>
					</g>
					<g>
						<rect x="1223.9" y="630.7" class="st20" width="24.7" height="5.1"/>
					</g>
					<g>
						<rect x="1223.9" y="638.5" class="st20" width="24.7" height="5.1"/>
					</g>
				</g>
			</g>
		</g>
		<g>
			<g>
				<path class="st21" d="M1548.5,545.9h-1.9l0-0.1l0.6-5.1c0-0.2,0.2-0.3,0.3-0.3c0,0,0,0,0.1,0c0.1,0,0.2,0.1,0.3,0.1
					c0.1,0.1,0.2,0.2,0.2,0.3L1548.5,545.9z"/>
			</g>
			<g>
				<path class="st22" d="M1546.8,544.7L1546.8,544.7l0.4-4.1c0-0.2,0.2-0.3,0.3-0.3c0,0,0,0,0.1,0c0,0,0,0,0,0
					c0.1,0.1,0.1,0.2,0.1,0.3l0,2.9C1547.8,544.3,1547.3,544.7,1546.8,544.7z"/>
			</g>
			<g>
				<rect x="1546" y="568.6" class="st21" width="3.7" height="162.6"/>
			</g>
			<g>
				<rect x="1546" y="568.6" class="st23" width="1.7" height="162.6"/>
			</g>
			<g>
				<rect x="1542" y="705.2" class="st21" width="11.7" height="43"/>
			</g>
			<g>
				<rect x="1542" y="705.2" class="st23" width="7" height="43"/>
			</g>
			<g>
				<path class="st21" d="M1554.3,548.3c0,2-3,3.6-6.7,3.6c-0.3,0-0.6,0-0.8,0c-3.3-0.2-5.9-1.8-5.9-3.6c0-1.9,2.6-3.4,5.9-3.6
					c0.3,0,0.6,0,0.8,0C1551.3,544.7,1554.3,546.3,1554.3,548.3z"/>
			</g>
			<g>
				<path class="st23" d="M1550.8,548.3c0,1.6-1.7,3-4.1,3.6c-3.3-0.2-5.9-1.8-5.9-3.6c0-1.9,2.6-3.4,5.9-3.6
					C1549.1,545.3,1550.8,546.7,1550.8,548.3z"/>
			</g>
			<g>
				<polygon class="st23" points="1553.7,571.8 1542,571.8 1537.9,551.8 1557.2,551.8 				"/>
			</g>
			<g>
				<rect x="1536.8" y="550.3" class="st21" width="21.5" height="1.9"/>
			</g>
			<g>
				<rect x="1536.8" y="550.3" class="st23" width="13.5" height="1.9"/>
			</g>
			<g>
				<path class="st24" d="M1543.9,705.2h7.5l-1.1-3.3c-0.1-0.3-0.4-0.5-0.7-0.5h-3.5c-0.4,0-0.7,0.2-0.9,0.6L1543.9,705.2z"/>
			</g>
			<g>
				<polygon class="st25" points="1539.3,552.8 1555.8,552.8 1552.6,570.7 1543.1,570.7 				"/>
			</g>
			<g>
				<polygon class="st21" points="1556.9,550.3 1538.2,550.3 1539.7,548.2 1555.5,548.2 				"/>
			</g>
			<g>
				<polygon class="st23" points="1552.3,550.3 1538.2,550.3 1539.7,548.2 1550.8,548.2 				"/>
			</g>
		</g>
		<g>
			<path class="st14" d="M1221,748.5l-118.3,0v-28.9c0.4,0.2,0.8,0.4,1.1,0.6c16.1,8.2,14,19.2,34,15.2c20-4,36.5-5.7,45.4,0
				c8.9,5.7,15.5,3.4,26.6,3.4C1219.1,738.6,1220.7,746,1221,748.5z"/>
		</g>
		<g>
			<g>
				<polygon class="st26" points="1245.5,715.4 1132.8,715.4 1127.6,688.9 1240.1,688.9 				"/>
			</g>
			<g>
				<polygon class="st27" points="1247.5,715.4 1134.8,715.4 1129.6,688.9 1242.1,688.9 				"/>
			</g>
			<g>
				<path class="st26" d="M1166.1,718.6h-30.8c-1.4,0-2.5-1.1-2.5-2.5v-0.8h33.3V718.6z"/>
			</g>
			<g>
				<rect x="1165.9" y="715.4" class="st28" width="102.4" height="3.2"/>
			</g>
			<g>
				<g>
					<path class="st28" d="M1139.6,718.6l-1.9,7.6c0,0,0,0,0,0l-5.7,22.5c-0.1,0.3-0.3,0.5-0.6,0.5c-0.6,0-1-0.5-0.9-1.1l5.1-26.2
						l0.6-3.3H1139.6z"/>
				</g>
			</g>
			<g>
				<path class="st26" d="M1137.6,726.2c0.2-3.9-2.2-4.3-2.2-4.3l0.6-3.3h3.5L1137.6,726.2z"/>
			</g>
			<g>
				<g>
					<path class="st28" d="M1164,718.6l-1.9,7.6c0,0,0,0,0,0l-5.7,22.5c-0.1,0.3-0.3,0.5-0.6,0.5c-0.6,0-1-0.5-0.9-1.1l5.1-26.2
						l0.6-3.3H1164z"/>
				</g>
			</g>
			<g>
				<path class="st26" d="M1162.1,726.2c0.2-3.9-2.2-4.3-2.2-4.3l0.6-3.3h3.5L1162.1,726.2z"/>
			</g>
			<g>
				<g>
					<path class="st28" d="M1258.9,718.6l1.9,7.6c0,0,0,0,0,0l5.7,22.5c0.1,0.3,0.3,0.5,0.6,0.5c0.6,0,1-0.5,0.9-1.1l-5.1-26.2
						l-0.6-3.3H1258.9z"/>
				</g>
			</g>
			<g>
				<path class="st26" d="M1260.8,726.2c-0.2-3.9,2.2-4.3,2.2-4.3l-0.6-3.3h-3.5L1260.8,726.2z"/>
			</g>
			<g>
				<g>
					<path class="st28" d="M1234.4,718.6l1.9,7.6c0,0,0,0,0,0l5.7,22.5c0.1,0.3,0.3,0.5,0.6,0.5c0.6,0,1-0.5,0.9-1.1l-5.1-26.2
						l-0.6-3.3H1234.4z"/>
				</g>
			</g>
			<g>
				<path class="st26" d="M1236.4,726.2c-0.2-3.9,2.2-4.3,2.2-4.3l-0.6-3.3h-3.5L1236.4,726.2z"/>
			</g>
		</g>
		<g>
			<path class="st14" d="M1173,562.7c-2.9,1.7-6.3,2.8-10,3c-16.3,1-22,7.1-35.2,19.9c-7.1,6.9-16.9,8.4-25,8.6V507
				c2.3,1.6,4.7,3.3,7.1,4.9c9,6,18.7,10.9,29.4,8.3c10.7-2.6,19-2.4,25.4-0.4c8.3,2.6,13.7,8.3,17.5,15.2
				C1187.5,544.6,1182.9,557,1173,562.7z"/>
		</g>
		<g>
			<path class="st29" d="M1306.3,531.9c0-4,3.3-7.3,7.3-7.3c4,0,7.3,3.3,7.3,7.3c0,4-3.3,7.3-7.3,7.3
				C1309.5,539.2,1306.3,535.9,1306.3,531.9z"/>
		</g>
		<g>
			<path class="st29" d="M1426.6,525.3c0,0,6.4-10.2,21.5-9.1c0,0,22.1-17,45.6-2.3c0,0,25-3.7,43.5,3.2c12.3,4.5,16.4,9.3,16.4,9.3
				L1426.6,525.3z"/>
		</g>
		<g class="st30">
			<path class="st29" d="M1502.5,551.6c0,0,4.2-6.7,14.1-5.9c0,0,14.4-11.1,29.8-1.5c0,0,16.4-2.4,28.5,2.1c8.1,3,10.7,6.1,10.7,6.1
				L1502.5,551.6z"/>
		</g>
		<g class="st30">
			<path class="st29" d="M1192.2,547c0,0,4.2-6.7,14.1-5.9c0,0,14.4-11.1,29.8-1.5c0,0,16.4-2.4,28.5,2.1c8.1,3,10.7,6.1,10.7,6.1
				L1192.2,547z"/>
		</g>
		<g>
			<rect x="1102.7" y="748.3" class="st21" width="514.1" height="23.3"/>
		</g>
		<g>
			<g>
				<path class="st11" d="M1426.6,741.2c0,0-2.5-9.1,4.4-18c6.9-8.9,18.5-6.5,18.5-6.5s1.6,2.5-1.6,4.5c-3.2,2-14.4-2-17.3,17.5
					C1430.7,738.6,1429.3,742.6,1426.6,741.2z"/>
			</g>
			<g>
				<path class="st31" d="M1339.5,609.6c0-2.3,1.9-4.1,4.1-4.1c2.3,0,4.1,1.9,4.1,4.1c0,2.3-1.9,4.1-4.1,4.1
					C1341.3,613.8,1339.5,611.9,1339.5,609.6z"/>
			</g>
			<g>
				<path class="st21" d="M1439.8,735.7c0-3.2,2.6-5.8,5.8-5.8s5.8,2.6,5.8,5.8c0,3.2-2.6,5.8-5.8,5.8S1439.8,738.9,1439.8,735.7z"
					/>
			</g>
			<g>
				<path class="st21" d="M1310.9,731.3c0-4.9,4-8.9,8.9-8.9c4.9,0,8.9,4,8.9,8.9c0,4.9-4,8.9-8.9,8.9
					C1314.9,740.2,1310.9,736.2,1310.9,731.3z"/>
			</g>
			<g>
				<g>
					
						<rect x="1276.5" y="663.4" transform="matrix(0.1359 -0.9907 0.9907 0.1359 488.8956 1890.9567)" class="st32" width="104" height="3.6"/>
				</g>
			</g>
			<g>
				<g>
					<polygon class="st31" points="1325.1,617 1325.1,613.1 1343.2,609.1 1344.4,612.4 					"/>
				</g>
			</g>
			<g>
				<g>
					<path class="st33" d="M1320.1,748.2c-9.1,0-16.6-7.4-16.6-16.6c0-9.1,7.4-16.6,16.6-16.6c9.1,0,16.6,7.4,16.6,16.6
						C1336.7,740.7,1329.2,748.2,1320.1,748.2z M1320.1,718.4c-7.3,0-13.2,5.9-13.2,13.2c0,7.3,5.9,13.2,13.2,13.2
						s13.2-5.9,13.2-13.2C1333.3,724.3,1327.4,718.4,1320.1,718.4z"/>
				</g>
			</g>
			<g>
				<g>
					<path class="st33" d="M1445.6,747.8c-6.7,0-12.1-5.4-12.1-12.1c0-6.7,5.4-12.1,12.1-12.1c6.7,0,12.1,5.4,12.1,12.1
						C1457.7,742.4,1452.3,747.8,1445.6,747.8z M1445.6,726.3c-5.2,0-9.4,4.2-9.4,9.4c0,5.2,4.2,9.4,9.4,9.4s9.4-4.2,9.4-9.4
						C1455,730.5,1450.8,726.3,1445.6,726.3z"/>
				</g>
			</g>
			<g>
				<path class="st32" d="M1427.7,742.7h-82.2c-1.5,0-2.7-1.2-2.7-2.7v-1.3c0-1.5,1.2-2.7,2.7-2.7h82.2c1.5,0,2.7,1.2,2.7,2.7v1.3
					C1430.4,741.5,1429.2,742.7,1427.7,742.7z"/>
			</g>
			<g>
				<g>
					<path class="st32" d="M1428.7,742.7c-0.6,0-1.1-0.4-1.3-0.9c-0.2-0.7,0.1-1.5,0.8-1.7l16.9-5.6c0.7-0.2,1.5,0.1,1.7,0.8
						c0.2,0.7-0.1,1.5-0.8,1.7l-16.9,5.6C1429,742.7,1428.8,742.7,1428.7,742.7z"/>
				</g>
			</g>
			<g>
				<polygon class="st32" points="1324.7,690.8 1353,736.2 1360.2,736.2 1326.2,682.4 				"/>
			</g>
			<g>
				<path class="st33" d="M1326.3,717.1l-2.6-0.8l-2.7,8.9c-0.9,3-3.7,4.9-6.8,4.6l-8.6-0.7l-0.2,2.7l8.6,0.7
					c3.6,0.3,6.8,2.3,8.7,5.3l4.6,7.2l2.3-1.5l-4.4-6.9c-2.1-3.2-2.6-7.2-1.5-10.9L1326.3,717.1z"/>
			</g>
			<g>
				<path class="st33" d="M1449.5,726.5l-1.7-0.5l-1.8,5.8c-0.6,1.9-2.4,3.2-4.4,3l-5.6-0.5l-0.1,1.8l5.6,0.5
					c2.3,0.2,4.4,1.5,5.7,3.4l3,4.6l1.5-1l-2.9-4.5c-1.3-2.1-1.7-4.7-1-7.1L1449.5,726.5z"/>
			</g>
			<g>
				<path class="st11" d="M1444,735.5c0-0.7,0.6-1.3,1.3-1.3c0.7,0,1.3,0.6,1.3,1.3c0,0.7-0.6,1.3-1.3,1.3
					C1444.6,736.8,1444,736.2,1444,735.5z"/>
			</g>
			<g>
				<path class="st11" d="M1318.5,731.3c0-0.7,0.6-1.3,1.3-1.3c0.7,0,1.3,0.6,1.3,1.3c0,0.7-0.6,1.3-1.3,1.3
					C1319.1,732.6,1318.5,732,1318.5,731.3z"/>
			</g>
			<g>
				<path class="st11" d="M1309.7,714.1c0,0,7.8-5.4,18.4-1.9c10.7,3.5,12.3,15.3,12.3,15.3s-1.8,2.4-4.8,0
					c-2.9-2.4-3-14.3-22.3-10.4C1313.4,717,1309.2,717.1,1309.7,714.1z"/>
			</g>
			<g>
				<path class="st34" d="M1383.5,510.6c0,0-13.4,21.6-13.4,27.4c0,5.9,4.3,12.6,4.3,12.6l13.6-11.3l6.8-12.1L1383.5,510.6z"/>
			</g>
			<g>
				<path class="st35" d="M1394.1,542.3c0,0-4.5,8.2-12.6,6.7c0,0-2.4-3.6-3-6.5c-0.1-0.4-0.1-0.7-0.2-1c-0.7-3.2-1.1-5-1.1-5
					s0,0,0,0c0.3-0.2,10.6-7,10.6-6.6C1389.3,538.7,1394.1,542.3,1394.1,542.3z"/>
			</g>
			<g>
				<path class="st36" d="M1373.6,536.9c0,0,12.4,4.2,14.9-3.6c2.5-7.8,5.7-12.5-2.1-15.5c-7.8-3-10.3-0.5-11.8,1.9
					C1373.2,522.1,1370.4,535.7,1373.6,536.9z"/>
			</g>
			<g>
				<path class="st37" d="M1359.5,736.2h20.5c0.2,0,0.3-0.1,0.4-0.1c1.4-0.7,0.9-5.9,0.8-7.5c0-0.3-0.1-0.5-0.1-0.5
					s-7.2-5.8-8.2-1.4c0,0.1-0.1,0.3-0.1,0.4v0c-1.3,4.1-6.8,6-10.1,6.5C1360.3,734,1359.7,735.5,1359.5,736.2z"/>
			</g>
			<g>
				<path class="st37" d="M1399.6,736.2h20.5c0.2,0,0.3-0.1,0.4-0.1c1.4-0.7,0.9-5.9,0.8-7.5c0-0.3-0.1-0.5-0.1-0.5
					s-7.2-5.8-8.2-1.4c0,0.1-0.1,0.3-0.1,0.4v0c-1.3,4.1-6.8,6-10.1,6.5C1400.4,734,1399.8,735.5,1399.6,736.2z"/>
			</g>
			<g>
				<path class="st11" d="M1363.6,618c0,0,1.1,13.7,2.4,30.1c1.7,22.3,3.9,49.7,4.1,54.9c0.4,9,2.8,24.2,2.8,24.2s1.5,2.4,8.3,0.9
					c0,0,7.1-20.3,8.8-42.1c0-0.4,0.1-0.7,0.1-1.1c1.6-22.2,4.1-68.8,4.1-68.8L1363.6,618z"/>
			</g>
			<g>
				<path class="st31" d="M1363.6,618c0,0,1.1,13.7,2.4,30.1l24,38c0-0.4,0.1-0.7,0.1-1.1c1.6-22.2,4.1-68.8,4.1-68.8L1363.6,618z"
					/>
			</g>
			<g>
				<path class="st11" d="M1368.6,619.6c0,0,13.4,51.5,26.4,74.7c13,23.2,17.6,33.6,17.6,33.6s8,2.1,8.6,0.1c0,0-6.8-55.3-12.1-68.3
					c-2.7-6.7-4-27.3-4.3-33.8c-0.3-6.5-4.8-15.3-4.8-15.3L1368.6,619.6z"/>
			</g>
			<g>
				<path class="st21" d="M1364.2,639.6c25,12.3,52.3,8.3,52.2,7.5c0-0.9-10.4-56-14-72c-3.3-15-7.8-28-12-31
					c-0.5-0.4-3.8,1.3-6.9,2.9c-2.8,1.4-5.6,1.7-8.3,1.2c0,0-1.4,1.8-2.2,3.8c-1.7,4.1-10.4,32.1-10.6,36.9c0,0.3,0,0.6,0,0.9
					c0,1.4-0.1,2.8-0.1,4.2C1362.5,595.4,1363.9,639.5,1364.2,639.6z"/>
			</g>
			<g>
				<path class="st38" d="M1363.3,618.6c24.5-13.8,22.1-45.4,22.1-45.4l-22.9,20.6c0,1.6,0,3.2,0,4.7c0,1.2,0,2.3,0,3.5l0,0.2
					c0,0.4,0,0.9,0,1.3C1362.5,605.4,1363.3,616.9,1363.3,618.6z"/>
			</g>
			<g>
				<path class="st36" d="M1338.5,609.2c-1.2-2.1-0.3-3-0.3-3s20.3-14.9,21.9-16.4c1.6-1.5,9.6-26.2,9.6-26.2s2.8-10,8.6-10.9
					c5.1-0.8,8.5,1.8,10.6,4.8c2.6,3.6,2.7,8.4,0.4,12.1c-5.3,8.4-16,24.9-19.1,27.7c-6.8,6.2-28.8,13.7-28.8,13.7
					S1339.5,610.9,1338.5,609.2z"/>
			</g>
			<g>
				<path class="st39" d="M1387.9,535.4c0.2,0.1,2.8,1.2,9-8.6c1-1.5,1.8-5,0.2-8.3c-1.6-3.3-8.1-6.3-13.6-7.9
					c-5.5-1.6-7.1,1.4-8.7,4.5c-1.7,3.2-5.9,5.6-5.9,5.6c4.6,3.1,10.7-0.2,12.7,0.6c2,0.8,2.4,4.1,2.4,5.1c0.1,1,0.2,1.9,2.8,1.2
					c2.6-0.7,0.8,3.7,0.3,4.5C1387.1,532.1,1386.5,534.4,1387.9,535.4z"/>
			</g>
			<g>
				<path class="st21" d="M1383.5,510.6c0,0,6.9,11.7,7.1,16.7c0.2,5-15.3,20.7-15.3,20.7s13.3,3.5,18.8,0c0,0,12.7-17.6,12.7-20.9
					C1406.7,524,1399.3,510.8,1383.5,510.6z"/>
			</g>
			<g>
				<path class="st38" d="M1371.4,617.5c0,0,12,2,19.6,0.9l-0.2,12.1l-9.6,3.7l-9.8-5.4V617.5z"/>
			</g>
			<g>
				<path class="st36" d="M1338.2,606.2c0,0-7.8,0.4-9.3,1.8c-1.6,1.5-4.6,4.2-2.3,4.7l5.6-1.2c2.8,0.7,3.9,2.2,5.7,1.3s3.8-2,3.8-2
					L1338.2,606.2z"/>
			</g>
			<g>
				<path class="st11" d="M1319.6,614.5c0-2.3,1.9-4.1,4.1-4.1s4.1,1.9,4.1,4.1c0,2.3-1.9,4.1-4.1,4.1S1319.6,616.8,1319.6,614.5z"
					/>
			</g>
			<g>
				<path class="st11" d="M1431.9,585.3c0,0.6-0.1,1.1-0.2,1.6c-1.6,6.2-22.7,10.9-25,8.7c-0.4-0.4-0.9-1-1.4-1.8
					c-6-9.9-13.6-45.7-10.6-43.6c0,0,5.6-1.7,10.2-2.2l0.8-0.1l0,0c1.5-0.1,2.8,0,3.7,0.3c3.9,1.5,7,11.7,7,11.7s3.2-0.5,6.1-0.1
					c0.4,0,0.7,0.1,1,0.2c0,0,0,0,0,0c0.9,0.2,1.7,0.5,2.3,0.9C1428.3,562.6,1432.3,578.6,1431.9,585.3z"/>
			</g>
			<g>
				<path class="st11" d="M1397.3,549.7c0,0-7.2-6.9-19.3-4.4l-2.7,2.9c0,0,12.1-2.9,18.8,3.5L1397.3,549.7z"/>
			</g>
			<g>
				<path class="st11" d="M1376.3,582.5c0,0,7.2,12.8,26.9,6.5l2,4.8c0,0-23.4,6.7-31.3-6.2L1376.3,582.5z"/>
			</g>
			<g>
				<path class="st21" d="M1378.9,550.6c0,0-5-0.6-6.8,4.1c-1.3,3.3-4.3,19-10.9,30.4c-2.7,4.6-12.8,13.5-17,16.7c0,0,1.5,5,4.8,6.3
					c0,0,16,1.6,26.5-10.3c3-3.4,20.9-32.6,17.2-38.6C1389,553.2,1378.9,550.6,1378.9,550.6z"/>
			</g>
			<g>
				<g>
					<path class="st31" d="M1405.7,547.9c-0.7,0.7-2.1,2.5-1.6,6c0.6,4.7,2.1,8,2.1,8.1l-0.5,0.2c0,0-1.6-3.5-2.2-8.2
						c-0.4-3.1,0.6-5,1.4-6L1405.7,547.9z"/>
				</g>
			</g>
			<g>
				<g>
					<path class="st31" d="M1426.1,585.5l-0.5,0.2c-0.2-0.8-5.8-18.8-5.4-22.1c0.2-2.1,1.5-3.2,2.5-3.7c0.4,0,0.7,0.1,1,0.2
						c-0.7,0.2-2.6,1-2.9,3.6C1420.3,566.8,1426,585.3,1426.1,585.5z"/>
				</g>
			</g>
			<g>
				<path class="st31" d="M1401,577.5l5,14.1c0,0,6.9,0.2,11.1-2.7l-4.6-14.5C1412.4,574.5,1408.6,577.4,1401,577.5z"/>
			</g>
			<g>
				<path class="st31" d="M1431.9,585.3c0,0.6-0.1,1.1-0.2,1.6c-1.6,6.2-22.7,10.9-25,8.7c-0.4-0.4-0.9-1-1.4-1.8
					C1405.5,593.8,1417.4,593.4,1431.9,585.3z"/>
			</g>
			<g>
				<path class="st40" d="M1401,577.5l1.5,4.1l6.6,0.5l4.7-3.6l-1.3-4C1412.4,574.5,1405,576,1401,577.5z"/>
			</g>
			<g>
				<path class="st32" d="M1408,580.9c0-0.2,0.2-0.4,0.4-0.4c0.2,0,0.4,0.2,0.4,0.4s-0.2,0.4-0.4,0.4
					C1408.2,581.3,1408,581.1,1408,580.9z"/>
			</g>
		</g>
		<g>
			<rect x="1139.4" y="820.7" class="st21" width="616.6" height="15.5"/>
		</g>
		<g>
			<rect x="1139.4" y="852" class="st21" width="616.6" height="15.5"/>
		</g>
		<g>
			<rect x="1414.1" y="883.3" class="st21" width="341.9" height="15.5"/>
		</g>
		<g>
			<rect x="1344.2" y="914.6" class="st21" width="265.2" height="15.5"/>
		</g>
		<g>
			<rect x="1414.1" y="945.9" class="st21" width="341.9" height="15.5"/>
		</g>
		<g>
			<rect x="822.6" y="695" class="st21" width="163.3" height="7.7"/>
		</g>
		<g>
			<rect x="1001.6" y="695" class="st21" width="18" height="18"/>
		</g>
		<g>
			<rect x="883.6" y="695" class="st41" width="74.9" height="7.7"/>
		</g>
		<g>
			<rect x="822.6" y="652.5" class="st21" width="163.3" height="7.7"/>
		</g>
		<g>
			<rect x="1001.6" y="652.5" class="st21" width="18" height="18"/>
		</g>
		<g>
			<rect x="844" y="652.5" class="st41" width="52.2" height="7.7"/>
		</g>
		<g>
			<rect x="822.6" y="610" class="st21" width="163.3" height="7.7"/>
		</g>
		<g>
			<rect x="1001.6" y="610" class="st38" width="18" height="18"/>
		</g>
		<g>
			<rect x="903.4" y="610" class="st38" width="52.2" height="7.7"/>
		</g>
		<g>
			<rect x="822.6" y="567.5" class="st21" width="163.3" height="7.7"/>
		</g>
		<g>
			<rect x="1001.6" y="567.5" class="st38" width="18" height="18"/>
		</g>
		<g>
			<rect x="844" y="567.5" class="st38" width="79.4" height="7.7"/>
		</g>
		<g>
			<rect x="822.6" y="525" class="st21" width="163.3" height="7.7"/>
		</g>
		<g>
			<rect x="1001.6" y="525" class="st41" width="18" height="18"/>
		</g>
		<g>
			<rect x="899.6" y="525" class="st41" width="69.6" height="7.7"/>
		</g>
		<g>
			<g>
				<rect x="896.1" y="791.6" class="st21" width="15.9" height="15.9"/>
			</g>
			<g>
				<rect x="924.5" y="791.6" class="st21" width="15.9" height="15.9"/>
			</g>
			<g>
				<rect x="951.3" y="793.7" class="st21" width="82.7" height="5.9"/>
			</g>
			<g>
				<polygon class="st21" points="872.5,789.6 885.5,799.5 872.5,807.1 				"/>
			</g>
		</g>
		<g>
			<rect x="896.1" y="822" class="st38" width="15.9" height="15.9"/>
		</g>
		<g>
			<rect x="924.5" y="822" class="st21" width="15.9" height="15.9"/>
		</g>
		<g>
			<rect x="951.3" y="824" class="st21" width="82.7" height="5.9"/>
		</g>
		<g>
			<polygon class="st21" points="872.5,820 885.5,829.9 872.5,837.5 			"/>
		</g>
		<g>
			<rect x="896.1" y="852.3" class="st41" width="15.9" height="15.9"/>
		</g>
		<g>
			<rect x="924.5" y="852.3" class="st21" width="15.9" height="15.9"/>
		</g>
		<g>
			<rect x="951.3" y="854.4" class="st21" width="82.7" height="5.9"/>
		</g>
		<g>
			<polygon class="st21" points="872.5,850.3 885.5,860.2 872.5,867.8 			"/>
		</g>
		<g>
			<rect x="896.1" y="882.7" class="st41" width="15.9" height="15.9"/>
		</g>
		<g>
			<rect x="924.5" y="882.7" class="st21" width="15.9" height="15.9"/>
		</g>
		<g>
			<rect x="951.3" y="884.7" class="st21" width="82.7" height="5.9"/>
		</g>
		<g>
			<polygon class="st21" points="872.5,880.7 885.5,890.6 872.5,898.2 			"/>
		</g>
		<g>
			<rect x="896.1" y="913" class="st38" width="15.9" height="15.9"/>
		</g>
		<g>
			<rect x="924.5" y="913" class="st21" width="15.9" height="15.9"/>
		</g>
		<g>
			<rect x="951.3" y="915" class="st21" width="82.7" height="5.9"/>
		</g>
		<g>
			<polygon class="st21" points="872.5,911 885.5,920.9 872.5,928.5 			"/>
		</g>
		<g>
			<rect x="896.1" y="943.3" class="st38" width="15.9" height="15.9"/>
		</g>
		<g>
			<rect x="924.5" y="943.3" class="st21" width="15.9" height="15.9"/>
		</g>
		<g>
			<rect x="951.3" y="945.4" class="st21" width="82.7" height="5.9"/>
		</g>
		<g>
			<polygon class="st21" points="872.5,941.4 885.5,951.3 872.5,958.9 			"/>
		</g>
		<g class="st30">
			<g>
				<path class="st17" d="M820.1,798.4c0,0,4.2-5.4,9.9-5.4c5.8,0,9.4,5.4,9.4,5.4s-3,5.4-9.4,5.4
					C823.3,803.8,820.1,798.4,820.1,798.4z"/>
			</g>
			<g>
				<path class="st42" d="M826,798.4c0-2.1,1.7-3.7,3.7-3.7s3.7,1.7,3.7,3.7c0,2.1-1.7,3.7-3.7,3.7S826,800.4,826,798.4z"/>
			</g>
			<g>
				<path class="st17" d="M827.4,798.4c0-1.3,1-2.3,2.3-2.3c1.3,0,2.3,1,2.3,2.3c0,1.3-1,2.3-2.3,2.3
					C828.5,800.7,827.4,799.6,827.4,798.4z"/>
			</g>
		</g>
		<g class="st30">
			<g>
				<path class="st17" d="M820.1,828.7c0,0,4.2-5.4,9.9-5.4c5.8,0,9.4,5.4,9.4,5.4s-3,5.4-9.4,5.4
					C823.3,834.1,820.1,828.7,820.1,828.7z"/>
			</g>
			<g>
				<path class="st42" d="M826,828.7c0-2.1,1.7-3.7,3.7-3.7s3.7,1.7,3.7,3.7c0,2.1-1.7,3.7-3.7,3.7S826,830.8,826,828.7z"/>
			</g>
			<g>
				<path class="st17" d="M827.4,828.7c0-1.3,1-2.3,2.3-2.3c1.3,0,2.3,1,2.3,2.3c0,1.3-1,2.3-2.3,2.3
					C828.5,831,827.4,830,827.4,828.7z"/>
			</g>
		</g>
		<g class="st30">
			<g>
				<path class="st17" d="M820.1,859.1c0,0,4.2-5.4,9.9-5.4c5.8,0,9.4,5.4,9.4,5.4s-3,5.4-9.4,5.4
					C823.3,864.5,820.1,859.1,820.1,859.1z"/>
			</g>
			<g>
				<path class="st42" d="M826,859.1c0-2.1,1.7-3.7,3.7-3.7s3.7,1.7,3.7,3.7c0,2.1-1.7,3.7-3.7,3.7S826,861.1,826,859.1z"/>
			</g>
			<g>
				<path class="st17" d="M827.4,859.1c0-1.3,1-2.3,2.3-2.3c1.3,0,2.3,1,2.3,2.3c0,1.3-1,2.3-2.3,2.3
					C828.5,861.4,827.4,860.3,827.4,859.1z"/>
			</g>
		</g>
		<g class="st30">
			<g>
				<path class="st17" d="M820.1,889.4c0,0,4.2-5.4,9.9-5.4c5.8,0,9.4,5.4,9.4,5.4s-3,5.4-9.4,5.4
					C823.3,894.8,820.1,889.4,820.1,889.4z"/>
			</g>
			<g>
				<path class="st42" d="M826,889.4c0-2.1,1.7-3.7,3.7-3.7s3.7,1.7,3.7,3.7c0,2.1-1.7,3.7-3.7,3.7S826,891.5,826,889.4z"/>
			</g>
			<g>
				<path class="st17" d="M827.4,889.4c0-1.3,1-2.3,2.3-2.3c1.3,0,2.3,1,2.3,2.3c0,1.3-1,2.3-2.3,2.3
					C828.5,891.7,827.4,890.7,827.4,889.4z"/>
			</g>
		</g>
		<g class="st30">
			<g>
				<path class="st17" d="M820.1,919.8c0,0,4.2-5.4,9.9-5.4c5.8,0,9.4,5.4,9.4,5.4s-3,5.4-9.4,5.4
					C823.3,925.2,820.1,919.8,820.1,919.8z"/>
			</g>
			<g>
				<path class="st42" d="M826,919.8c0-2.1,1.7-3.7,3.7-3.7s3.7,1.7,3.7,3.7c0,2.1-1.7,3.7-3.7,3.7S826,921.8,826,919.8z"/>
			</g>
			<g>
				<path class="st17" d="M827.4,919.8c0-1.3,1-2.3,2.3-2.3c1.3,0,2.3,1,2.3,2.3c0,1.3-1,2.3-2.3,2.3
					C828.5,922.1,827.4,921,827.4,919.8z"/>
			</g>
		</g>
		<g class="st30">
			<g>
				<path class="st17" d="M820.1,950.1c0,0,4.2-5.4,9.9-5.4c5.8,0,9.4,5.4,9.4,5.4s-3,5.4-9.4,5.4
					C823.3,955.5,820.1,950.1,820.1,950.1z"/>
			</g>
			<g>
				<path class="st42" d="M826,950.1c0-2.1,1.7-3.7,3.7-3.7s3.7,1.7,3.7,3.7c0,2.1-1.7,3.7-3.7,3.7S826,952.2,826,950.1z"/>
			</g>
			<g>
				<path class="st17" d="M827.4,950.1c0-1.3,1-2.3,2.3-2.3c1.3,0,2.3,1,2.3,2.3c0,1.3-1,2.3-2.3,2.3
					C828.5,952.4,827.4,951.4,827.4,950.1z"/>
			</g>
		</g>
		<g>
			<rect x="1521.1" y="914.6" class="st11" width="234.9" height="15.5"/>
		</g>
		<g>
			<rect x="1562.6" y="883.3" class="st11" width="136.5" height="15.5"/>
		</g>
		<g>
			<rect x="1547.6" y="820.7" class="st11" width="158" height="15.5"/>
		</g>
		<g>
			<rect x="1595.6" y="852" class="st38" width="136.5" height="15.5"/>
		</g>
		<g>
			<g>
				<path class="st42" d="M1220.9,591.3c-32.3-41.2-68.2-42.7-68.6-42.7l0-0.9c0.4,0,36.7,1.5,69.3,43.1L1220.9,591.3z"/>
			</g>
			<g>
				<path class="st41" d="M1148.1,548.1c0-2.1,1.7-3.8,3.8-3.8s3.8,1.7,3.8,3.8c0,2.1-1.7,3.8-3.8,3.8S1148.1,550.2,1148.1,548.1z"
					/>
			</g>
			<g>
				<path class="st41" d="M1217.4,590.6c0-2.1,1.7-3.8,3.8-3.8c2.1,0,3.8,1.7,3.8,3.8c0,2.1-1.7,3.8-3.8,3.8
					C1219.1,594.4,1217.4,592.7,1217.4,590.6z"/>
			</g>
		</g>
		<g>
			<g>
				<path class="st42" d="M1230.5,540.2l-0.7-0.6c0.2-0.3,24.2-27.7,77-26.9l0,0.9C1254.4,512.8,1230.8,539.9,1230.5,540.2z"/>
			</g>
			<g>
				<path class="st41" d="M1227.5,543.1c-1.7-1.3-1.9-3.7-0.6-5.4c1.3-1.6,3.7-1.9,5.4-0.6c1.6,1.3,1.9,3.7,0.6,5.4
					C1231.6,544.2,1229.2,544.4,1227.5,543.1z"/>
			</g>
			<g>
				<path class="st41" d="M1304.1,515.8c-1.6-1.3-1.9-3.7-0.6-5.4c1.3-1.6,3.7-1.9,5.4-0.6c1.6,1.3,1.9,3.7,0.6,5.4
					C1308.1,516.9,1305.7,517.1,1304.1,515.8z"/>
			</g>
		</g>
		<g>
			<g>
				<path class="st42" d="M1475,540l-0.8-0.7c0.3-0.3,27.4-31.1,90.9-27l-0.1,1.1C1502.1,509.4,1475.3,539.7,1475,540z"/>
			</g>
			<g>
				<path class="st41" d="M1471.7,543.4c-2.1-1.7-2.5-4.5-1-6.4c1.5-1.9,4.4-2,6.4-0.4c2.1,1.7,2.5,4.5,1,6.4
					C1476.6,544.9,1473.7,545,1471.7,543.4z"/>
			</g>
			<g>
				<path class="st41" d="M1561.9,516c-2.1-1.7-2.5-4.5-1-6.4c1.5-1.9,4.4-2,6.4-0.4c2.1,1.7,2.5,4.5,1,6.4
					C1566.9,517.5,1564,517.6,1561.9,516z"/>
			</g>
		</g>
		<g>
			<rect x="1366" y="554.4" class="st42" width="64.4" height="0.9"/>
		</g>
		<g>
			<path class="st43" d="M1362.2,554.9c0-2.1,1.7-3.8,3.8-3.8s3.8,1.7,3.8,3.8c0,2.1-1.7,3.8-3.8,3.8S1362.2,557,1362.2,554.9z"/>
		</g>
		<g>
			<path class="st43" d="M1426.6,554.9c0-2.1,1.7-3.8,3.8-3.8c2.1,0,3.8,1.7,3.8,3.8c0,2.1-1.7,3.8-3.8,3.8
				C1428.4,558.7,1426.6,557,1426.6,554.9z"/>
		</g>
		<g>
			<g>
				
					<rect x="1494.3" y="802" transform="matrix(0.7072 0.7071 -0.7071 0.7072 1009.3032 -823.6505)" class="st41" width="9.3" height="9.3"/>
			</g>
		</g>
		<g>
			<path class="st42" d="M1329.8,671.5c-36.7,0-75.4-6.4-106.8-13.5c-56.9-12.8-102.6-30.3-103.1-30.5l0.3-0.9
				c0.5,0.2,46.1,17.7,103,30.4c52.4,11.8,125.3,21.9,174.9,2.9c49.8-19,102.4-16.3,137.9-10.6c38.4,6.1,65.4,16.9,65.6,17l-0.3,0.9
				c-0.3-0.1-27.2-10.8-65.5-16.9c-35.3-5.6-87.8-8.4-137.4,10.6C1378.4,668.5,1354.5,671.5,1329.8,671.5z"/>
		</g>
		<g>
			<path class="st44" d="M1404.9,657c0-2.1,1.7-3.8,3.8-3.8c2.1,0,3.8,1.7,3.8,3.8c0,2.1-1.7,3.8-3.8,3.8
				C1406.6,660.9,1404.9,659.2,1404.9,657z"/>
		</g>
		<g>
			<path class="st44" d="M1298.6,670.5c0-2.1,1.7-3.8,3.8-3.8c2.1,0,3.8,1.7,3.8,3.8s-1.7,3.8-3.8,3.8
				C1300.3,674.4,1298.6,672.6,1298.6,670.5z"/>
		</g>
		<g>
			<g>
				<path class="st42" d="M1323.2,764.4c-7.9,0-16.7-1.4-25.6-5.4l0.4-0.8c26.4,12.2,53-0.2,53.3-0.3l0.4,0.8
					C1351.6,758.7,1339.3,764.4,1323.2,764.4z"/>
			</g>
			<g>
				<path class="st41" d="M1354,761.2c-1.6,1.3-4.1,1.1-5.4-0.6c-1.3-1.6-1.1-4.1,0.6-5.4c1.6-1.3,4.1-1.1,5.4,0.6
					C1355.9,757.4,1355.6,759.9,1354,761.2z"/>
			</g>
			<g>
				<path class="st41" d="M1300.3,761.5c-1.6,1.3-4.1,1.1-5.4-0.6c-1.3-1.6-1.1-4.1,0.6-5.4c1.6-1.3,4.1-1.1,5.4,0.6
					C1302.2,757.8,1301.9,760.2,1300.3,761.5z"/>
			</g>
		</g>
		<g>
			<g>
				<path class="st42" d="M1449.9,764.4c-7.9,0-16.7-1.4-25.6-5.4l0.4-0.8c26.4,12.1,53-0.2,53.3-0.3l0.4,0.8
					C1478.3,758.7,1466.1,764.4,1449.9,764.4z"/>
			</g>
			<g>
				<path class="st41" d="M1480.7,761.2c-1.6,1.3-4.1,1.1-5.4-0.6c-1.3-1.6-1.1-4.1,0.6-5.4c1.6-1.3,4.1-1.1,5.4,0.6
					C1482.6,757.4,1482.3,759.9,1480.7,761.2z"/>
			</g>
			<g>
				<path class="st41" d="M1427,761.5c-1.6,1.3-4.1,1.1-5.4-0.6c-1.3-1.6-1.1-4.1,0.6-5.4c1.6-1.3,4.1-1.1,5.4,0.6
					C1428.9,757.8,1428.6,760.2,1427,761.5z"/>
			</g>
		</g>
		<g class="st45">
			<path class="st21" d="M1616.8,623.1v131.3l-46.9-6.1c0,0-4.2-27.7,15.8-36.5C1604.2,703.7,1591.7,632.5,1616.8,623.1z"/>
		</g>
		<g>
			<path class="st41" d="M1595.3,666.8c0-2.1,1.7-3.8,3.8-3.8s3.8,1.7,3.8,3.8c0,2.1-1.7,3.8-3.8,3.8S1595.3,668.9,1595.3,666.8z"/>
		</g>
		<g>
			<path class="st41" d="M1117.2,627.1c0-2.1,1.7-3.8,3.8-3.8c2.1,0,3.8,1.7,3.8,3.8c0,2.1-1.7,3.8-3.8,3.8
				C1118.9,630.9,1117.2,629.2,1117.2,627.1z"/>
		</g>
	</g>
	<g class="st16">
		<rect x="1659.5" y="490.5" class="st17" width="247.6" height="281.1"/>
	</g>
	<g>
		<g>
			<g>
				<rect x="1681" y="507.4" class="st21" width="120.8" height="3.4"/>
			</g>
			<g>
				<rect x="1681" y="516" class="st21" width="93.5" height="3.5"/>
			</g>
		</g>
		<g>
			<rect x="1865.5" y="509.4" class="st21" width="6.5" height="6.5"/>
		</g>
		<g>
			<g>
				<rect x="1681" y="545.5" class="st21" width="120.8" height="3.4"/>
			</g>
			<g>
				<rect x="1681" y="554.1" class="st21" width="93.5" height="3.4"/>
			</g>
		</g>
		<g>
			<rect x="1865.5" y="547.5" class="st21" width="6.5" height="6.5"/>
		</g>
		<g>
			<g>
				<rect x="1681" y="583.7" class="st21" width="120.8" height="3.4"/>
			</g>
			<g>
				<rect x="1681" y="592.2" class="st21" width="93.5" height="3.4"/>
			</g>
		</g>
		<g>
			<rect x="1865.5" y="585.7" class="st21" width="6.5" height="6.5"/>
		</g>
		<g>
			<g>
				<rect x="1681" y="621.8" class="st21" width="120.8" height="3.5"/>
			</g>
			<g>
				<rect x="1681" y="630.4" class="st21" width="93.5" height="3.5"/>
			</g>
		</g>
		<g>
			<rect x="1865.5" y="623.8" class="st21" width="6.5" height="6.5"/>
		</g>
		<g>
			<g>
				<rect x="1681" y="659.9" class="st21" width="120.8" height="3.4"/>
			</g>
			<g>
				<rect x="1681" y="668.5" class="st21" width="93.5" height="3.4"/>
			</g>
		</g>
		<g>
			<rect x="1865.5" y="661.9" class="st21" width="6.5" height="6.5"/>
		</g>
		<g>
			<rect x="1865.5" y="696.5" class="st21" width="6.5" height="6.5"/>
		</g>
		<g>
			<g>
				<rect x="1681" y="698.1" class="st21" width="120.8" height="3.5"/>
			</g>
			<g>
				<rect x="1681" y="706.6" class="st21" width="93.5" height="3.5"/>
			</g>
		</g>
		<g>
			<g>
				<rect x="1681" y="736.2" class="st21" width="120.8" height="3.4"/>
			</g>
			<g>
				<rect x="1681" y="744.8" class="st21" width="93.5" height="3.4"/>
			</g>
		</g>
		<g>
			<rect x="1865.5" y="738.2" class="st21" width="6.5" height="6.5"/>
		</g>
	</g>
	<g>
		<g>
			<g>
				<path class="st46" d="M1764.2,1332.6c0,0-17.3,42.7-11.2,47.2c6.1,4.5,27-13.7,32.5-32.8
					C1791.1,1327.8,1764.2,1332.6,1764.2,1332.6z"/>
			</g>
			<g>
				<path class="st36" d="M2117.3,1620.7c-76.5,0-156.3,0-231.7,0c-2.9-7-6-14.4-9.2-21.9c-20.9-48.7-47.2-103.6-61.8-110.1
					c-26.9-12-43.1-1.5-76.5-40.5c-33.4-39-54.7-52.3-41.6-61.3c13.1-9,56.5,24.9,68.6,23.4c9.7-1.2,14.7-24.6,13.9-49.3
					c-0.2-6.5-0.8-13-1.8-19.3v0c-0.5-3.2-1.1-6.3-1.9-9.2c-1.1-4.6-2.6-9-4.3-12.8c-3.3-7.5-3-12.6-0.5-16.1
					c7.5-10.3,34.9-5.4,45.3-2.9c4.6,1.1,18.9-7.6,28.9-2.6c15.5,7.6,24.6-1.2,34.9,5.5c7.3,4.7,22.3,6.9,27.5,13.7
					c9.8,12.9,12.3,40.1,21.9,65.3c8.9,23.3,12,47.8,42.4,89.1c13.6,18.4,55.6,61.1,98,102.8
					C2085.9,1590.3,2102.4,1606.3,2117.3,1620.7z"/>
			</g>
			<g>
				<path class="st36" d="M1770.3,1303.4c0,0-63.8,52.2-55.5,59.2c8.3,7,29.3,0.1,63.7-21.9
					C1813,1318.6,1770.3,1303.4,1770.3,1303.4z"/>
			</g>
		</g>
		<g>
			<path class="st5" d="M2136.4,1620.7h-19.1c-76.5,0-156.3,0-231.7,0h-22.5l-2.6-5.4c0,0,5.3-7.2,15.9-16.5
				c27.9-24.4,92.3-63.2,193-24.6c4.5,1.7,9,3.6,13.7,5.6L2136.4,1620.7z"/>
		</g>
	</g>
	<g>
		<g>
			<g>
				<path class="st46" d="M1094,1359.3c0,0,11.1,44.7,4.4,48.3c-6.7,3.6-24.8-17.4-27.6-37.1C1068.1,1350.8,1094,1359.3,1094,1359.3
					z"/>
			</g>
			<g>
				<path class="st36" d="M1103.6,1477.3c-38.6,33.9-53.2,21.2-81.5,29.3c-15.4,4.4-49.1,55-76.7,100.3c-2.4,3.9-4.7,7.7-6.9,11.5
					c-91.1-0.3-182.4-0.7-266.6-1c22.8-16.3,54.4-39,85.8-62.2c47.9-35.3,95.5-71.6,111.6-87.9c36-36.6,42.5-60.3,54.6-82.2
					c12.9-23.3,12.5-50.7,30.3-50.4c8.8,0.1,16.5-11.3,24.6-15c11.1-5.1,21.8,6.3,38.3,0.9c10.6-3.5,25.1,5.9,29.9,5.5
					c9.1-0.8,31.1-4.2,41,0.9c5.5,2.8,7.3,8.3,1.2,18.2c-2.2,3.6-4.2,7.7-6,12.1c-1,2.5-2,5.1-2.8,7.8c-2.1,6.4-3.7,13.1-4.9,19.9
					c-4.3,24.4-2.6,48.3,6.8,50.8c11.7,3.2,60.1-29.3,71.9-18.6C1165.8,1428.2,1142.2,1443.4,1103.6,1477.3z"/>
			</g>
			<g>
				<path class="st36" d="M1087,1326.8c0,0,96.3,28.7,91.3,38.3c-5,9.6-55.4,8-95.6,0.6C1042.5,1358.4,1087,1326.8,1087,1326.8z"/>
			</g>
		</g>
		<g>
			<path class="st5" d="M954.4,1618.5c-5.3,0-10.6,0-15.9-0.1c-91.1-0.3-182.4-0.7-266.6-1c-10.9,0-21.6-0.1-32.3-0.1l103.8-58.4
				c4.9-1.4,9.6-2.6,14.3-3.6c105.2-24,163.5,23.6,187.6,51.6C949.2,1611.4,952.2,1615.4,954.4,1618.5z"/>
		</g>
	</g>
	<g>
		<g>
			<path class="st5" d="M1447.7,1546.5c0,0.6,0,1.2,0.1,1.8c0.2,1.9,0.8,3.7,1.7,5.4c0.7,1.3,1.6,2.4,2.6,3.4
				c2.7,2.7,6.5,4.4,10.7,4.4h211.8c8.3,0,15.1-6.7,15.1-15.1c0-4.2-1.7-7.9-4.4-10.7c-2.7-2.7-6.5-4.4-10.7-4.4h-211.8
				C1454.4,1531.4,1447.7,1538.2,1447.7,1546.5z"/>
		</g>
		<g>
			<path class="st5" d="M1463.9,1528.7h72.6c1.3,0,2.3-1,2.3-2.3l0,0c0-1.3-1-2.3-2.3-2.3h-72.6c-1.3,0-2.3,1-2.3,2.3l0,0
				C1461.5,1527.7,1462.6,1528.7,1463.9,1528.7z"/>
		</g>
		<g>
			
				<rect x="1467.9" y="1528.7" transform="matrix(-1 -1.224647e-16 1.224647e-16 -1 2943.6143 3060.1162)" class="st39" width="7.9" height="2.7"/>
		</g>
		<g>
			<path class="st39" d="M1449.5,1553.7c0.7,1.3,1.6,2.4,2.6,3.4c2.7,2.7,6.5,4.4,10.7,4.4h44.9v-7.9H1449.5z"/>
		</g>
		<g>
			<path class="st11" d="M1717.7,1542.1v8.8c0,1-0.1,1.9-0.4,2.8c-1.2,4.5-5.4,7.9-10.3,7.9h-220.6c-4.9,0-9.1-3.3-10.3-7.9
				c-0.2-0.9-0.4-1.8-0.4-2.8v-8.8c0-5.9,4.8-10.7,10.6-10.7H1707C1712.9,1531.4,1717.7,1536.2,1717.7,1542.1z"/>
		</g>
		<g>
			<path class="st40" d="M1717.3,1553.7c-1.2,4.5-5.4,7.9-10.3,7.9h-220.6c-4.9,0-9.1-3.3-10.3-7.9H1717.3z"/>
		</g>
		<g>
			<g>
				<path class="st9" d="M1695.8,1546.5c0,4.7,1.7,8.9,4.4,11.6c0.1,0.1,0.1,0.1,0.2,0.2c2.1,2.1,4.7,3.3,7.6,3.3
					c4.5,0,15.5-6.7,22.4-11.2c3.4-2.2,5.8-3.9,5.8-3.9s-2.4-1.7-5.8-3.9c-6.9-4.5-17.9-11.2-22.4-11.2c-1.3,0-2.5,0.3-3.7,0.7
					c-2,0.8-3.7,2.2-5.1,4c-1.5,2-2.6,4.6-3.1,7.4c0,0,0,0.1,0,0.1C1695.8,1544.6,1695.8,1545.5,1695.8,1546.5z"/>
			</g>
			<g>
				<path class="st47" d="M1695.8,1546.5c0,4.7,1.7,8.9,4.4,11.6l34-11.7l-38.1-2.8C1695.8,1544.6,1695.8,1545.5,1695.8,1546.5z"/>
			</g>
			<g>
				<path class="st48" d="M1699.1,1536.2l33.9,9.3l-28.8-13.3C1702.2,1532.9,1700.5,1534.3,1699.1,1536.2z"/>
			</g>
			<g>
				<path class="st49" d="M1728.1,1546.5c0,1.8,0.9,3.3,2.2,3.9c3.4-2.2,5.8-3.9,5.8-3.9s-2.4-1.7-5.8-3.9
					C1729,1543.2,1728.1,1544.7,1728.1,1546.5z"/>
			</g>
		</g>
	</g>
	<g>
		<g>
			<path class="st31" d="M386.5,1506.7c8.9,0,18.1-1,27.5-3.2c35.7-8.1,73.9-32.4,101.8-77.1c0,0-5.9-30-22.7-53.5l0,0
				c-11.7-16.3-31.9-35.7-56-35.8c-15.5-0.1-26.5,5.6-35.1,12.9c-14.6,12.5-22.3,29.8-33.6,32.4c-11.2,2.5-23.2,8.4-33.4,16.9
				c-1.7,1.4-3.3,2.8-4.8,4.4l0,0c-0.7,0.6-1.3,1.3-1.9,1.9c0,0,0,0,0,0c-13.7,14.4-21.8,33.9-14.9,55.5c1.6,5,4,10.2,7.6,15.5
				C333.5,1495.7,358,1506.6,386.5,1506.7z"/>
		</g>
		<g>
			<path class="st50" d="M425.6,1349.6c0,0,20.9-7.3,30.7,5.3c9.9,12.6-3.4,20.5-14.6,18.4C430.7,1371.4,415.2,1356.5,425.6,1349.6z
				"/>
		</g>
		<g>
			<path class="st51" d="M313.4,1461.1c1.6,5,4.5,9.9,7.6,15.5c21.4,39.8,51.4,56.6,74.2,62c25.2,6,72.3-4.2,91.1-16.3
				c30.8-19.9,40.2-55.3,29.7-96c0,0-5.9-30-22.7-53.5l0,0c0,0-13.4,68.9-91.9,91.6C365.6,1474.8,335.6,1469.8,313.4,1461.1z"/>
		</g>
		<g>
			<g>
				<path class="st14" d="M343.8,1362.5c0.4-12.5,13.9-16.9,24.8-24.8c11-8,24-28.6,24-28.6s-17.5,0.7-38.4,6.8
					C333.3,1322,343.8,1362.5,343.8,1362.5z"/>
			</g>
			<g>
				<path class="st15" d="M343.8,1362.5c-1.5-13,4.5-31.3,12.6-37c8.1-5.7,36.3-16.4,36.3-16.4s-17.5,0.7-38.4,6.8
					C333.3,1322,343.8,1362.5,343.8,1362.5z"/>
			</g>
		</g>
		<g>
			<path class="st51" d="M368.5,1382.4c-11.2,2.5-23.2,8.4-33.4,16.9c18.4-13.8,47.7-9.1,49.5-17.7c1.9-9.2,17-30.8,17.6-31.6
				C387.5,1362.5,379.9,1379.9,368.5,1382.4z"/>
		</g>
		<g>
			<path class="st52" d="M328.4,1405.6c0.5-0.5,1.2-1.1,1.9-1.9C329.6,1404.3,329,1404.9,328.4,1405.6z"/>
		</g>
		<g>
			<g>
				<path class="st15" d="M383.3,1382.6L383.3,1382.6c-9.1-14-27.1-21.1-40.5-24.5c-10.7-2.7-26.2-4.8-33.6-5.7
					c-1.6-0.2-2.6,1.6-1.6,2.9l2.6,3.2c2.6,3.3,6.6,5.2,10.8,5.3c12.9,0.3,41.8,2.9,56.4,19.4C379.1,1385.1,385,1385.1,383.3,1382.6
					z"/>
			</g>
		</g>
	</g>
	<g>
		<g>
			<g>
				
					<rect x="553.5" y="1111" transform="matrix(0.9873 -0.1586 0.1586 0.9873 -183.1908 104.1815)" class="st53" width="15" height="177.3"/>
			</g>
			<g>
				<polygon class="st54" points="542,1081.3 539.6,1113.3 554.4,1111 				"/>
			</g>
		</g>
		<g>
			<g>
				
					<rect x="684.2" y="1125.6" transform="matrix(0.9832 0.1826 -0.1826 0.9832 233.4117 -105.9117)" class="st53" width="15" height="177.3"/>
			</g>
			<g>
				<polygon class="st54" points="713.6,1096.4 700.5,1125.7 715.3,1128.5 				"/>
			</g>
		</g>
		<g>
			<g>
				
					<rect x="665.4" y="1074.5" transform="matrix(0.9832 0.1827 -0.1827 0.9832 223.7819 -103.3552)" class="st53" width="15" height="177.3"/>
			</g>
			<g>
				<polygon class="st54" points="694.8,1045.3 681.8,1074.6 696.5,1077.4 				"/>
			</g>
		</g>
		<g>
			<g>
				<rect x="595.2" y="1184.8" class="st31" width="118.5" height="170.7"/>
			</g>
			<g>
				<rect x="536" y="1184.8" class="st11" width="118.5" height="170.7"/>
			</g>
		</g>
	</g>
	<g>
		
			<rect x="1744" y="1086.1" transform="matrix(0.9824 0.1868 -0.1868 0.9824 246.9202 -318.9298)" class="st14" width="143.2" height="129.1"/>
	</g>
	<g>
		
			<rect x="1744" y="1097.7" transform="matrix(0.9824 0.1868 -0.1868 0.9824 238.7697 -319.7085)" class="st15" width="143.2" height="18.6"/>
	</g>
	<g>
		<g>
			
				<rect x="824.5" y="1069.1" transform="matrix(0.9725 -0.2328 0.2328 0.9725 -239.2819 239.7672)" class="st9" width="143.2" height="129.1"/>
		</g>
		<g>
			
				<rect x="812.8" y="1070.5" transform="matrix(0.9725 -0.2328 0.2328 0.9725 -228.1968 235.6804)" class="st47" width="143.2" height="28.4"/>
		</g>
	</g>
	<g>
		<g>
			
				<rect x="1844.1" y="988.1" transform="matrix(0.985 -0.1725 0.1725 0.985 -152.8598 346.2502)" class="st55" width="143.2" height="129.1"/>
		</g>
		<g>
			
				<rect x="1835.5" y="988.8" transform="matrix(0.985 -0.1725 0.1725 0.985 -144.435 344.0028)" class="st56" width="143.2" height="28.4"/>
		</g>
	</g>
</g>
</svg>
