<?xml version="1.0" encoding="utf-8"?>
<!-- Generator: Adobe Illustrator 23.0.0, SVG Export Plug-In . SVG Version: 6.00 Build 0)  -->
<svg version="1.1" id="Layer_1" xmlns="http://www.w3.org/2000/svg" xmlns:xlink="http://www.w3.org/1999/xlink" x="0px" y="0px"
	 viewBox="0 0 2556 2000" style="enable-background:new 0 0 2556 2000;" xml:space="preserve">
<style type="text/css">
	.st0{fill:#FFFFFF;}
	.st1{fill:#C7E6FF;}
	.st2{fill:#215E4B;}
	.st3{fill:#3C8F7C;}
	.st4{fill:#9BC1F9;}
	.st5{fill:#86B1F2;}
	.st6{fill:#F7A491;}
	.st7{fill:#F7CC7F;}
	.st8{fill:#F47458;}
	.st9{fill:#B75742;}
	.st10{fill:#13375B;}
	.st11{fill:#F48C7F;}
	.st12{fill:#96D9C9;}
	.st13{fill:#50BFA5;}
	.st14{fill:#355389;}
	.st15{fill:#327F6B;}
	.st16{clip-path:url(#SVGID_2_);}
	.st17{clip-path:url(#SVGID_4_);}
	.st18{fill:#F29383;}
	.st19{fill:#C24C32;}
	.st20{clip-path:url(#SVGID_6_);}
	.st21{fill:#BF7154;}
	.st22{fill:#A85D42;}
	.st23{clip-path:url(#SVGID_8_);}
	.st24{fill:#C5DBFC;}
	.st25{fill:#F5866E;}
	.st26{clip-path:url(#SVGID_10_);}
	.st27{clip-path:url(#SVGID_12_);}
	.st28{fill:#466EB6;}
	.st29{fill:#184655;}
	.st30{clip-path:url(#SVGID_14_);}
	.st31{fill:#A3573C;}
	.st32{clip-path:url(#SVGID_16_);}
	.st33{clip-path:url(#SVGID_18_);}
	.st34{clip-path:url(#SVGID_20_);}
	.st35{clip-path:url(#SVGID_22_);}
	.st36{fill:#47637F;}
	.st37{clip-path:url(#SVGID_24_);}
	.st38{clip-path:url(#SVGID_26_);}
	.st39{fill:#8CA5D2;}
	.st40{fill:#0E2E35;}
	.st41{clip-path:url(#SVGID_28_);}
	.st42{fill:#FADFAE;}
	.st43{fill:#96482A;}
	.st44{clip-path:url(#SVGID_30_);}
	.st45{fill:#F8A492;}
	.st46{clip-path:url(#SVGID_32_);}
	.st47{opacity:0.5;fill:#F47458;}
	.st48{clip-path:url(#SVGID_34_);}
</style>
<g>
	<rect x="0" y="0" class="st0" width="2556" height="2000"/>
	<path class="st1" d="M2179.7,1885.5c159.1-209.1,254.2-474.7,254.2-763.8c0-674.1-430.5-1022.3-1156-1022.3
		c-693.5,0-1156,348.2-1156,1022.3c0,289.1,95.2,554.7,254.2,763.8H2179.7z"/>
	<g>
		<path class="st2" d="M489.2,1754.6h4.5c1.5-15.3,4.4-32.2,9.7-49.9c19.8-66.9,11.1-75.5,44.6-117.4
			c33.4-41.8,35.9-128.5,35.9-128.5s16.1-98.5,0-141.8c-16.1-43.4-17.3-86.7-56.4-132.5c0,0-7.4,61.3-16.7,89.2
			c-9.3,27.9-18.1,54.5-11.2,121.4c6.9,66.9,11.2,72.5,12.7,89.8c1.6,17.3-0.9,90.4,2.8,102.5c3.7,12.1-21.7,95.7-23.5,131.6
			C491.1,1729.7,490.1,1742,489.2,1754.6z"/>
		<path class="st3" d="M503.4,1754.6c6.5-14.9,17.8-29.7,37.7-38.6c52-23.2,87.1-22.7,111.3-78.4c24.2-55.7,24.2-131.9,32.5-147.7
			c0,0-22.3-3.7-44.6,36.2c-22.3,39.9-37.4,69.7-50.3,92.9c-12.9,23.2-31.5,16.7-47.2,34.4c-13.2,14.8-25.5,49.2-30.1,66.7
			c-1.5,5.7-3.7,11.1-6.6,16.2c-2.6,4.6-5.7,10.3-7.6,14.3c-0.4,0.9-0.8,2.3-1.2,4H503.4z"/>
		<path class="st2" d="M356.6,1490.4c-3.7,47.7,26.6,44,27.9,74.3c1.2,30.3,40.9,81.8,59.2,118.3c9.6,19,13.1,48.1,14.3,71.6h14.8
			c-5.7-59.5-29.9-100.9-44.3-134.1c-18.6-42.7-21.4-62.2-5.6-95.7s-7.4-119.8,15.1-158.4c22.5-38.5,11-99,5.8-122.2
			c-5.2-23.2,0.5-39,5.2-63.5c4.6-24.5-5.2-60.1-5.2-60.1c-0.8,30.3-23.9,71.8-40.7,98.5c-16.7,26.6-48.3,99.1-44.6,131.9
			c3.7,32.8,1.9,35.3,1.9,35.3C348.6,1430.3,360.4,1442.7,356.6,1490.4z"/>
		<path class="st3" d="M445.2,1715.8c1.9,5.7,8,20.2,13.5,38.8h9c-4.1-23.6-11.2-50.9-23.2-66.6c-24.2-31.6-72.5-45.2-78-68.1
			c-5.6-22.9,0.6-91.7-34.7-130.1c0,0,5,42.8,0,54.2c-5,11.4-47.1,64.7-22.3,109.3c24.8,44.6,80.5,39,97.9,48.9
			S442.1,1706.5,445.2,1715.8z"/>
		<path class="st3" d="M422.9,1510.2c-0.6,45.8,35.3,63.2,34.7,88.6c-0.6,25.4,7.4,52.6,14.2,73.1c4.3,12.9,1.9,49,1.2,82.8h10
			c2.5-24.8,5.3-60.7,4.4-76.6c-1.2-21.7,8.7-39,9.9-76.8c1.2-37.8,9.3-71.8-7.4-119.5c-16.7-47.7-13.6-104.7-83.6-157.3
			c0,0-12.4,55.7-3.1,86.1C412.3,1440.8,423.5,1464.3,422.9,1510.2z"/>
		<path class="st4" d="M493.8,1715.5h-6.7h-89.2c-6.6,0-11.4,6.1-9.9,12.5l35,147.5c1.1,4.6,5.2,7.8,9.9,7.8h54.3h6.7H548
			c4.7,0,8.8-3.2,9.9-7.8l35-147.5c1.5-6.4-3.3-12.5-9.9-12.5H493.8z"/>
	</g>
	<g>
		<rect x="935.4" y="1628.6" class="st5" width="15.8" height="230.5"/>
		<g>
			<path class="st6" d="M1174.9,1800.2c0,0,3.4,36,1.2,47.7c-0.3,1.6-1,3.6-1.8,5.8c-2.3,6.6,4.1,26.7,4.1,26.7l85.8,0.3
				c4.7,0,1.5-2.8-2.3-5.4c-6.2-4.3-11.2-7.1-31-15.9c-1.3-0.6-6-3.4-7.7-4.3c-4.3-2.4-8.7-6.3-12.4-10.2
				c-6.2-6.5-7.2-38.2-7.2-38.2L1174.9,1800.2z"/>
			<path class="st7" d="M1223.2,1855c-22.6,5.8-39.4,2.2-48.8-1.3c-2.3,6.6-6.7,28.8-4.1,28.8c21.5,0,39.7,3.9,101.3,3
				c2.2,0,1.9-7.3,0.5-8.9C1268.1,1872.2,1224.9,1855.9,1223.2,1855z"/>
			<path class="st6" d="M1272,1740.5c0,0,18.8,31.4,21.8,42.9c0.4,1.5,0.7,3.6,0.9,5.9c0.7,6.9,15.3,22.6,15.3,22.6l78.2-33.8
				c4.3-1.8,0.2-3.2-4.4-4c-7.5-1.4-13.3-2-35.2-2.2c-1.4,0-6.9-0.7-8.9-0.9c-5-0.5-10.6-2.3-15.7-4.4c-8.5-3.4-23.1-31.9-23.1-31.9
				L1272,1740.5z"/>
			<path class="st7" d="M1339.7,1771.2c-18,14.3-34.9,17.7-45,18.2c0.7,6.9,6.4,28.8,8.8,27.8c19.6-8.5,37.8-12.2,93.5-37.5
				c2-0.9-1.4-7.4-3.4-8.3C1388,1769,1341.7,1771.4,1339.7,1771.2z"/>
			<path class="st8" d="M1005.2,1472.7v18.5l181.8,36.6l45.1,129.6l-25.2-16.4l5.8,199.6l-38.3,0.3c0,0-66.3-167.4-44.5-251.7
				l-201.3,2.9c0,0-91.2-33.7-44.1-135.2L1005.2,1472.7z"/>
			<path class="st9" d="M1005.2,1491.2c0,0,188.6,1.2,202,11.1c13.4,9.9,113.9,254.9,113.9,254.9l-43.8,15.7c0,0-87.2-139-91.8-149
				s-38.4-82.4-51.3-89.8C1121.3,1526.7,1005.2,1491.2,1005.2,1491.2z"/>
		</g>
		<path class="st5" d="M859.8,1869.4h156.6c7.2,0,13.1,5.8,13.1,13.1l0,0c0,1.3-1,2.3-2.3,2.3H849c-1.3,0-2.3-1-2.3-2.3l0,0
			C846.7,1875.3,852.6,1869.4,859.8,1869.4z"/>
		<path class="st5" d="M930.4,1859.2h19.2c5.7,0,10.3,4.6,10.3,10.3l0,0c0,5.7-4.6,10.3-10.3,10.3h-19.2c-5.7,0-10.3-4.6-10.3-10.3
			l0,0C920.1,1863.8,924.7,1859.2,930.4,1859.2z"/>
		<path class="st10" d="M1018.6,1163.4c0.9-20.5-2.2-40.8-11.4-59.9c-7.9-16.4-27.4-25.8-45.3-25.8c-56.6-0.1-63.8,74.7-99.8,103.6
			c-11,8.8-23.3,16-33.7,25.5c-38.5,35.1-21.1,100.1,14.2,130.9c24.5,21.4,63,33.5,93.3,16.8c15.8-8.7,27.7-23.2,36.3-39.1
			c12.1-22.5,19.9-48.5,28.5-72.5C1009.8,1217.3,1017.4,1190.7,1018.6,1163.4z"/>
		<path class="st11" d="M1174.7,1378.4l-123.2-34.3c0,0-26-34.9-59.3-81.6c-10.9,10.8-17,27.4-28,38.1l81.5,90.2
			c2.9,3.3,7.1,5.1,11.5,5.1l113.2,0.4l38.7,3.1v-24.8L1174.7,1378.4z"/>
		<path class="st12" d="M997.4,1352.3c0,0-42.3-43.3-53.2-62.2c-10.9-18.8,7.4-6.6,26.1-11.5c7.1-1.9,5.3-43.3,18.7-29.9
			c21.9,22.1,49.5,60.8,49.5,60.8L997.4,1352.3z"/>
		<path class="st13" d="M937.3,1229.7c0,0-37.9-7.5-55.3,7c-17.3,14.5,3.7,143.1,3.7,164.4c0,21.3-11.9,81.6-11.9,81.6
			s115,20.1,133.3-11.9c0,0,5.2-121.9,4.4-137.3c-0.8-15.3-17.8-78-22.5-84.8C984.3,1242,937.3,1229.7,937.3,1229.7z"/>
		<path class="st6" d="M937.1,1171c0,0-0.2,1.1-0.6,3.1c-1.7,9.3-8.3,40-12.8,48.4c-5.4,10.2,18.5,42.8,41.6,38.8
			c6.9-1.2-5.8-29.9-5.2-32.9c1.2-5.8,2.7-13.8,4.4-21.9c0.9-4.6,1.8-9.3,2.7-13.6c2.5-12.4,4.5-22.6,4.5-22.6L937.1,1171z"/>
		<path class="st8" d="M936.5,1174.1c0.4-1.9,0.6-3.1,0.6-3.1l34.5-0.9c0,0-2,10.2-4.5,22.6c-0.9,4.4-1.8,9-2.7,13.6
			c-5.3-0.8-10.9-3.4-16.5-8.2c-6.1-5.3-10.1-11.7-12.5-18.5C935.9,1177.4,936.2,1175.5,936.5,1174.1z"/>
		<path class="st6" d="M960.3,1092.7c0,0-16.3-1.9-26.5,11.3c-10.2,13.2-21.2,53.9,4.1,76c25.3,22.1,50.4-2.9,54.1-29.5
			C995.8,1124,997.2,1091.8,960.3,1092.7z"/>
		<path class="st6" d="M999.5,1150.2c-3,5.9-8.1,9.1-11.3,7.3c-3.2-1.9-3.4-8.1-0.4-14c3-5.9,8.1-9.1,11.3-7.3
			C1002.4,1138,1002.6,1144.3,999.5,1150.2z"/>
		<path class="st10" d="M962.1,1088.4c0,0-21.7,38.7-37.3,40.5c-15.5,1.8-17.6,22.4-17.6,22.4s5.6-47.4,21-56.5
			C943.6,1085.6,962.1,1088.4,962.1,1088.4z"/>
		<path class="st6" d="M928.9,1138.6c1.3,6.9-1.3,13.2-5.7,14.1c-4.4,0.9-9-3.9-10.3-10.8c-1.3-6.9,1.3-13.2,5.7-14.1
			C923.1,1126.9,927.6,1131.7,928.9,1138.6z"/>
		<path class="st6" d="M1106.6,1374.3l-106.8-23.6c0,0-38.6-49.6-75.7-92.3c-10.9,10.8-17,27.4-28,38.1l81.5,90.2
			c2.9,3.3,7.1,5.1,11.5,5.1l113.2,0.4l38.7,3.1v-24.8L1106.6,1374.3z"/>
		<path class="st12" d="M929.2,1348.2c0,0-42.3-43.3-53.2-62.2c-10.9-18.8-2.8-50.4,15.9-55.3c18.7-5,78.4,74.7,78.4,74.7
			L929.2,1348.2z"/>
		<g>
			<path class="st9" d="M1326,1252.7h-176.1c-4.7,0-8.9,2.8-10.6,7.1l-54.2,132.3h-97.1c-2.7,0-4.9,2.2-4.9,4.9l0,0
				c0,2.7,2.2,4.9,4.9,4.9h276.4c7.6,0,14.5-4.5,17.6-11.4l54.6-121.6C1339.9,1261.3,1334.3,1252.7,1326,1252.7z"/>
			<path class="st0" d="M1231.1,1329.8c-1.2,5.9-6.4,9.9-11.6,8.9c-5.2-1-8.5-6.7-7.3-12.6c1.2-5.9,6.4-9.9,11.6-8.9
				C1229.1,1318.2,1232.3,1323.8,1231.1,1329.8z"/>
		</g>
		<path class="st0" d="M970.1,1165.4l-23.9-1.2c0,0,0.1,9.1,10.6,9.9C969.6,1175.1,970.1,1165.4,970.1,1165.4z"/>
		<path class="st14" d="M1044.7,1602.1l-10.8-44.9c-7.5-31.4-35.3-54.2-67.6-55.5l-136.5-5.5l-4.2-13.9L967,1488
			c38.3,1.6,71.4,28.7,80.3,66l11.5,47.7C1054.9,1601.9,1050.1,1602,1044.7,1602.1z"/>
		<path class="st7" d="M861.7,1578.2c0,0,187.5,3.2,207.1,0c19.6-3.2,28,21.3,22.2,34.1c-5.8,12.8-21.9,17.8-45.5,19
			c-23.6,1.2-220.3,6.7-225.9,1.5c-4.5-4.3-64.2-208.1-85.8-282.7c-4.3-14.9,4.2-30.5,19.1-34.8l0,0c14.8-4.3,30.4,4.1,34.9,18.8
			L861.7,1578.2z"/>
		<g>
			<path class="st10" d="M968.3,1431.5h750.4c8.2,0,14.8-6.6,14.8-14.8l0,0c0-8.2-6.6-14.8-14.8-14.8H968.3
				c-8.2,0-14.8,6.6-14.8,14.8l0,0C953.5,1424.9,960.1,1431.5,968.3,1431.5z"/>
			<polygon class="st10" points="1141,1884.8 1162,1884.8 1116.7,1431.5 1095.7,1431.5 			"/>
			<polygon class="st10" points="962.4,1884.8 941.4,1884.8 986.7,1431.5 1007.7,1431.5 			"/>
			<polygon class="st10" points="1712.4,1884.8 1733.5,1884.8 1688.2,1431.5 1667.2,1431.5 			"/>
			<polygon class="st10" points="1533.9,1884.8 1512.8,1884.8 1558.1,1431.5 1579.1,1431.5 			"/>
		</g>
	</g>
	<path class="st3" d="M2348.7,1889H314c-2.3,0-4.2-1.9-4.2-4.2l0,0c0-2.3,1.9-4.2,4.2-4.2h2034.7c2.3,0,4.2,1.9,4.2,4.2l0,0
		C2352.9,1887.1,2351,1889,2348.7,1889z"/>
	<g>
		<path class="st3" d="M2067.6,1585.9c-1.6-13.7-3.4-27.7-9.8-39.9c-7.7-14.9-21.3-25.6-33.2-37.4c-22.2-22.1-39.2-49.3-49.5-78.9
			c-7.9-22.9-11.9-47.3-22.8-68.9c-6.7-13.2-15.8-25-23.3-37.7c-17.9-30-27.6-65.5-51.9-90.6c-4.7,30.5,4.6,62.8,24.6,86.2
			c6,7,12.9,13.3,17.5,21.2c8.3,14.5,7.5,32.1,8.5,48.8c1.8,31.3,10.6,62.2,25.6,89.7c15.9,29.2,38.9,55.3,47.4,87.5
			c6.4,24.1,4.5,51.2,18.1,72.1c1.5,2.3,3.2,4.5,3.5,7.2c0.2,1.5,0,3-0.3,4.5c-0.3,1.9-0.6,3.9-0.9,5.8
			c-3.1,19.7-6.3,44.9,10.7,59.6c11.8,10.2,26.9,10.5,35.3-3.1c8.5-13.7,7.7-33.7,7.1-49.2
			C2073.3,1637.2,2070.5,1611.4,2067.6,1585.9z"/>
		<path class="st15" d="M2098.2,1570c-6.6-22.9-16.8-44.6-22-67.9c-5-22.5-5-45.8-5-68.9c0-25.3,0-50.6-0.1-75.9
			c0-15.7,0-31.6-2.6-47.1c-5.6-33.4-23-64.3-25.9-98.1c-1.3-14.6,0.2-29.3-1.4-43.9c-0.9-8.3-3.1-16.8-6.9-24.2
			c-4.1-7.9-15.6-7.6-19.3,0.5c-8.4,18.3-13.8,38-10.4,57.6c2,11.7,7.1,22.7,10.9,34c16.9,50.3,7.9,106,21,157.5
			c4,15.5,9.9,30.8,10.6,46.8c1.7,38.3-27,73.3-24.3,111.6c2.2,31.4,24.7,57.3,34.2,87.3c5.3,16.8,6.4,34.7,12.1,51.4
			c4.4,12.9,14.7,28.7,30.6,24.7c15.1-3.7,10.6-16.1,9.9-27.9C2107.3,1647.7,2109.4,1609,2098.2,1570z"/>
		<path class="st3" d="M2132.8,1591c-0.7-11.9-2.7-23.8-1-35.6c1.4-9.9,5.4-19.3,8.2-29c5.3-18.1,6.6-37,7.9-55.8
			c2.3-34.1,4.7-68.3,7-102.4c3.6-53.1,7.3-106.3,17.2-158.5c2.8-14.5,5.8-30.2-0.7-43.5c-1.4-2.8-4.1-5.8-7-4.8
			c-2.1,0.7-3.1,3-3.9,5.1c-21.7,58.9-29.9,122.4-54.1,180.4c-5.8,13.9-12.5,27.5-15.5,42.3c-3.6,17.7-1.6,36-1.2,54.1
			c0.7,25.9-1.9,52-9,76.9c-3.7,13-8.8,25.8-10.8,39.2c-2.6,16.7-0.4,33.7,1.2,50.6c3.1,32.4,4.1,64.9,3.1,97.4
			c-0.6,19.1,15.5,18.6,26.2,6.9c7.5-8.2,7.4-17.2,10-27.4C2118.7,1653.1,2134.8,1627.3,2132.8,1591z"/>
		<path class="st15" d="M2032.1,1642.7c-14.3-22.9-42.7-35.9-51.8-61.3c-2.3-6.5-3.2-13.4-6.1-19.7c-6.3-13.9-20.6-21.7-34.7-28.1
			c-2-0.9-4.2,0.5-4.2,2.7l0,0c0,3.4,1.6,6.7,4.4,8.6c10.8,7.3,19.1,18.4,22.7,31c4.3,14.9,2.5,31.2,7.9,45.8
			c4.5,12.2,13.9,22.2,18.2,34.4c4,11.2,3.6,23.5,5.5,35.2c1.9,11.8,7.1,24.2,17.9,29.2C2051,1738.5,2041.3,1657.5,2032.1,1642.7z"
			/>
		<path class="st3" d="M2194.5,1635.2c-0.6,11.1,1.1,22.7-3.2,32.9c-2.8,6.5-7.8,11.8-11.9,17.6c-14.4,20.3-19.6,49.1-41.7,60.6
			c-1.5,0.8-3.1,1.4-4.7,1.1c-2.3-0.4-3.7-2.6-4.7-4.7c-5.4-12.6,0.7-26.8,4.3-40.1c0.6-2.3,1.2-4.9,0.1-7c-1.2-2.3-4-3.4-5.9-5.2
			c-3.8-3.7-3.4-9.7-2.7-15c1.9-13,4.5-26,7.9-38.7c1.9-7.2,4.1-14.5,8.3-20.7c4.6-6.8,11.2-11.9,17.5-17.3
			c27.5-23.7,48.6-54.8,60.4-89.1c2.6-7.4,4.8-15.3,10.1-21.1c5.3-5.8,14.7-8.8,21.1-4.3c4.6,3.2-14.1,33.3-16.3,36.9
			c-6.2,10.3-6.3,19.3-9.8,30.8C2214.5,1580,2196.2,1605.1,2194.5,1635.2z"/>
		<path class="st15" d="M2172.7,1648c4.1-10.6,8.2-21.3,9.6-32.5c1.5-12.5-0.5-25.3,1.6-37.7c2.7-16,12.1-30,16.7-45.5
			c3.3-11.2,4.1-23,6.1-34.5c5.7-32.9,21.2-65.1,16.8-98.3c-1-7.2-4.2-15.6-11.4-16.8c-6.5-1.1-12.4,4.8-14.1,11.2
			c-1.7,6.4-0.4,13.1,0,19.6c1.3,18.3-3.9,37-14.5,52c-10.2,14.4-24.9,25.2-34.1,40.3c-11.2,18.5-12.8,41.1-18.5,61.9
			c-11.4,41.5-40,77.7-45.2,120.4c-2.1,17,1.9,37.7,17.6,44.5C2148.8,1752.2,2162.5,1674.6,2172.7,1648z"/>
		<path class="st4" d="M2093.4,1700.7h-7.3h-96.9c-7.1,0-12.4,6.7-10.7,13.6l38,160.1c1.2,5,5.6,8.5,10.7,8.5h58.9h7.3h58.9
			c5.1,0,9.5-3.5,10.7-8.5l38-160.1c1.6-6.9-3.6-13.6-10.7-13.6H2093.4z"/>
	</g>
	<g>
		<g>
			
				<rect x="1319.6" y="444.9" transform="matrix(0.1269 -0.9919 0.9919 0.1269 552.297 1839.6393)" class="st4" width="3.1" height="322.4"/>
			<polygon class="st4" points="1163.7,619.5 1165.2,616.8 721.9,378.1 899.1,334.1 898.4,331.1 713.5,377.1 			"/>
			
				<rect x="726.5" y="493.5" transform="matrix(0.3182 -0.948 0.948 0.3182 -261.464 1235.2233)" class="st4" width="3.1" height="611.9"/>
			<polygon class="st4" points="2136.8,911.2 2139,909.1 1850.4,614.1 1850.1,614 1356.7,401 1186.4,376.1 1185.9,379.1 1356,404 
				1848.6,616.7 			"/>
			<polygon class="st4" points="1217.1,981.3 1239.1,823.1 1238,822.7 987,724.1 762.9,628.6 761.7,631.4 985.8,727 1235.7,825.1 
				1214.1,980.9 			"/>
			<polygon class="st4" points="1200.1,982.5 1201.6,979.8 1000.6,874.7 1000.6,711.9 794.9,885.6 431.3,707.1 804.6,605 
				804.9,604.4 917.8,348.8 1180.9,378.9 1155.8,585.5 1158.9,585.9 1184.3,376.3 1182.8,376.1 915.9,345.5 915.5,346.5 
				802.4,602.5 422.7,706.3 795.3,889.2 796.1,888.6 997.5,718.5 997.5,876.6 			"/>
			<polygon class="st4" points="1834.5,634.4 1834.6,631.3 1492.7,624.3 1589.8,336.3 1586.9,335.4 1488.4,627.3 			"/>
			<polygon class="st4" points="2269,819.8 2270.5,817.1 1882.9,604.8 1631.2,378 1629.1,380.3 1881.2,607.2 			"/>
			
				<rect x="2040" y="803.8" transform="matrix(0.3411 -0.94 0.94 0.3411 493.1598 2516.3972)" class="st4" width="3.1" height="205.3"/>
			
				<rect x="1756.8" y="890.5" transform="matrix(0.967 -0.2547 0.2547 0.967 -166.0915 501.1534)" class="st4" width="191.4" height="3.1"/>
			
				<rect x="1534.5" y="921.6" transform="matrix(0.9976 -6.994766e-02 6.994766e-02 0.9976 -60.5489 117.1297)" class="st4" width="215.4" height="3.1"/>
			<polygon class="st4" points="1337,697.7 1337.5,697.7 1805.9,659.7 1805.7,656.7 1337.7,694.6 1194.1,609.3 1192.6,612 			"/>
			<polygon class="st4" points="1442.7,899.7 1445.4,898.2 1337.5,699 1243.8,826.4 1246.2,828.2 1337.2,704.7 			"/>
			<polygon class="st4" points="1162.3,599.9 1348.2,410.6 1605.2,337.3 1604.4,334.4 1346.6,407.9 1346.3,408.2 1160.2,597.7 			
				"/>
			
				<rect x="635.9" y="490.9" transform="matrix(0.1964 -0.9805 0.9805 0.1964 -62.3885 1095.9088)" class="st4" width="3.1" height="190.2"/>
			<polygon class="st4" points="586.9,943.5 587.9,940.7 421.9,879.2 421.9,691.1 556.8,586.3 556.5,585.3 500.2,394.5 497.3,395.3 
				553.3,585.2 418.8,689.6 418.8,881.3 			"/>
			
				<rect x="397.5" y="767.5" transform="matrix(0.8465 -0.5324 0.5324 0.8465 -318.9258 431.9897)" class="st4" width="384.4" height="3.1"/>
			
				<rect x="1703.8" y="280.3" transform="matrix(0.2876 -0.9577 0.9577 0.2876 845.8964 1907.6676)" class="st4" width="3.1" height="209.8"/>
			
				<rect x="1354.6" y="773.6" transform="matrix(3.618297e-02 -0.9993 0.9993 3.618297e-02 666.9545 2241.7102)" class="st4" width="282.2" height="3.1"/>
			<polygon class="st4" points="1010.1,912.5 1132.1,564.1 1129.2,563 1007.2,911.5 			"/>
			
				<rect x="644.8" y="325" transform="matrix(0.6751 -0.7377 0.7377 0.6751 -158.854 639.1902)" class="st4" width="3.1" height="349.9"/>
			<g>
				<path class="st4" d="M416.4,705.9V883l172,63.7l2.8-7.4l-166.8-61.8v-5.8l2.7,4.4l147.3-92.6l221.3,108.7l2-1.7l53.8-45.4
					l157.9,53.1l-5.2,14.8l7.5,2.6l5.2-14.9l2.3,0.8l2.5-7.5l-2.2-0.7l0.7-2.1l181,94.6l3.7-7l-182.1-95.2l42.9-122.6l167.3,65.7
					L1211.3,983l7.9,1.1l21.8-156.7l5.8,4.3l90.1-122.3L1441.7,903l7-3.8l-107.9-199.3l154.1-12.5l-8.4,231l7.9,0.3l8.4-231.9
					l305.7-24.8l-0.6-7.9l-304.8,24.7l1.7-47l-7.9-0.3l-1.7,47.9l-156.9,12.7l-145-86.1l-4,6.8l145.3,86.3l-93.3,126.6l0.6-4.2
					l-2.9-1.1l-170.5-66.9l53.8-153.6l42.6,22.9l3.8-7l-43.7-23.5l10.4-29.7l-7.5-2.6l-10,28.6L872.8,456.6l46.5-105.2l258.9,29.7
					l-25.1,206.6l5.3,0.6l-0.1,1l5.9,0.8l-7.5,7.7l5.7,5.6l11.7-12l308.8,39.4l1-7.9l-302.8-38.6l168.4-171.5l12.4-3.5l172.4,74.4
					l-49.3,146.1l351.8,7.2l0.2-7.9l-341-6.9l45.6-135.2l305.6,131.9l25.7,26.3l-110.4,244.2l-97-174l-161.3,221.6l6.7,4.3
					l153.7-209.7l98.3,176.6l116.2-256.8l257.9,263.6l5.7-5.6l-260-265.8l4.4-9.8l-7.2-3.3l-3.2,7l-24.6-25.2l-307.6-132.8l45.5-135
					l18.5-5.3l-2.2-7.6l-13.3,3.8l0.1-0.3l-7.5-2.5l-1.9,5.5l-221.1,63l-5.1-2.2l-173-25.3l-0.1,0.5l-1.2-0.1l-268.6-30.8l-1.2,2.7
					l-47.4,107.3L728.6,379l173.5-43.1l-1.9-7.7l-193.4,48.1l155.9,83.9l-62,140.3l-29.8,8.1L518.1,377.3l-5.4,5.9l249,227.9
					l-320.7,87.7l-4.1-1.4l-0.9,2.7l-11.8,3.2v-11l135.3-105.1l-0.8-2.6l-3.2-10.9l176.7,35.4l1.6-7.8l-180.8-36.2l-51.2-173.7
					l-7.6,2.2l50.1,169.7l-1.8-0.4l-1.6,7.8l5.9,1.2l3.6,12.3L416.4,688.4v17.1l-0.5,0.1L416.4,705.9z M1373.9,405.8l206.5-58.9
					l-43.6,129.2L1373.9,405.8z M1186.1,381.6l161,23.6l-1.9,0.5l-0.7,0.8L1171.2,583l-9.4-1.2L1186.1,381.6z M440.9,707l156.4,52.6
					l-23.5,14.7l-135.7-66.6L440.9,707z M1061,750.6l-57.9-22.7v-21.1l-17,14.4l-224.4-95.7l-3.1,7.3l220.7,94.1L849.7,836.1
					l-234-78.7l140.9-88.6l-4.2-6.7L606,754.1l-151.4-50.9l314.1-85.9l5.8,5.3l5.4-5.9l-2.1-1.9l28.6-7.8l0.8-1.7l62.5-141.4
					l245.5,132.2L1061,750.6z M995.1,723.8v0.9l-0.7-0.3L995.1,723.8z M1015.7,879.8l-12.7-6.6V736.3l55.3,21.7L1015.7,879.8z
					 M858.5,839.1l129-108.8l7.6,3V878l17.9,9.4l-1.1,3.2L858.5,839.1z M582.2,778.5l24.8-15.6l235.6,79.2l-48.1,40.6L582.2,778.5z
					 M424.3,709.8l141.6,69.5l-141.6,89.1V709.8z"/>
				<polygon class="st4" points="2260.9,818.1 1902.1,621.5 1867.9,622.1 1867.8,614.1 1888,613.8 1879.7,609.2 1870.5,600.9 
					1863.9,618.7 1856.5,616 1864.2,595.2 1625.7,380.5 1631,374.6 1867.1,587.2 1956.9,344.8 1964.4,347.6 1873.5,593 
					1884.3,602.8 1904,613.5 2208.7,629.5 2208.9,637.4 1918,621.2 2258.9,808 2199.9,634.2 2207.7,632.7 2268,812.9 2273.8,816.1 
					2270,823.1 2270,823.1 2274.2,844.6 2164.4,915.2 2160.2,908.6 2265.4,840.8 				"/>
				<polygon class="st4" points="1947.7,868.1 2141.6,938.6 2138.9,946 1941.4,874.3 1942,872.6 1758.6,920.9 1756.6,913.2 
					1946.4,863.2 				"/>
				
					<rect x="1532.1" y="919.2" transform="matrix(0.9976 -6.994639e-02 6.994639e-02 0.9976 -60.5478 117.1275)" class="st4" width="220.3" height="7.9"/>
				
					<rect x="1701.3" y="277.9" transform="matrix(0.2872 -0.9579 0.9579 0.2872 846.4935 1908.0045)" class="st4" width="7.9" height="214.7"/>
			</g>
			
				<rect x="1768.3" y="480.2" transform="matrix(0.3474 -0.9377 0.9377 0.3474 794.9961 2105.8545)" class="st4" width="284.3" height="3.1"/>
		</g>
		<g>
			
				<ellipse transform="matrix(0.5257 -0.8506 0.8506 0.5257 129.8519 939.5806)" class="st0" cx="907.5" cy="353.3" rx="78.9" ry="78.9"/>
		</g>
		<g>
			
				<ellipse transform="matrix(0.1602 -0.9871 0.9871 0.1602 -417.7248 1370.3654)" class="st0" cx="596.5" cy="930.7" rx="79.9" ry="79.9"/>
		</g>
		<g>
			<path class="st0" d="M1549,625.8c0,32.3-26.2,58.5-58.5,58.5s-58.5-26.2-58.5-58.5c0-32.3,26.2-58.5,58.5-58.5
				S1549,593.5,1549,625.8z"/>
		</g>
		<g>
			
				<ellipse transform="matrix(0.9806 -0.1961 0.1961 0.9806 -84.8938 378.7962)" class="st0" cx="1870.3" cy="618.1" rx="109.4" ry="109.4"/>
		</g>
		<g>
			
				<ellipse transform="matrix(0.9436 -0.331 0.331 0.9436 -56.771 471.6796)" class="st0" cx="1356.4" cy="402.5" rx="51.3" ry="51.3"/>
		</g>
		<g>
			
				<ellipse transform="matrix(9.853861e-02 -0.9951 0.9951 9.853861e-02 1387.3898 2275.79)" class="st0" cx="1949.8" cy="372.1" rx="74.5" ry="74.5"/>
		</g>
		<g>
			<circle class="st0" cx="525.6" cy="406.5" r="66.2"/>
		</g>
		<g>
			
				<ellipse transform="matrix(0.1299 -0.9915 0.9915 0.1299 428.5804 1676.6956)" class="st0" cx="1169.7" cy="594.1" rx="97" ry="97"/>
		</g>
		<g>
			
				<ellipse transform="matrix(0.2298 -0.9732 0.9732 0.2298 -353.7832 945.2937)" class="st0" cx="420.3" cy="696.2" rx="90.5" ry="90.5"/>
		</g>
		<g>
			<path class="st0" d="M2267.3,638.1c0,35.4-28.7,64.2-64.2,64.2s-64.2-28.7-64.2-64.2c0-35.4,28.7-64.2,64.2-64.2
				S2267.3,602.7,2267.3,638.1z"/>
		</g>
		<g>
			
				<ellipse transform="matrix(0.2298 -0.9732 0.9732 0.2298 153.8192 1848.8805)" class="st0" cx="1245" cy="827.3" rx="44.1" ry="44.1"/>
		</g>
		<g>
			<path class="st0" d="M1818.4,898.5c0,30.8-25,55.8-55.8,55.8s-55.8-25-55.8-55.8c0-30.8,25-55.8,55.8-55.8
				S1818.4,867.7,1818.4,898.5z"/>
		</g>
		<g>
			
				<ellipse transform="matrix(0.2204 -0.9754 0.9754 0.2204 911.5021 1836.7957)" class="st0" cx="1604.8" cy="348.2" rx="89.5" ry="89.5"/>
		</g>
		<g>
			<defs>
				
					<ellipse id="SVGID_1_" transform="matrix(2.628843e-02 -0.9997 0.9997 2.628843e-02 1217.9768 1939.9442)" cx="1604.8" cy="344.8" rx="86.1" ry="86.1"/>
			</defs>
			<clipPath id="SVGID_2_">
				<use xlink:href="#SVGID_1_"  style="overflow:visible;"/>
			</clipPath>
			<g class="st16">
				<path class="st10" d="M1646,332.5c0.5-12-1.3-23.9-6.6-35.1c-4.6-9.6-16.1-15.1-26.5-15.1c-33.1,0-37.4,43.7-58.5,60.6
					c-6.4,5.2-13.7,9.4-19.8,14.9c-22.5,20.6-12.4,58.6,8.3,76.6c14.4,12.5,36.9,19.6,54.6,9.8c9.2-5.1,16.2-13.6,21.2-22.9
					c7.1-13.2,11.7-28.4,16.7-42.5C1640.8,364,1645.3,348.5,1646,332.5z"/>
				<path class="st12" d="M1633.6,443.1c0,0-24.8-25.4-31.1-36.4c-6.4-11,4.3-3.8,15.3-6.7c4.1-1.1,3.1-25.4,10.9-17.5
					c12.8,12.9,29,35.6,29,35.6L1633.6,443.1z"/>
				<path class="st13" d="M1598.4,371.3c0,0-22.2-4.4-32.3,4.1c-10.1,8.5,2.2,83.8,2.2,96.2c0,12.5-7,45.1-7,45.1s67.3,14.5,78-4.3
					c0,0,3-71.4,2.6-80.4c-0.5-9-10.4-45.7-13.2-49.6C1625.9,378.5,1598.4,371.3,1598.4,371.3z"/>
				<path class="st6" d="M1598.3,337c0,0-0.1,0.7-0.3,1.8c-1,5.4-4.9,23.4-7.5,28.4c-3.2,6,10.8,25,24.3,22.7c4-0.7-3.4-17.5-3-19.3
					c0.7-3.4,1.6-8.1,2.6-12.8c0.5-2.7,1.1-5.4,1.6-8c1.4-7.3,2.6-13.2,2.6-13.2L1598.3,337z"/>
				<path class="st8" d="M1597.9,338.8c0.2-1.1,0.3-1.8,0.3-1.8l20.2-0.5c0,0-1.2,6-2.6,13.2c-0.5,2.5-1,5.3-1.6,7.9
					c-3.1-0.5-6.4-2-9.6-4.8c-3.6-3.1-5.9-6.9-7.3-10.8C1597.6,340.7,1597.8,339.6,1597.9,338.8z"/>
				<path class="st6" d="M1611.9,291.1c0,0-9.5-1.1-15.5,6.6c-6,7.7-12.4,31.5,2.4,44.5c14.8,13,29.5-1.7,31.7-17.3
					C1632.6,309.4,1633.5,290.6,1611.9,291.1z"/>
				<path class="st10" d="M1626.7,287.2c0,0-18.6,26.6-36.2,23l-0.5-11.3l1.6-4.3l9-5.8l14.6-3.3L1626.7,287.2z"/>
				<path class="st6" d="M1634.8,324.7c-1.8,3.4-4.7,5.3-6.6,4.2c-1.9-1.1-2-4.8-0.2-8.2c1.8-3.4,4.7-5.3,6.6-4.2
					C1636.5,317.6,1636.6,321.3,1634.8,324.7z"/>
				<path class="st6" d="M1593.5,318c0.7,4-0.7,7.7-3.3,8.2c-2.6,0.5-5.3-2.3-6-6.3c-0.7-4,0.7-7.7,3.3-8.2
					C1590.1,311.1,1592.8,314,1593.5,318z"/>
				<path class="st0" d="M1617.6,333.7l-14-0.7c0,0,0,5.3,6.2,5.8C1617.3,339.4,1617.6,333.7,1617.6,333.7z"/>
				<path class="st0" d="M1617.6,333.7l-14-0.7c0,0,0,5.3,6.2,5.8C1617.3,339.4,1617.6,333.7,1617.6,333.7z"/>
				<path class="st12" d="M1574.4,442.2c0,0-14.6-32.3-16.8-44.9c-2.2-12.5,8.5-28.3,19.8-27.3c11.3,1,28.2,56.8,28.2,56.8
					L1574.4,442.2z"/>
			</g>
		</g>
		<g>
			
				<ellipse transform="matrix(0.2298 -0.9732 0.9732 0.2298 -4.3177 1230.6819)" class="st0" cx="775.4" cy="618.1" rx="102.1" ry="102.1"/>
		</g>
		<g>
			<path class="st0" d="M1062.4,882.5c0,30.5-24.7,55.2-55.2,55.2c-30.5,0-55.2-24.7-55.2-55.2c0-30.5,24.7-55.2,55.2-55.2
				C1037.7,827.3,1062.4,852,1062.4,882.5z"/>
		</g>
		<g>
			
				<ellipse transform="matrix(0.9988 -4.981331e-02 4.981331e-02 0.9988 -43.336 75.3751)" class="st0" cx="1490.5" cy="907.1" rx="107.8" ry="107.8"/>
		</g>
		<g>
			<path class="st0" d="M2209.1,901.6c0,38.8-31.5,70.3-70.3,70.3s-70.3-31.5-70.3-70.3c0-38.8,31.5-70.3,70.3-70.3
				S2209.1,862.8,2209.1,901.6z"/>
		</g>
		<path class="st0" d="M1635.5,727.5c0,16.2,13.2,29.4,29.4,29.4c16.2,0,29.4-13.2,29.4-29.4c0-16.2-13.2-29.4-29.4-29.4
			C1648.7,698.1,1635.5,711.3,1635.5,727.5z"/>
		<path class="st0" d="M1788.3,415.4c0,9.7,7.8,17.5,17.5,17.5c9.7,0,17.5-7.8,17.5-17.5c0-9.7-7.8-17.5-17.5-17.5
			C1796.1,397.9,1788.3,405.7,1788.3,415.4z"/>
		
			<ellipse transform="matrix(0.3827 -0.9239 0.9239 0.3827 395.6258 2334.8955)" class="st0" cx="1945" cy="871.4" rx="25.2" ry="25.2"/>
		<path class="st0" d="M1161.2,377.6c0,13.8,11.2,24.9,24.9,24.9c13.8,0,24.9-11.2,24.9-24.9c0-13.8-11.2-24.9-24.9-24.9
			C1172.4,352.7,1161.2,363.8,1161.2,377.6z"/>
		
			<ellipse transform="matrix(0.7071 -0.7071 0.7071 0.7071 -56.798 618.0759)" class="st0" cx="717.7" cy="377.6" rx="24.1" ry="24.1"/>
		<path class="st0" d="M972,725.6c0,16.2,13.2,29.4,29.4,29.4c16.2,0,29.4-13.2,29.4-29.4c0-16.2-13.2-29.4-29.4-29.4
			C985.2,696.2,972,709.3,972,725.6z"/>
		<path class="st0" d="M1186.2,981.1c0,16.2,13.2,29.4,29.4,29.4c16.2,0,29.4-13.2,29.4-29.4c0-16.2-13.2-29.4-29.4-29.4
			C1199.3,951.7,1186.2,964.9,1186.2,981.1z"/>
		<path class="st0" d="M1318.3,696.2c0,10.5,8.5,19.1,19.1,19.1s19.1-8.5,19.1-19.1c0-10.5-8.5-19.1-19.1-19.1
			S1318.3,685.6,1318.3,696.2z"/>
		<path class="st0" d="M775.4,887.4c0,10.9,8.8,19.7,19.7,19.7c10.9,0,19.7-8.8,19.7-19.7c0-10.9-8.8-19.7-19.7-19.7
			C784.2,867.7,775.4,876.5,775.4,887.4z"/>
		
			<ellipse transform="matrix(0.9975 -7.088885e-02 7.088885e-02 0.9975 -61.3409 32.0107)" class="st0" cx="420.3" cy="880.2" rx="29.4" ry="29.4"/>
		<path class="st0" d="M525.6,567.3c0,16.2,13.2,29.4,29.4,29.4c16.2,0,29.4-13.2,29.4-29.4c0-16.2-13.2-29.4-29.4-29.4
			C538.8,537.9,525.6,551.1,525.6,567.3z"/>
		<path class="st0" d="M2240.4,827.3c0,16.2,13.2,29.4,29.4,29.4s29.4-13.2,29.4-29.4c0-16.2-13.2-29.4-29.4-29.4
			S2240.4,811,2240.4,827.3z"/>
		<g>
			<defs>
				
					<ellipse id="SVGID_3_" transform="matrix(0.1602 -0.9871 0.9871 0.1602 408.8443 1654.584)" cx="1176.8" cy="587" rx="89.9" ry="89.9"/>
			</defs>
			<clipPath id="SVGID_4_">
				<use xlink:href="#SVGID_3_"  style="overflow:visible;"/>
			</clipPath>
			<g class="st17">
				<path class="st10" d="M1145.7,531.4c24.6-13.1,53.3-1.4,55.5,33c2.1,34.4-22.1,46.5-45.4,44.2S1109.6,545.9,1145.7,531.4z"/>
				<path class="st10" d="M1160.5,622.7c0,13.5,11,24.5,24.5,24.5c13.5,0,24.5-11,24.5-24.5c0-13.5-11-24.5-24.5-24.5
					C1171.5,598.2,1160.5,609.2,1160.5,622.7z"/>
				<path class="st18" d="M1132.4,636.8l-83.7-2.9c0,0-65.2-20.4-67.2-20.9c-2-0.6-12-26.7-14.7-24.4c-2.6,2.2,5.8,13.1,2.4,15
					c-3.4,2-35.2-8.5-35.2-5.9c0.1,4.8,19.2,7.2,18.9,9.4c-0.4,2.3-19.7-4.3-21.7-0.8c-1.9,3.6,18.9,4.5,19.5,6.3
					c0.6,1.8-19.7,1.8-18.2,5.7c0.8,2.1,18-0.5,17.6,2.1c-0.5,2.6-13.4,6.7-12.2,8.9c1.2,2.3,10.4-4.9,17.4-3.9
					c7,1,12.5-2.1,23.2,2.8c10.7,4.9,46.2,26.7,70.1,29.2c23.9,2.5,76.8,8.1,76.8,8.1L1132.4,636.8z"/>
				<path class="st19" d="M1148.4,633c45.8,2.1,5.5,40.5,5.5,40.5l-67.7-9.6c-2-13.5,1.4-29.6,1.6-33.2
					C1101.9,629.8,1137.1,632.5,1148.4,633z"/>
				<path class="st8" d="M1183.8,625.7c0,0,19.7-0.4,30.2,11.1c10.5,11.4-16.5,100.5-18.4,115.1c-1.9,14.6,9.7,53.2,9.7,53.2
					s-62.1,12.5-79.9,0.8c0,0-1.9-104.6,0-115c1.9-10.4,17.8-52.7,21.6-56.8C1150.7,629.8,1183.8,625.7,1183.8,625.7z"/>
				<path class="st6" d="M1175,590.2c0,0,0.1,0.8,0.4,2.1c1.2,6.4,5.7,27.5,8.8,33.3c3.7,7-12.7,29.4-28.5,26.7
					c-4.7-0.8,4-20.6,3.6-22.7c-0.8-4-1.9-9.5-3-15.1c-0.6-3.2-1.3-6.4-1.9-9.4c-1.7-8.6-3.1-15.6-3.1-15.6L1175,590.2z"/>
				<path class="st8" d="M1175.3,592.3c-0.2-1.3-0.4-2.1-0.4-2.1l-23.7-0.6c0,0,1.4,7,3.1,15.6c0.6,3,1.2,6.2,1.8,9.3
					c3.7-0.5,7.5-2.3,11.3-5.7c4.2-3.7,6.9-8.1,8.6-12.8C1175.8,594.6,1175.5,593.3,1175.3,592.3z"/>
				<path class="st6" d="M1159,536.3c0,0,11.2-1.3,18.1,7.8c7,9.1,14.5,37.1-2.8,52.3c-17.4,15.2-34.5-2-37.1-20.3
					C1134.7,557.8,1133.7,535.7,1159,536.3z"/>
				<path class="st6" d="M1132.1,575.8c2.1,4,5.6,6.3,7.8,5c2.2-1.3,2.3-5.6,0.3-9.6c-2.1-4-5.6-6.3-7.8-5
					C1130.2,567.5,1130.1,571.8,1132.1,575.8z"/>
				<path class="st10" d="M1157.8,533.3c0,0,14.9,26.6,25.6,27.9c10.7,1.2,12.1,15.4,12.1,15.4s-3.8-32.6-14.4-38.9
					C1170.5,531.4,1157.8,533.3,1157.8,533.3z"/>
				<path class="st6" d="M1180.6,567.9c-0.9,4.7,0.9,9.1,3.9,9.7c3,0.6,6.2-2.7,7-7.4c0.9-4.7-0.9-9.1-3.9-9.7
					C1184.6,559.8,1181.4,563.2,1180.6,567.9z"/>
				<path class="st19" d="M1157.4,716c0,0,48.1-24.6,58.7-37.8c10.6-13.1,8.3-38.3-5.4-44.3c-13.7-6-69.2,49.6-69.2,49.6L1157.4,716
					z"/>
			</g>
		</g>
		<g>
			<defs>
				<path id="SVGID_5_" d="M1307.9,400.5c0,26.8,21.7,48.5,48.5,48.5s48.5-21.7,48.5-48.5c0-26.8-21.7-48.5-48.5-48.5
					S1307.9,373.7,1307.9,400.5z"/>
			</defs>
			<clipPath id="SVGID_6_">
				<use xlink:href="#SVGID_5_"  style="overflow:visible;"/>
			</clipPath>
			<g class="st20">
				<path class="st10" d="M1373.2,370.5c-13.3-7.1-28.8-0.7-29.9,17.8c-1.2,18.5,11.9,25.1,24.5,23.8
					C1380.4,410.9,1392.7,378.3,1373.2,370.5z"/>
				<path class="st10" d="M1351.3,400.8c0,3.5-2.8,6.3-6.3,6.3s-6.3-2.8-6.3-6.3c0-3.5,2.8-6.3,6.3-6.3S1351.3,397.3,1351.3,400.8z"
					/>
				<path class="st10" d="M1357.6,406.8c0,3.5-2.8,6.3-6.3,6.3c-3.5,0-6.3-2.8-6.3-6.3c0-3.5,2.8-6.3,6.3-6.3
					C1354.8,400.5,1357.6,403.3,1357.6,406.8z"/>
				<path class="st10" d="M1365.9,411.3c0,3.5-2.8,6.3-6.3,6.3c-3.5,0-6.3-2.8-6.3-6.3s2.8-6.3,6.3-6.3
					C1363.1,405,1365.9,407.8,1365.9,411.3z"/>
				<path class="st10" d="M1348.5,390.4c0,3.5-2.8,6.3-6.3,6.3s-6.3-2.8-6.3-6.3c0-3.5,2.8-6.3,6.3-6.3S1348.5,386.9,1348.5,390.4z"
					/>
				<path class="st10" d="M1350.7,379.5c0,3.5-2.8,6.3-6.3,6.3c-3.5,0-6.3-2.8-6.3-6.3c0-3.5,2.8-6.3,6.3-6.3
					C1347.9,373.2,1350.7,376.1,1350.7,379.5z"/>
				<path class="st10" d="M1358,372.6c0,3.5-2.8,6.3-6.3,6.3c-3.5,0-6.3-2.8-6.3-6.3c0-3.5,2.8-6.3,6.3-6.3
					C1355.2,366.3,1358,369.2,1358,372.6z"/>
				<path class="st10" d="M1367.7,369.8c0,3.5-2.8,6.3-6.3,6.3s-6.3-2.8-6.3-6.3c0-3.5,2.8-6.3,6.3-6.3S1367.7,366.3,1367.7,369.8z"
					/>
				<path class="st10" d="M1377.7,370.6c0,3.5-2.8,6.3-6.3,6.3c-3.5,0-6.3-2.8-6.3-6.3c0-3.5,2.8-6.3,6.3-6.3
					C1374.9,364.2,1377.7,367.1,1377.7,370.6z"/>
				<path class="st10" d="M1385.2,378.5c0,3.5-2.8,6.3-6.3,6.3c-3.5,0-6.3-2.8-6.3-6.3c0-3.5,2.8-6.3,6.3-6.3
					C1382.4,372.1,1385.2,375,1385.2,378.5z"/>
				<path class="st10" d="M1385,398.6c0,3.5-2.8,6.3-6.3,6.3s-6.3-2.8-6.3-6.3c0-3.5,2.8-6.3,6.3-6.3S1385,395.1,1385,398.6z"/>
				<path class="st10" d="M1378.7,408c0,3.5-2.8,6.3-6.3,6.3s-6.3-2.8-6.3-6.3c0-3.5,2.8-6.3,6.3-6.3S1378.7,404.5,1378.7,408z"/>
				<path class="st10" d="M1387.6,387.9c0,3.5-2.8,6.3-6.3,6.3c-3.5,0-6.3-2.8-6.3-6.3c0-3.5,2.8-6.3,6.3-6.3
					C1384.8,381.6,1387.6,384.4,1387.6,387.9z"/>
				<path class="st10" d="M1370,410.4c0,3.5-2.8,6.3-6.3,6.3c-3.5,0-6.3-2.8-6.3-6.3c0-3.5,2.8-6.3,6.3-6.3
					C1367.2,404.1,1370,406.9,1370,410.4z"/>
				<path class="st18" d="M1380.4,427.3l45.1-1.6c0,0,35.2-11,36.3-11.3c1.1-0.3,6.5-14.4,7.9-13.2c1.4,1.2-3.1,7.1-1.3,8.1
					c1.8,1.1,19-4.6,19-3.2c-0.1,2.6-10.4,3.9-10.2,5.1c0.2,1.2,10.6-2.3,11.7-0.4c1,1.9-10.2,2.4-10.5,3.4c-0.3,1,10.6,1,9.8,3.1
					c-0.4,1.1-9.7-0.3-9.5,1.1c0.3,1.4,7.2,3.6,6.6,4.8c-0.6,1.2-5.6-2.6-9.4-2.1c-3.8,0.5-6.8-1.1-12.5,1.5
					c-5.7,2.6-24.9,14.4-37.8,15.7c-12.9,1.3-41.4,4.4-41.4,4.4L1380.4,427.3z"/>
				<path class="st19" d="M1371.8,425.3c-24.7,1.2-3,21.9-3,21.9l36.5-5.2c1.1-7.3-0.8-16-0.9-17.9
					C1396.9,423.5,1377.9,425,1371.8,425.3z"/>
				<path class="st8" d="M1352.7,421.3c0,0-10.6-0.2-16.3,6c-5.6,6.2,8.9,54.2,9.9,62.1c1,7.9-5.2,28.7-5.2,28.7s33.5,6.8,43.1,0.4
					c0,0,1-56.5,0-62.1c-1-5.6-9.6-28.4-11.6-30.7C1370.5,423.5,1352.7,421.3,1352.7,421.3z"/>
				<path class="st21" d="M1357.4,402.2c0,0-0.1,0.4-0.2,1.1c-0.6,3.4-3.1,14.8-4.7,18c-2,3.8,6.8,15.9,15.4,14.4
					c2.5-0.4-2.1-11.1-1.9-12.2c0.4-2.2,1-5.1,1.6-8.1c0.3-1.7,0.7-3.4,1-5.1c0.9-4.6,1.7-8.4,1.7-8.4L1357.4,402.2z"/>
				<path class="st22" d="M1357.2,403.3c0.1-0.7,0.2-1.1,0.2-1.1l12.8-0.3c0,0-0.7,3.8-1.7,8.4c-0.3,1.6-0.7,3.3-1,5
					c-2-0.3-4-1.3-6.1-3.1c-2.3-2-3.7-4.3-4.6-6.9C1357,404.6,1357.1,403.9,1357.2,403.3z"/>
				<path class="st21" d="M1366,373.1c0,0-6-0.7-9.8,4.2c-3.8,4.9-7.8,20,1.5,28.2c9.4,8.2,18.6-1.1,20-10.9
					C1379.1,384.7,1379.7,372.8,1366,373.1z"/>
				<path class="st21" d="M1380.5,394.4c-1.1,2.2-3,3.4-4.2,2.7c-1.2-0.7-1.3-3-0.1-5.2c1.1-2.2,3-3.4,4.2-2.7
					C1381.6,389.9,1381.6,392.3,1380.5,394.4z"/>
				<path class="st10" d="M1366.7,371.5c0,0-8,14.4-13.8,15c-5.8,0.7-6.5,8.3-6.5,8.3s2.1-17.6,7.7-21
					C1359.8,370.4,1366.7,371.5,1366.7,371.5z"/>
				<path class="st21" d="M1354.4,390.1c0.5,2.6-0.5,4.9-2.1,5.2c-1.6,0.3-3.3-1.5-3.8-4c-0.5-2.6,0.5-4.9,2.1-5.2
					C1352.2,385.8,1353.9,387.6,1354.4,390.1z"/>
				<path class="st19" d="M1366.9,470c0,0-26-13.3-31.7-20.4c-5.7-7.1-4.5-20.7,2.9-23.9c7.4-3.3,37.4,26.8,37.4,26.8L1366.9,470z"
					/>
			</g>
		</g>
		<g>
			<defs>
				
					<ellipse id="SVGID_7_" transform="matrix(0.9436 -0.331 0.331 0.9436 -99.1511 654.0594)" cx="1870.7" cy="618.1" rx="97" ry="97"/>
			</defs>
			<clipPath id="SVGID_8_">
				<use xlink:href="#SVGID_7_"  style="overflow:visible;"/>
			</clipPath>
			<g class="st23">
				<path class="st8" d="M1904.3,558.2c-20.7-11-51.8-5.2-59.9,35.6c-4.8,24.3-16.8,49.9-16.8,49.9c31.4,14,65.1,14.6,92.1,9.9
					C1919.8,653.5,1943.2,573.7,1904.3,558.2z"/>
				<path class="st18" d="M1918.6,671.9l90.3-3.1c0,0,70.4-22,72.5-22.6c2.2-0.6,13-28.8,15.8-26.4c2.9,2.4-6.2,14.1-2.6,16.2
					c3.7,2.1,38-9.2,38-6.4c-0.1,5.2-20.8,7.7-20.4,10.2s21.3-4.7,23.4-0.8c2.1,3.8-20.4,4.8-21,6.8c-0.6,2,21.3,2,19.7,6.1
					c-0.9,2.2-19.5-0.5-19,2.3c0.5,2.8,14.4,7.2,13.2,9.7c-1.3,2.5-11.2-5.3-18.7-4.2c-7.5,1-13.5-2.2-25,3.1
					c-11.5,5.3-49.9,28.8-75.7,31.5c-25.8,2.7-82.8,8.7-82.8,8.7L1918.6,671.9z"/>
				<path class="st24" d="M1901.4,667.7c-49.4,2.3-6,43.7-6,43.7l73.1-10.4c2.2-14.6-1.6-32-1.7-35.8
					C1951.6,664.3,1913.6,667.2,1901.4,667.7z"/>
				<path class="st4" d="M1863.2,659.8c0,0-21.2-0.4-32.5,12c-11.3,12.3,17.8,108.5,19.8,124.2s-10.5,57.5-10.5,57.5
					s67.1,13.5,86.2,0.8c0,0,2.1-112.9,0-124.1c-2.1-11.2-19.2-56.8-23.3-61.3C1898.8,664.3,1863.2,659.8,1863.2,659.8z"/>
				<path class="st6" d="M1872.7,621.6c0,0-0.1,0.8-0.4,2.3c-1.3,6.9-6.2,29.7-9.5,36c-4,7.6,13.7,31.8,30.7,28.8
					c5.1-0.9-4.3-22.2-3.8-24.5c0.9-4.3,2-10.2,3.2-16.3c0.7-3.4,1.4-6.9,2-10.1c1.8-9.2,3.3-16.8,3.3-16.8L1872.7,621.6z"/>
				<path class="st25" d="M1872.2,623.9c0.3-1.4,0.4-2.3,0.4-2.3l25.5-0.6c0,0-1.5,7.6-3.3,16.8c-0.6,3.2-1.3,6.7-2,10.1
					c-3.9-0.6-8.1-2.5-12.2-6.1c-4.5-3.9-7.5-8.7-9.2-13.8C1871.8,626.3,1872,624.9,1872.2,623.9z"/>
				<path class="st6" d="M1889.8,563.4c0,0-12-1.4-19.6,8.4c-7.5,9.8-15.7,40,3.1,56.5c18.7,16.4,37.3-2.2,40-21.9
					C1916.1,586.6,1917.1,562.7,1889.8,563.4z"/>
				<path class="st6" d="M1918.9,606.1c-2.2,4.4-6,6.8-8.4,5.4c-2.4-1.4-2.5-6-0.3-10.4c2.2-4.4,6-6.8,8.4-5.4
					C1921,597.1,1921.1,601.7,1918.9,606.1z"/>
				<path class="st8" d="M1891.2,560.2c0,0-16.1,28.8-27.6,30.1c-11.5,1.3-13,16.6-13,16.6s4.1-35.2,15.5-42
					C1877.5,558.1,1891.2,560.2,1891.2,560.2z"/>
				<path class="st6" d="M1866.6,597.5c0.9,5.1-0.9,9.8-4.2,10.5c-3.3,0.7-6.7-2.9-7.6-8c-0.9-5.1,0.9-9.8,4.2-10.5
					C1862.3,588.8,1865.7,592.4,1866.6,597.5z"/>
				<path class="st24" d="M1891.7,757.3c0,0-51.9-26.6-63.4-40.8c-11.4-14.2-8.9-41.3,5.8-47.8c14.7-6.5,74.7,53.5,74.7,53.5
					L1891.7,757.3z"/>
			</g>
		</g>
		<g>
			<defs>
				<circle id="SVGID_9_" cx="2138.5" cy="899.7" r="67.3"/>
			</defs>
			<clipPath id="SVGID_10_">
				<use xlink:href="#SVGID_9_"  style="overflow:visible;"/>
			</clipPath>
			<g class="st26">
				<path class="st7" d="M2115.2,858.1c18.4-9.8,39.9-1,41.5,24.7c1.6,25.7-16.5,34.8-34,33.1
					C2105.4,914.1,2088.2,868.9,2115.2,858.1z"/>
				<path class="st7" d="M2126.3,926.4c0,10.1,8.2,18.3,18.3,18.3s18.3-8.2,18.3-18.3c0-10.1-8.2-18.3-18.3-18.3
					S2126.3,916.3,2126.3,926.4z"/>
				<path class="st18" d="M2105.3,936.9l-62.6-2.2c0,0-48.8-15.2-50.3-15.7c-1.5-0.4-9-20-11-18.3c-2,1.7,4.3,9.8,1.8,11.2
					c-2.5,1.5-26.4-6.3-26.3-4.4c0.1,3.6,14.4,5.4,14.1,7.1c-0.3,1.7-14.8-3.2-16.2-0.6c-1.4,2.7,14.2,3.4,14.6,4.7
					c0.4,1.4-14.8,1.4-13.6,4.2c0.6,1.6,13.5-0.4,13.2,1.6c-0.4,1.9-10,5-9.1,6.7c0.9,1.7,7.8-3.7,13-2.9c5.2,0.7,9.4-1.5,17.4,2.1
					c8,3.7,34.6,20,52.5,21.8c17.9,1.9,57.4,6.1,57.4,6.1L2105.3,936.9z"/>
				<path class="st12" d="M2117.2,934.1c34.3,1.6,4.1,30.3,4.1,30.3l-50.7-7.2c-1.5-10.1,1.1-22.2,1.2-24.8
					C2082.5,931.7,2108.8,933.7,2117.2,934.1z"/>
				<path class="st13" d="M2143.8,928.6c0,0,14.7-0.3,22.6,8.3c7.8,8.6-12.3,75.2-13.7,86.1c-1.4,10.9,7.3,39.8,7.3,39.8
					s-46.5,9.4-59.8,0.6c0,0-1.4-78.3,0-86.1c1.4-7.8,13.3-39.4,16.1-42.5C2119,931.7,2143.8,928.6,2143.8,928.6z"/>
				<path class="st6" d="M2137.2,902.1c0,0,0.1,0.6,0.3,1.6c0.9,4.8,4.3,20.6,6.6,24.9c2.8,5.3-9.5,22-21.3,20
					c-3.5-0.6,3-15.4,2.7-17c-0.6-3-1.4-7.1-2.2-11.3c-0.5-2.4-0.9-4.8-1.4-7c-1.3-6.4-2.3-11.7-2.3-11.7L2137.2,902.1z"/>
				<path class="st8" d="M2137.4,903.6c-0.2-1-0.3-1.6-0.3-1.6l-17.7-0.4c0,0,1,5.2,2.3,11.7c0.4,2.2,0.9,4.6,1.4,7
					c2.7-0.4,5.6-1.7,8.5-4.2c3.1-2.7,5.2-6,6.4-9.5C2137.8,905.3,2137.6,904.4,2137.4,903.6z"/>
				<path class="st6" d="M2125.2,861.7c0,0,8.3-1,13.6,5.8c5.2,6.8,10.9,27.7-2.1,39.1c-13,11.4-25.8-1.5-27.7-15.2
					C2107.1,877.8,2106.3,861.2,2125.2,861.7z"/>
				<path class="st6" d="M2105.1,891.3c1.6,3,4.2,4.7,5.8,3.7c1.7-1,1.7-4.2,0.2-7.2c-1.6-3-4.2-4.7-5.8-3.7
					C2103.7,885.1,2103.6,888.3,2105.1,891.3z"/>
				<path class="st7" d="M2124.3,859.5c0,0,11.1,19.9,19.1,20.9c8,0.9,9,11.5,9,11.5s-2.9-24.4-10.7-29.1
					C2133.8,858,2124.3,859.5,2124.3,859.5z"/>
				<path class="st6" d="M2141.3,885.4c-0.6,3.5,0.7,6.8,2.9,7.3c2.3,0.5,4.6-2,5.3-5.6c0.6-3.5-0.7-6.8-2.9-7.3
					C2144.3,879.3,2142,881.8,2141.3,885.4z"/>
				<path class="st12" d="M2124,996.2c0,0,36-18.4,43.9-28.3c7.9-9.8,6.2-28.6-4-33.2c-10.2-4.5-51.8,37.1-51.8,37.1L2124,996.2z"/>
			</g>
		</g>
		<g>
			<defs>
				
					<ellipse id="SVGID_11_" transform="matrix(0.1707 -0.9853 0.9853 0.1707 621.7438 1985.8079)" cx="1490.5" cy="623.6" rx="56.2" ry="56.2"/>
			</defs>
			<clipPath id="SVGID_12_">
				<use xlink:href="#SVGID_11_"  style="overflow:visible;"/>
			</clipPath>
			<g class="st27">
				<path class="st8" d="M1391.9,660.1c0,0,19.8-5.3,20.1-3.7c5.1,35,7.3,47.7,8.1,48c2.5,1.2,33.8-29,39.4-31.1
					c2.7-1,5.7-0.9,8.5-0.9c6.8,0,8.2,0,8.2,0c0.2,0,0.2,0,0.2,0l0.1,6.4c-7.5,7.1-14.8,144.2-16.3,144.1c-1.7,0-32.8-0.2-31.3-2.8
					c0,0,7.5-42.2,13.4-70c2-9.3,7.5-28.9,7.5-28.9c-7.6,4.1-37.3,19.7-42.1,17.8C1392.8,733.3,1391.9,660.1,1391.9,660.1z"/>
				<path class="st28" d="M1450.7,743.4c3.4-16.8,12.1-44.3,14.7-50.6c5.9-14.3,10.8-20.4,10.8-20.4l23.2,0.7c0,0,0.5,0.1,0.7,0.2
					c1.9,0.3,2,68,0.9,93.3c-1,25.3-6.6,58.2-6.6,58.2l-6.6-0.6c-0.1,3.4-0.2,5.7-0.2,5.7c-33.6,5.9-52.4-10.6-52.4-10.6
					S1446.2,765.2,1450.7,743.4z"/>
				<path class="st8" d="M1499.4,673.1c0,0,23-1.7,28.8-4.5c3.6-1.7,32.5-26.3,32.5-26.3l-2-63.8l20.7-2.1c0,0,12.6,70.2,9.1,78
					c-3.6,8.1-46,42-54.3,56.5c-4.8,8.3-0.2,121.4-1.8,122.5c-11,6.1-57.5,11.5-56.7,8C1495.7,743,1499.4,673.1,1499.4,673.1z"/>
				<path class="st6" d="M1498.2,652.6l1.2,20.5c0,0-14.3,26.3-22.1,22.9c-6.5-2.9-1.3-22.7-1.3-22.7s1-4.5,2.4-9.8
					c1-3.7,1.8-7.6,1.6-10.5C1479.7,646,1498.2,652.6,1498.2,652.6z"/>
				<path class="st8" d="M1480,653c-0.3-7,18.2-0.4,18.2-0.4l0.1,2c-0.6,0.9-1.3,1.8-2,2.4c-4.8,4.1-11.9,6.1-17.7,5.6
					C1479.5,659.2,1480.1,655.7,1480,653z"/>
				<g>
					<path class="st29" d="M1479,606.4c0,0-7.4,11.7-7.7,21.5c-0.3,9.7,1.9,16.3,1.9,16.3l23.8-30L1479,606.4z"/>
					<path class="st11" d="M1468.8,625.9c-0.3,3.4,1.1,6.3,3.1,6.4c2,0.2,3.8-2.5,4.1-5.9c0.3-3.4-1.1-6.3-3.1-6.4
						C1470.9,619.9,1469,622.5,1468.8,625.9z"/>
					<path class="st6" d="M1505.2,618.6c0.6-0.1,1.2,28.1-6.8,35c-8,6.9-22.3,7.8-26.6,1.2c-4.8-7.3-1.2-37.2,10.8-43.8
						C1494.6,604.4,1505.2,618.6,1505.2,618.6z"/>
					<path class="st29" d="M1506.8,601c6.4,5.3,9.5,9.2,14,18.9c5.5,11.8-4.5,24.5-13,29.7c-8.5,5.2-9.1,11.1-9.1,11.1l-0.5-3.7
						c-0.2-1.3-0.2-2.4,0-3.4c0.2-1.1,0.7-2,1.2-3c0.7-1.6,2.9-7.1,3.8-8.5c2.3-3.8,2.8-4.6,1.5-8.2c-1-2.7-0.1-8.8-1.6-13.3
						l-11.7-2.2c0,0-7.3-1.6-11.1-5.7C1469.3,600.9,1489.9,586.7,1506.8,601z"/>
					<path class="st6" d="M1502,637.2c-1.4,3.1-1,6.3,0.9,7.1c1.8,0.8,4.4-1.1,5.8-4.3c1.4-3.1,1-6.3-0.9-7.1
						C1506,632.1,1503.4,634,1502,637.2z"/>
				</g>
			</g>
		</g>
		<g>
			<defs>
				
					<ellipse id="SVGID_13_" transform="matrix(0.9665 -0.2567 0.2567 0.9665 -163.9447 130.6765)" cx="418.6" cy="693.4" rx="84.7" ry="84.7"/>
			</defs>
			<clipPath id="SVGID_14_">
				<use xlink:href="#SVGID_13_"  style="overflow:visible;"/>
			</clipPath>
			<g class="st30">
				<path class="st7" d="M269.9,748.4c0,0,29.9-8,30.3-5.6c7.7,52.8,11.1,71.9,12.1,72.4c3.7,1.8,50.9-43.7,59.4-46.9
					c4.1-1.5,8.6-1.4,12.9-1.4c10.3,0,12.3,0,12.3,0c0.3,0,0.4,0,0.4,0l0.2,9.6c-11.3,10.7-22.4,217.4-24.6,217.3
					c-2.5-0.1-49.4-0.3-47.2-4.2c0,0,11.3-63.6,20.3-105.6c3-14.1,11.4-43.5,11.4-43.5c-11.5,6.1-56.3,29.7-63.5,26.9
					C271.2,858.8,269.9,748.4,269.9,748.4z"/>
				<path class="st7" d="M358.5,874.1c5.1-25.3,18.3-66.9,22.2-76.3C389.5,776.2,397,767,397,767l35,1c0,0,0.8,0.2,1.1,0.3
					c2.9,0.5,2.9,102.5,1.4,140.6c-1.5,38.1-10,87.8-10,87.8l-10-0.9c-0.2,5.1-0.3,8.5-0.3,8.5c-50.7,8.9-79-16-79-16
					S351.8,906.9,358.5,874.1z"/>
				<path class="st7" d="M432,768c0,0,34.6-2.5,43.5-6.8c5.4-2.6,49-39.7,49-39.7l-3-96.1l31.3-3.2c0,0,19,105.8,13.7,117.6
					c-5.5,12.2-69.4,63.3-81.9,85.1c-7.2,12.6-0.4,183.1-2.7,184.6c-16.6,9.2-86.6,17.4-85.5,12C426.3,873.5,432,768,432,768z"/>
				<path class="st21" d="M430.2,737.2L432,768c0,0-21.6,39.6-33.4,34.5c-9.9-4.3-2-34.2-2-34.2s1.5-6.8,3.6-14.7
					c1.5-5.5,2.7-11.5,2.5-15.8C402.2,727.2,430.2,737.2,430.2,737.2z"/>
				<path class="st31" d="M402.7,737.8c-0.5-10.5,27.4-0.6,27.4-0.6l0.2,3c-0.9,1.4-1.9,2.6-3,3.6c-7.3,6.2-18,9.2-26.8,8.5
					C401.9,747.1,402.9,741.8,402.7,737.8z"/>
				<g>
					<path class="st29" d="M401.3,667.5c0,0-11.1,17.7-11.6,32.4c-0.5,14.7,2.9,24.6,2.9,24.6l35.9-45.2L401.3,667.5z"/>
					<path class="st31" d="M385.8,696.9c-0.4,5.1,1.7,9.5,4.7,9.7c3,0.2,5.7-3.8,6.1-8.9c0.4-5.1-1.7-9.5-4.7-9.7
						C388.9,687.8,386.2,691.8,385.8,696.9z"/>
					<path class="st21" d="M440.6,685.9c0.8-0.2,1.9,42.4-10.2,52.8c-12.1,10.4-33.6,11.8-40.1,1.9c-7.2-11-1.8-56.1,16.3-66.1
						C424.8,664.5,440.6,685.9,440.6,685.9z"/>
					<path class="st29" d="M443.1,659.4c9.6,8,14.4,13.9,21.1,28.5c8.3,17.9-6.8,37-19.6,44.8c-12.9,7.8-13.7,16.8-13.7,16.8
						l-0.7-5.5c-0.3-2-0.3-3.7,0-5.1c0.4-1.7,1.1-3.1,1.7-4.5c1-2.4,4.4-10.6,5.7-12.8c3.5-5.8,4.2-7,2.3-12.3
						c-1.5-4.1-0.1-13.3-2.5-20.1l-17.7-3.3c0,0-11.1-2.4-16.8-8.6C386.7,659.2,417.6,637.8,443.1,659.4z"/>
					<path class="st21" d="M435.9,713.9c-2,4.7-1.5,9.5,1.3,10.7c2.8,1.2,6.6-1.7,8.7-6.4c2-4.7,1.5-9.5-1.3-10.7
						C441.9,706.3,438,709.2,435.9,713.9z"/>
				</g>
			</g>
		</g>
		<g>
			<defs>
				<path id="SVGID_15_" d="M837.6,353.8c0,38.6,31.3,69.9,69.9,69.9c38.6,0,69.9-31.3,69.9-69.9c0-38.6-31.3-69.9-69.9-69.9
					C868.9,283.8,837.6,315.2,837.6,353.8z"/>
			</defs>
			<clipPath id="SVGID_16_">
				<use xlink:href="#SVGID_15_"  style="overflow:visible;"/>
			</clipPath>
			<g class="st32">
				<path class="st10" d="M1030.3,399.2c0,0-24.7-6.6-25-4.6c-6.4,43.6-9.1,59.3-10,59.8c-3.1,1.5-42-36.1-49.1-38.7
					c-3.4-1.3-7.1-1.2-10.6-1.2c-8.5,0-10.1,0-10.1,0c-0.2,0-0.3,0-0.3,0l-0.2,8c9.3,8.8,18.5,179.4,20.3,179.4
					c2.1,0,40.8-0.2,38.9-3.5c0,0-9.4-52.5-16.7-87.2c-2.5-11.6-9.4-35.9-9.4-35.9c9.5,5.1,46.4,24.5,52.4,22.2
					C1029.2,490.4,1030.3,399.2,1030.3,399.2z"/>
				<path class="st28" d="M957.2,502.9c-4.2-20.9-15.1-55.2-18.3-63c-7.3-17.9-13.5-25.4-13.5-25.4l-28.9,0.9c0,0-0.7,0.2-0.9,0.2
					c-2.4,0.4-2.4,84.6-1.2,116c1.3,31.5,8.3,72.4,8.3,72.4l8.2-0.8c0.1,4.2,0.2,7,0.2,7c41.8,7.4,65.2-13.2,65.2-13.2
					S962.7,530,957.2,502.9z"/>
				<path class="st10" d="M896.5,415.4c0,0-28.6-2.1-35.9-5.6c-4.4-2.1-40.4-32.7-40.4-32.7l2.5-79.3l-25.8-2.6
					c0,0-15.7,87.4-11.3,97.1c4.5,10,57.3,52.3,67.6,70.3c5.9,10.4,0.3,151.1,2.2,152.4c13.7,7.6,71.5,14.4,70.6,9.9
					C901.2,502.5,896.5,415.4,896.5,415.4z"/>
				<path class="st6" d="M898,389.9l-1.5,25.5c0,0,17.8,32.7,27.6,28.5c8.2-3.6,1.6-28.2,1.6-28.2s-1.2-5.7-3-12.2
					c-1.2-4.5-2.2-9.5-2.1-13C921.1,381.7,898,389.9,898,389.9z"/>
				<path class="st8" d="M920.7,390.4c0.4-8.7-22.7-0.5-22.7-0.5l-0.1,2.5c0.7,1.2,1.6,2.2,2.5,3c6,5.1,14.8,7.6,22.1,7
					C921.3,398.2,920.5,393.7,920.7,390.4z"/>
				<g>
					<path class="st8" d="M921.9,332.4c0,0,9.1,14.6,9.5,26.7c0.4,12.1-2.4,20.3-2.4,20.3L899.4,342L921.9,332.4z"/>
					<path class="st11" d="M934.6,356.7c0.3,4.2-1.4,7.8-3.9,8c-2.5,0.2-4.7-3.1-5-7.3c-0.3-4.2,1.4-7.8,3.9-8
						C932,349.2,934.3,352.5,934.6,356.7z"/>
					<path class="st6" d="M889.4,347.6c-0.7-0.2-1.6,35,8.4,43.5c10,8.5,27.7,9.7,33.1,1.5c6-9.1,1.5-46.3-13.5-54.5
						C902.5,329.9,889.4,347.6,889.4,347.6z"/>
					<path class="st8" d="M887.4,325.8c-8,6.6-11.9,11.5-17.4,23.5c-6.9,14.7,5.6,30.5,16.2,37c10.6,6.4,11.3,13.9,11.3,13.9
						l0.6-4.6c0.3-1.7,0.2-3,0-4.2c-0.3-1.4-0.9-2.6-1.4-3.8c-0.9-2-3.6-8.8-4.7-10.6c-2.9-4.8-3.5-5.8-1.9-10.2
						c1.2-3.4,0.1-11,2-16.6l14.6-2.7c0,0,9.1-1.9,13.9-7.1C933.9,325.5,908.4,307.9,887.4,325.8z"/>
					<path class="st6" d="M893.3,370.7c1.7,3.9,1.2,7.9-1.1,8.8c-2.3,1-5.5-1.4-7.2-5.3c-1.7-3.9-1.2-7.9,1.1-8.8
						C888.4,364.5,891.6,366.8,893.3,370.7z"/>
				</g>
			</g>
		</g>
		<g>
			<defs>
				
					<ellipse id="SVGID_17_" transform="matrix(0.9239 -0.3827 0.3827 0.9239 -221.8097 539.407)" cx="1245" cy="827.3" rx="41.1" ry="41.1"/>
			</defs>
			<clipPath id="SVGID_18_">
				<use xlink:href="#SVGID_17_"  style="overflow:visible;"/>
			</clipPath>
			<g class="st33">
				<path class="st7" d="M1172.9,853.9c0,0,14.5-3.9,14.7-2.7c3.7,25.6,5.4,34.8,5.9,35.1c1.8,0.9,24.7-21.2,28.8-22.7
					c2-0.7,4.2-0.7,6.2-0.7c5,0,6,0,6,0c0.1,0,0.2,0,0.2,0l0.1,4.7c-5.5,5.2-10.8,105.3-11.9,105.3c-1.2,0-23.9-0.1-22.9-2
					c0,0,5.5-30.8,9.8-51.2c1.5-6.8,5.5-21.1,5.5-21.1c-5.6,3-27.3,14.4-30.8,13C1173.6,907.4,1172.9,853.9,1172.9,853.9z"/>
				<path class="st28" d="M1215.9,914.8c2.5-12.3,8.9-32.4,10.7-37c4.3-10.5,7.9-14.9,7.9-14.9l17,0.5c0,0,0.4,0.1,0.5,0.1
					c1.4,0.2,1.4,49.6,0.7,68.1c-0.7,18.5-4.8,42.5-4.8,42.5l-4.8-0.5c-0.1,2.5-0.1,4.1-0.1,4.1c-24.6,4.3-38.3-7.8-38.3-7.8
					S1212.6,930.7,1215.9,914.8z"/>
				<path class="st7" d="M1251.5,863.4c0,0,16.8-1.2,21.1-3.3c2.6-1.3,23.7-19.2,23.7-19.2l-1.5-46.6l15.2-1.6c0,0,9.2,51.3,6.6,57
					c-2.7,5.9-33.6,30.7-39.7,41.2c-3.5,6.1-0.2,88.7-1.3,89.5c-8.1,4.5-42,8.4-41.4,5.8C1248.7,914.5,1251.5,863.4,1251.5,863.4z"
					/>
				<path class="st6" d="M1250.6,848.5l0.9,15c0,0-10.5,19.2-16.2,16.7c-4.8-2.1-1-16.6-1-16.6s0.7-3.3,1.8-7.1
					c0.7-2.7,1.3-5.6,1.2-7.7C1237,843.7,1250.6,848.5,1250.6,848.5z"/>
				<path class="st8" d="M1237.3,848.8c-0.3-5.1,13.3-0.3,13.3-0.3l0.1,1.5c-0.4,0.7-0.9,1.3-1.5,1.7c-3.5,3-8.7,4.5-13,4.1
					C1236.9,853.3,1237.4,850.7,1237.3,848.8z"/>
				<g>
					<path class="st10" d="M1236.6,814.7c0,0-5.4,8.6-5.6,15.7c-0.2,7.1,1.4,11.9,1.4,11.9l17.4-21.9L1236.6,814.7z"/>
					<path class="st11" d="M1229.1,829c-0.2,2.5,0.8,4.6,2.3,4.7c1.4,0.1,2.8-1.8,3-4.3c0.2-2.5-0.8-4.6-2.3-4.7
						C1230.6,824.6,1229.3,826.5,1229.1,829z"/>
					<path class="st6" d="M1255.7,823.7c0.4-0.1,0.9,20.5-4.9,25.6c-5.9,5-16.3,5.7-19.4,0.9c-3.5-5.3-0.9-27.2,7.9-32
						S1255.7,823.7,1255.7,823.7z"/>
					<path class="st10" d="M1256.8,810.8c4.7,3.9,7,6.8,10.2,13.8c4,8.7-3.3,17.9-9.5,21.7c-6.2,3.8-6.6,8.1-6.6,8.1l-0.3-2.7
						c-0.2-1-0.1-1.8,0-2.5c0.2-0.8,0.5-1.5,0.8-2.2c0.5-1.2,2.1-5.2,2.8-6.2c1.7-2.8,2-3.4,1.1-6c-0.7-2-0.1-6.4-1.2-9.7l-8.6-1.6
						c0,0-5.4-1.1-8.1-4.2C1229.5,810.7,1244.5,800.4,1256.8,810.8z"/>
					<path class="st6" d="M1253.4,837.2c-1,2.3-0.7,4.6,0.6,5.2c1.3,0.6,3.2-0.8,4.2-3.1c1-2.3,0.7-4.6-0.6-5.2
						C1256.2,833.5,1254.4,834.9,1253.4,837.2z"/>
				</g>
			</g>
		</g>
		<g>
			<defs>
				<path id="SVGID_19_" d="M1712,897.8c0,27.4,22.2,49.5,49.5,49.5c27.4,0,49.5-22.2,49.5-49.5c0-27.4-22.2-49.5-49.5-49.5
					C1734.2,848.2,1712,870.4,1712,897.8z"/>
			</defs>
			<clipPath id="SVGID_20_">
				<use xlink:href="#SVGID_19_"  style="overflow:visible;"/>
			</clipPath>
			<g class="st34">
				<path class="st8" d="M1848.5,930c0,0-17.5-4.7-17.7-3.3c-4.5,30.9-6.5,42-7.1,42.3c-2.2,1-29.8-25.6-34.7-27.4
					c-2.4-0.9-5-0.8-7.5-0.8c-6,0-7.2,0-7.2,0c-0.2,0-0.2,0-0.2,0l-0.1,5.6c6.6,6.3,13.1,127.1,14.4,127c1.5,0,28.9-0.2,27.6-2.5
					c0,0-6.6-37.2-11.8-61.7c-1.8-8.2-6.6-25.4-6.6-25.4c6.7,3.6,32.9,17.3,37.1,15.7C1847.7,994.5,1848.5,930,1848.5,930z"/>
				<path class="st28" d="M1796.7,1003.4c-3-14.8-10.7-39.1-13-44.6c-5.2-12.6-9.5-18-9.5-18l-20.5,0.6c0,0-0.5,0.1-0.6,0.2
					c-1.7,0.3-1.7,59.9-0.8,82.2c0.9,22.3,5.8,51.3,5.8,51.3l5.8-0.6c0.1,3,0.2,5,0.2,5c29.6,5.2,46.2-9.4,46.2-9.4
					S1800.6,1022.6,1796.7,1003.4z"/>
				<path class="st8" d="M1753.8,941.4c0,0-20.2-1.5-25.4-4c-3.1-1.5-28.6-23.2-28.6-23.2l1.8-56.2l-18.3-1.9c0,0-11.1,61.9-8,68.7
					c3.2,7.1,40.6,37,47.9,49.8c4.2,7.3,0.2,107,1.6,107.9c9.7,5.4,50.6,10.2,50,7C1757.1,1003.1,1753.8,941.4,1753.8,941.4z"/>
				<path class="st6" d="M1754.8,923.4l-1.1,18c0,0,12.6,23.2,19.5,20.2c5.8-2.5,1.2-20,1.2-20s-0.9-4-2.1-8.6
					c-0.9-3.2-1.6-6.7-1.5-9.2C1771.2,917.6,1754.8,923.4,1754.8,923.4z"/>
				<path class="st8" d="M1770.9,923.7c0.3-6.2-16-0.3-16-0.3l-0.1,1.8c0.5,0.8,1.1,1.5,1.8,2.1c4.3,3.6,10.5,5.4,15.6,4.9
					C1771.3,929.2,1770.7,926.1,1770.9,923.7z"/>
				<g>
					<path class="st29" d="M1771.7,882.6c0,0,6.5,10.3,6.8,18.9c0.3,8.6-1.7,14.4-1.7,14.4l-21-26.4L1771.7,882.6z"/>
					<path class="st11" d="M1780.7,899.9c0.2,3-1,5.5-2.8,5.7c-1.7,0.1-3.3-2.2-3.6-5.2c-0.2-3,1-5.5,2.8-5.7
						C1778.9,894.5,1780.5,896.9,1780.7,899.9z"/>
					<path class="st6" d="M1748.7,893.4c-0.5-0.1-1.1,24.8,6,30.8c7.1,6.1,19.6,6.9,23.4,1.1c4.2-6.4,1.1-32.8-9.5-38.6
						C1758,880.9,1748.7,893.4,1748.7,893.4z"/>
					<path class="st29" d="M1747.3,877.9c-5.6,4.7-8.4,8.1-12.4,16.6c-4.9,10.4,3.9,21.6,11.5,26.2c7.5,4.5,8,9.8,8,9.8l0.4-3.2
						c0.2-1.2,0.2-2.1,0-3c-0.2-1-0.6-1.8-1-2.7c-0.6-1.4-2.6-6.2-3.4-7.5c-2.1-3.4-2.5-4.1-1.3-7.2c0.9-2.4,0.1-7.8,1.4-11.7
						l10.3-1.9c0,0,6.5-1.4,9.8-5C1780.3,877.8,1762.1,865.3,1747.3,877.9z"/>
					<path class="st6" d="M1751.4,909.8c1.2,2.8,0.9,5.6-0.8,6.3c-1.6,0.7-3.9-1-5.1-3.8c-1.2-2.8-0.9-5.6,0.8-6.3
						C1748,905.3,1750.3,907,1751.4,909.8z"/>
				</g>
			</g>
		</g>
		<g>
			<defs>
				
					<ellipse id="SVGID_21_" transform="matrix(0.3827 -0.9239 0.9239 0.3827 88.5428 1932.7404)" cx="1490.5" cy="900.1" rx="100.8" ry="100.8"/>
			</defs>
			<clipPath id="SVGID_22_">
				<use xlink:href="#SVGID_21_"  style="overflow:visible;"/>
			</clipPath>
			<g class="st35">
				<path class="st10" d="M1465.6,1019.9c0,0,22.7-30.3,31-44.7c8.3-14.4-5.6-5-19.9-8.8c-5.4-1.4-0.9-30.9-11.1-20.6
					c-16.7,16.9-33.5,53.4-33.5,53.4L1465.6,1019.9z"/>
				<path class="st36" d="M1468.1,943.8c14.7-4.5,42.2-6.8,42.2-6.8s17.3-2.8,22.9-1.6c8.3,1.8,23.7,2.6,25.2,38.4
					c1,25.6,3.9,89,6.9,131.9l-105,6.4C1464.9,1046.2,1454.2,948,1468.1,943.8z"/>
				<path class="st6" d="M1495.9,906.4l16.5,30.3c0,0-12.4,22.2-24.2,22.7c-9.9,0.5-8.3-14.1-8.3-14.1s-1.6-18.9-6.3-27.3
					S1495.9,906.4,1495.9,906.4z"/>
				<path class="st8" d="M1494.4,918.5c-3.7,3.9-9.9,9.2-16.6,12.5c-1-4.7-2.3-9.6-4.2-12.9c-2.2-3.9,2.4-6.7,8-8.6
					c7.5-2,14.3-3.1,14.3-3.1l3.2,5.8C1498.3,914.3,1495.7,917.2,1494.4,918.5z"/>
				<g>
					<path class="st6" d="M1487.5,855.3c0.7-0.5,17,37.4,9.9,51.1c-7.1,13.6-25.7,22.7-35.1,16.1c-10.4-7.3-21.8-49.7-9.2-65.3
						C1465.5,841.7,1487.5,855.3,1487.5,855.3z"/>
					<path class="st7" d="M1453.1,834.5c12.8-0.9,22.7,4.3,26.5,6.7c5.7-0.9,14,0.1,25.3,10.7c13.9,13.1,11.7,32.4,3,44
						s-5.8,21.4-5.8,21.4l-3.2-4.6c-2.4-3.5-4-7.5-4.7-11.6c-0.4-2.5-0.6-5.3-0.2-7.7c1.1-6.4-8.3-7.9-12-12
						c-2.8-3.2-5.2-11.5-9.8-16.7l-4.7-3.7c0,0-9.5-3.9-16.7-0.1C1443.6,864.7,1436.7,835.6,1453.1,834.5z"/>
					<path class="st6" d="M1484.4,888.2c1.3,4.8,4.5,8.2,7.3,7.4c2.8-0.7,4-5.2,2.8-10.1c-1.3-4.8-4.5-8.2-7.3-7.4
						C1484.4,878.9,1483.1,883.4,1484.4,888.2z"/>
				</g>
				<path class="st0" d="M1471.1,903.9l-15.4,3.4c0,0,1.7,5.8,8.5,4.5C1472.5,910.2,1471.1,903.9,1471.1,903.9z"/>
				<path class="st10" d="M1521.1,1025.2c0,0,27.6-35.1,34.3-48.8c6.7-13.8-0.5-35.6-13.8-38.1c-13.4-2.6-52.1,60.3-52.1,60.3
					L1521.1,1025.2z"/>
			</g>
		</g>
		<g>
			<defs>
				<path id="SVGID_23_" d="M466.3,408c0,32.8,26.6,59.4,59.4,59.4c32.8,0,59.4-26.6,59.4-59.4c0-32.8-26.6-59.4-59.4-59.4
					C492.8,348.6,466.3,375.2,466.3,408z"/>
			</defs>
			<clipPath id="SVGID_24_">
				<use xlink:href="#SVGID_23_"  style="overflow:visible;"/>
			</clipPath>
			<g class="st37">
				<path class="st12" d="M540.3,478.6c0,0-13.4-17.9-18.3-26.3c-4.9-8.5,3.3-3,11.7-5.2c3.2-0.8,0.5-18.2,6.6-12.1
					c9.9,9.9,19.7,31.4,19.7,31.4L540.3,478.6z"/>
				<path class="st13" d="M538.9,433.7c-8.7-2.6-24.9-4-24.9-4s-10.2-1.7-13.5-0.9c-4.9,1.1-14,1.5-14.8,22.6
					c-0.6,15.1-2.3,52.5-4.1,77.7l61.9,3.8C540.7,494,547.1,436.2,538.9,433.7z"/>
				<path class="st6" d="M522.5,411.7l-9.7,17.9c0,0,7.3,13.1,14.2,13.4c5.8,0.3,4.9-8.3,4.9-8.3s0.9-11.1,3.7-16.1
					C538.4,413.6,522.5,411.7,522.5,411.7z"/>
				<path class="st8" d="M523.4,418.8c2.2,2.3,5.8,5.4,9.8,7.3c0.6-2.8,1.4-5.7,2.5-7.6c1.3-2.3-1.4-3.9-4.7-5
					c-4.4-1.2-8.4-1.8-8.4-1.8l-1.9,3.4C521.1,416.3,522.6,418.1,523.4,418.8z"/>
				<g>
					<path class="st6" d="M527.5,381.6c-0.4-0.3-10,22.1-5.8,30.1c4.2,8,15.1,13.3,20.7,9.5c6.1-4.3,12.8-29.3,5.4-38.4
						C540.4,373.6,527.5,381.6,527.5,381.6z"/>
					<path class="st29" d="M547.7,369.3c-7.5-0.5-13.4,2.5-15.6,3.9c-3.3-0.5-8.2,0-14.9,6.3c-8.2,7.7-6.9,19.1-1.8,25.9
						c5.1,6.8,3.4,12.6,3.4,12.6l1.9-2.7c1.4-2.1,2.4-4.4,2.8-6.9c0.2-1.5,0.4-3.1,0.1-4.5c-0.6-3.8,4.9-4.7,7.1-7.1
						c1.7-1.9,3.1-6.8,5.8-9.9l2.8-2.2c0,0,5.6-2.3,9.9,0C553.3,387.1,557.4,370,547.7,369.3z"/>
					<path class="st6" d="M529.3,401c-0.7,2.8-2.7,4.8-4.3,4.4c-1.6-0.4-2.4-3.1-1.6-5.9c0.7-2.8,2.7-4.8,4.3-4.4
						C529.3,395.5,530,398.1,529.3,401z"/>
				</g>
				<path class="st0" d="M537.1,410.2l9.1,2c0,0-1,3.4-5,2.6C536.3,413.9,537.1,410.2,537.1,410.2z"/>
				<path class="st12" d="M507.6,481.7c0,0-16.3-20.7-20.2-28.8c-4-8.1,0.3-20.9,8.2-22.5c7.9-1.5,30.7,35.5,30.7,35.5L507.6,481.7z
					"/>
			</g>
		</g>
		<g>
			<defs>
				
					<ellipse id="SVGID_25_" transform="matrix(0.9975 -7.088897e-02 7.088897e-02 0.9975 -41.8636 56.5193)" cx="775.4" cy="618.1" rx="95.1" ry="95.1"/>
			</defs>
			<clipPath id="SVGID_26_">
				<use xlink:href="#SVGID_25_"  style="overflow:visible;"/>
			</clipPath>
			<g class="st38">
				<path class="st39" d="M832.1,656.6c1.7,0.1,6.5,1.7,13.5,14.8c8.9,16.8,21.9,67.6,21.9,67.6l-38.8,14.5l-5-10.6l-8.2-81.6
					C815.5,661.3,831.6,656.6,832.1,656.6z"/>
				<path class="st28" d="M780.8,649.3c11.1,0,38.6,3.3,51.3,7.3c0,0,9.4,80.5-8.4,141.7c-4,13.7,3.3,56.8,3.3,56.8l-115-1.5
					c0,0,13.6-104.1,8.5-120.9c-5.1-16.8-5.3-75.4-5.3-75.4s0.8-0.1,25.8-4.5C752.7,650.7,768.9,649.3,780.8,649.3z"/>
				<path class="st6" d="M713.9,666.1c10.8-4,16,92.9,17.5,132.8c19,1.8,52.2,0,60.5-0.6c3.9-0.3,12.9-3.6,16.7-4.1
					c4-0.5,7.6-0.8,9.5-0.4c0.7,0.1,20.6,8.2,22.3,10c2.1,2.2,7.8,7.8,6.8,10.2c-1,2.4-11-6.7-11-6.7l-4.9-2.7
					c6.1,5.9,17.7,13.8,16,16.6c-1.6,2.8-12.1-5.2-19.5-10.6c6.4,5.8,14.3,16.1,12.5,17.7c-1.6,1.4-10.7-10.5-20.3-14
					c-3.6-1.3-7.1,2.3-10,2.7c-2.1,0.3-5.3,1-7.3,0.4l-10.5-3c-3.6,0.3-3.7,2.4-7.2,3.2c-4.2,0.9-11,1.8-16.3,3.1
					c-30.6,7.5-40.8,11-50.2,10.9C690.1,831.7,688.5,675.7,713.9,666.1z"/>
				<path class="st39" d="M693.5,757.1c-2-40.9-1.7-91.2,21.2-99.8c9-3.4,25,17,22.1,100.6C724.6,759,706.6,759.8,693.5,757.1z"/>
				<g>
					<path class="st40" d="M806.6,551c-3.3-1.1-6.5-2.3-9.6-3.8c-3.5-1.7-8.1-3.7-11-4.1c-6.1-0.9-16.5-0.3-22.2,5.9
						c-7.2,7.8-19.9,1.4-17.3,42.1c2.9,46.1,28.5,41,29.1,40.2c0.6-0.8,22.8-29.5,22.8-29.5s7.8,17,7.8,16.4
						C806.2,617.6,845.9,564.2,806.6,551z"/>
					<path class="st6" d="M787.1,634.7l2.2,16.5c0,0,5,23.7-1.4,28.3c-6.4,4.6-27.1-29-27.1-29l2.2-41.7L787.1,634.7z"/>
					<path class="st8" d="M762.3,622.3c5.3,14.2,17.8,23,26.7,26.4l-1.9-14L763,608.8L762.3,622.3z"/>
					<path class="st6" d="M785.8,563.4c13.5-2.2,25.6,8.7,25.3,22.2c-0.1,5.9-0.6,13.2-1.8,21.1c-2.9,19-15.9,35.7-24.5,34.2
						c-8.6-1.5-30.1-17.9-26.3-44.9C760.8,579.3,771.7,565.7,785.8,563.4z"/>
					<path class="st6" d="M764.4,599.2c-0.7,4.2-4.1,7.1-7.5,6.5s-5.6-4.5-4.9-8.6c0.7-4.2,4.1-7.1,7.5-6.5
						C762.9,591.2,765.1,595.1,764.4,599.2z"/>
					<path class="st40" d="M759.5,590.6c0,0,10.4,2.6,14.2-4.1c3.8-6.7,17.6-21.1,35.1-15.1c17.5,6-15.4-14.5-16.8-14.5
						c-1.4,0-18.2-0.1-18.2-0.1s-12.9,10.6-13.4,11.8c-0.5,1.2-4.2,13.9-4.2,13.9L759.5,590.6z"/>
				</g>
				<path class="st0" d="M778.5,618.4l18.9,3.6c0,0-1.8,7.1-10.1,5.8C777,626.1,778.5,618.4,778.5,618.4z"/>
			</g>
		</g>
		<g>
			<defs>
				
					<ellipse id="SVGID_27_" transform="matrix(0.7071 -0.7071 0.7071 0.7071 -328.7569 968.7439)" cx="1005" cy="881.2" rx="49.4" ry="49.4"/>
			</defs>
			<clipPath id="SVGID_28_">
				<use xlink:href="#SVGID_27_"  style="overflow:visible;"/>
			</clipPath>
			<g class="st41">
				<path class="st42" d="M1034.5,901.3c0.9,0,3.4,0.9,7,7.7c4.6,8.7,11.4,35.1,11.4,35.1l-20.2,7.5l-2.6-5.5l-4.3-42.4
					C1025.8,903.7,1034.2,901.3,1034.5,901.3z"/>
				<path class="st7" d="M1007.8,897.5c5.8,0,20,1.7,26.7,3.8c0,0,4.9,41.8-4.4,73.6c-2.1,7.1,1.7,29.5,1.7,29.5l-59.8-0.8
					c0,0,7.1-54.1,4.4-62.9c-2.7-8.7-2.7-39.2-2.7-39.2s0.4-0.1,13.4-2.3C993.2,898.2,1001.7,897.5,1007.8,897.5z"/>
				<path class="st6" d="M973.1,906.2c5.6-2.1,8.3,48.3,9.1,69c9.9,1,27.2,0,31.5-0.3c2-0.2,6.7-1.9,8.7-2.1
					c2.1-0.3,3.9-0.4,4.9-0.2c0.4,0.1,10.7,4.3,11.6,5.2c1.1,1.1,4.1,4,3.6,5.3c-0.5,1.3-5.7-3.5-5.7-3.5l-2.5-1.4
					c3.2,3.1,9.2,7.2,8.3,8.6c-0.8,1.4-6.3-2.7-10.2-5.5c3.3,3,7.5,8.4,6.5,9.2c-0.9,0.8-5.6-5.5-10.6-7.3c-1.9-0.7-3.7,1.2-5.2,1.4
					c-1.1,0.2-2.7,0.5-3.8,0.2l-5.4-1.5c-1.9,0.2-1.9,1.3-3.8,1.7c-2.2,0.5-5.7,0.9-8.5,1.6c-15.9,3.9-21.2,5.7-26.1,5.7
					C960.7,992.3,959.8,911.2,973.1,906.2z"/>
				<path class="st42" d="M962.4,953.5c-1-21.2-0.9-47.4,11-51.9c4.7-1.8,13,8.8,11.5,52.3C978.6,954.4,969.3,954.9,962.4,953.5z"/>
				<g>
					<path class="st40" d="M1021.2,846.4c-1.7-0.6-3.4-1.2-5-2c-1.8-0.9-4.2-1.9-5.7-2.1c-3.2-0.5-8.6-0.2-11.6,3.1
						c-3.7,4-10.3,0.7-9,21.9c1.5,23.9,14.8,21.3,15.1,20.9c0.3-0.4,11.9-15.3,11.9-15.3s4,8.8,4,8.5
						C1021,881,1041.7,853.2,1021.2,846.4z"/>
					<path class="st21" d="M1011.1,889.9l1.1,8.6c0,0,2.6,12.3-0.7,14.7c-3.3,2.4-14.1-15.1-14.1-15.1l1.1-21.7L1011.1,889.9z"/>
					<path class="st43" d="M998.2,883.4c2.7,7.4,9.3,11.9,13.9,13.7l-1-7.3l-12.5-13.5L998.2,883.4z"/>
					<path class="st21" d="M1010.4,852.8c7-1.1,13.3,4.5,13.1,11.5c-0.1,3.1-0.3,6.9-1,11c-1.5,9.9-8.3,18.6-12.7,17.8
						c-4.5-0.8-15.7-9.3-13.7-23.4C997.4,861.1,1003.1,854,1010.4,852.8z"/>
					<path class="st21" d="M999.3,871.4c-0.4,2.2-2.1,3.7-3.9,3.4c-1.8-0.3-2.9-2.3-2.5-4.5c0.4-2.2,2.1-3.7,3.9-3.4
						C998.5,867.2,999.7,869.3,999.3,871.4z"/>
					<path class="st40" d="M996.8,866.9c0,0,5.4,1.3,7.4-2.1c2-3.5,9.1-10.9,18.2-7.8c9.1,3.1-8-7.5-8.7-7.5c-0.7,0-9.5-0.1-9.5-0.1
						s-6.7,5.5-7,6.1c-0.2,0.6-2.2,7.2-2.2,7.2L996.8,866.9z"/>
				</g>
				<path class="st0" d="M1006.6,881.4l9.8,1.9c0,0-0.9,3.7-5.3,3C1005.9,885.4,1006.6,881.4,1006.6,881.4z"/>
			</g>
		</g>
		<g>
			<defs>
				
					<ellipse id="SVGID_29_" transform="matrix(0.2898 -0.9571 0.9571 0.2898 1028.6461 2130.4487)" cx="1949.8" cy="372.1" rx="67.2" ry="67.2"/>
			</defs>
			<clipPath id="SVGID_30_">
				<use xlink:href="#SVGID_29_"  style="overflow:visible;"/>
			</clipPath>
			<g class="st44">
				<path class="st9" d="M1895.6,469.2l31.3,3.2c0,0,1.4-25.7,1.4-37.9c0-14.9-1.3-34-3.1-33.6c-5,1.2-11.8,3.9-15.9,9.5
					C1895.5,429.6,1895.6,469.2,1895.6,469.2z"/>
				<path class="st8" d="M1911,431.8c-0.7,4.5-12.7,127.7-12.7,127.7c57,27.5,88.5,4.9,88.5,4.9s-1.9-86.5,0.4-98.2
					c1.5-7.8,3.3-59.5-1.7-61c-6.5-1.9-13.9-3.8-22-4.7c-6.9-0.7-33.7-1.1-38.5,0.5C1924.9,401,1913.7,412.8,1911,431.8z"/>
				<path class="st6" d="M1955.8,376.7l3.7,24.2c0,0-13.4,28.8-21.4,26.3c-6.7-2.1-2.6-27.6-2.6-27.6s3.7-13.7,2.6-20.6
					C1936.9,372.3,1955.8,376.7,1955.8,376.7z"/>
				<path class="st8" d="M1938,379.1c-1.1-6.9,17.8-2.4,17.8-2.4l0.3,2c-0.6,1.3-1.2,2.5-2,3.4c-4.2,4.5-10.8,7.3-16.5,7.5
					C1938.1,385.9,1938.4,381.9,1938,379.1z"/>
				<g>
					<path class="st6" d="M1958.9,342.5c0.5-0.2,4.3,27.6-2.8,35.2c-7.1,7.6-20.9,10.1-25.9,4.1c-5.5-6.7-5.2-36.5,5.8-44.4
						C1947,329.6,1958.9,342.5,1958.9,342.5z"/>
					<path class="st40" d="M1940.2,322.6c8.5,1.7,14.1,7,16.1,9.2c3.9,0.5,9.1,2.6,14.6,11.6c6.7,11.1,1.7,23.3-6,29.4
						c-7.8,6-7.7,13-7.7,13l-1.2-3.6c-0.9-2.7-1.3-5.6-1-8.5c0.2-1.7,0.5-3.6,1.3-5.1c1.9-4-4-6.7-5.7-10c-1.3-2.6-1.3-8.5-3.3-12.7
						l-2.4-3.3c0,0-5.5-4.3-10.9-3.1C1928.4,340.7,1929.2,320.4,1940.2,322.6z"/>
					<path class="st6" d="M1950.9,363.5c-0.1,3.4,1.5,6.2,3.4,6.2c2,0,3.6-2.7,3.6-6.1c0.1-3.4-1.5-6.2-3.4-6.2
						C1952.6,357.3,1950.9,360.1,1950.9,363.5z"/>
				</g>
				<path class="st0" d="M1939.3,371.3l-10.7-0.6c0,0,0,4.1,4.7,4.5C1939.1,375.7,1939.3,371.3,1939.3,371.3z"/>
				<path class="st45" d="M2043.2,560.8c0-0.3,0-0.5,0-0.8c-0.8-8.5-7.9-80.1-9.1-83.2c-1.1-2.7-32.8-48.2-32.8-48.2l-15.6,21.3
					l30.5,40.7c0.7,2.6,11.7,50.9,11.7,50.9s2.3,8.8,3.3,14.1c-0.5,1.3-0.9,2.5-1.3,3.5c-1,2.1-2.2,3.8-3.3,5.3
					c-1.4,1.8-3.6,5.8-3.9,6.9c-0.3,1.2-0.9,3.8-1.2,5.4c-0.3,1.6-0.8,3.4-0.9,4.2c0,0.5-0.6,1.5-1,2.3c-0.6,1.1,0.4,2.4,1.6,2
					c1.1-0.4,2-1.8,2.5-2.7c1.5-2.5,2.3-7.1,2.7-6.9c0.4,0.2,1.7,8.1,1.9,9c0.2,0.9,1.8,10,2.7,11.6c0.9,1.7,2.1,1.4,2.4,0.3
					c0.3-0.9-1-13.6-1-13.6s-0.2-1.6,0.6-1.1c0.7,0.5,1.9,12,2.4,13.7c0.5,1.7,1.6,2.6,2.6,1.2c1.2-1.7-0.8-13.9-0.8-13.9
					s-0.2-1.5,0.4-1.4c0.7,0.1,1.5,10,2,10.8c0.5,0.9,1.8,1.2,2.4-0.3c0.7-1.7-1.2-12.6-1.2-12.6s0.1-0.9,0.5-0.6
					c0.4,0.3,1.7,8.6,2.6,9.4c0.7,0.6,1.3,0,1.3,0c1.6-1.1-0.8-9-0.8-12.9c0-3.9-1.8-8.4-1.3-13.1
					C2043,562,2043.1,561.3,2043.2,560.8z"/>
				<path class="st8" d="M2026.1,457.4l-27.1,18.2c0,0-15.3-22.7-23.5-30.8c-10.3-10.1,3.7-41.2,10.4-39.5
					C2000.6,409.3,2026.1,457.4,2026.1,457.4z"/>
			</g>
		</g>
		<g>
			<defs>
				<path id="SVGID_31_" d="M2261.4,636.7c0,31.8-25.8,57.6-57.6,57.6c-31.8,0-57.6-25.8-57.6-57.6c0-31.8,25.8-57.6,57.6-57.6
					C2235.6,579.1,2261.4,604.9,2261.4,636.7z"/>
			</defs>
			<clipPath id="SVGID_32_">
				<use xlink:href="#SVGID_31_"  style="overflow:visible;"/>
			</clipPath>
			<g class="st46">
				<path class="st36" d="M2172.5,684.6c8.1-24.4,17.1-23.4,17.1-23.4l-7,51.3c-5-1.4-11.4-4.4-16.4-5.8
					C2167.8,699.1,2170.5,690.7,2172.5,684.6z"/>
				<path class="st7" d="M2175,621.1c2.5-16.1,17-27.6,32.2-19.8c3.4,1.8,8,5.3,10.4,8.3c6.4,8.2,8,18.3,14.6,26.3
					c-2.4,1.8-5.3,3.8-8.8,5.6l-4.1-5.5l1.4,6.8c-10.2,4.9-24.6,8.9-44.3,8.8C2173.9,640.5,2173.7,629.7,2175,621.1z"/>
				<path class="st10" d="M2210.2,656.9c0,0,13.1-1.7,18.9,4.7c5.9,6.4-11.3,57.9-12.3,66c-1.1,8.2,7.5,28.6,7.5,28.6
					s-37.4,7-47.3,0.4c0,0-0.6-57.4,0.5-63.3c1.1-5.8,10-29.5,12.1-31.9C2191.6,659.2,2210.2,656.9,2210.2,656.9z"/>
				<path class="st6" d="M2205.2,637c0,0,0.1,0.4,0.2,1.2c0.7,3.6,3.2,15.4,4.9,18.7c2.1,3.9-7.1,16.5-16,15
					c-2.6-0.5,2.2-11.5,2-12.7c-0.4-2.2-1.1-5.3-1.7-8.5c-0.3-1.8-0.7-3.6-1-5.3c-0.9-4.8-1.7-8.7-1.7-8.7L2205.2,637z"/>
				<path class="st47" d="M2205.4,638.2c-0.1-0.7-0.2-1.2-0.2-1.2l-13.3-0.3c0,0,0.8,3.9,1.7,8.7c0.3,1.7,0.7,3.5,1,5.2
					c2-0.3,4.2-1.3,6.3-3.2c2.3-2.1,3.9-4.5,4.8-7.2C2205.7,639.5,2205.5,638.7,2205.4,638.2z"/>
				<path class="st6" d="M2196.3,606.8c0,0,6.3-0.7,10.2,4.4c3.9,5.1,8.1,20.8-1.6,29.3c-9.7,8.5-19.4-1.1-20.8-11.4
					C2182.7,618.8,2182.1,606.4,2196.3,606.8z"/>
				<path class="st6" d="M2181.2,628.9c1.2,2.3,3.1,3.5,4.4,2.8c1.2-0.7,1.3-3.1,0.1-5.4c-1.2-2.3-3.1-3.5-4.4-2.8
					C2180.1,624.3,2180.1,626.7,2181.2,628.9z"/>
				<path class="st7" d="M2195.6,605.1c0,0,8.4,14.9,14.3,15.6c6,0.7,6.8,8.6,6.8,8.6s-2.1-18.3-8.1-21.8
					C2202.7,604,2195.6,605.1,2195.6,605.1z"/>
				<path class="st6" d="M2208.4,624.5c-0.5,2.7,0.5,5.1,2.2,5.4c1.7,0.3,3.5-1.5,3.9-4.2c0.5-2.7-0.5-5.1-2.2-5.4
					C2210.6,620,2208.9,621.8,2208.4,624.5z"/>
				<path class="st0" d="M2201,634.1l-9,1.8c0,0,0.9,3.4,4.9,2.7C2201.7,637.8,2201,634.1,2201,634.1z"/>
				<path class="st36" d="M2226.7,659.8c0,0,4.9,2.3,9.3,12.4c4.1,9.6,5.3,57.5,5.3,57.5l-18-3l-6.7-22.1
					c-2.1-8.7-4.4-28.9,4.2-40.7C2223.2,660.8,2225.3,658.9,2226.7,659.8z"/>
			</g>
		</g>
		<g>
			<defs>
				<path id="SVGID_33_" d="M664.2,930.7c0,37.4-30.3,67.7-67.7,67.7c-37.4,0-67.7-30.3-67.7-67.7c0-37.4,30.3-67.7,67.7-67.7
					C633.9,862.9,664.2,893.3,664.2,930.7z"/>
			</defs>
			<clipPath id="SVGID_34_">
				<use xlink:href="#SVGID_33_"  style="overflow:visible;"/>
			</clipPath>
			<g class="st48">
				<path class="st7" d="M628.9,921c0.4-9.5-1-18.8-5.2-27.6c-3.6-7.6-12.6-11.9-20.8-11.9c-26.1,0-29.4,34.4-46,47.7
					c-5.1,4.1-10.7,7.4-15.5,11.7c-17.7,16.2-9.7,46.1,6.5,60.3c11.3,9.8,29,15.4,42.9,7.7c7.3-4,12.8-10.7,16.7-18
					c5.6-10.4,9.2-22.3,13.1-33.4C624.8,945.8,628.3,933.6,628.9,921z"/>
				<path class="st8" d="M619.1,1008c0,0-19.5-20-24.5-28.6c-5-8.7,3.4-3,12-5.3c3.3-0.9,2.4-20,8.6-13.7c10.1,10.2,22.8,28,22.8,28
					L619.1,1008z"/>
				<path class="st9" d="M591.4,951.6c0,0-17.5-3.4-25.4,3.2c-8,6.7,1.7,65.9,1.7,75.7c0,9.8-5.5,35.5-5.5,35.5s52.9,11.4,61.4-3.4
					c0,0,2.4-56.1,2-63.2c-0.4-7.1-8.2-35.9-10.4-39C613.1,957.2,591.4,951.6,591.4,951.6z"/>
				<path class="st6" d="M591.3,924.5c0,0-0.1,0.5-0.3,1.4c-0.8,4.3-3.8,18.4-5.9,22.3c-2.5,4.7,8.5,19.7,19.1,17.9
					c3.2-0.5-2.7-13.8-2.4-15.2c0.5-2.7,1.3-6.3,2-10.1c0.4-2.1,0.8-4.3,1.2-6.3c1.1-5.7,2.1-10.4,2.1-10.4L591.3,924.5z"/>
				<path class="st8" d="M591.1,926c0.2-0.9,0.3-1.4,0.3-1.4l15.9-0.4c0,0-0.9,4.7-2.1,10.4c-0.4,2-0.8,4.1-1.2,6.2
					c-2.5-0.4-5-1.6-7.6-3.8c-2.8-2.4-4.6-5.4-5.7-8.5C590.8,927.5,591,926.6,591.1,926z"/>
				<path class="st6" d="M602,888.5c0,0-7.5-0.9-12.2,5.2c-4.7,6.1-9.8,24.8,1.9,35c11.7,10.2,23.2-1.3,24.9-13.6
					C618.4,902.9,619,888.1,602,888.5z"/>
				<path class="st7" d="M613.7,885.4c0,0-14.6,20.9-28.5,18.1l-0.4-8.9l1.3-3.4l7-4.5l11.4-2.6L613.7,885.4z"/>
				<path class="st6" d="M620.1,914.9c-1.4,2.7-3.7,4.2-5.2,3.3c-1.5-0.9-1.6-3.7-0.2-6.4c1.4-2.7,3.7-4.2,5.2-3.3
					C621.4,909.3,621.5,912.2,620.1,914.9z"/>
				<path class="st6" d="M587.6,909.6c0.6,3.2-0.6,6.1-2.6,6.5c-2,0.4-4.1-1.8-4.7-5c-0.6-3.2,0.6-6.1,2.6-6.5
					C584.9,904.2,587,906.4,587.6,909.6z"/>
				<path class="st0" d="M606.5,921.9l-11-0.6c0,0,0,4.2,4.9,4.6C606.3,926.4,606.5,921.9,606.5,921.9z"/>
				<path class="st0" d="M606.5,921.9l-11-0.6c0,0,0,4.2,4.9,4.6C606.3,926.4,606.5,921.9,606.5,921.9z"/>
				<path class="st8" d="M572.6,1007.3c0,0-11.5-25.4-13.2-35.3c-1.7-9.9,6.7-22.2,15.6-21.4c8.9,0.8,22.2,44.7,22.2,44.7
					L572.6,1007.3z"/>
			</g>
		</g>
	</g>
</g>
</svg>
